  0
SECTION
  2
HEADER
  9
$ACADVER
  1
AC1018
  9
$ACADMAINTVER
 70
     0
  9
$DWGCODEPAGE
  3
ASCII
  9
$INSBASE
 10
0.0
 20
0.0
 30
0.0
  9
$EXTMIN
 10
1.000000000000000E+20
 20
1.000000000000000E+20
 30
1.000000000000000E+20
  9
$EXTMAX
 10
-1.000000000000000E+20
 20
-1.000000000000000E+20
 30
-1.000000000000000E+20
  9
$LIMMIN
 10
0.0
 20
0.0
  9
$LIMMAX
 10
12.0
 20
9.0
  9
$ORTHOMODE
 70
     0
  9
$REGENMODE
 70
     1
  9
$FILLMODE
 70
     1
  9
$QTEXTMODE
 70
     0
  9
$MIRRTEXT
 70
     1
  9
$LTSCALE
 40
1.0
  9
$ATTMODE
 70
     1
  9
$TEXTSIZE
 40
0.2
  9
$TRACEWID
 40
0.05
  9
$TEXTSTYLE
  7
Standard
  9
$CLAYER
  8
0
  9
$CELTYPE
  6
ByLayer
  9
$CECOLOR
 62
   256
  9
$CELTSCALE
 40
1.0
  9
$DISPSILH
 70
     0
  9
$DIMSCALE
 40
1.0
  9
$DIMASZ
 40
0.18
  9
$DIMEXO
 40
0.0625
  9
$DIMDLI
 40
0.38
  9
$DIMRND
 40
0.0
  9
$DIMDLE
 40
0.0
  9
$DIMEXE
 40
0.18
  9
$DIMTP
 40
0.0
  9
$DIMTM
 40
0.0
  9
$DIMTXT
 40
0.18
  9
$DIMCEN
 40
0.09
  9
$DIMTSZ
 40
0.0
  9
$DIMTOL
 70
     0
  9
$DIMLIM
 70
     0
  9
$DIMTIH
 70
     1
  9
$DIMTOH
 70
     1
  9
$DIMSE1
 70
     0
  9
$DIMSE2
 70
     0
  9
$DIMTAD
 70
     0
  9
$DIMZIN
 70
     0
  9
$DIMBLK
  1

  9
$DIMASO
 70
     1
  9
$DIMSHO
 70
     1
  9
$DIMPOST
  1

  9
$DIMAPOST
  1

  9
$DIMALT
 70
     0
  9
$DIMALTD
 70
     2
  9
$DIMALTF
 40
25.4
  9
$DIMLFAC
 40
1.0
  9
$DIMTOFL
 70
     0
  9
$DIMTVP
 40
0.0
  9
$DIMTIX
 70
     0
  9
$DIMSOXD
 70
     0
  9
$DIMSAH
 70
     0
  9
$DIMBLK1
  1

  9
$DIMBLK2
  1

  9
$DIMSTYLE
  2
Standard
  9
$DIMCLRD
 70
     0
  9
$DIMCLRE
 70
     0
  9
$DIMCLRT
 70
     0
  9
$DIMTFAC
 40
1.0
  9
$DIMGAP
 40
0.09
  9
$DIMJUST
 70
     0
  9
$DIMSD1
 70
     0
  9
$DIMSD2
 70
     0
  9
$DIMTOLJ
 70
     1
  9
$DIMTZIN
 70
     0
  9
$DIMALTZ
 70
     0
  9
$DIMALTTZ
 70
     0
  9
$DIMUPT
 70
     0
  9
$DIMDEC
 70
     4
  9
$DIMTDEC
 70
     4
  9
$DIMALTU
 70
     2
  9
$DIMALTTD
 70
     2
  9
$DIMTXSTY
  7
Standard
  9
$DIMAUNIT
 70
     0
  9
$DIMADEC
 70
     0
  9
$DIMALTRND
 40
0.0
  9
$DIMAZIN
 70
     0
  9
$DIMDSEP
 70
    46
  9
$DIMATFIT
 70
     3
  9
$DIMFRAC
 70
     0
  9
$DIMLDRBLK
  1

  9
$DIMLUNIT
 70
     2
  9
$DIMLWD
 70
    -2
  9
$DIMLWE
 70
    -2
  9
$DIMTMOVE
 70
     0
  9
$LUNITS
 70
     2
  9
$LUPREC
 70
     4
  9
$SKETCHINC
 40
0.1
  9
$FILLETRAD
 40
0.5
  9
$AUNITS
 70
     0
  9
$AUPREC
 70
     0
  9
$MENU
  1
.
  9
$ELEVATION
 40
0.0
  9
$PELEVATION
 40
0.0
  9
$THICKNESS
 40
0.0
  9
$LIMCHECK
 70
     0
  9
$CHAMFERA
 40
0.5
  9
$CHAMFERB
 40
0.5
  9
$CHAMFERC
 40
1.0
  9
$CHAMFERD
 40
0.0
  9
$SKPOLY
 70
     0
  9
$TDCREATE
 40
2459369.6609375
  9
$TDUCREATE
 40
2459369.619270833
  9
$TDUPDATE
 40
2459369.660937511
  9
$TDUUPDATE
 40
2459369.619270845
  9
$TDINDWG
 40
0.0000000116
  9
$TDUSRTIMER
 40
0.0000000116
  9
$USRTIMER
 70
     1
  9
$ANGBASE
 50
0.0
  9
$ANGDIR
 70
     0
  9
$PDMODE
 70
     0
  9
$PDSIZE
 40
0.0
  9
$PLINEWID
 40
0.0
  9
$SPLFRAME
 70
     0
  9
$SPLINETYPE
 70
     6
  9
$SPLINESEGS
 70
     8
  9
$HANDSEED
  5
AF
  9
$SURFTAB1
 70
     6
  9
$SURFTAB2
 70
     6
  9
$SURFTYPE
 70
     6
  9
$SURFU
 70
     6
  9
$SURFV
 70
     6
  9
$UCSBASE
  2

  9
$UCSNAME
  2

  9
$UCSORG
 10
0.0
 20
0.0
 30
0.0
  9
$UCSXDIR
 10
1.0
 20
0.0
 30
0.0
  9
$UCSYDIR
 10
0.0
 20
1.0
 30
0.0
  9
$UCSORTHOREF
  2

  9
$UCSORTHOVIEW
 70
     0
  9
$UCSORGTOP
 10
0.0
 20
0.0
 30
0.0
  9
$UCSORGBOTTOM
 10
0.0
 20
0.0
 30
0.0
  9
$UCSORGLEFT
 10
0.0
 20
0.0
 30
0.0
  9
$UCSORGRIGHT
 10
0.0
 20
0.0
 30
0.0
  9
$UCSORGFRONT
 10
0.0
 20
0.0
 30
0.0
  9
$UCSORGBACK
 10
0.0
 20
0.0
 30
0.0
  9
$PUCSBASE
  2

  9
$PUCSNAME
  2

  9
$PUCSORG
 10
0.0
 20
0.0
 30
0.0
  9
$PUCSXDIR
 10
1.0
 20
0.0
 30
0.0
  9
$PUCSYDIR
 10
0.0
 20
1.0
 30
0.0
  9
$PUCSORTHOREF
  2

  9
$PUCSORTHOVIEW
 70
     0
  9
$PUCSORGTOP
 10
0.0
 20
0.0
 30
0.0
  9
$PUCSORGBOTTOM
 10
0.0
 20
0.0
 30
0.0
  9
$PUCSORGLEFT
 10
0.0
 20
0.0
 30
0.0
  9
$PUCSORGRIGHT
 10
0.0
 20
0.0
 30
0.0
  9
$PUCSORGFRONT
 10
0.0
 20
0.0
 30
0.0
  9
$PUCSORGBACK
 10
0.0
 20
0.0
 30
0.0
  9
$USERI1
 70
     0
  9
$USERI2
 70
     0
  9
$USERI3
 70
     0
  9
$USERI4
 70
     0
  9
$USERI5
 70
     0
  9
$USERR1
 40
0.0
  9
$USERR2
 40
0.0
  9
$USERR3
 40
0.0
  9
$USERR4
 40
0.0
  9
$USERR5
 40
0.0
  9
$WORLDVIEW
 70
     1
  9
$SHADEDGE
 70
     3
  9
$SHADEDIF
 70
    70
  9
$TILEMODE
 70
     1
  9
$MAXACTVP
 70
    64
  9
$PINSBASE
 10
0.0
 20
0.0
 30
0.0
  9
$PLIMCHECK
 70
     0
  9
$PEXTMIN
 10
1.000000000000000E+20
 20
1.000000000000000E+20
 30
1.000000000000000E+20
  9
$PEXTMAX
 10
-1.000000000000000E+20
 20
-1.000000000000000E+20
 30
-1.000000000000000E+20
  9
$PLIMMIN
 10
0.0
 20
0.0
  9
$PLIMMAX
 10
12.0
 20
9.0
  9
$UNITMODE
 70
     0
  9
$VISRETAIN
 70
     1
  9
$PLINEGEN
 70
     0
  9
$PSLTSCALE
 70
     1
  9
$TREEDEPTH
 70
  3020
  9
$CMLSTYLE
  2
Standard
  9
$CMLJUST
 70
     0
  9
$CMLSCALE
 40
1.0
  9
$PROXYGRAPHICS
 70
     1
  9
$MEASUREMENT
 70
     0
  9
$CELWEIGHT
370
    -1
  9
$ENDCAPS
280
     0
  9
$JOINSTYLE
280
     0
  9
$LWDISPLAY
290
     1
  9
$INSUNITS
 70
     1
  9
$HYPERLINKBASE
  1

  9
$STYLESHEET
  1

  9
$XEDIT
290
     1
  9
$CEPSNTYPE
380
     0
  9
$PSTYLEMODE
290
     1
  9
$FINGERPRINTGUID
  2
{90FABC9E-77A7-2C7B-A427-8CFEAF4345F4}
  9
$VERSIONGUID
  2
{FAEB1C32-E019-11D5-929B-00C0DF256EC4}
  9
$EXTNAMES
290
     1
  9
$PSVPSCALE
 40
0.0
  9
$OLESTARTUP
290
     0
  9
$SORTENTS
280
   127
  9
$INDEXCTL
280
     0
  9
$HIDETEXT
280
     1
  9
$XCLIPFRAME
290
     0
  9
$HALOGAP
280
     0
  9
$OBSCOLOR
 70
   257
  9
$OBSLTYPE
280
     0
  9
$INTERSECTIONDISPLAY
280
     0
  9
$INTERSECTIONCOLOR
 70
   257
  9
$DIMASSOC
280
     2
  9
$PROJECTNAME
  1

  0
ENDSEC
  0
SECTION
  2
CLASSES
  0
CLASS
  1
ACDBDICTIONARYWDFLT
  2
AcDbDictionaryWithDefault
  3
ObjectDBX Classes
 90
        0
 91
        3
280
     0
281
     0
  0
CLASS
  1
VISUALSTYLE
  2
AcDbVisualStyle
  3
ObjectDBX Classes
 90
     4095
 91
        3
280
     0
281
     0
  0
ENDSEC
  0
SECTION
  2
TABLES
  0
TABLE
  2
VPORT
  5
8
330
0
100
AcDbSymbolTable
 70
     1
  0
VPORT
  5
29
330
8
100
AcDbSymbolTableRecord
100
AcDbViewportTableRecord
  2
*Active
 70
     0
 10
0.0
 20
0.0
 11
1.0
 21
1.0
 12
0.0
 22
0.0
 13
0.0
 23
0.0
 14
0.5
 24
0.5
 15
0.5
 25
0.5
 16
0.0
 26
0.0
 36
1.0
 17
234.9995920894012
 27
185.0002854359956
 37
0.0
 40
370.0005708719911
 41
1.270266105458004
 42
50.0
 43
0.0
 44
0.0
 50
0.0
 51
0.0
 71
     0
 72
   100
 73
     1
 74
     3
 75
     0
 76
     0
 77
     0
 78
     0
281
     0
 65
     1
110
0.0
120
0.0
130
0.0
111
1.0
121
0.0
131
0.0
112
0.0
122
1.0
132
0.0
 79
     0
146
0.0
  0
ENDTAB
  0
TABLE
  2
LTYPE
  5
5
330
0
100
AcDbSymbolTable
 70
     1
  0
LTYPE
  5
14
330
5
100
AcDbSymbolTableRecord
100
AcDbLinetypeTableRecord
  2
ByBlock
 70
     0
  3

 72
    65
 73
     0
 40
0.0
  0
LTYPE
  5
15
330
5
100
AcDbSymbolTableRecord
100
AcDbLinetypeTableRecord
  2
ByLayer
 70
     0
  3

 72
    65
 73
     0
 40
0.0
  0
LTYPE
  5
16
330
5
100
AcDbSymbolTableRecord
100
AcDbLinetypeTableRecord
  2
Continuous
 70
     0
  3
Solid line
 72
    65
 73
     0
 40
0.0
  0
ENDTAB
  0
TABLE
  2
LAYER
  5
2
330
0
100
AcDbSymbolTable
 70
     1
  0
LAYER
  5
10
330
2
100
AcDbSymbolTableRecord
100
AcDbLayerTableRecord
  2
0
 70
     0
 62
     7
  6
Continuous
370
    -3
390
F
  0
ENDTAB
  0
TABLE
  2
STYLE
  5
3
330
0
100
AcDbSymbolTable
 70
     1
  0
STYLE
  5
11
330
3
100
AcDbSymbolTableRecord
100
AcDbTextStyleTableRecord
  2
Standard
 70
     0
 40
0.0
 41
1.0
 50
0.0
 71
     0
 42
0.2
  3
txt
  4

  0
ENDTAB
  0
TABLE
  2
VIEW
  5
6
330
0
100
AcDbSymbolTable
 70
     0
  0
ENDTAB
  0
TABLE
  2
UCS
  5
7
330
0
100
AcDbSymbolTable
 70
     0
  0
ENDTAB
  0
TABLE
  2
APPID
  5
9
330
0
100
AcDbSymbolTable
 70
     1
  0
APPID
  5
12
330
9
100
AcDbSymbolTableRecord
100
AcDbRegAppTableRecord
  2
ACAD
 70
     0
  0
ENDTAB
  0
TABLE
  2
DIMSTYLE
  5
A
330
0
100
AcDbSymbolTable
 70
     1
100
AcDbDimStyleTable
  0
DIMSTYLE
105
27
330
A
100
AcDbSymbolTableRecord
100
AcDbDimStyleTableRecord
  2
Standard
 70
     0
340
11
  0
ENDTAB
  0
TABLE
  2
BLOCK_RECORD
  5
1
330
0
100
AcDbSymbolTable
 70
     3
  0
BLOCK_RECORD
  5
1F
330
1
100
AcDbSymbolTableRecord
100
AcDbBlockTableRecord
  2
*Model_Space
340
22
  0
BLOCK_RECORD
  5
1B
330
1
100
AcDbSymbolTableRecord
100
AcDbBlockTableRecord
  2
*Paper_Space
340
1E
  0
BLOCK_RECORD
  5
23
330
1
100
AcDbSymbolTableRecord
100
AcDbBlockTableRecord
  2
*Paper_Space0
340
26
  0
BLOCK_RECORD
  5
3D
330
1
100
AcDbSymbolTableRecord
100
AcDbBlockTableRecord
  2
block 2
340
0
102
{BLKREFS
331
3E
102
}
  0
BLOCK_RECORD
  5
A2
330
1
100
AcDbSymbolTableRecord
100
AcDbBlockTableRecord
  2
block 3
340
0
102
{BLKREFS
331
A3
102
}
  0
ENDTAB
  0
ENDSEC
  0
SECTION
  2
BLOCKS
  0
BLOCK
  5
20
330
1F
100
AcDbEntity
  8
0
100
AcDbBlockBegin
  2
*Model_Space
 70
     0
 71
     0
 10
0.0
 20
0.0
 30
0.0
  3
*Model_Space
  1

  0
ENDBLK
  5
21
330
1F
100
AcDbEntity
  8
0
100
AcDbBlockEnd
  0
BLOCK
  5
1C
330
1B
100
AcDbEntity
 67
     1
  8
0
100
AcDbBlockBegin
  2
*Paper_Space
 70
     0
 71
     0
 10
0.0
 20
0.0
 30
0.0
  3
*Paper_Space
  1

  0
ENDBLK
  5
1D
330
1B
100
AcDbEntity
 67
     1
  8
0
100
AcDbBlockEnd
  0
BLOCK
  5
24
330
23
100
AcDbEntity
  8
0
100
AcDbBlockBegin
  2
*Paper_Space0
 70
     0
 71
     0
 10
0.0
 20
0.0
 30
0.0
  3
*Paper_Space0
  1

  0
ENDBLK
  5
25
330
23
100
AcDbEntity
  8
0
100
AcDbBlockEnd
  0
BLOCK
  5
3F
330
3D
100
AcDbEntity
  8
0
100
AcDbBlockBegin
  2
block 2
 70
     0
 71
     0
 10
0.0
 20
0.0
 30
0.0
  3
block 2
  1

  0
SPLINE
  5
41
330
3D
100
AcDbEntity
  8
0
 62
     7
420
 16777215
370
    25
100
AcDbSpline
210
0.0
220
0.0
230
1.0
 70
    11
 71
     3
 72
    17
 73
    13
 74
     0
 42
0.0000000001
 43
0.0000000001
 40
0.0
 40
0.0
 40
0.0
 40
0.0
 40
1.0
 40
1.0
 40
1.0
 40
2.0
 40
2.0
 40
2.0
 40
3.0
 40
3.0
 40
3.0
 40
4.0
 40
4.0
 40
4.0
 40
4.0
 10
187.9884771038076
 20
165.3777837536413
 30
0.0
 10
187.9884771038076
 20
166.3444781845253
 30
0.0
 10
188.7718923339681
 20
167.1278934146858
 30
0.0
 10
189.7382422550763
 20
167.1278934146858
 30
0.0
 10
190.7045921761845
 20
167.1278934146858
 30
0.0
 10
191.488007406345
 20
166.3444781845253
 30
0.0
 10
191.488007406345
 20
165.3777837536413
 30
0.0
 10
191.488007406345
 20
164.411433832533
 30
0.0
 10
190.7045921761845
 20
163.6276740925968
 30
0.0
 10
189.7382422550763
 20
163.6276740925968
 30
0.0
 10
188.7718923339681
 20
163.6276740925968
 30
0.0
 10
187.9884771038076
 20
164.411433832533
 30
0.0
 10
187.9884771038076
 20
165.3777837536413
 30
0.0
  0
SPLINE
  5
42
330
3D
100
AcDbEntity
  8
0
 62
     7
420
 16777215
370
    25
100
AcDbSpline
210
0.0
220
0.0
230
1.0
 70
    11
 71
     3
 72
    17
 73
    13
 74
     0
 42
0.0000000001
 43
0.0000000001
 40
0.0
 40
0.0
 40
0.0
 40
0.0
 40
1.0
 40
1.0
 40
1.0
 40
2.0
 40
2.0
 40
2.0
 40
3.0
 40
3.0
 40
3.0
 40
4.0
 40
4.0
 40
4.0
 40
4.0
 10
257.2502727238604
 20
165.3777837536413
 30
0.0
 10
257.2502727238604
 20
166.3444781845253
 30
0.0
 10
258.0336879540209
 20
167.1278934146858
 30
0.0
 10
259.000382384905
 20
167.1278934146858
 30
0.0
 10
259.9663877962374
 20
167.1278934146858
 30
0.0
 10
260.7501475361737
 20
166.3444781845253
 30
0.0
 10
260.7501475361737
 20
165.3777837536413
 30
0.0
 10
260.7501475361737
 20
164.411433832533
 30
0.0
 10
259.9663877962374
 20
163.6276740925968
 30
0.0
 10
259.000382384905
 20
163.6276740925968
 30
0.0
 10
258.0336879540209
 20
163.6276740925968
 30
0.0
 10
257.2502727238604
 20
164.411433832533
 30
0.0
 10
257.2502727238604
 20
165.3777837536413
 30
0.0
  0
SPLINE
  5
43
330
3D
100
AcDbEntity
  8
0
 62
     7
420
 16777215
370
    25
100
AcDbSpline
210
0.0
220
0.0
230
1.0
 70
    11
 71
     3
 72
    17
 73
    13
 74
     0
 42
0.0000000001
 43
0.0000000001
 40
0.0
 40
0.0
 40
0.0
 40
0.0
 40
1.0
 40
1.0
 40
1.0
 40
2.0
 40
2.0
 40
2.0
 40
3.0
 40
3.0
 40
3.0
 40
4.0
 40
4.0
 40
4.0
 40
4.0
 10
257.2502727238604
 20
205.2623695171154
 30
0.0
 10
257.2502727238604
 20
206.2287194382236
 30
0.0
 10
258.0336879540209
 20
207.0121346683841
 30
0.0
 10
259.000382384905
 20
207.0121346683841
 30
0.0
 10
259.9663877962374
 20
207.0121346683841
 30
0.0
 10
260.7501475361737
 20
206.2287194382236
 30
0.0
 10
260.7501475361737
 20
205.2623695171154
 30
0.0
 10
260.7501475361737
 20
204.2956750862313
 30
0.0
 10
259.9663877962374
 20
203.5122598560708
 30
0.0
 10
259.000382384905
 20
203.5122598560708
 30
0.0
 10
258.0336879540209
 20
203.5122598560708
 30
0.0
 10
257.2502727238604
 20
204.2956750862313
 30
0.0
 10
257.2502727238604
 20
205.2623695171154
 30
0.0
  0
SPLINE
  5
44
330
3D
100
AcDbEntity
  8
0
 62
     7
420
 16777215
370
    25
100
AcDbSpline
210
0.0
220
0.0
230
1.0
 70
    11
 71
     3
 72
    17
 73
    13
 74
     0
 42
0.0000000001
 43
0.0000000001
 40
0.0
 40
0.0
 40
0.0
 40
0.0
 40
1.0
 40
1.0
 40
1.0
 40
2.0
 40
2.0
 40
2.0
 40
3.0
 40
3.0
 40
3.0
 40
4.0
 40
4.0
 40
4.0
 40
4.0
 10
187.9881325940318
 20
205.2623695171154
 30
0.0
 10
187.9881325940318
 20
206.2287194382236
 30
0.0
 10
188.7718923339681
 20
207.0121346683841
 30
0.0
 10
189.7382422550763
 20
207.0121346683841
 30
0.0
 10
190.7045921761845
 20
207.0121346683841
 30
0.0
 10
191.488007406345
 20
206.2287194382236
 30
0.0
 10
191.488007406345
 20
205.2623695171154
 30
0.0
 10
191.488007406345
 20
204.2956750862313
 30
0.0
 10
190.7045921761845
 20
203.5122598560708
 30
0.0
 10
189.7382422550763
 20
203.5122598560708
 30
0.0
 10
188.7718923339681
 20
203.5122598560708
 30
0.0
 10
187.9881325940318
 20
204.2956750862313
 30
0.0
 10
187.9881325940318
 20
205.2623695171154
 30
0.0
  0
SPLINE
  5
45
330
3D
100
AcDbEntity
  8
0
 62
     7
420
 16777215
370
    35
100
AcDbSpline
210
0.0
220
0.0
230
1.0
 70
    11
 71
     3
 72
   101
 73
    97
 74
     0
 42
0.0000000001
 43
0.0000000001
 40
0.0
 40
0.0
 40
0.0
 40
0.0
 40
1.0
 40
1.0
 40
1.0
 40
2.0
 40
2.0
 40
2.0
 40
3.0
 40
3.0
 40
3.0
 40
4.0
 40
4.0
 40
4.0
 40
5.0
 40
5.0
 40
5.0
 40
6.0
 40
6.0
 40
6.0
 40
7.0
 40
7.0
 40
7.0
 40
8.0
 40
8.0
 40
8.0
 40
9.0
 40
9.0
 40
9.0
 40
10.0
 40
10.0
 40
10.0
 40
11.0
 40
11.0
 40
11.0
 40
12.0
 40
12.0
 40
12.0
 40
13.0
 40
13.0
 40
13.0
 40
14.0
 40
14.0
 40
14.0
 40
15.0
 40
15.0
 40
15.0
 40
16.0
 40
16.0
 40
16.0
 40
17.0
 40
17.0
 40
17.0
 40
18.0
 40
18.0
 40
18.0
 40
19.0
 40
19.0
 40
19.0
 40
20.0
 40
20.0
 40
20.0
 40
21.0
 40
21.0
 40
21.0
 40
22.0
 40
22.0
 40
22.0
 40
23.0
 40
23.0
 40
23.0
 40
24.0
 40
24.0
 40
24.0
 40
25.0
 40
25.0
 40
25.0
 40
26.0
 40
26.0
 40
26.0
 40
27.0
 40
27.0
 40
27.0
 40
28.0
 40
28.0
 40
28.0
 40
29.0
 40
29.0
 40
29.0
 40
30.0
 40
30.0
 40
30.0
 40
31.0
 40
31.0
 40
31.0
 40
32.0
 40
32.0
 40
32.0
 40
32.0
 10
245.181406258169
 20
219.0114101593647
 30
0.0
 10
244.645693556806
 20
219.0177835902169
 30
0.0
 10
243.5935607015245
 20
218.9728250644755
 30
0.0
 10
243.0557809415067
 20
218.9189092845634
 30
0.0
 10
243.0544029024035
 20
218.9187370296755
 30
0.0
 10
243.0530248633003
 20
218.9187370296755
 30
0.0
 10
243.0519913339729
 20
218.9185647747876
 30
0.0
 10
243.0519913339729
 20
218.9185647747876
 30
0.0
 10
235.3590880404445
 20
218.2455649277698
 30
0.0
 10
235.3590880404445
 20
218.2455649277698
 30
0.0
 10
235.3590880404445
 20
218.2455649277698
 30
0.0
 10
235.6670797800062
 20
214.7236414898055
 30
0.0
 10
235.6670797800062
 20
214.7236414898055
 30
0.0
 10
235.6670797800062
 20
214.7236414898055
 30
0.0
 10
231.6823074582599
 20
214.3749975966998
 30
0.0
 10
231.6823074582599
 20
214.3749975966998
 30
0.0
 10
231.6823074582599
 20
214.3749975966998
 30
0.0
 10
231.3741434638102
 20
217.896921034664
 30
0.0
 10
231.3741434638102
 20
217.896921034664
 30
0.0
 10
231.3741434638102
 20
217.896921034664
 30
0.0
 10
187.4109064646853
 20
214.0504693878998
 30
0.0
 10
187.4109064646853
 20
214.0504693878998
 30
0.0
 10
187.4072891120394
 20
214.050124878124
 30
0.0
 10
187.4036717593935
 20
214.0499526232361
 30
0.0
 10
187.4000544067477
 20
214.0497803683483
 30
0.0
 10
185.8671581593426
 20
213.9919027260145
 30
0.0
 10
184.1397861435007
 20
212.7945590002349
 30
0.0
 10
183.5477460937949
 20
211.3798296059279
 30
0.0
 10
183.5465403095797
 20
211.3770735277216
 30
0.0
 10
183.5451622704765
 20
211.3741451946273
 30
0.0
 10
183.5441287411491
 20
211.3713891164209
 30
0.0
 10
183.5420616824943
 20
211.3669104893356
 30
0.0
 10
183.5396501140637
 20
211.3626041171381
 30
0.0
 10
183.5372385456332
 20
211.3582977449407
 30
0.0
 10
182.3331768792255
 20
209.1635982182312
 30
0.0
 10
181.3344430391925
 20
206.1760094425268
 30
0.0
 10
180.6461125071517
 20
203.0097923480721
 30
0.0
 10
180.6461125071517
 20
203.0097923480721
 30
0.0
 10
184.***REMOVED***296685249
 20
202.3843348501142
 30
0.0
 10
184.***REMOVED***296685249
 20
202.3843348501142
 30
0.0
 10
184.***REMOVED***296685249
 20
202.3843348501142
 30
0.0
 10
183.4993424702956
 20
198.4452100736608
 30
0.0
 10
183.4993424702956
 20
198.4452100736608
 30
0.0
 10
183.4993424702956
 20
198.4452100736608
 30
0.0
 10
179.9634663864116
 20
199.0686005129639
 30
0.0
 10
179.9634663864116
 20
199.0686005129639
 30
0.0
 10
179.5540165178778
 20
195.902727928285
 30
0.0
 10
179.4892486800282
 20
192.8066185732049
 30
0.0
 10
179.8733770800409
 20
190.3683506350075
 30
0.0
 10
179.8738938447046
 20
190.3652500470253
 30
0.0
 10
179.8742383544804
 20
190.3619772041553
 30
0.0
 10
179.8745828642562
 20
190.3588766161731
 30
0.0
 10
179.8752718838078
 20
190.3526754402088
 30
0.0
 10
179.8757886484715
 20
190.3464742642444
 30
0.0
 10
179.8757886484715
 20
190.340445343168
 30
0.0
 10
179.8757886484715
 20
190.340445343168
 30
0.0
 10
180.6722952501122
 20
163.0940284498885
 30
0.0
 10
180.6722952501122
 20
163.0940284498885
 30
0.0
 10
184.472238077144
 20
159.8273867557892
 30
0.0
 10
192.0733295154227
 20
156.3275119434759
 30
0.0
 10
197.0017141130748
 20
155.5806147495499
 30
0.0
 10
197.0017141130748
 20
155.5806147495499
 30
0.0
 10
204.9533442482262
 20
155.3797655502607
 30
0.0
 10
204.9533442482262
 20
155.3797655502607
 30
0.0
 10
204.9533442482262
 20
155.3797655502607
 30
0.0
 10
204.9533442482262
 20
158.9864383930708
 30
0.0
 10
204.9533442482262
 20
158.9864383930708
 30
0.0
 10
204.9533442482262
 20
158.9864383930708
 30
0.0
 10
208.9534472549955
 20
158.9864383930708
 30
0.0
 10
208.9534472549955
 20
158.9864383930708
 30
0.0
 10
208.9534472549955
 20
158.9864383930708
 30
0.0
 10
208.9534472549955
 20
155.2788241859524
 30
0.0
 10
208.9534472549955
 20
155.2788241859524
 30
0.0
 10
208.9534472549955
 20
155.2788241859524
 30
0.0
 10
246.8181722029766
 20
154.3221205385665
 30
0.0
 10
246.8181722029766
 20
154.3221205385665
 30
0.0
 10
246.8181722029766
 20
154.3221205385665
 30
0.0
 10
246.8181722029766
 20
157.9281043618249
 30
0.0
 10
246.8181722029766
 20
157.9281043618249
 30
0.0
 10
246.8181722029766
 20
157.9281043618249
 30
0.0
 10
250.818275209746
 20
157.9281043618249
 30
0.0
 10
250.818275209746
 20
157.9281043618249
 30
0.0
 10
250.818275209746
 20
157.9281043618249
 30
0.0
 10
250.818275209746
 20
154.2211791742582
 30
0.0
 10
250.818275209746
 20
154.2211791742582
 30
0.0
 10
250.818275209746
 20
154.2211791742582
 30
0.0
 10
260.3825556053992
 20
153.9793333116493
 30
0.0
 10
260.3825556053992
 20
153.9793333116493
 30
0.0
 10
260.3825556053992
 20
153.9793333116493
 30
0.0
 10
269.6178291651671
 20
187.4694731265706
 30
0.0
 10
269.6178291651671
 20
187.4694731265706
 30
0.0
 10
269.6178291651671
 20
187.4694731265706
 30
0.0
 10
269.6178291651671
 20
194.5753317621424
 30
0.0
 10
269.6178291651671
 20
194.5753317621424
 30
0.0
 10
269.6178291651671
 20
208.0494536033064
 30
0.0
 10
258.6558726091088
 20
219.0114101593647
 30
0.0
 10
245.181406258169
 20
219.0114101593647
 30
0.0
  0
ENDBLK
  5
40
330
3D
100
AcDbEntity
  8
0
100
AcDbBlockEnd
  0
BLOCK
  5
A4
330
A2
100
AcDbEntity
  8
0
100
AcDbBlockBegin
  2
block 3
 70
     0
 71
     0
 10
0.0
 20
0.0
 30
0.0
  3
block 3
  1

  0
SPLINE
  5
A6
330
A2
100
AcDbEntity
  8
0
 62
     7
420
 16777215
370
    25
100
AcDbSpline
210
0.0
220
0.0
230
1.0
 70
    11
 71
     3
 72
    17
 73
    13
 74
     0
 42
0.0000000001
 43
0.0000000001
 40
0.0
 40
0.0
 40
0.0
 40
0.0
 40
1.0
 40
1.0
 40
1.0
 40
2.0
 40
2.0
 40
2.0
 40
3.0
 40
3.0
 40
3.0
 40
4.0
 40
4.0
 40
4.0
 40
4.0
 10
262.4975011190119
 20
271.5880805729454
 30
0.0
 10
262.4975011190119
 20
269.93064404159
 30
0.0
 10
261.1539129934068
 20
268.5874004257607
 30
0.0
 10
259.4975099913788
 20
268.5874004257607
 30
0.0
 10
257.8404179697993
 20
268.5874004257607
 30
0.0
 10
256.4975188637458
 20
269.93064404159
 30
0.0
 10
256.4975188637458
 20
271.5880805729454
 30
0.0
 10
256.4975188637458
 20
273.2448280847491
 30
0.0
 10
257.8404179697993
 20
274.58876072013
 30
0.0
 10
259.4975099913788
 20
274.58876072013
 30
0.0
 10
261.1539129934068
 20
274.58876072013
 30
0.0
 10
262.4975011190119
 20
273.2448280847491
 30
0.0
 10
262.4975011190119
 20
271.5880805729454
 30
0.0
  0
SPLINE
  5
A7
330
A2
100
AcDbEntity
  8
0
 62
     7
420
 16777215
370
    25
100
AcDbSpline
210
0.0
220
0.0
230
1.0
 70
    11
 71
     3
 72
    17
 73
    13
 74
     0
 42
0.0000000001
 43
0.0000000001
 40
0.0
 40
0.0
 40
0.0
 40
0.0
 40
1.0
 40
1.0
 40
1.0
 40
2.0
 40
2.0
 40
2.0
 40
3.0
 40
3.0
 40
3.0
 40
4.0
 40
4.0
 40
4.0
 40
4.0
 10
193.235705498959
 20
271.5880805729454
 30
0.0
 10
193.235705498959
 20
269.9309885513658
 30
0.0
 10
191.8924618831298
 20
268.5877449355365
 30
0.0
 10
190.2353698615502
 20
268.5877449355365
 30
0.0
 10
188.579311369298
 20
268.5877449355365
 30
0.0
 10
187.2353787339171
 20
269.9309885513658
 30
0.0
 10
187.2353787339171
 20
271.5880805729454
 30
0.0
 10
187.2353787339171
 20
273.2448280847491
 30
0.0
 10
188.579311369298
 20
274.5884162103542
 30
0.0
 10
190.2353698615502
 20
274.5884162103542
 30
0.0
 10
191.8924618831298
 20
274.5884162103542
 30
0.0
 10
193.235705498959
 20
273.2448280847491
 30
0.0
 10
193.235705498959
 20
271.5880805729454
 30
0.0
  0
SPLINE
  5
A8
330
A2
100
AcDbEntity
  8
0
 62
     7
420
 16777215
370
    25
100
AcDbSpline
210
0.0
220
0.0
230
1.0
 70
    11
 71
     3
 72
    17
 73
    13
 74
     0
 42
0.0000000001
 43
0.0000000001
 40
0.0
 40
0.0
 40
0.0
 40
0.0
 40
1.0
 40
1.0
 40
1.0
 40
2.0
 40
2.0
 40
2.0
 40
3.0
 40
3.0
 40
3.0
 40
4.0
 40
4.0
 40
4.0
 40
4.0
 10
193.2353609891832
 20
231.7031502996955
 30
0.0
 10
193.2353609891832
 20
230.0464027878917
 30
0.0
 10
191.892117373354
 20
228.7035036818383
 30
0.0
 10
190.2350253517744
 20
228.7035036818383
 30
0.0
 10
188.5789668595222
 20
228.7035036818383
 30
0.0
 10
187.2350342241413
 20
230.0464027878917
 30
0.0
 10
187.2350342241413
 20
231.7031502996955
 30
0.0
 10
187.2350342241413
 20
233.3605868310509
 30
0.0
 10
188.5789668595222
 20
234.7034859371043
 30
0.0
 10
190.2350253517744
 20
234.7034859371043
 30
0.0
 10
191.892117373354
 20
234.7034859371043
 30
0.0
 10
193.2353609891832
 20
233.3605868310509
 30
0.0
 10
193.2353609891832
 20
231.7031502996955
 30
0.0
  0
SPLINE
  5
A9
330
A2
100
AcDbEntity
  8
0
 62
     7
420
 16777215
370
    25
100
AcDbSpline
210
0.0
220
0.0
230
1.0
 70
    11
 71
     3
 72
    17
 73
    13
 74
     0
 42
0.0000000001
 43
0.0000000001
 40
0.0
 40
0.0
 40
0.0
 40
0.0
 40
1.0
 40
1.0
 40
1.0
 40
2.0
 40
2.0
 40
2.0
 40
3.0
 40
3.0
 40
3.0
 40
4.0
 40
4.0
 40
4.0
 40
4.0
 10
262.4975011190119
 20
231.7034948094713
 30
0.0
 10
262.4975011190119
 20
230.0467472976675
 30
0.0
 10
261.1539129934068
 20
228.7035036818383
 30
0.0
 10
259.4975099913788
 20
228.7035036818383
 30
0.0
 10
257.8404179697993
 20
228.7035036818383
 30
0.0
 10
256.4975188637458
 20
230.0467472976675
 30
0.0
 10
256.4975188637458
 20
231.7034948094713
 30
0.0
 10
256.4975188637458
 20
233.3605868310509
 30
0.0
 10
257.8404179697993
 20
234.7034859371043
 30
0.0
 10
259.4975099913788
 20
234.7034859371043
 30
0.0
 10
261.1539129934068
 20
234.7034859371043
 30
0.0
 10
262.4975011190119
 20
233.3605868310509
 30
0.0
 10
262.4975011190119
 20
231.7034948094713
 30
0.0
  0
SPLINE
  5
AA
330
A2
100
AcDbEntity
  8
0
 62
     7
420
 16777215
370
    35
100
AcDbSpline
210
0.0
220
0.0
230
1.0
 70
    11
 71
     3
 72
   101
 73
    97
 74
     0
 42
0.0000000001
 43
0.0000000001
 40
0.0
 40
0.0
 40
0.0
 40
0.0
 40
1.0
 40
1.0
 40
1.0
 40
2.0
 40
2.0
 40
2.0
 40
3.0
 40
3.0
 40
3.0
 40
4.0
 40
4.0
 40
4.0
 40
5.0
 40
5.0
 40
5.0
 40
6.0
 40
6.0
 40
6.0
 40
7.0
 40
7.0
 40
7.0
 40
8.0
 40
8.0
 40
8.0
 40
9.0
 40
9.0
 40
9.0
 40
10.0
 40
10.0
 40
10.0
 40
11.0
 40
11.0
 40
11.0
 40
12.0
 40
12.0
 40
12.0
 40
13.0
 40
13.0
 40
13.0
 40
14.0
 40
14.0
 40
14.0
 40
15.0
 40
15.0
 40
15.0
 40
16.0
 40
16.0
 40
16.0
 40
17.0
 40
17.0
 40
17.0
 40
18.0
 40
18.0
 40
18.0
 40
19.0
 40
19.0
 40
19.0
 40
20.0
 40
20.0
 40
20.0
 40
21.0
 40
21.0
 40
21.0
 40
22.0
 40
22.0
 40
22.0
 40
23.0
 40
23.0
 40
23.0
 40
24.0
 40
24.0
 40
24.0
 40
25.0
 40
25.0
 40
25.0
 40
26.0
 40
26.0
 40
26.0
 40
27.0
 40
27.0
 40
27.0
 40
28.0
 40
28.0
 40
28.0
 40
29.0
 40
29.0
 40
29.0
 40
30.0
 40
30.0
 40
30.0
 40
31.0
 40
31.0
 40
31.0
 40
32.0
 40
32.0
 40
32.0
 40
32.0
 10
204.0543459882861
 20
217.954454167222
 30
0.0
 10
204.5900586896491
 20
217.9479084814819
 30
0.0
 10
205.6421915449306
 20
217.9930392621112
 30
0.0
 10
206.1799713049485
 20
218.0471272969112
 30
0.0
 10
206.1813493440517
 20
218.0471272969112
 30
0.0
 10
206.1827273831548
 20
218.0471272969112
 30
0.0
 10
206.1837609124822
 20
218.0471272969112
 30
0.0
 10
206.1837609124822
 20
218.0471272969112
 30
0.0
 10
213.8766642060107
 20
218.7202993988169
 30
0.0
 10
213.8766642060107
 20
218.7202993988169
 30
0.0
 10
213.8766642060107
 20
218.7202993988169
 30
0.0
 10
213.5686724664489
 20
222.2422228367811
 30
0.0
 10
213.5686724664489
 20
222.2422228367811
 30
0.0
 10
213.5686724664489
 20
222.2422228367811
 30
0.0
 10
217.5534447881953
 20
222.5908667298869
 30
0.0
 10
217.5534447881953
 20
222.5908667298869
 30
0.0
 10
217.5534447881953
 20
222.5908667298869
 30
0.0
 10
217.8616087826449
 20
219.0689432919226
 30
0.0
 10
217.8616087826449
 20
219.0689432919226
 30
0.0
 10
217.8616087826449
 20
219.0689432919226
 30
0.0
 10
261.8250180366578
 20
222.9153949386869
 30
0.0
 10
261.8250180366578
 20
222.9153949386869
 30
0.0
 10
261.8284631344157
 20
222.9157394484626
 30
0.0
 10
261.8319082321736
 20
222.9157394484626
 30
0.0
 10
261.8353533299316
 20
222.9160839582384
 30
0.0
 10
263.3684218322246
 20
222.9739616005722
 30
0.0
 10
265.0957938480666
 20
224.1711330714639
 30
0.0
 10
265.6876616428844
 20
225.5860347206587
 30
0.0
 10
265.6890396819876
 20
225.5887907988651
 30
0.0
 10
265.6904177210907
 20
225.5918913868473
 30
0.0
 10
265.6917957601939
 20
225.5946474650536
 30
0.0
 10
265.6938628188487
 20
225.5987815823632
 30
0.0
 10
265.6959298775035
 20
225.6032602094486
 30
0.0
 10
265.6986859557099
 20
225.6077388365339
 30
0.0
 10
266.9024031123417
 20
227.8022661083555
 30
0.0
 10
267.9014814621506
 20
230.7898548840599
 30
0.0
 10
268.5898119941913
 20
233.9558997236267
 30
0.0
 10
268.5898119941913
 20
233.9558997236267
 30
0.0
 10
265.0420503230424
 20
234.5815294764725
 30
0.0
 10
265.0420503230424
 20
234.5815294764725
 30
0.0
 10
265.0420503230424
 20
234.5815294764725
 30
0.0
 10
265.7365820310475
 20
238.5206542529259
 30
0.0
 10
265.7365820310475
 20
238.5206542529259
 30
0.0
 10
265.7365820310475
 20
238.5206542529259
 30
0.0
 10
269.2719413502678
 20
237.8970915587348
 30
0.0
 10
269.2719413502678
 20
237.8970915587348
 30
0.0
 10
269.6819079834652
 20
241.0631363983016
 30
0.0
 10
269.7466758213149
 20
244.1592457533818
 30
0.0
 10
269.3622029115263
 20
246.5973414366913
 30
0.0
 10
269.3615138919748
 20
246.6007865344492
 30
0.0
 10
269.3615138919748
 20
246.6038871224314
 30
0.0
 10
269.3608248724232
 20
246.6069877104136
 30
0.0
 10
269.3601358528716
 20
246.6131888863779
 30
0.0
 10
269.3601358528716
 20
246.6193900623422
 30
0.0
 10
269.3601358528716
 20
246.6255912383066
 30
0.0
 10
269.3601358528716
 20
246.6255912383066
 30
0.0
 10
268.5636292512308
 20
273.8718358766982
 30
0.0
 10
268.5636292512308
 20
273.8718358766982
 30
0.0
 10
264.7636864241991
 20
277.1384775707975
 30
0.0
 10
257.1624227310324
 20
280.6383523831107
 30
0.0
 10
252.2338658784924
 20
281.3852495770368
 30
0.0
 10
252.2338658784924
 20
281.3852495770368
 30
0.0
 10
244.2825802531168
 20
281.586098776326
 30
0.0
 10
244.2825802531168
 20
281.586098776326
 30
0.0
 10
244.2825802531168
 20
281.586098776326
 30
0.0
 10
244.2825802531168
 20
277.9794259335159
 30
0.0
 10
244.2825802531168
 20
277.9794259335159
 30
0.0
 10
244.2825802531168
 20
277.9794259335159
 30
0.0
 10
240.2821327365717
 20
277.9794259335159
 30
0.0
 10
240.2821327365717
 20
277.9794259335159
 30
0.0
 10
240.2821327365717
 20
277.9794259335159
 30
0.0
 10
240.2821327365717
 20
281.6870401406343
 30
0.0
 10
240.2821327365717
 20
281.6870401406343
 30
0.0
 10
240.2821327365717
 20
281.6870401406343
 30
0.0
 10
202.4175800434785
 20
282.6437437880202
 30
0.0
 10
202.4175800434785
 20
282.6437437880202
 30
0.0
 10
202.4175800434785
 20
282.6437437880202
 30
0.0
 10
202.4175800434785
 20
279.0377599647617
 30
0.0
 10
202.4175800434785
 20
279.0377599647617
 30
0.0
 10
202.4175800434785
 20
279.0377599647617
 30
0.0
 10
198.4174770367092
 20
279.0377599647617
 30
0.0
 10
198.4174770367092
 20
279.0377599647617
 30
0.0
 10
198.4174770367092
 20
279.0377599647617
 30
0.0
 10
198.4174770367092
 20
282.7446851523285
 30
0.0
 10
198.4174770367092
 20
282.7446851523285
 30
0.0
 10
198.4174770367092
 20
282.7446851523285
 30
0.0
 10
188.8531966410559
 20
282.9865310149374
 30
0.0
 10
188.8531966410559
 20
282.9865310149374
 30
0.0
 10
188.8531966410559
 20
282.9865310149374
 30
0.0
 10
179.617923081288
 20
249.4963912000161
 30
0.0
 10
179.617923081288
 20
249.4963912000161
 30
0.0
 10
179.617923081288
 20
249.4963912000161
 30
0.0
 10
179.617923081288
 20
242.3905325644443
 30
0.0
 10
179.617923081288
 20
242.3905325644443
 30
0.0
 10
179.617923081288
 20
228.9164107232803
 30
0.0
 10
190.5798796373464
 20
217.954454167222
 30
0.0
 10
204.0543459882861
 20
217.954454167222
 30
0.0
  0
ENDBLK
  5
A5
330
A2
100
AcDbEntity
  8
0
100
AcDbBlockEnd
  0
ENDSEC
  0
SECTION
  2
ENTITIES
  0
SPLINE
  5
3B
330
1F
100
AcDbEntity
  8
0
 62
     7
420
 16777215
370
    25
100
AcDbSpline
210
0.0
220
0.0
230
1.0
 70
    11
 71
     3
 72
    17
 73
    13
 74
     0
 42
0.0000000001
 43
0.0000000001
 40
0.0
 40
0.0
 40
0.0
 40
0.0
 40
1.0
 40
1.0
 40
1.0
 40
2.0
 40
2.0
 40
2.0
 40
3.0
 40
3.0
 40
3.0
 40
4.0
 40
4.0
 40
4.0
 40
4.0
 10
231.5002340417516
 20
200.76203831589
 30
0.0
 10
231.5002340417516
 20
199.9336645599881
 30
0.0
 10
230.8284399789491
 20
199.2620427520735
 30
0.0
 10
230.0002384779351
 20
199.2620427520735
 30
0.0
 10
229.1716924671453
 20
199.2620427520735
 30
0.0
 10
228.5002429141185
 20
199.9336645599881
 30
0.0
 10
228.5002429141185
 20
200.76203831589
 30
0.0
 10
228.5002429141185
 20
201.5904120717919
 30
0.0
 10
229.1716924671453
 20
202.2620338797065
 30
0.0
 10
230.0002384779351
 20
202.2620338797065
 30
0.0
 10
230.8284399789491
 20
202.2620338797065
 30
0.0
 10
231.5002340417516
 20
201.5904120717919
 30
0.0
 10
231.5002340417516
 20
200.76203831589
 30
0.0
  0
SPLINE
  5
3C
330
1F
100
AcDbEntity
  8
0
 62
     7
420
 16777215
370
    25
100
AcDbSpline
210
0.0
220
0.0
230
1.0
 70
    11
 71
     3
 72
    17
 73
    13
 74
     0
 42
0.0000000001
 43
0.0000000001
 40
0.0
 40
0.0
 40
0.0
 40
0.0
 40
1.0
 40
1.0
 40
1.0
 40
2.0
 40
2.0
 40
2.0
 40
3.0
 40
3.0
 40
3.0
 40
4.0
 40
4.0
 40
4.0
 40
4.0
 10
201.5003227654212
 20
170.5123574521074
 30
0.0
 10
201.5003227654212
 20
169.6841559510934
 30
0.0
 10
200.8285287026187
 20
169.0123618882909
 30
0.0
 10
200.0003272016047
 20
169.0123618882909
 30
0.0
 10
199.1714366810391
 20
169.0123618882909
 30
0.0
 10
198.5001593829003
 20
169.6841559510934
 30
0.0
 10
198.5001593829003
 20
170.5123574521074
 30
0.0
 10
198.5001593829003
 20
171.3405589531214
 30
0.0
 10
199.1714366810391
 20
172.0123530159239
 30
0.0
 10
200.0003272016047
 20
172.0123530159239
 30
0.0
 10
200.8285287026187
 20
172.0123530159239
 30
0.0
 10
201.5003227654212
 20
171.3405589531214
 30
0.0
 10
201.5003227654212
 20
170.5123574521074
 30
0.0
  0
INSERT
  5
3E
330
1F
100
AcDbEntity
  8
0
100
AcDbBlockReference
  2
block 2
 10
0.0
 20
0.0
 30
0.0
  0
POLYLINE
  5
46
330
1F
100
AcDbEntity
  8
0
 62
     7
420
 16777215
370
    25
100
AcDb2dPolyline
 66
     1
 10
0.0
 20
0.0
 30
0.0
  0
VERTEX
  5
47
330
46
100
AcDbEntity
  8
0
 62
     7
420
 16777215
370
    25
100
AcDbVertex
100
AcDb2dVertex
 10
279.0739334912203
 20
171.9537863540386
 30
0.0
  0
VERTEX
  5
48
330
46
100
AcDbEntity
  8
0
 62
     7
420
 16777215
370
    25
100
AcDbVertex
100
AcDb2dVertex
 10
279.0739334912203
 20
174.9537774816716
 30
0.0
  0
VERTEX
  5
49
330
46
100
AcDbEntity
  8
0
 62
     7
420
 16777215
370
    25
100
AcDbVertex
100
AcDb2dVertex
 10
280.8309333477808
 20
174.9537774816716
 30
0.0
  0
VERTEX
  5
4A
330
46
100
AcDbEntity
  8
0
 62
     7
420
 16777215
370
    25
100
AcDbVertex
100
AcDb2dVertex
 10
280.8309333477808
 20
211.9537828924043
 30
0.0
  0
VERTEX
  5
4B
330
46
100
AcDbEntity
  8
0
 62
     7
420
 16777215
370
    25
100
AcDbVertex
100
AcDb2dVertex
 10
279.0739334912203
 20
211.9537828924043
 30
0.0
  0
VERTEX
  5
4C
330
46
100
AcDbEntity
  8
0
 62
     7
420
 16777215
370
    25
100
AcDbVertex
100
AcDb2dVertex
 10
279.0739334912203
 20
214.9537740200374
 30
0.0
  0
VERTEX
  5
4D
330
46
100
AcDbEntity
  8
0
 62
     7
420
 16777215
370
    25
100
AcDbVertex
100
AcDb2dVertex
 10
280.8309333477808
 20
214.9537740200374
 30
0.0
  0
VERTEX
  5
4E
330
46
100
AcDbEntity
  8
0
 62
     7
420
 16777215
370
    25
100
AcDbVertex
100
AcDb2dVertex
 10
280.8309333477808
 20
217.9537651476704
 30
0.0
  0
VERTEX
  5
4F
330
46
100
AcDbEntity
  8
0
 62
     7
420
 16777215
370
    25
100
AcDbVertex
100
AcDb2dVertex
 10
272.6309116642804
 20
217.9537651476704
 30
0.0
  0
VERTEX
  5
50
330
46
100
AcDbEntity
  8
0
 62
     7
420
 16777215
370
    25
100
AcDbVertex
100
AcDb2dVertex
 10
272.6309116642804
 20
214.9537740200374
 30
0.0
  0
VERTEX
  5
51
330
46
100
AcDbEntity
  8
0
 62
     7
420
 16777215
370
    25
100
AcDbVertex
100
AcDb2dVertex
 10
274.3879115208408
 20
214.9537740200374
 30
0.0
  0
VERTEX
  5
52
330
46
100
AcDbEntity
  8
0
 62
     7
420
 16777215
370
    25
100
AcDbVertex
100
AcDb2dVertex
 10
274.3879115208408
 20
211.9537828924043
 30
0.0
  0
VERTEX
  5
53
330
46
100
AcDbEntity
  8
0
 62
     7
420
 16777215
370
    25
100
AcDbVertex
100
AcDb2dVertex
 10
272.6309116642804
 20
211.9537828924043
 30
0.0
  0
VERTEX
  5
54
330
46
100
AcDbEntity
  8
0
 62
     7
420
 16777215
370
    25
100
AcDbVertex
100
AcDb2dVertex
 10
272.6309116642804
 20
174.9537774816716
 30
0.0
  0
VERTEX
  5
55
330
46
100
AcDbEntity
  8
0
 62
     7
420
 16777215
370
    25
100
AcDbVertex
100
AcDb2dVertex
 10
274.3879115208408
 20
174.9537774816716
 30
0.0
  0
VERTEX
  5
56
330
46
100
AcDbEntity
  8
0
 62
     7
420
 16777215
370
    25
100
AcDbVertex
100
AcDb2dVertex
 10
274.3879115208408
 20
171.9537863540386
 30
0.0
  0
VERTEX
  5
57
330
46
100
AcDbEntity
  8
0
 62
     7
420
 16777215
370
    25
100
AcDbVertex
100
AcDb2dVertex
 10
272.6309116642804
 20
171.9537863540386
 30
0.0
  0
VERTEX
  5
58
330
46
100
AcDbEntity
  8
0
 62
     7
420
 16777215
370
    25
100
AcDbVertex
100
AcDb2dVertex
 10
272.6309116642804
 20
164.9533477098604
 30
0.0
  0
VERTEX
  5
59
330
46
100
AcDbEntity
  8
0
 62
     7
420
 16777215
370
    25
100
AcDbVertex
100
AcDb2dVertex
 10
280.8309333477808
 20
164.9533477098604
 30
0.0
  0
VERTEX
  5
5A
330
46
100
AcDbEntity
  8
0
 62
     7
420
 16777215
370
    25
100
AcDbVertex
100
AcDb2dVertex
 10
280.8309333477808
 20
171.9537863540386
 30
0.0
  0
VERTEX
  5
5B
330
46
100
AcDbEntity
  8
0
 62
     7
420
 16777215
370
    25
100
AcDbVertex
100
AcDb2dVertex
 10
279.0739334912203
 20
171.9537863540386
 30
0.0
  0
SEQEND
  5
5C
330
46
100
AcDbEntity
  8
0
370
    25
  0
POLYLINE
  5
5D
330
1F
100
AcDbEntity
  8
0
 62
     7
420
 16777215
370
    25
100
AcDb2dPolyline
 66
     1
 10
0.0
 20
0.0
 30
0.0
  0
VERTEX
  5
5E
330
5D
100
AcDbEntity
  8
0
 62
     7
420
 16777215
370
    25
100
AcDbVertex
100
AcDb2dVertex
 10
289.4429887231334
 20
171.9537863540386
 30
0.0
  0
VERTEX
  5
5F
330
5D
100
AcDbEntity
  8
0
 62
     7
420
 16777215
370
    25
100
AcDbVertex
100
AcDb2dVertex
 10
289.4429887231334
 20
174.9537774816716
 30
0.0
  0
VERTEX
  5
60
330
5D
100
AcDbEntity
  8
0
 62
     7
420
 16777215
370
    25
100
AcDbVertex
100
AcDb2dVertex
 10
291.2003330894697
 20
174.9537774816716
 30
0.0
  0
VERTEX
  5
61
330
5D
100
AcDbEntity
  8
0
 62
     7
420
 16777215
370
    25
100
AcDbVertex
100
AcDb2dVertex
 10
291.2003330894697
 20
211.9537828924043
 30
0.0
  0
VERTEX
  5
62
330
5D
100
AcDbEntity
  8
0
 62
     7
420
 16777215
370
    25
100
AcDbVertex
100
AcDb2dVertex
 10
289.4429887231334
 20
211.9537828924043
 30
0.0
  0
VERTEX
  5
63
330
5D
100
AcDbEntity
  8
0
 62
     7
420
 16777215
370
    25
100
AcDbVertex
100
AcDb2dVertex
 10
289.4429887231334
 20
214.9537740200374
 30
0.0
  0
VERTEX
  5
64
330
5D
100
AcDbEntity
  8
0
 62
     7
420
 16777215
370
    25
100
AcDbVertex
100
AcDb2dVertex
 10
291.2003330894697
 20
214.9537740200374
 30
0.0
  0
VERTEX
  5
65
330
5D
100
AcDbEntity
  8
0
 62
     7
420
 16777215
370
    25
100
AcDbVertex
100
AcDb2dVertex
 10
291.2003330894697
 20
217.9537651476704
 30
0.0
  0
VERTEX
  5
66
330
5D
100
AcDbEntity
  8
0
 62
     7
420
 16777215
370
    25
100
AcDbVertex
100
AcDb2dVertex
 10
283.0003114059693
 20
217.9537651476704
 30
0.0
  0
VERTEX
  5
67
330
5D
100
AcDbEntity
  8
0
 62
     7
420
 16777215
370
    25
100
AcDbVertex
100
AcDb2dVertex
 10
283.0003114059693
 20
214.9537740200374
 30
0.0
  0
VERTEX
  5
68
330
5D
100
AcDbEntity
  8
0
 62
     7
420
 16777215
370
    25
100
AcDbVertex
100
AcDb2dVertex
 10
284.7573112625298
 20
214.9537740200374
 30
0.0
  0
VERTEX
  5
69
330
5D
100
AcDbEntity
  8
0
 62
     7
420
 16777215
370
    25
100
AcDbVertex
100
AcDb2dVertex
 10
284.7573112625298
 20
211.9537828924043
 30
0.0
  0
VERTEX
  5
6A
330
5D
100
AcDbEntity
  8
0
 62
     7
420
 16777215
370
    25
100
AcDbVertex
100
AcDb2dVertex
 10
283.0003114059693
 20
211.9537828924043
 30
0.0
  0
VERTEX
  5
6B
330
5D
100
AcDbEntity
  8
0
 62
     7
420
 16777215
370
    25
100
AcDbVertex
100
AcDb2dVertex
 10
283.0003114059693
 20
174.9537774816716
 30
0.0
  0
VERTEX
  5
6C
330
5D
100
AcDbEntity
  8
0
 62
     7
420
 16777215
370
    25
100
AcDbVertex
100
AcDb2dVertex
 10
284.7573112625298
 20
174.9537774816716
 30
0.0
  0
VERTEX
  5
6D
330
5D
100
AcDbEntity
  8
0
 62
     7
420
 16777215
370
    25
100
AcDbVertex
100
AcDb2dVertex
 10
284.7573112625298
 20
171.9537863540386
 30
0.0
  0
VERTEX
  5
6E
330
5D
100
AcDbEntity
  8
0
 62
     7
420
 16777215
370
    25
100
AcDbVertex
100
AcDb2dVertex
 10
283.0003114059693
 20
171.9537863540386
 30
0.0
  0
VERTEX
  5
6F
330
5D
100
AcDbEntity
  8
0
 62
     7
420
 16777215
370
    25
100
AcDbVertex
100
AcDb2dVertex
 10
283.0003114059693
 20
164.9533477098604
 30
0.0
  0
VERTEX
  5
70
330
5D
100
AcDbEntity
  8
0
 62
     7
420
 16777215
370
    25
100
AcDbVertex
100
AcDb2dVertex
 10
291.2003330894697
 20
164.9533477098604
 30
0.0
  0
VERTEX
  5
71
330
5D
100
AcDbEntity
  8
0
 62
     7
420
 16777215
370
    25
100
AcDbVertex
100
AcDb2dVertex
 10
291.2003330894697
 20
171.9537863540386
 30
0.0
  0
VERTEX
  5
72
330
5D
100
AcDbEntity
  8
0
 62
     7
420
 16777215
370
    25
100
AcDbVertex
100
AcDb2dVertex
 10
289.4429887231334
 20
171.9537863540386
 30
0.0
  0
SEQEND
  5
73
330
5D
100
AcDbEntity
  8
0
370
    25
  0
POLYLINE
  5
74
330
1F
100
AcDbEntity
  8
0
 62
     7
420
 16777215
370
    25
100
AcDb2dPolyline
 66
     1
 10
0.0
 20
0.0
 30
0.0
  0
VERTEX
  5
75
330
74
100
AcDbEntity
  8
0
 62
     7
420
 16777215
370
    25
100
AcDbVertex
100
AcDb2dVertex
 10
279.0732444716687
 20
228.5886096716103
 30
0.0
  0
VERTEX
  5
76
330
74
100
AcDbEntity
  8
0
 62
     7
420
 16777215
370
    25
100
AcDbVertex
100
AcDb2dVertex
 10
279.0732444716687
 20
231.5886007992433
 30
0.0
  0
VERTEX
  5
77
330
74
100
AcDbEntity
  8
0
 62
     7
420
 16777215
370
    25
100
AcDbVertex
100
AcDb2dVertex
 10
280.830588838005
 20
231.5886007992433
 30
0.0
  0
VERTEX
  5
78
330
74
100
AcDbEntity
  8
0
 62
     7
420
 16777215
370
    25
100
AcDbVertex
100
AcDb2dVertex
 10
280.830588838005
 20
268.5887784648639
 30
0.0
  0
VERTEX
  5
79
330
74
100
AcDbEntity
  8
0
 62
     7
420
 16777215
370
    25
100
AcDbVertex
100
AcDb2dVertex
 10
279.0732444716687
 20
268.5887784648639
 30
0.0
  0
VERTEX
  5
7A
330
74
100
AcDbEntity
  8
0
 62
     7
420
 16777215
370
    25
100
AcDbVertex
100
AcDb2dVertex
 10
279.0732444716687
 20
271.588769592497
 30
0.0
  0
VERTEX
  5
7B
330
74
100
AcDbEntity
  8
0
 62
     7
420
 16777215
370
    25
100
AcDbVertex
100
AcDb2dVertex
 10
280.830588838005
 20
271.588769592497
 30
0.0
  0
VERTEX
  5
7C
330
74
100
AcDbEntity
  8
0
 62
     7
420
 16777215
370
    25
100
AcDbVertex
100
AcDb2dVertex
 10
280.830588838005
 20
274.58876072013
 30
0.0
  0
VERTEX
  5
7D
330
74
100
AcDbEntity
  8
0
 62
     7
420
 16777215
370
    25
100
AcDbVertex
100
AcDb2dVertex
 10
272.6305671545046
 20
274.58876072013
 30
0.0
  0
VERTEX
  5
7E
330
74
100
AcDbEntity
  8
0
 62
     7
420
 16777215
370
    25
100
AcDbVertex
100
AcDb2dVertex
 10
272.6305671545046
 20
271.588769592497
 30
0.0
  0
VERTEX
  5
7F
330
74
100
AcDbEntity
  8
0
 62
     7
420
 16777215
370
    25
100
AcDbVertex
100
AcDb2dVertex
 10
274.3875670110651
 20
271.588769592497
 30
0.0
  0
VERTEX
  5
80
330
74
100
AcDbEntity
  8
0
 62
     7
420
 16777215
370
    25
100
AcDbVertex
100
AcDb2dVertex
 10
274.3875670110651
 20
268.5887784648639
 30
0.0
  0
VERTEX
  5
81
330
74
100
AcDbEntity
  8
0
 62
     7
420
 16777215
370
    25
100
AcDbVertex
100
AcDb2dVertex
 10
272.6305671545046
 20
268.5887784648639
 30
0.0
  0
VERTEX
  5
82
330
74
100
AcDbEntity
  8
0
 62
     7
420
 16777215
370
    25
100
AcDbVertex
100
AcDb2dVertex
 10
272.6305671545046
 20
231.5886007992433
 30
0.0
  0
VERTEX
  5
83
330
74
100
AcDbEntity
  8
0
 62
     7
420
 16777215
370
    25
100
AcDbVertex
100
AcDb2dVertex
 10
274.3875670110651
 20
231.5886007992433
 30
0.0
  0
VERTEX
  5
84
330
74
100
AcDbEntity
  8
0
 62
     7
420
 16777215
370
    25
100
AcDbVertex
100
AcDb2dVertex
 10
274.3875670110651
 20
228.5886096716103
 30
0.0
  0
VERTEX
  5
85
330
74
100
AcDbEntity
  8
0
 62
     7
420
 16777215
370
    25
100
AcDbVertex
100
AcDb2dVertex
 10
272.6305671545046
 20
228.5886096716103
 30
0.0
  0
VERTEX
  5
86
330
74
100
AcDbEntity
  8
0
 62
     7
420
 16777215
370
    25
100
AcDbVertex
100
AcDb2dVertex
 10
272.6305671545046
 20
221.5885155372079
 30
0.0
  0
VERTEX
  5
87
330
74
100
AcDbEntity
  8
0
 62
     7
420
 16777215
370
    25
100
AcDbVertex
100
AcDb2dVertex
 10
280.830588838005
 20
221.5885155372079
 30
0.0
  0
VERTEX
  5
88
330
74
100
AcDbEntity
  8
0
 62
     7
420
 16777215
370
    25
100
AcDbVertex
100
AcDb2dVertex
 10
280.830588838005
 20
228.5886096716103
 30
0.0
  0
VERTEX
  5
89
330
74
100
AcDbEntity
  8
0
 62
     7
420
 16777215
370
    25
100
AcDbVertex
100
AcDb2dVertex
 10
279.0732444716687
 20
228.5886096716103
 30
0.0
  0
SEQEND
  5
8A
330
74
100
AcDbEntity
  8
0
370
    25
  0
POLYLINE
  5
8B
330
1F
100
AcDbEntity
  8
0
 62
     7
420
 16777215
370
    25
100
AcDb2dPolyline
 66
     1
 10
0.0
 20
0.0
 30
0.0
  0
VERTEX
  5
8C
330
8B
100
AcDbEntity
  8
0
 62
     7
420
 16777215
370
    25
100
AcDbVertex
100
AcDb2dVertex
 10
289.4429887231334
 20
228.5886096716103
 30
0.0
  0
VERTEX
  5
8D
330
8B
100
AcDbEntity
  8
0
 62
     7
420
 16777215
370
    25
100
AcDbVertex
100
AcDb2dVertex
 10
289.4429887231334
 20
231.5886007992433
 30
0.0
  0
VERTEX
  5
8E
330
8B
100
AcDbEntity
  8
0
 62
     7
420
 16777215
370
    25
100
AcDbVertex
100
AcDb2dVertex
 10
291.2003330894697
 20
231.5886007992433
 30
0.0
  0
VERTEX
  5
8F
330
8B
100
AcDbEntity
  8
0
 62
     7
420
 16777215
370
    25
100
AcDbVertex
100
AcDb2dVertex
 10
291.2003330894697
 20
268.5887784648639
 30
0.0
  0
VERTEX
  5
90
330
8B
100
AcDbEntity
  8
0
 62
     7
420
 16777215
370
    25
100
AcDbVertex
100
AcDb2dVertex
 10
289.4429887231334
 20
268.5887784648639
 30
0.0
  0
VERTEX
  5
91
330
8B
100
AcDbEntity
  8
0
 62
     7
420
 16777215
370
    25
100
AcDbVertex
100
AcDb2dVertex
 10
289.4429887231334
 20
271.588769592497
 30
0.0
  0
VERTEX
  5
92
330
8B
100
AcDbEntity
  8
0
 62
     7
420
 16777215
370
    25
100
AcDbVertex
100
AcDb2dVertex
 10
291.2003330894697
 20
271.588769592497
 30
0.0
  0
VERTEX
  5
93
330
8B
100
AcDbEntity
  8
0
 62
     7
420
 16777215
370
    25
100
AcDbVertex
100
AcDb2dVertex
 10
291.2003330894697
 20
274.58876072013
 30
0.0
  0
VERTEX
  5
94
330
8B
100
AcDbEntity
  8
0
 62
     7
420
 16777215
370
    25
100
AcDbVertex
100
AcDb2dVertex
 10
283.0003114059693
 20
274.58876072013
 30
0.0
  0
VERTEX
  5
95
330
8B
100
AcDbEntity
  8
0
 62
     7
420
 16777215
370
    25
100
AcDbVertex
100
AcDb2dVertex
 10
283.0003114059693
 20
271.588769592497
 30
0.0
  0
VERTEX
  5
96
330
8B
100
AcDbEntity
  8
0
 62
     7
420
 16777215
370
    25
100
AcDbVertex
100
AcDb2dVertex
 10
284.756966752754
 20
271.588769592497
 30
0.0
  0
VERTEX
  5
97
330
8B
100
AcDbEntity
  8
0
 62
     7
420
 16777215
370
    25
100
AcDbVertex
100
AcDb2dVertex
 10
284.756966752754
 20
268.5887784648639
 30
0.0
  0
VERTEX
  5
98
330
8B
100
AcDbEntity
  8
0
 62
     7
420
 16777215
370
    25
100
AcDbVertex
100
AcDb2dVertex
 10
283.0003114059693
 20
268.5887784648639
 30
0.0
  0
VERTEX
  5
99
330
8B
100
AcDbEntity
  8
0
 62
     7
420
 16777215
370
    25
100
AcDbVertex
100
AcDb2dVertex
 10
283.0003114059693
 20
231.5886007992433
 30
0.0
  0
VERTEX
  5
9A
330
8B
100
AcDbEntity
  8
0
 62
     7
420
 16777215
370
    25
100
AcDbVertex
100
AcDb2dVertex
 10
284.756966752754
 20
231.5886007992433
 30
0.0
  0
VERTEX
  5
9B
330
8B
100
AcDbEntity
  8
0
 62
     7
420
 16777215
370
    25
100
AcDbVertex
100
AcDb2dVertex
 10
284.756966752754
 20
228.5886096716103
 30
0.0
  0
VERTEX
  5
9C
330
8B
100
AcDbEntity
  8
0
 62
     7
420
 16777215
370
    25
100
AcDbVertex
100
AcDb2dVertex
 10
283.0003114059693
 20
228.5886096716103
 30
0.0
  0
VERTEX
  5
9D
330
8B
100
AcDbEntity
  8
0
 62
     7
420
 16777215
370
    25
100
AcDbVertex
100
AcDb2dVertex
 10
283.0003114059693
 20
221.5885155372079
 30
0.0
  0
VERTEX
  5
9E
330
8B
100
AcDbEntity
  8
0
 62
     7
420
 16777215
370
    25
100
AcDbVertex
100
AcDb2dVertex
 10
291.2003330894697
 20
221.5885155372079
 30
0.0
  0
VERTEX
  5
9F
330
8B
100
AcDbEntity
  8
0
 62
     7
420
 16777215
370
    25
100
AcDbVertex
100
AcDb2dVertex
 10
291.2003330894697
 20
228.5886096716103
 30
0.0
  0
VERTEX
  5
A0
330
8B
100
AcDbEntity
  8
0
 62
     7
420
 16777215
370
    25
100
AcDbVertex
100
AcDb2dVertex
 10
289.4429887231334
 20
228.5886096716103
 30
0.0
  0
SEQEND
  5
A1
330
8B
100
AcDbEntity
  8
0
370
    25
  0
INSERT
  5
A3
330
1F
100
AcDbEntity
  8
0
100
AcDbBlockReference
  2
block 3
 10
0.0
 20
0.0
 30
0.0
  0
SPLINE
  5
AB
330
1F
100
AcDbEntity
  8
0
 62
     7
420
 16777215
370
    25
100
AcDbSpline
210
0.0
220
0.0
230
1.0
 70
    11
 71
     3
 72
    17
 73
    13
 74
     0
 42
0.0000000001
 43
0.0000000001
 40
0.0
 40
0.0
 40
0.0
 40
0.0
 40
1.0
 40
1.0
 40
1.0
 40
2.0
 40
2.0
 40
2.0
 40
3.0
 40
3.0
 40
3.0
 40
4.0
 40
4.0
 40
4.0
 40
4.0
 10
246.3000295001792
 20
275.0004499022064
 30
0.0
 10
246.3000295001792
 20
274.2824915294472
 30
0.0
 10
245.7181524888595
 20
273.7002700083517
 30
0.0
 10
244.9998496063245
 20
273.7002700083517
 30
0.0
 10
244.2818912335652
 20
273.7002700083517
 30
0.0
 10
243.7000142222455
 20
274.2824915294472
 30
0.0
 10
243.7000142222455
 20
275.0004499022064
 30
0.0
 10
243.7000142222455
 20
275.7184082749657
 30
0.0
 10
244.2818912335652
 20
276.3002852862854
 30
0.0
 10
244.9998496063245
 20
276.3002852862854
 30
0.0
 10
245.7181524888595
 20
276.3002852862854
 30
0.0
 10
246.3000295001792
 20
275.7184082749657
 30
0.0
 10
246.3000295001792
 20
275.0004499022064
 30
0.0
  0
SPLINE
  5
AC
330
1F
100
AcDbEntity
  8
0
 62
     7
420
 16777215
370
    25
100
AcDbSpline
210
0.0
220
0.0
230
1.0
 70
    11
 71
     3
 72
    17
 73
    13
 74
     0
 42
0.0000000001
 43
0.0000000001
 40
0.0
 40
0.0
 40
0.0
 40
0.0
 40
1.0
 40
1.0
 40
1.0
 40
2.0
 40
2.0
 40
2.0
 40
3.0
 40
3.0
 40
3.0
 40
4.0
 40
4.0
 40
4.0
 40
4.0
 10
236.3002887479196
 20
245.0003663709882
 30
0.0
 10
236.3002887479196
 20
244.2824079982289
 30
0.0
 10
235.7184117365999
 20
243.7001864771334
 30
0.0
 10
234.9999365991769
 20
243.7001864771334
 30
0.0
 10
234.2819782264177
 20
243.7001864771334
 30
0.0
 10
233.700101215098
 20
244.2824079982289
 30
0.0
 10
233.700101215098
 20
245.0003663709882
 30
0.0
 10
233.700101215098
 20
245.7183247437474
 30
0.0
 10
234.2819782264177
 20
246.3002017550671
 30
0.0
 10
234.9999365991769
 20
246.3002017550671
 30
0.0
 10
235.7184117365999
 20
246.3002017550671
 30
0.0
 10
236.3002887479196
 20
245.7183247437474
 30
0.0
 10
236.3002887479196
 20
245.0003663709882
 30
0.0
  0
SPLINE
  5
AD
330
1F
100
AcDbEntity
  8
0
 62
     7
420
 16777215
370
    25
100
AcDbSpline
210
0.0
220
0.0
230
1.0
 70
    11
 71
     3
 72
    17
 73
    13
 74
     0
 42
0.0000000001
 43
0.0000000001
 40
0.0
 40
0.0
 40
0.0
 40
0.0
 40
1.0
 40
1.0
 40
1.0
 40
2.0
 40
2.0
 40
2.0
 40
3.0
 40
3.0
 40
3.0
 40
4.0
 40
4.0
 40
4.0
 40
4.0
 10
256.3004592719904
 20
245.0003663709882
 30
0.0
 10
256.3004592719904
 20
244.2824079982289
 30
0.0
 10
255.7185822606706
 20
243.7001864771334
 30
0.0
 10
255.0002793781356
 20
243.7001864771334
 30
0.0
 10
254.2823210053764
 20
243.7001864771334
 30
0.0
 10
253.7000994842809
 20
244.2824079982289
 30
0.0
 10
253.7000994842809
 20
245.0003663709882
 30
0.0
 10
253.7000994842809
 20
245.7183247437474
 30
0.0
 10
254.2823210053764
 20
246.3002017550671
 30
0.0
 10
255.0002793781356
 20
246.3002017550671
 30
0.0
 10
255.7185822606706
 20
246.3002017550671
 30
0.0
 10
256.3004592719904
 20
245.7183247437474
 30
0.0
 10
256.3004592719904
 20
245.0003663709882
 30
0.0
  0
ENDSEC
  0
SECTION
  2
OBJECTS
  0
DICTIONARY
  5
C
330
0
100
AcDbDictionary
281
     1
  3
ACAD_GROUP
350
D
  3
ACAD_LAYOUT
350
1A
  3
ACAD_MLINESTYLE
350
17
  3
ACAD_PLOTSETTINGS
350
19
  3
ACAD_PLOTSTYLENAME
350
E
  3
ACAD_TABLESTYLE
350
AE
  3
ACAD_VISUALSTYLE
350
2A
  0
DICTIONARY
  5
D
102
{ACAD_REACTORS
330
C
102
}
330
C
100
AcDbDictionary
281
     1
  0
DICTIONARY
  5
1A
102
{ACAD_REACTORS
330
C
102
}
330
C
100
AcDbDictionary
281
     1
  3
Layout1
350
1E
  3
Layout2
350
26
  3
Model
350
22
  0
DICTIONARY
  5
17
102
{ACAD_REACTORS
330
C
102
}
330
C
100
AcDbDictionary
281
     1
  3
Standard
350
18
  0
DICTIONARY
  5
19
102
{ACAD_REACTORS
330
C
102
}
330
C
100
AcDbDictionary
281
     1
  0
ACDBDICTIONARYWDFLT
  5
E
102
{ACAD_REACTORS
330
C
102
}
330
C
100
AcDbDictionary
281
     1
  3
Normal
350
F
100
AcDbDictionaryWithDefault
340
F
  0
DICTIONARY
  5
AE
102
{ACAD_REACTORS
330
C
102
}
330
C
100
AcDbDictionary
281
     1
  0
DICTIONARY
  5
2A
102
{ACAD_REACTORS
330
C
102
}
330
C
100
AcDbDictionary
281
     1
  3
2dWireframe
350
2F
  3
3D Hidden
350
31
  3
3dWireframe
350
30
  3
Basic
350
32
  3
Brighten
350
36
  3
ColorChange
350
3A
  3
Conceptual
350
34
  3
Dim
350
35
  3
Facepattern
350
39
  3
Flat
350
2B
  3
FlatWithEdges
350
2C
  3
Gouraud
350
2D
  3
GouraudWithEdges
350
2E
  3
Linepattern
350
38
  3
Realistic
350
33
  3
Thicken
350
37
  0
LAYOUT
  5
1E
102
{ACAD_REACTORS
330
1A
102
}
330
1A
100
AcDbPlotSettings
  1

  2
none_device
  4

  6

 40
0.0
 41
0.0
 42
0.0
 43
0.0
 44
0.0
 45
0.0
 46
0.0
 47
0.0
 48
0.0
 49
0.0
140
0.0
141
0.0
142
1.0
143
1.0
 70
   688
 72
     0
 73
     0
 74
     5
  7

 75
    16
 76
     0
 77
     2
 78
   300
147
1.0
148
0.0
149
0.0
100
AcDbLayout
  1
Layout1
 70
     1
 71
     1
 10
0.0
 20
0.0
 11
12.0
 21
9.0
 12
0.0
 22
0.0
 32
0.0
 14
1.000000000000000E+20
 24
1.000000000000000E+20
 34
1.000000000000000E+20
 15
-1.000000000000000E+20
 25
-1.000000000000000E+20
 35
-1.000000000000000E+20
146
0.0
 13
0.0
 23
0.0
 33
0.0
 16
1.0
 26
0.0
 36
0.0
 17
0.0
 27
1.0
 37
0.0
 76
     0
330
1B
  0
LAYOUT
  5
26
102
{ACAD_REACTORS
330
1A
102
}
330
1A
100
AcDbPlotSettings
  1

  2
none_device
  4

  6

 40
0.0
 41
0.0
 42
0.0
 43
0.0
 44
0.0
 45
0.0
 46
0.0
 47
0.0
 48
0.0
 49
0.0
140
0.0
141
0.0
142
1.0
143
1.0
 70
   688
 72
     0
 73
     0
 74
     5
  7

 75
    16
 76
     0
 77
     2
 78
   300
147
1.0
148
0.0
149
0.0
100
AcDbLayout
  1
Layout2
 70
     1
 71
     2
 10
0.0
 20
0.0
 11
0.0
 21
0.0
 12
0.0
 22
0.0
 32
0.0
 14
0.0
 24
0.0
 34
0.0
 15
0.0
 25
0.0
 35
0.0
146
0.0
 13
0.0
 23
0.0
 33
0.0
 16
1.0
 26
0.0
 36
0.0
 17
0.0
 27
1.0
 37
0.0
 76
     0
330
23
  0
LAYOUT
  5
22
102
{ACAD_REACTORS
330
1A
102
}
330
1A
100
AcDbPlotSettings
  1

  2
none_device
  4

  6

 40
0.0
 41
0.0
 42
0.0
 43
0.0
 44
0.0
 45
0.0
 46
0.0
 47
0.0
 48
0.0
 49
0.0
140
0.0
141
0.0
142
1.0
143
1.0
 70
  1712
 72
     0
 73
     0
 74
     0
  7

 75
     0
 76
     0
 77
     2
 78
   300
147
1.0
148
0.0
149
0.0
100
AcDbLayout
  1
Model
 70
     1
 71
     0
 10
0.0
 20
0.0
 11
12.0
 21
9.0
 12
0.0
 22
0.0
 32
0.0
 14
1.000000000000000E+20
 24
1.000000000000000E+20
 34
1.000000000000000E+20
 15
-1.000000000000000E+20
 25
-1.000000000000000E+20
 35
-1.000000000000000E+20
146
0.0
 13
0.0
 23
0.0
 33
0.0
 16
1.0
 26
0.0
 36
0.0
 17
0.0
 27
1.0
 37
0.0
 76
     0
330
1F
331
29
  0
MLINESTYLE
  5
18
102
{ACAD_REACTORS
330
17
102
}
330
17
100
AcDbMlineStyle
  2
Standard
 70
     0
  3

 62
   256
 51
90.0
 52
90.0
 71
     2
 49
0.5
 62
   256
  6
BYLAYER
 49
-0.5
 62
   256
  6
BYLAYER
  0
ACDBPLACEHOLDER
  5
F
102
{ACAD_REACTORS
330
E
102
}
330
E
  0
VISUALSTYLE
  5
2F
102
{ACAD_REACTORS
330
2A
102
}
330
2A
100
AcDbVisualStyle
  2
2dWireframe
 70
     4
 71
     0
 72
     2
 73
     0
 90
        0
 40
-0.6
 41
-30.0
 62
     5
 63
     7
421
 16777215
 74
     1
 91
        4
 64
     7
 65
   257
 75
     1
175
     1
 42
1.0
 92
        0
 66
   257
 43
1.0
 76
     1
 77
     6
 78
     2
 67
     7
 79
     5
170
     0
171
     0
290
     0
174
     0
 93
        1
 44
0.0
173
     0
291
     0
 45
0.0
1001
ACAD
1000
AcDbSavedByObjectVersion
1070
     0
  0
VISUALSTYLE
  5
31
102
{ACAD_REACTORS
330
2A
102
}
330
2A
100
AcDbVisualStyle
  2
3D Hidden
 70
     6
 71
     1
 72
     2
 73
     2
 90
        0
 40
-0.6
 41
-30.0
 62
     5
 63
     7
421
 16777215
 74
     2
 91
        2
 64
     7
 65
   257
 75
     2
175
     1
 42
40.0
 92
        0
 66
   257
 43
1.0
 76
     1
 77
     6
 78
     2
 67
     7
 79
     3
170
     0
171
     0
290
     0
174
     0
 93
        1
 44
0.0
173
     0
291
     0
 45
0.0
1001
ACAD
1000
AcDbSavedByObjectVersion
1070
     0
  0
VISUALSTYLE
  5
30
102
{ACAD_REACTORS
330
2A
102
}
330
2A
100
AcDbVisualStyle
  2
3dWireframe
 70
     5
 71
     0
 72
     2
 73
     0
 90
        0
 40
-0.6
 41
-30.0
 62
     5
 63
     7
421
 16777215
 74
     1
 91
        4
 64
     7
 65
   257
 75
     1
175
     1
 42
1.0
 92
        0
 66
   257
 43
1.0
 76
     1
 77
     6
 78
     2
 67
     7
 79
     5
170
     0
171
     0
290
     0
174
     0
 93
        1
 44
0.0
173
     0
291
     0
 45
0.0
1001
ACAD
1000
AcDbSavedByObjectVersion
1070
     0
  0
VISUALSTYLE
  5
32
102
{ACAD_REACTORS
330
2A
102
}
330
2A
100
AcDbVisualStyle
  2
Basic
 70
     7
 71
     1
 72
     0
 73
     1
 90
        0
 40
-0.6
 41
-30.0
 62
     5
 63
     7
421
 16777215
 74
     0
 91
        4
 64
     7
 65
   257
 75
     1
175
     1
 42
1.0
 92
        8
 66
     7
 43
1.0
 76
     1
 77
     6
 78
     2
 67
     7
 79
     5
170
     0
171
     0
290
     0
174
     0
 93
        1
 44
0.0
173
     0
291
     1
 45
0.0
1001
ACAD
1000
AcDbSavedByObjectVersion
1070
     0
  0
VISUALSTYLE
  5
36
102
{ACAD_REACTORS
330
2A
102
}
330
2A
100
AcDbVisualStyle
  2
Brighten
 70
    12
 71
     2
 72
     2
 73
     0
 90
        0
 40
-0.6
 41
-30.0
 62
     5
 63
     7
421
 16777215
 74
     1
 91
        4
 64
     7
 65
   257
 75
     1
175
     1
 42
1.0
 92
        8
 66
     7
 43
1.0
 76
     1
 77
     6
 78
     2
 67
     7
 79
     5
170
     0
171
     0
290
     0
174
     0
 93
        1
 44
50.0
173
     0
291
     1
 45
0.0
1001
ACAD
1000
AcDbSavedByObjectVersion
1070
     0
  0
VISUALSTYLE
  5
3A
102
{ACAD_REACTORS
330
2A
102
}
330
2A
100
AcDbVisualStyle
  2
ColorChange
 70
    16
 71
     2
 72
     2
 73
     3
 90
        0
 40
-0.6
 41
-30.0
 62
     5
 63
     8
421
  8421504
 74
     1
 91
        4
 64
     7
 65
   257
 75
     1
175
     1
 42
1.0
 92
        8
 66
     8
424
  8421504
 43
1.0
 76
     1
 77
     6
 78
     2
 67
     7
 79
     5
170
     0
171
     0
290
     0
174
     0
 93
        1
 44
0.0
173
     0
291
     1
 45
0.0
1001
ACAD
1000
AcDbSavedByObjectVersion
1070
     0
  0
VISUALSTYLE
  5
34
102
{ACAD_REACTORS
330
2A
102
}
330
2A
100
AcDbVisualStyle
  2
Conceptual
 70
     9
 71
     3
 72
     2
 73
     0
 90
        0
 40
-0.6
 41
-30.0
 62
     5
 63
     7
421
 16777215
 74
     2
 91
        2
 64
     7
 65
   257
 75
     1
175
     1
 42
40.0
 92
        8
 66
     7
 43
1.0
 76
     1
 77
     6
 78
     2
 67
     7
 79
     3
170
     0
171
     0
290
     0
174
     0
 93
        1
 44
0.0
173
     0
291
     0
 45
0.0
1001
ACAD
1000
AcDbSavedByObjectVersion
1070
     0
  0
VISUALSTYLE
  5
35
102
{ACAD_REACTORS
330
2A
102
}
330
2A
100
AcDbVisualStyle
  2
Dim
 70
    11
 71
     2
 72
     2
 73
     0
 90
        0
 40
-0.6
 41
-30.0
 62
     5
 63
     7
421
 16777215
 74
     1
 91
        4
 64
     7
 65
   257
 75
     1
175
     1
 42
1.0
 92
        8
 66
     7
 43
1.0
 76
     1
 77
     6
 78
     2
 67
     7
 79
     5
170
     0
171
     0
290
     0
174
     0
 93
        1
 44
-50.0
173
     0
291
     1
 45
0.0
1001
ACAD
1000
AcDbSavedByObjectVersion
1070
     0
  0
VISUALSTYLE
  5
39
102
{ACAD_REACTORS
330
2A
102
}
330
2A
100
AcDbVisualStyle
  2
Facepattern
 70
    15
 71
     2
 72
     2
 73
     0
 90
        0
 40
-0.6
 41
-30.0
 62
     5
 63
     7
421
 16777215
 74
     1
 91
        4
 64
     7
 65
   257
 75
     1
175
     1
 42
1.0
 92
        8
 66
     7
 43
1.0
 76
     1
 77
     6
 78
     2
 67
     7
 79
     5
170
     0
171
     0
290
     0
174
     0
 93
        1
 44
0.0
173
     0
291
     1
 45
0.0
1001
ACAD
1000
AcDbSavedByObjectVersion
1070
     0
  0
VISUALSTYLE
  5
2B
102
{ACAD_REACTORS
330
2A
102
}
330
2A
100
AcDbVisualStyle
  2
Flat
 70
     0
 71
     2
 72
     1
 73
     1
 90
        2
 40
-0.6
 41
30.0
 62
     5
 63
     7
421
 16777215
 74
     0
 91
        4
 64
     7
 65
   257
 75
     1
175
     1
 42
1.0
 92
        8
 66
     7
 43
1.0
 76
     1
 77
     6
 78
     2
 67
     7
 79
     5
170
     0
171
     0
290
     0
174
     0
 93
       13
 44
0.0
173
     0
291
     1
 45
0.0
1001
ACAD
1000
AcDbSavedByObjectVersion
1070
     0
  0
VISUALSTYLE
  5
2C
102
{ACAD_REACTORS
330
2A
102
}
330
2A
100
AcDbVisualStyle
  2
FlatWithEdges
 70
     1
 71
     2
 72
     1
 73
     1
 90
        2
 40
-0.6
 41
30.0
 62
     5
 63
     7
421
 16777215
 74
     1
 91
        4
 64
     7
 65
   257
 75
     1
175
     1
 42
1.0
 92
        0
 66
   257
 43
1.0
 76
     1
 77
     6
 78
     2
 67
     7
 79
     5
170
     0
171
     0
290
     0
174
     0
 93
       13
 44
0.0
173
     0
291
     1
 45
0.0
1001
ACAD
1000
AcDbSavedByObjectVersion
1070
     0
  0
VISUALSTYLE
  5
2D
102
{ACAD_REACTORS
330
2A
102
}
330
2A
100
AcDbVisualStyle
  2
Gouraud
 70
     2
 71
     2
 72
     2
 73
     1
 90
        2
 40
-0.6
 41
30.0
 62
     5
 63
     7
421
 16777215
 74
     0
 91
        4
 64
     7
 65
   257
 75
     1
175
     1
 42
1.0
 92
        0
 66
     7
 43
1.0
 76
     1
 77
     6
 78
     2
 67
     7
 79
     5
170
     0
171
     0
290
     0
174
     0
 93
       13
 44
0.0
173
     0
291
     1
 45
0.0
1001
ACAD
1000
AcDbSavedByObjectVersion
1070
     0
  0
VISUALSTYLE
  5
2E
102
{ACAD_REACTORS
330
2A
102
}
330
2A
100
AcDbVisualStyle
  2
GouraudWithEdges
 70
     3
 71
     2
 72
     2
 73
     1
 90
        2
 40
-0.6
 41
30.0
 62
     5
 63
     7
421
 16777215
 74
     1
 91
        4
 64
     7
 65
   257
 75
     1
175
     1
 42
1.0
 92
        0
 66
   257
 43
1.0
 76
     1
 77
     6
 78
     2
 67
     7
 79
     5
170
     0
171
     0
290
     0
174
     0
 93
       13
 44
0.0
173
     0
291
     1
 45
0.0
1001
ACAD
1000
AcDbSavedByObjectVersion
1070
     0
  0
VISUALSTYLE
  5
38
102
{ACAD_REACTORS
330
2A
102
}
330
2A
100
AcDbVisualStyle
  2
Linepattern
 70
    14
 71
     2
 72
     2
 73
     0
 90
        0
 40
-0.6
 41
-30.0
 62
     5
 63
     7
421
 16777215
 74
     1
 91
        4
 64
     7
 65
   257
 75
     7
175
     7
 42
1.0
 92
        8
 66
     7
 43
1.0
 76
     1
 77
     6
 78
     2
 67
     7
 79
     5
170
     0
171
     0
290
     0
174
     0
 93
        1
 44
0.0
173
     0
291
     1
 45
0.0
1001
ACAD
1000
AcDbSavedByObjectVersion
1070
     0
  0
VISUALSTYLE
  5
33
102
{ACAD_REACTORS
330
2A
102
}
330
2A
100
AcDbVisualStyle
  2
Realistic
 70
     8
 71
     2
 72
     2
 73
     0
 90
        0
 40
-0.6
 41
-30.0
 62
     5
 63
     7
421
 16777215
 74
     1
 91
        0
 64
     7
 65
   257
 75
     1
175
     1
 42
1.0
 92
        8
 66
     8
424
  7895160
 43
1.0
 76
     1
 77
     6
 78
     2
 67
     7
 79
     5
170
     0
171
     0
290
     0
174
     0
 93
       13
 44
0.0
173
     0
291
     0
 45
0.0
1001
ACAD
1000
AcDbSavedByObjectVersion
1070
     0
  0
VISUALSTYLE
  5
37
102
{ACAD_REACTORS
330
2A
102
}
330
2A
100
AcDbVisualStyle
  2
Thicken
 70
    13
 71
     2
 72
     2
 73
     0
 90
        0
 40
-0.6
 41
-30.0
 62
     5
 63
     7
421
 16777215
 74
     1
 91
        4
 64
     7
 65
   257
 75
     1
175
     1
 42
1.0
 92
       12
 66
     7
 43
1.0
 76
     1
 77
     6
 78
     2
 67
     7
 79
     5
170
     0
171
     0
290
     0
174
     0
 93
        1
 44
0.0
173
     0
291
     1
 45
0.0
1001
ACAD
1000
AcDbSavedByObjectVersion
1070
     0
  0
ENDSEC
  0
EOF
