  0
SECTION
  2
HEADER
  9
$ACADVER
  1
AC1018
  9
$ACADMAINTVER
 70
     0
  9
$DWGCODEPAGE
  3
ASCII
  9
$INSBASE
 10
0.0
 20
0.0
 30
0.0
  9
$EXTMIN
 10
1.000000000000000E+20
 20
1.000000000000000E+20
 30
1.000000000000000E+20
  9
$EXTMAX
 10
-1.000000000000000E+20
 20
-1.000000000000000E+20
 30
-1.000000000000000E+20
  9
$LIMMIN
 10
0.0
 20
0.0
  9
$LIMMAX
 10
12.0
 20
9.0
  9
$ORTHOMODE
 70
     0
  9
$REGENMODE
 70
     1
  9
$FILLMODE
 70
     1
  9
$QTEXTMODE
 70
     0
  9
$MIRRTEXT
 70
     1
  9
$LTSCALE
 40
1.0
  9
$ATTMODE
 70
     1
  9
$TEXTSIZE
 40
0.2
  9
$TRACEWID
 40
0.05
  9
$TEXTSTYLE
  7
Standard
  9
$CLAYER
  8
0
  9
$CELTYPE
  6
ByLayer
  9
$CECOLOR
 62
   256
  9
$CELTSCALE
 40
1.0
  9
$DISPSILH
 70
     0
  9
$DIMSCALE
 40
1.0
  9
$DIMASZ
 40
0.18
  9
$DIMEXO
 40
0.0625
  9
$DIMDLI
 40
0.38
  9
$DIMRND
 40
0.0
  9
$DIMDLE
 40
0.0
  9
$DIMEXE
 40
0.18
  9
$DIMTP
 40
0.0
  9
$DIMTM
 40
0.0
  9
$DIMTXT
 40
0.18
  9
$DIMCEN
 40
0.09
  9
$DIMTSZ
 40
0.0
  9
$DIMTOL
 70
     0
  9
$DIMLIM
 70
     0
  9
$DIMTIH
 70
     1
  9
$DIMTOH
 70
     1
  9
$DIMSE1
 70
     0
  9
$DIMSE2
 70
     0
  9
$DIMTAD
 70
     0
  9
$DIMZIN
 70
     0
  9
$DIMBLK
  1

  9
$DIMASO
 70
     1
  9
$DIMSHO
 70
     1
  9
$DIMPOST
  1

  9
$DIMAPOST
  1

  9
$DIMALT
 70
     0
  9
$DIMALTD
 70
     2
  9
$DIMALTF
 40
25.4
  9
$DIMLFAC
 40
1.0
  9
$DIMTOFL
 70
     0
  9
$DIMTVP
 40
0.0
  9
$DIMTIX
 70
     0
  9
$DIMSOXD
 70
     0
  9
$DIMSAH
 70
     0
  9
$DIMBLK1
  1

  9
$DIMBLK2
  1

  9
$DIMSTYLE
  2
Standard
  9
$DIMCLRD
 70
     0
  9
$DIMCLRE
 70
     0
  9
$DIMCLRT
 70
     0
  9
$DIMTFAC
 40
1.0
  9
$DIMGAP
 40
0.09
  9
$DIMJUST
 70
     0
  9
$DIMSD1
 70
     0
  9
$DIMSD2
 70
     0
  9
$DIMTOLJ
 70
     1
  9
$DIMTZIN
 70
     0
  9
$DIMALTZ
 70
     0
  9
$DIMALTTZ
 70
     0
  9
$DIMUPT
 70
     0
  9
$DIMDEC
 70
     4
  9
$DIMTDEC
 70
     4
  9
$DIMALTU
 70
     2
  9
$DIMALTTD
 70
     2
  9
$DIMTXSTY
  7
Standard
  9
$DIMAUNIT
 70
     0
  9
$DIMADEC
 70
     0
  9
$DIMALTRND
 40
0.0
  9
$DIMAZIN
 70
     0
  9
$DIMDSEP
 70
    46
  9
$DIMATFIT
 70
     3
  9
$DIMFRAC
 70
     0
  9
$DIMLDRBLK
  1

  9
$DIMLUNIT
 70
     2
  9
$DIMLWD
 70
    -2
  9
$DIMLWE
 70
    -2
  9
$DIMTMOVE
 70
     0
  9
$LUNITS
 70
     2
  9
$LUPREC
 70
     4
  9
$SKETCHINC
 40
0.1
  9
$FILLETRAD
 40
0.5
  9
$AUNITS
 70
     0
  9
$AUPREC
 70
     0
  9
$MENU
  1
.
  9
$ELEVATION
 40
0.0
  9
$PELEVATION
 40
0.0
  9
$THICKNESS
 40
0.0
  9
$LIMCHECK
 70
     0
  9
$CHAMFERA
 40
0.5
  9
$CHAMFERB
 40
0.5
  9
$CHAMFERC
 40
1.0
  9
$CHAMFERD
 40
0.0
  9
$SKPOLY
 70
     0
  9
$TDCREATE
 40
2459275.612060185
  9
$TDUCREATE
 40
2459275.570393519
  9
$TDUPDATE
 40
2459275.612060197
  9
$TDUUPDATE
 40
2459275.57039353
  9
$TDINDWG
 40
0.0000000116
  9
$TDUSRTIMER
 40
0.0000000116
  9
$USRTIMER
 70
     1
  9
$ANGBASE
 50
0.0
  9
$ANGDIR
 70
     0
  9
$PDMODE
 70
     0
  9
$PDSIZE
 40
0.0
  9
$PLINEWID
 40
0.0
  9
$SPLFRAME
 70
     0
  9
$SPLINETYPE
 70
     6
  9
$SPLINESEGS
 70
     8
  9
$HANDSEED
  5
312
  9
$SURFTAB1
 70
     6
  9
$SURFTAB2
 70
     6
  9
$SURFTYPE
 70
     6
  9
$SURFU
 70
     6
  9
$SURFV
 70
     6
  9
$UCSBASE
  2

  9
$UCSNAME
  2

  9
$UCSORG
 10
0.0
 20
0.0
 30
0.0
  9
$UCSXDIR
 10
1.0
 20
0.0
 30
0.0
  9
$UCSYDIR
 10
0.0
 20
1.0
 30
0.0
  9
$UCSORTHOREF
  2

  9
$UCSORTHOVIEW
 70
     0
  9
$UCSORGTOP
 10
0.0
 20
0.0
 30
0.0
  9
$UCSORGBOTTOM
 10
0.0
 20
0.0
 30
0.0
  9
$UCSORGLEFT
 10
0.0
 20
0.0
 30
0.0
  9
$UCSORGRIGHT
 10
0.0
 20
0.0
 30
0.0
  9
$UCSORGFRONT
 10
0.0
 20
0.0
 30
0.0
  9
$UCSORGBACK
 10
0.0
 20
0.0
 30
0.0
  9
$PUCSBASE
  2

  9
$PUCSNAME
  2

  9
$PUCSORG
 10
0.0
 20
0.0
 30
0.0
  9
$PUCSXDIR
 10
1.0
 20
0.0
 30
0.0
  9
$PUCSYDIR
 10
0.0
 20
1.0
 30
0.0
  9
$PUCSORTHOREF
  2

  9
$PUCSORTHOVIEW
 70
     0
  9
$PUCSORGTOP
 10
0.0
 20
0.0
 30
0.0
  9
$PUCSORGBOTTOM
 10
0.0
 20
0.0
 30
0.0
  9
$PUCSORGLEFT
 10
0.0
 20
0.0
 30
0.0
  9
$PUCSORGRIGHT
 10
0.0
 20
0.0
 30
0.0
  9
$PUCSORGFRONT
 10
0.0
 20
0.0
 30
0.0
  9
$PUCSORGBACK
 10
0.0
 20
0.0
 30
0.0
  9
$USERI1
 70
     0
  9
$USERI2
 70
     0
  9
$USERI3
 70
     0
  9
$USERI4
 70
     0
  9
$USERI5
 70
     0
  9
$USERR1
 40
0.0
  9
$USERR2
 40
0.0
  9
$USERR3
 40
0.0
  9
$USERR4
 40
0.0
  9
$USERR5
 40
0.0
  9
$WORLDVIEW
 70
     1
  9
$SHADEDGE
 70
     3
  9
$SHADEDIF
 70
    70
  9
$TILEMODE
 70
     1
  9
$MAXACTVP
 70
    64
  9
$PINSBASE
 10
0.0
 20
0.0
 30
0.0
  9
$PLIMCHECK
 70
     0
  9
$PEXTMIN
 10
1.000000000000000E+20
 20
1.000000000000000E+20
 30
1.000000000000000E+20
  9
$PEXTMAX
 10
-1.000000000000000E+20
 20
-1.000000000000000E+20
 30
-1.000000000000000E+20
  9
$PLIMMIN
 10
0.0
 20
0.0
  9
$PLIMMAX
 10
12.0
 20
9.0
  9
$UNITMODE
 70
     0
  9
$VISRETAIN
 70
     1
  9
$PLINEGEN
 70
     0
  9
$PSLTSCALE
 70
     1
  9
$TREEDEPTH
 70
  3020
  9
$CMLSTYLE
  2
Standard
  9
$CMLJUST
 70
     0
  9
$CMLSCALE
 40
1.0
  9
$PROXYGRAPHICS
 70
     1
  9
$MEASUREMENT
 70
     0
  9
$CELWEIGHT
370
    -1
  9
$ENDCAPS
280
     0
  9
$JOINSTYLE
280
     0
  9
$LWDISPLAY
290
     1
  9
$INSUNITS
 70
     1
  9
$HYPERLINKBASE
  1

  9
$STYLESHEET
  1

  9
$XEDIT
290
     1
  9
$CEPSNTYPE
380
     0
  9
$PSTYLEMODE
290
     1
  9
$FINGERPRINTGUID
  2
{1F7F821C-B81C-B306-3314-B49E66C764DE}
  9
$VERSIONGUID
  2
{FAEB1C32-E019-11D5-929B-00C0DF256EC4}
  9
$EXTNAMES
290
     1
  9
$PSVPSCALE
 40
0.0
  9
$OLESTARTUP
290
     0
  9
$SORTENTS
280
   127
  9
$INDEXCTL
280
     0
  9
$HIDETEXT
280
     1
  9
$XCLIPFRAME
290
     0
  9
$HALOGAP
280
     0
  9
$OBSCOLOR
 70
   257
  9
$OBSLTYPE
280
     0
  9
$INTERSECTIONDISPLAY
280
     0
  9
$INTERSECTIONCOLOR
 70
   257
  9
$DIMASSOC
280
     2
  9
$PROJECTNAME
  1

  0
ENDSEC
  0
SECTION
  2
CLASSES
  0
CLASS
  1
ACDBDICTIONARYWDFLT
  2
AcDbDictionaryWithDefault
  3
ObjectDBX Classes
 90
        0
 91
        3
280
     0
281
     0
  0
CLASS
  1
VISUALSTYLE
  2
AcDbVisualStyle
  3
ObjectDBX Classes
 90
     4095
 91
        3
280
     0
281
     0
  0
ENDSEC
  0
SECTION
  2
TABLES
  0
TABLE
  2
VPORT
  5
8
330
0
100
AcDbSymbolTable
 70
     1
  0
VPORT
  5
29
330
8
100
AcDbSymbolTableRecord
100
AcDbViewportTableRecord
  2
*Active
 70
     0
 10
0.0
 20
0.0
 11
1.0
 21
1.0
 12
0.0
 22
0.0
 13
0.0
 23
0.0
 14
0.5
 24
0.5
 15
0.5
 25
0.5
 16
0.0
 26
0.0
 36
1.0
 17
234.9995920894012
 27
185.0002854359956
 37
0.0
 40
370.0005708719911
 41
1.270266105458004
 42
50.0
 43
0.0
 44
0.0
 50
0.0
 51
0.0
 71
     0
 72
   100
 73
     1
 74
     3
 75
     0
 76
     0
 77
     0
 78
     0
281
     0
 65
     1
110
0.0
120
0.0
130
0.0
111
1.0
121
0.0
131
0.0
112
0.0
122
1.0
132
0.0
 79
     0
146
0.0
  0
ENDTAB
  0
TABLE
  2
LTYPE
  5
5
330
0
100
AcDbSymbolTable
 70
     1
  0
LTYPE
  5
14
330
5
100
AcDbSymbolTableRecord
100
AcDbLinetypeTableRecord
  2
ByBlock
 70
     0
  3

 72
    65
 73
     0
 40
0.0
  0
LTYPE
  5
15
330
5
100
AcDbSymbolTableRecord
100
AcDbLinetypeTableRecord
  2
ByLayer
 70
     0
  3

 72
    65
 73
     0
 40
0.0
  0
LTYPE
  5
16
330
5
100
AcDbSymbolTableRecord
100
AcDbLinetypeTableRecord
  2
Continuous
 70
     0
  3
Solid line
 72
    65
 73
     0
 40
0.0
  0
ENDTAB
  0
TABLE
  2
LAYER
  5
2
330
0
100
AcDbSymbolTable
 70
     1
  0
LAYER
  5
10
330
2
100
AcDbSymbolTableRecord
100
AcDbLayerTableRecord
  2
0
 70
     0
 62
     7
  6
Continuous
370
    -3
390
F
  0
ENDTAB
  0
TABLE
  2
STYLE
  5
3
330
0
100
AcDbSymbolTable
 70
     1
  0
STYLE
  5
11
330
3
100
AcDbSymbolTableRecord
100
AcDbTextStyleTableRecord
  2
Standard
 70
     0
 40
0.0
 41
1.0
 50
0.0
 71
     0
 42
0.2
  3
txt
  4

  0
ENDTAB
  0
TABLE
  2
VIEW
  5
6
330
0
100
AcDbSymbolTable
 70
     0
  0
ENDTAB
  0
TABLE
  2
UCS
  5
7
330
0
100
AcDbSymbolTable
 70
     0
  0
ENDTAB
  0
TABLE
  2
APPID
  5
9
330
0
100
AcDbSymbolTable
 70
     1
  0
APPID
  5
12
330
9
100
AcDbSymbolTableRecord
100
AcDbRegAppTableRecord
  2
ACAD
 70
     0
  0
ENDTAB
  0
TABLE
  2
DIMSTYLE
  5
A
330
0
100
AcDbSymbolTable
 70
     1
100
AcDbDimStyleTable
  0
DIMSTYLE
105
27
330
A
100
AcDbSymbolTableRecord
100
AcDbDimStyleTableRecord
  2
Standard
 70
     0
340
11
  0
ENDTAB
  0
TABLE
  2
BLOCK_RECORD
  5
1
330
0
100
AcDbSymbolTable
 70
   100
  0
BLOCK_RECORD
  5
1F
330
1
100
AcDbSymbolTableRecord
100
AcDbBlockTableRecord
  2
*Model_Space
340
22
  0
BLOCK_RECORD
  5
1B
330
1
100
AcDbSymbolTableRecord
100
AcDbBlockTableRecord
  2
*Paper_Space
340
1E
  0
BLOCK_RECORD
  5
23
330
1
100
AcDbSymbolTableRecord
100
AcDbBlockTableRecord
  2
*Paper_Space0
340
26
  0
BLOCK_RECORD
  5
3B
330
1
100
AcDbSymbolTableRecord
100
AcDbBlockTableRecord
  2
block 2
340
0
102
{BLKREFS
331
3C
102
}
  0
BLOCK_RECORD
  5
43
330
1
100
AcDbSymbolTableRecord
100
AcDbBlockTableRecord
  2
block 3
340
0
102
{BLKREFS
331
44
102
}
  0
BLOCK_RECORD
  5
4B
330
1
100
AcDbSymbolTableRecord
100
AcDbBlockTableRecord
  2
block 4
340
0
102
{BLKREFS
331
4C
102
}
  0
BLOCK_RECORD
  5
53
330
1
100
AcDbSymbolTableRecord
100
AcDbBlockTableRecord
  2
block 5
340
0
102
{BLKREFS
331
54
102
}
  0
BLOCK_RECORD
  5
58
330
1
100
AcDbSymbolTableRecord
100
AcDbBlockTableRecord
  2
block 6
340
0
102
{BLKREFS
331
59
102
}
  0
BLOCK_RECORD
  5
60
330
1
100
AcDbSymbolTableRecord
100
AcDbBlockTableRecord
  2
block 7
340
0
102
{BLKREFS
331
61
102
}
  0
BLOCK_RECORD
  5
68
330
1
100
AcDbSymbolTableRecord
100
AcDbBlockTableRecord
  2
block 8
340
0
102
{BLKREFS
331
69
102
}
  0
BLOCK_RECORD
  5
70
330
1
100
AcDbSymbolTableRecord
100
AcDbBlockTableRecord
  2
block 9
340
0
102
{BLKREFS
331
71
102
}
  0
BLOCK_RECORD
  5
78
330
1
100
AcDbSymbolTableRecord
100
AcDbBlockTableRecord
  2
block 10
340
0
102
{BLKREFS
331
79
102
}
  0
BLOCK_RECORD
  5
81
330
1
100
AcDbSymbolTableRecord
100
AcDbBlockTableRecord
  2
block 11
340
0
102
{BLKREFS
331
82
102
}
  0
BLOCK_RECORD
  5
89
330
1
100
AcDbSymbolTableRecord
100
AcDbBlockTableRecord
  2
block 12
340
0
102
{BLKREFS
331
8A
102
}
  0
BLOCK_RECORD
  5
91
330
1
100
AcDbSymbolTableRecord
100
AcDbBlockTableRecord
  2
block 13
340
0
102
{BLKREFS
331
92
102
}
  0
BLOCK_RECORD
  5
99
330
1
100
AcDbSymbolTableRecord
100
AcDbBlockTableRecord
  2
block 14
340
0
102
{BLKREFS
331
9A
102
}
  0
BLOCK_RECORD
  5
A2
330
1
100
AcDbSymbolTableRecord
100
AcDbBlockTableRecord
  2
block 15
340
0
102
{BLKREFS
331
A3
102
}
  0
BLOCK_RECORD
  5
AA
330
1
100
AcDbSymbolTableRecord
100
AcDbBlockTableRecord
  2
block 16
340
0
102
{BLKREFS
331
AB
102
}
  0
BLOCK_RECORD
  5
B2
330
1
100
AcDbSymbolTableRecord
100
AcDbBlockTableRecord
  2
block 17
340
0
102
{BLKREFS
331
B3
102
}
  0
BLOCK_RECORD
  5
B7
330
1
100
AcDbSymbolTableRecord
100
AcDbBlockTableRecord
  2
block 18
340
0
102
{BLKREFS
331
B8
102
}
  0
BLOCK_RECORD
  5
BC
330
1
100
AcDbSymbolTableRecord
100
AcDbBlockTableRecord
  2
block 19
340
0
102
{BLKREFS
331
BD
102
}
  0
BLOCK_RECORD
  5
C1
330
1
100
AcDbSymbolTableRecord
100
AcDbBlockTableRecord
  2
block 20
340
0
102
{BLKREFS
331
C2
102
}
  0
BLOCK_RECORD
  5
C6
330
1
100
AcDbSymbolTableRecord
100
AcDbBlockTableRecord
  2
block 21
340
0
102
{BLKREFS
331
C7
102
}
  0
BLOCK_RECORD
  5
CE
330
1
100
AcDbSymbolTableRecord
100
AcDbBlockTableRecord
  2
block 22
340
0
102
{BLKREFS
331
CF
102
}
  0
BLOCK_RECORD
  5
D6
330
1
100
AcDbSymbolTableRecord
100
AcDbBlockTableRecord
  2
block 23
340
0
102
{BLKREFS
331
D7
102
}
  0
BLOCK_RECORD
  5
DE
330
1
100
AcDbSymbolTableRecord
100
AcDbBlockTableRecord
  2
block 24
340
0
102
{BLKREFS
331
DF
102
}
  0
BLOCK_RECORD
  5
E6
330
1
100
AcDbSymbolTableRecord
100
AcDbBlockTableRecord
  2
block 25
340
0
102
{BLKREFS
331
E7
102
}
  0
BLOCK_RECORD
  5
EE
330
1
100
AcDbSymbolTableRecord
100
AcDbBlockTableRecord
  2
block 26
340
0
102
{BLKREFS
331
EF
102
}
  0
BLOCK_RECORD
  5
F6
330
1
100
AcDbSymbolTableRecord
100
AcDbBlockTableRecord
  2
block 27
340
0
102
{BLKREFS
331
F7
102
}
  0
BLOCK_RECORD
  5
FB
330
1
100
AcDbSymbolTableRecord
100
AcDbBlockTableRecord
  2
block 28
340
0
102
{BLKREFS
331
FC
102
}
  0
BLOCK_RECORD
  5
103
330
1
100
AcDbSymbolTableRecord
100
AcDbBlockTableRecord
  2
block 29
340
0
102
{BLKREFS
331
104
102
}
  0
BLOCK_RECORD
  5
10B
330
1
100
AcDbSymbolTableRecord
100
AcDbBlockTableRecord
  2
block 30
340
0
102
{BLKREFS
331
10C
102
}
  0
BLOCK_RECORD
  5
110
330
1
100
AcDbSymbolTableRecord
100
AcDbBlockTableRecord
  2
block 31
340
0
102
{BLKREFS
331
111
102
}
  0
BLOCK_RECORD
  5
119
330
1
100
AcDbSymbolTableRecord
100
AcDbBlockTableRecord
  2
block 32
340
0
102
{BLKREFS
331
11A
102
}
  0
BLOCK_RECORD
  5
122
330
1
100
AcDbSymbolTableRecord
100
AcDbBlockTableRecord
  2
block 33
340
0
102
{BLKREFS
331
123
102
}
  0
BLOCK_RECORD
  5
12A
330
1
100
AcDbSymbolTableRecord
100
AcDbBlockTableRecord
  2
block 34
340
0
102
{BLKREFS
331
12B
102
}
  0
BLOCK_RECORD
  5
132
330
1
100
AcDbSymbolTableRecord
100
AcDbBlockTableRecord
  2
block 35
340
0
102
{BLKREFS
331
133
102
}
  0
BLOCK_RECORD
  5
13A
330
1
100
AcDbSymbolTableRecord
100
AcDbBlockTableRecord
  2
block 36
340
0
102
{BLKREFS
331
13B
102
}
  0
BLOCK_RECORD
  5
142
330
1
100
AcDbSymbolTableRecord
100
AcDbBlockTableRecord
  2
block 37
340
0
102
{BLKREFS
331
143
102
}
  0
BLOCK_RECORD
  5
147
330
1
100
AcDbSymbolTableRecord
100
AcDbBlockTableRecord
  2
block 38
340
0
102
{BLKREFS
331
148
102
}
  0
BLOCK_RECORD
  5
14C
330
1
100
AcDbSymbolTableRecord
100
AcDbBlockTableRecord
  2
block 39
340
0
102
{BLKREFS
331
14D
102
}
  0
BLOCK_RECORD
  5
151
330
1
100
AcDbSymbolTableRecord
100
AcDbBlockTableRecord
  2
block 40
340
0
102
{BLKREFS
331
152
102
}
  0
BLOCK_RECORD
  5
159
330
1
100
AcDbSymbolTableRecord
100
AcDbBlockTableRecord
  2
block 41
340
0
102
{BLKREFS
331
15A
102
}
  0
BLOCK_RECORD
  5
15E
330
1
100
AcDbSymbolTableRecord
100
AcDbBlockTableRecord
  2
block 42
340
0
102
{BLKREFS
331
15F
102
}
  0
BLOCK_RECORD
  5
167
330
1
100
AcDbSymbolTableRecord
100
AcDbBlockTableRecord
  2
block 43
340
0
102
{BLKREFS
331
168
102
}
  0
BLOCK_RECORD
  5
16C
330
1
100
AcDbSymbolTableRecord
100
AcDbBlockTableRecord
  2
block 44
340
0
102
{BLKREFS
331
16D
102
}
  0
BLOCK_RECORD
  5
174
330
1
100
AcDbSymbolTableRecord
100
AcDbBlockTableRecord
  2
block 45
340
0
102
{BLKREFS
331
175
102
}
  0
BLOCK_RECORD
  5
17D
330
1
100
AcDbSymbolTableRecord
100
AcDbBlockTableRecord
  2
block 46
340
0
102
{BLKREFS
331
17E
102
}
  0
BLOCK_RECORD
  5
185
330
1
100
AcDbSymbolTableRecord
100
AcDbBlockTableRecord
  2
block 47
340
0
102
{BLKREFS
331
186
102
}
  0
BLOCK_RECORD
  5
18D
330
1
100
AcDbSymbolTableRecord
100
AcDbBlockTableRecord
  2
block 48
340
0
102
{BLKREFS
331
18E
102
}
  0
BLOCK_RECORD
  5
195
330
1
100
AcDbSymbolTableRecord
100
AcDbBlockTableRecord
  2
block 49
340
0
102
{BLKREFS
331
196
102
}
  0
BLOCK_RECORD
  5
19D
330
1
100
AcDbSymbolTableRecord
100
AcDbBlockTableRecord
  2
block 50
340
0
102
{BLKREFS
331
19E
102
}
  0
BLOCK_RECORD
  5
1A5
330
1
100
AcDbSymbolTableRecord
100
AcDbBlockTableRecord
  2
block 51
340
0
102
{BLKREFS
331
1A6
102
}
  0
BLOCK_RECORD
  5
1AD
330
1
100
AcDbSymbolTableRecord
100
AcDbBlockTableRecord
  2
block 52
340
0
102
{BLKREFS
331
1AE
102
}
  0
BLOCK_RECORD
  5
1B5
330
1
100
AcDbSymbolTableRecord
100
AcDbBlockTableRecord
  2
block 53
340
0
102
{BLKREFS
331
1B6
102
}
  0
BLOCK_RECORD
  5
1BD
330
1
100
AcDbSymbolTableRecord
100
AcDbBlockTableRecord
  2
block 54
340
0
102
{BLKREFS
331
1BE
102
}
  0
BLOCK_RECORD
  5
1C5
330
1
100
AcDbSymbolTableRecord
100
AcDbBlockTableRecord
  2
block 55
340
0
102
{BLKREFS
331
1C6
102
}
  0
BLOCK_RECORD
  5
1CD
330
1
100
AcDbSymbolTableRecord
100
AcDbBlockTableRecord
  2
block 56
340
0
102
{BLKREFS
331
1CE
102
}
  0
BLOCK_RECORD
  5
1D2
330
1
100
AcDbSymbolTableRecord
100
AcDbBlockTableRecord
  2
block 57
340
0
102
{BLKREFS
331
1D3
102
}
  0
BLOCK_RECORD
  5
1D7
330
1
100
AcDbSymbolTableRecord
100
AcDbBlockTableRecord
  2
block 58
340
0
102
{BLKREFS
331
1D8
102
}
  0
BLOCK_RECORD
  5
1DC
330
1
100
AcDbSymbolTableRecord
100
AcDbBlockTableRecord
  2
block 59
340
0
102
{BLKREFS
331
1DD
102
}
  0
BLOCK_RECORD
  5
1E1
330
1
100
AcDbSymbolTableRecord
100
AcDbBlockTableRecord
  2
block 60
340
0
102
{BLKREFS
331
1E2
102
}
  0
BLOCK_RECORD
  5
1E6
330
1
100
AcDbSymbolTableRecord
100
AcDbBlockTableRecord
  2
block 61
340
0
102
{BLKREFS
331
1E7
102
}
  0
BLOCK_RECORD
  5
1EB
330
1
100
AcDbSymbolTableRecord
100
AcDbBlockTableRecord
  2
block 62
340
0
102
{BLKREFS
331
1EC
102
}
  0
BLOCK_RECORD
  5
1F0
330
1
100
AcDbSymbolTableRecord
100
AcDbBlockTableRecord
  2
block 63
340
0
102
{BLKREFS
331
1F1
102
}
  0
BLOCK_RECORD
  5
1F8
330
1
100
AcDbSymbolTableRecord
100
AcDbBlockTableRecord
  2
block 64
340
0
102
{BLKREFS
331
1F9
102
}
  0
BLOCK_RECORD
  5
1FF
330
1
100
AcDbSymbolTableRecord
100
AcDbBlockTableRecord
  2
block 65
340
0
102
{BLKREFS
331
200
102
}
  0
BLOCK_RECORD
  5
207
330
1
100
AcDbSymbolTableRecord
100
AcDbBlockTableRecord
  2
block 66
340
0
102
{BLKREFS
331
208
102
}
  0
BLOCK_RECORD
  5
20E
330
1
100
AcDbSymbolTableRecord
100
AcDbBlockTableRecord
  2
block 67
340
0
102
{BLKREFS
331
20F
102
}
  0
BLOCK_RECORD
  5
215
330
1
100
AcDbSymbolTableRecord
100
AcDbBlockTableRecord
  2
block 68
340
0
102
{BLKREFS
331
216
102
}
  0
BLOCK_RECORD
  5
21D
330
1
100
AcDbSymbolTableRecord
100
AcDbBlockTableRecord
  2
block 69
340
0
102
{BLKREFS
331
21E
102
}
  0
BLOCK_RECORD
  5
225
330
1
100
AcDbSymbolTableRecord
100
AcDbBlockTableRecord
  2
block 70
340
0
102
{BLKREFS
331
226
102
}
  0
BLOCK_RECORD
  5
22D
330
1
100
AcDbSymbolTableRecord
100
AcDbBlockTableRecord
  2
block 71
340
0
102
{BLKREFS
331
22E
102
}
  0
BLOCK_RECORD
  5
235
330
1
100
AcDbSymbolTableRecord
100
AcDbBlockTableRecord
  2
block 72
340
0
102
{BLKREFS
331
236
102
}
  0
BLOCK_RECORD
  5
23D
330
1
100
AcDbSymbolTableRecord
100
AcDbBlockTableRecord
  2
block 73
340
0
102
{BLKREFS
331
23E
102
}
  0
BLOCK_RECORD
  5
245
330
1
100
AcDbSymbolTableRecord
100
AcDbBlockTableRecord
  2
block 74
340
0
102
{BLKREFS
331
246
102
}
  0
BLOCK_RECORD
  5
24C
330
1
100
AcDbSymbolTableRecord
100
AcDbBlockTableRecord
  2
block 75
340
0
102
{BLKREFS
331
24D
102
}
  0
BLOCK_RECORD
  5
251
330
1
100
AcDbSymbolTableRecord
100
AcDbBlockTableRecord
  2
block 76
340
0
102
{BLKREFS
331
252
102
}
  0
BLOCK_RECORD
  5
258
330
1
100
AcDbSymbolTableRecord
100
AcDbBlockTableRecord
  2
block 77
340
0
102
{BLKREFS
331
259
102
}
  0
BLOCK_RECORD
  5
25D
330
1
100
AcDbSymbolTableRecord
100
AcDbBlockTableRecord
  2
block 78
340
0
102
{BLKREFS
331
25E
102
}
  0
BLOCK_RECORD
  5
264
330
1
100
AcDbSymbolTableRecord
100
AcDbBlockTableRecord
  2
block 79
340
0
102
{BLKREFS
331
265
102
}
  0
BLOCK_RECORD
  5
26C
330
1
100
AcDbSymbolTableRecord
100
AcDbBlockTableRecord
  2
block 80
340
0
102
{BLKREFS
331
26D
102
}
  0
BLOCK_RECORD
  5
274
330
1
100
AcDbSymbolTableRecord
100
AcDbBlockTableRecord
  2
block 81
340
0
102
{BLKREFS
331
275
102
}
  0
BLOCK_RECORD
  5
279
330
1
100
AcDbSymbolTableRecord
100
AcDbBlockTableRecord
  2
block 82
340
0
102
{BLKREFS
331
27A
102
}
  0
BLOCK_RECORD
  5
27E
330
1
100
AcDbSymbolTableRecord
100
AcDbBlockTableRecord
  2
block 83
340
0
102
{BLKREFS
331
27F
102
}
  0
BLOCK_RECORD
  5
286
330
1
100
AcDbSymbolTableRecord
100
AcDbBlockTableRecord
  2
block 84
340
0
102
{BLKREFS
331
287
102
}
  0
BLOCK_RECORD
  5
28D
330
1
100
AcDbSymbolTableRecord
100
AcDbBlockTableRecord
  2
block 85
340
0
102
{BLKREFS
331
28E
102
}
  0
BLOCK_RECORD
  5
295
330
1
100
AcDbSymbolTableRecord
100
AcDbBlockTableRecord
  2
block 86
340
0
102
{BLKREFS
331
296
102
}
  0
BLOCK_RECORD
  5
29C
330
1
100
AcDbSymbolTableRecord
100
AcDbBlockTableRecord
  2
block 87
340
0
102
{BLKREFS
331
29D
102
}
  0
BLOCK_RECORD
  5
2A3
330
1
100
AcDbSymbolTableRecord
100
AcDbBlockTableRecord
  2
block 88
340
0
102
{BLKREFS
331
2A4
102
}
  0
BLOCK_RECORD
  5
2AB
330
1
100
AcDbSymbolTableRecord
100
AcDbBlockTableRecord
  2
block 89
340
0
102
{BLKREFS
331
2AC
102
}
  0
BLOCK_RECORD
  5
2B3
330
1
100
AcDbSymbolTableRecord
100
AcDbBlockTableRecord
  2
block 90
340
0
102
{BLKREFS
331
2B4
102
}
  0
BLOCK_RECORD
  5
2BB
330
1
100
AcDbSymbolTableRecord
100
AcDbBlockTableRecord
  2
block 91
340
0
102
{BLKREFS
331
2BC
102
}
  0
BLOCK_RECORD
  5
2C3
330
1
100
AcDbSymbolTableRecord
100
AcDbBlockTableRecord
  2
block 92
340
0
102
{BLKREFS
331
2C4
102
}
  0
BLOCK_RECORD
  5
2CB
330
1
100
AcDbSymbolTableRecord
100
AcDbBlockTableRecord
  2
block 93
340
0
102
{BLKREFS
331
2CC
102
}
  0
BLOCK_RECORD
  5
2D3
330
1
100
AcDbSymbolTableRecord
100
AcDbBlockTableRecord
  2
block 94
340
0
102
{BLKREFS
331
2D4
102
}
  0
BLOCK_RECORD
  5
2DA
330
1
100
AcDbSymbolTableRecord
100
AcDbBlockTableRecord
  2
block 95
340
0
102
{BLKREFS
331
2DB
102
}
  0
BLOCK_RECORD
  5
2DF
330
1
100
AcDbSymbolTableRecord
100
AcDbBlockTableRecord
  2
block 96
340
0
102
{BLKREFS
331
2E0
102
}
  0
BLOCK_RECORD
  5
2E6
330
1
100
AcDbSymbolTableRecord
100
AcDbBlockTableRecord
  2
block 97
340
0
102
{BLKREFS
331
2E7
102
}
  0
BLOCK_RECORD
  5
2EB
330
1
100
AcDbSymbolTableRecord
100
AcDbBlockTableRecord
  2
block 98
340
0
102
{BLKREFS
331
2EC
102
}
  0
BLOCK_RECORD
  5
2F2
330
1
100
AcDbSymbolTableRecord
100
AcDbBlockTableRecord
  2
block 99
340
0
102
{BLKREFS
331
2F3
102
}
  0
BLOCK_RECORD
  5
2FA
330
1
100
AcDbSymbolTableRecord
100
AcDbBlockTableRecord
  2
block 100
340
0
102
{BLKREFS
331
2FB
102
}
  0
ENDTAB
  0
ENDSEC
  0
SECTION
  2
BLOCKS
  0
BLOCK
  5
20
330
1F
100
AcDbEntity
  8
0
100
AcDbBlockBegin
  2
*Model_Space
 70
     0
 71
     0
 10
0.0
 20
0.0
 30
0.0
  3
*Model_Space
  1

  0
ENDBLK
  5
21
330
1F
100
AcDbEntity
  8
0
100
AcDbBlockEnd
  0
BLOCK
  5
1C
330
1B
100
AcDbEntity
 67
     1
  8
0
100
AcDbBlockBegin
  2
*Paper_Space
 70
     0
 71
     0
 10
0.0
 20
0.0
 30
0.0
  3
*Paper_Space
  1

  0
ENDBLK
  5
1D
330
1B
100
AcDbEntity
 67
     1
  8
0
100
AcDbBlockEnd
  0
BLOCK
  5
24
330
23
100
AcDbEntity
  8
0
100
AcDbBlockBegin
  2
*Paper_Space0
 70
     0
 71
     0
 10
0.0
 20
0.0
 30
0.0
  3
*Paper_Space0
  1

  0
ENDBLK
  5
25
330
23
100
AcDbEntity
  8
0
100
AcDbBlockEnd
  0
BLOCK
  5
3D
330
3B
100
AcDbEntity
  8
0
100
AcDbBlockBegin
  2
block 2
 70
     0
 71
     0
 10
0.0
 20
0.0
 30
0.0
  3
block 2
  1

  0
POLYLINE
  5
3F
330
3B
100
AcDbEntity
  8
0
 62
     7
420
 16777215
370
    25
100
AcDb2dPolyline
 66
     1
 10
0.0
 20
0.0
 30
0.0
  0
VERTEX
  5
40
330
3F
100
AcDbEntity
  8
0
 62
     7
420
 16777215
370
    25
100
AcDbVertex
100
AcDb2dVertex
 10
125.2901094773354
 20
255.5471886472121
 30
0.0
  0
VERTEX
  5
41
330
3F
100
AcDbEntity
  8
0
 62
     7
420
 16777215
370
    25
100
AcDbVertex
100
AcDb2dVertex
 10
125.2901094773354
 20
258.990219346519
 30
0.0
  0
SEQEND
  5
42
330
3F
100
AcDbEntity
  8
0
370
    25
  0
ENDBLK
  5
3E
330
3B
100
AcDbEntity
  8
0
100
AcDbBlockEnd
  0
BLOCK
  5
45
330
43
100
AcDbEntity
  8
0
100
AcDbBlockBegin
  2
block 3
 70
     0
 71
     0
 10
0.0
 20
0.0
 30
0.0
  3
block 3
  1

  0
POLYLINE
  5
47
330
43
100
AcDbEntity
  8
0
 62
     7
420
 16777215
370
    25
100
AcDb2dPolyline
 66
     1
 10
0.0
 20
0.0
 30
0.0
  0
VERTEX
  5
48
330
47
100
AcDbEntity
  8
0
 62
     7
420
 16777215
370
    25
100
AcDbVertex
100
AcDb2dVertex
 10
123.6841771574616
 20
255.5471886472121
 30
0.0
  0
VERTEX
  5
49
330
47
100
AcDbEntity
  8
0
 62
     7
420
 16777215
370
    25
100
AcDbVertex
100
AcDb2dVertex
 10
125.2901094773354
 20
255.5471886472121
 30
0.0
  0
SEQEND
  5
4A
330
47
100
AcDbEntity
  8
0
370
    25
  0
ENDBLK
  5
46
330
43
100
AcDbEntity
  8
0
100
AcDbBlockEnd
  0
BLOCK
  5
4D
330
4B
100
AcDbEntity
  8
0
100
AcDbBlockBegin
  2
block 4
 70
     0
 71
     0
 10
0.0
 20
0.0
 30
0.0
  3
block 4
  1

  0
POLYLINE
  5
4F
330
4B
100
AcDbEntity
  8
0
 62
     7
420
 16777215
370
    25
100
AcDb2dPolyline
 66
     1
 10
0.0
 20
0.0
 30
0.0
  0
VERTEX
  5
50
330
4F
100
AcDbEntity
  8
0
 62
     7
420
 16777215
370
    25
100
AcDbVertex
100
AcDb2dVertex
 10
123.6841771574616
 20
258.990219346519
 30
0.0
  0
VERTEX
  5
51
330
4F
100
AcDbEntity
  8
0
 62
     7
420
 16777215
370
    25
100
AcDbVertex
100
AcDb2dVertex
 10
123.6841771574616
 20
255.5471886472121
 30
0.0
  0
SEQEND
  5
52
330
4F
100
AcDbEntity
  8
0
370
    25
  0
ENDBLK
  5
4E
330
4B
100
AcDbEntity
  8
0
100
AcDbBlockEnd
  0
BLOCK
  5
55
330
53
100
AcDbEntity
  8
0
100
AcDbBlockBegin
  2
block 5
 70
     0
 71
     0
 10
0.0
 20
0.0
 30
0.0
  3
block 5
  1

  0
SPLINE
  5
57
330
53
100
AcDbEntity
  8
0
 62
     7
420
 16777215
370
    25
100
AcDbSpline
210
0.0
220
0.0
230
1.0
 70
     8
 71
     3
 72
    11
 73
     7
 74
     0
 42
0.0000000001
 43
0.0000000001
 40
0.0
 40
0.0
 40
0.0
 40
0.0
 40
1.0
 40
1.0
 40
1.0
 40
2.0
 40
2.0
 40
2.0
 40
2.0
 10
123.6841771574616
 20
266.0240754389494
 30
0.0
 10
121.7418310415228
 20
265.5803468477239
 30
0.0
 10
120.5267450622897
 20
263.6464412212921
 30
0.0
 10
120.9701291437393
 20
261.7042673602412
 30
0.0
 10
121.2014674581865
 20
260.4306147191227
 30
0.0
 10
122.4105245163431
 20
259.2215576609661
 30
0.0
 10
123.6841771574616
 20
258.990219346519
 30
0.0
  0
ENDBLK
  5
56
330
53
100
AcDbEntity
  8
0
100
AcDbBlockEnd
  0
BLOCK
  5
5A
330
58
100
AcDbEntity
  8
0
100
AcDbBlockBegin
  2
block 6
 70
     0
 71
     0
 10
0.0
 20
0.0
 30
0.0
  3
block 6
  1

  0
POLYLINE
  5
5C
330
58
100
AcDbEntity
  8
0
 62
     7
420
 16777215
370
    25
100
AcDb2dPolyline
 66
     1
 10
0.0
 20
0.0
 30
0.0
  0
VERTEX
  5
5D
330
5C
100
AcDbEntity
  8
0
 62
     7
420
 16777215
370
    25
100
AcDbVertex
100
AcDb2dVertex
 10
123.6841771574616
 20
269.4667616284805
 30
0.0
  0
VERTEX
  5
5E
330
5C
100
AcDbEntity
  8
0
 62
     7
420
 16777215
370
    25
100
AcDbVertex
100
AcDb2dVertex
 10
123.6841771574616
 20
266.0240754389494
 30
0.0
  0
SEQEND
  5
5F
330
5C
100
AcDbEntity
  8
0
370
    25
  0
ENDBLK
  5
5B
330
58
100
AcDbEntity
  8
0
100
AcDbBlockEnd
  0
BLOCK
  5
62
330
60
100
AcDbEntity
  8
0
100
AcDbBlockBegin
  2
block 7
 70
     0
 71
     0
 10
0.0
 20
0.0
 30
0.0
  3
block 7
  1

  0
POLYLINE
  5
64
330
60
100
AcDbEntity
  8
0
 62
     7
420
 16777215
370
    25
100
AcDb2dPolyline
 66
     1
 10
0.0
 20
0.0
 30
0.0
  0
VERTEX
  5
65
330
64
100
AcDbEntity
  8
0
 62
     7
420
 16777215
370
    25
100
AcDbVertex
100
AcDb2dVertex
 10
125.2901094773354
 20
269.4667616284805
 30
0.0
  0
VERTEX
  5
66
330
64
100
AcDbEntity
  8
0
 62
     7
420
 16777215
370
    25
100
AcDbVertex
100
AcDb2dVertex
 10
123.6841771574616
 20
269.4667616284805
 30
0.0
  0
SEQEND
  5
67
330
64
100
AcDbEntity
  8
0
370
    25
  0
ENDBLK
  5
63
330
60
100
AcDbEntity
  8
0
100
AcDbBlockEnd
  0
BLOCK
  5
6A
330
68
100
AcDbEntity
  8
0
100
AcDbBlockBegin
  2
block 8
 70
     0
 71
     0
 10
0.0
 20
0.0
 30
0.0
  3
block 8
  1

  0
POLYLINE
  5
6C
330
68
100
AcDbEntity
  8
0
 62
     7
420
 16777215
370
    25
100
AcDb2dPolyline
 66
     1
 10
0.0
 20
0.0
 30
0.0
  0
VERTEX
  5
6D
330
6C
100
AcDbEntity
  8
0
 62
     7
420
 16777215
370
    25
100
AcDbVertex
100
AcDb2dVertex
 10
125.2901094773354
 20
266.0240754389494
 30
0.0
  0
VERTEX
  5
6E
330
6C
100
AcDbEntity
  8
0
 62
     7
420
 16777215
370
    25
100
AcDbVertex
100
AcDb2dVertex
 10
125.2901094773354
 20
269.4667616284805
 30
0.0
  0
SEQEND
  5
6F
330
6C
100
AcDbEntity
  8
0
370
    25
  0
ENDBLK
  5
6B
330
68
100
AcDbEntity
  8
0
100
AcDbBlockEnd
  0
BLOCK
  5
72
330
70
100
AcDbEntity
  8
0
100
AcDbBlockBegin
  2
block 9
 70
     0
 71
     0
 10
0.0
 20
0.0
 30
0.0
  3
block 9
  1

  0
POLYLINE
  5
74
330
70
100
AcDbEntity
  8
0
 62
     7
420
 16777215
370
    25
100
AcDb2dPolyline
 66
     1
 10
0.0
 20
0.0
 30
0.0
  0
VERTEX
  5
75
330
74
100
AcDbEntity
  8
0
 62
     7
420
 16777215
370
    25
100
AcDbVertex
100
AcDb2dVertex
 10
123.5439616787125
 20
258.8799762182642
 30
0.0
  0
VERTEX
  5
76
330
74
100
AcDbEntity
  8
0
 62
     7
420
 16777215
370
    25
100
AcDbVertex
100
AcDb2dVertex
 10
123.6841771574616
 20
258.990219346519
 30
0.0
  0
SEQEND
  5
77
330
74
100
AcDbEntity
  8
0
370
    25
  0
ENDBLK
  5
73
330
70
100
AcDbEntity
  8
0
100
AcDbBlockEnd
  0
BLOCK
  5
7A
330
78
100
AcDbEntity
  8
0
100
AcDbBlockBegin
  2
block 10
 70
     0
 71
     0
 10
0.0
 20
0.0
 30
0.0
  3
block 10
  1

  0
POLYLINE
  5
7C
330
78
100
AcDbEntity
  8
0
 62
     7
420
 16777215
370
    25
100
AcDb2dPolyline
 66
     1
 10
0.0
 20
0.0
 30
0.0
  0
VERTEX
  5
7D
330
7C
100
AcDbEntity
  8
0
 62
     7
420
 16777215
370
    25
100
AcDbVertex
100
AcDb2dVertex
 10
123.6841771574616
 20
266.0240754389494
 30
0.0
  0
VERTEX
  5
7E
330
7C
100
AcDbEntity
  8
0
 62
     7
420
 16777215
370
    25
100
AcDbVertex
100
AcDb2dVertex
 10
123.5601536381749
 20
266.1213994506118
 30
0.0
  0
VERTEX
  5
7F
330
7C
100
AcDbEntity
  8
0
 62
     7
420
 16777215
370
    25
100
AcDbVertex
100
AcDb2dVertex
 10
123.5439616787125
 20
266.1339740574283
 30
0.0
  0
SEQEND
  5
80
330
7C
100
AcDbEntity
  8
0
370
    25
  0
ENDBLK
  5
7B
330
78
100
AcDbEntity
  8
0
100
AcDbBlockEnd
  0
BLOCK
  5
83
330
81
100
AcDbEntity
  8
0
100
AcDbBlockBegin
  2
block 11
 70
     0
 71
     0
 10
0.0
 20
0.0
 30
0.0
  3
block 11
  1

  0
POLYLINE
  5
85
330
81
100
AcDbEntity
  8
0
 62
     7
420
 16777215
370
    25
100
AcDb2dPolyline
 66
     1
 10
0.0
 20
0.0
 30
0.0
  0
VERTEX
  5
86
330
85
100
AcDbEntity
  8
0
 62
     7
420
 16777215
370
    25
100
AcDbVertex
100
AcDb2dVertex
 10
123.5439616787125
 20
255.406973168463
 30
0.0
  0
VERTEX
  5
87
330
85
100
AcDbEntity
  8
0
 62
     7
420
 16777215
370
    25
100
AcDbVertex
100
AcDb2dVertex
 10
123.6841771574616
 20
255.5471886472121
 30
0.0
  0
SEQEND
  5
88
330
85
100
AcDbEntity
  8
0
370
    25
  0
ENDBLK
  5
84
330
81
100
AcDbEntity
  8
0
100
AcDbBlockEnd
  0
BLOCK
  5
8B
330
89
100
AcDbEntity
  8
0
100
AcDbBlockBegin
  2
block 12
 70
     0
 71
     0
 10
0.0
 20
0.0
 30
0.0
  3
block 12
  1

  0
POLYLINE
  5
8D
330
89
100
AcDbEntity
  8
0
 62
     7
420
 16777215
370
    25
100
AcDb2dPolyline
 66
     1
 10
0.0
 20
0.0
 30
0.0
  0
VERTEX
  5
8E
330
8D
100
AcDbEntity
  8
0
 62
     7
420
 16777215
370
    25
100
AcDbVertex
100
AcDb2dVertex
 10
123.5439616787125
 20
269.6069771072295
 30
0.0
  0
VERTEX
  5
8F
330
8D
100
AcDbEntity
  8
0
 62
     7
420
 16777215
370
    25
100
AcDbVertex
100
AcDb2dVertex
 10
123.6841771574616
 20
269.4667616284805
 30
0.0
  0
SEQEND
  5
90
330
8D
100
AcDbEntity
  8
0
370
    25
  0
ENDBLK
  5
8C
330
89
100
AcDbEntity
  8
0
100
AcDbBlockEnd
  0
BLOCK
  5
93
330
91
100
AcDbEntity
  8
0
100
AcDbBlockBegin
  2
block 13
 70
     0
 71
     0
 10
0.0
 20
0.0
 30
0.0
  3
block 13
  1

  0
POLYLINE
  5
95
330
91
100
AcDbEntity
  8
0
 62
     7
420
 16777215
370
    25
100
AcDb2dPolyline
 66
     1
 10
0.0
 20
0.0
 30
0.0
  0
VERTEX
  5
96
330
95
100
AcDbEntity
  8
0
 62
     7
420
 16777215
370
    25
100
AcDbVertex
100
AcDb2dVertex
 10
125.4301527011965
 20
255.406973168463
 30
0.0
  0
VERTEX
  5
97
330
95
100
AcDbEntity
  8
0
 62
     7
420
 16777215
370
    25
100
AcDbVertex
100
AcDb2dVertex
 10
125.2901094773354
 20
255.5471886472121
 30
0.0
  0
SEQEND
  5
98
330
95
100
AcDbEntity
  8
0
370
    25
  0
ENDBLK
  5
94
330
91
100
AcDbEntity
  8
0
100
AcDbBlockEnd
  0
BLOCK
  5
9B
330
99
100
AcDbEntity
  8
0
100
AcDbBlockBegin
  2
block 14
 70
     0
 71
     0
 10
0.0
 20
0.0
 30
0.0
  3
block 14
  1

  0
POLYLINE
  5
9D
330
99
100
AcDbEntity
  8
0
 62
     7
420
 16777215
370
    25
100
AcDb2dPolyline
 66
     1
 10
0.0
 20
0.0
 30
0.0
  0
VERTEX
  5
9E
330
9D
100
AcDbEntity
  8
0
 62
     7
420
 16777215
370
    25
100
AcDbVertex
100
AcDb2dVertex
 10
125.2901094773354
 20
258.990219346519
 30
0.0
  0
VERTEX
  5
9F
330
9D
100
AcDbEntity
  8
0
 62
     7
420
 16777215
370
    25
100
AcDbVertex
100
AcDb2dVertex
 10
125.4139607417341
 20
258.8928953348566
 30
0.0
  0
VERTEX
  5
A0
330
9D
100
AcDbEntity
  8
0
 62
     7
420
 16777215
370
    25
100
AcDbVertex
100
AcDb2dVertex
 10
125.4301527011965
 20
258.8799762182642
 30
0.0
  0
SEQEND
  5
A1
330
9D
100
AcDbEntity
  8
0
370
    25
  0
ENDBLK
  5
9C
330
99
100
AcDbEntity
  8
0
100
AcDbBlockEnd
  0
BLOCK
  5
A4
330
A2
100
AcDbEntity
  8
0
100
AcDbBlockBegin
  2
block 15
 70
     0
 71
     0
 10
0.0
 20
0.0
 30
0.0
  3
block 15
  1

  0
POLYLINE
  5
A6
330
A2
100
AcDbEntity
  8
0
 62
     7
420
 16777215
370
    25
100
AcDb2dPolyline
 66
     1
 10
0.0
 20
0.0
 30
0.0
  0
VERTEX
  5
A7
330
A6
100
AcDbEntity
  8
0
 62
     7
420
 16777215
370
    25
100
AcDbVertex
100
AcDb2dVertex
 10
125.4301527011965
 20
269.6069771072295
 30
0.0
  0
VERTEX
  5
A8
330
A6
100
AcDbEntity
  8
0
 62
     7
420
 16777215
370
    25
100
AcDbVertex
100
AcDb2dVertex
 10
125.2901094773354
 20
269.4667616284805
 30
0.0
  0
SEQEND
  5
A9
330
A6
100
AcDbEntity
  8
0
370
    25
  0
ENDBLK
  5
A5
330
A2
100
AcDbEntity
  8
0
100
AcDbBlockEnd
  0
BLOCK
  5
AC
330
AA
100
AcDbEntity
  8
0
100
AcDbBlockBegin
  2
block 16
 70
     0
 71
     0
 10
0.0
 20
0.0
 30
0.0
  3
block 16
  1

  0
POLYLINE
  5
AE
330
AA
100
AcDbEntity
  8
0
 62
     7
420
 16777215
370
    25
100
AcDb2dPolyline
 66
     1
 10
0.0
 20
0.0
 30
0.0
  0
VERTEX
  5
AF
330
AE
100
AcDbEntity
  8
0
 62
     7
420
 16777215
370
    25
100
AcDbVertex
100
AcDb2dVertex
 10
125.4301527011965
 20
266.1339740574283
 30
0.0
  0
VERTEX
  5
B0
330
AE
100
AcDbEntity
  8
0
 62
     7
420
 16777215
370
    25
100
AcDbVertex
100
AcDb2dVertex
 10
125.2901094773354
 20
266.0240754389494
 30
0.0
  0
SEQEND
  5
B1
330
AE
100
AcDbEntity
  8
0
370
    25
  0
ENDBLK
  5
AD
330
AA
100
AcDbEntity
  8
0
100
AcDbBlockEnd
  0
BLOCK
  5
B4
330
B2
100
AcDbEntity
  8
0
100
AcDbBlockBegin
  2
block 17
 70
     0
 71
     0
 10
0.0
 20
0.0
 30
0.0
  3
block 17
  1

  0
SPLINE
  5
B6
330
B2
100
AcDbEntity
  8
0
 62
     7
420
 16777215
370
    25
100
AcDbSpline
210
0.0
220
0.0
230
1.0
 70
     8
 71
     3
 72
    11
 73
     7
 74
     0
 42
0.0000000001
 43
0.0000000001
 40
0.0
 40
0.0
 40
0.0
 40
0.0
 40
1.0
 40
1.0
 40
1.0
 40
2.0
 40
2.0
 40
2.0
 40
2.0
 10
125.4301527011965
 20
258.8799762182642
 30
0.0
 10
127.4333047925634
 20
259.4012195090438
 30
0.0
 10
128.6351271454283
 20
261.4470908126094
 30
0.0
 10
128.1142283644245
 20
263.4502429039762
 30
0.0
 10
127.8575685814563
 20
264.6796260389048
 30
0.0
 10
126.659880345901
 20
265.877658784236
 30
0.0
 10
125.4301527011965
 20
266.1339740574283
 30
0.0
  0
ENDBLK
  5
B5
330
B2
100
AcDbEntity
  8
0
100
AcDbBlockEnd
  0
BLOCK
  5
B9
330
B7
100
AcDbEntity
  8
0
100
AcDbBlockBegin
  2
block 18
 70
     0
 71
     0
 10
0.0
 20
0.0
 30
0.0
  3
block 18
  1

  0
SPLINE
  5
BB
330
B7
100
AcDbEntity
  8
0
 62
     7
420
 16777215
370
    25
100
AcDbSpline
210
0.0
220
0.0
230
1.0
 70
    11
 71
     3
 72
    23
 73
    19
 74
     0
 42
0.0000000001
 43
0.0000000001
 40
0.0
 40
0.0
 40
0.0
 40
0.0
 40
1.0
 40
1.0
 40
1.0
 40
2.0
 40
2.0
 40
2.0
 40
3.0
 40
3.0
 40
3.0
 40
4.0
 40
4.0
 40
4.0
 40
5.0
 40
5.0
 40
5.0
 40
6.0
 40
6.0
 40
6.0
 40
6.0
 10
134.9928828028587
 20
292.5106760217104
 30
0.0
 10
134.9928828028587
 20
294.7198449590034
 30
0.0
 10
133.2017764784944
 20
296.5109512833676
 30
0.0
 10
130.9926075412015
 20
296.5109512833676
 30
0.0
 10
128.7830940941328
 20
296.5109512833676
 30
0.0
 10
126.9919877697685
 20
294.7198449590034
 30
0.0
 10
126.9919877697685
 20
292.5106760217104
 30
0.0
 10
126.9919877697685
 20
290.3011625746417
 30
0.0
 10
128.7830940941328
 20
288.5100562502774
 30
0.0
 10
130.9926075412015
 20
288.5100562502774
 30
0.0
 10
133.2017764784944
 20
288.5100562502774
 30
0.0
 10
134.9928828028587
 20
290.3011625746417
 30
0.0
 10
134.9928828028587
 20
292.5106760217104
 30
0.0
 10
134.9928828028587
 20
292.5106760217104
 30
0.0
 10
134.9928828028587
 20
292.5106760217104
 30
0.0
 10
134.9928828028587
 20
292.5106760217104
 30
0.0
 10
134.9928828028587
 20
292.5106760217104
 30
0.0
 10
134.9928828028587
 20
292.5106760217104
 30
0.0
 10
134.9928828028587
 20
292.5106760217104
 30
0.0
  0
ENDBLK
  5
BA
330
B7
100
AcDbEntity
  8
0
100
AcDbBlockEnd
  0
BLOCK
  5
BE
330
BC
100
AcDbEntity
  8
0
100
AcDbBlockBegin
  2
block 19
 70
     0
 71
     0
 10
0.0
 20
0.0
 30
0.0
  3
block 19
  1

  0
SPLINE
  5
C0
330
BC
100
AcDbEntity
  8
0
 62
     7
420
 16777215
370
    25
100
AcDbSpline
210
0.0
220
0.0
230
1.0
 70
    11
 71
     3
 72
    23
 73
    19
 74
     0
 42
0.0000000001
 43
0.0000000001
 40
0.0
 40
0.0
 40
0.0
 40
0.0
 40
1.0
 40
1.0
 40
1.0
 40
2.0
 40
2.0
 40
2.0
 40
3.0
 40
3.0
 40
3.0
 40
4.0
 40
4.0
 40
4.0
 40
5.0
 40
5.0
 40
5.0
 40
6.0
 40
6.0
 40
6.0
 40
6.0
 10
138.9928135547401
 20
275.0083736270498
 30
0.0
 10
138.9928135547401
 20
277.2177148192306
 30
0.0
 10
137.2020517401516
 20
279.008476633819
 30
0.0
 10
134.9930550577466
 20
279.008476633819
 30
0.0
 10
132.7837138655658
 20
279.008476633819
 30
0.0
 10
130.9929520509773
 20
277.2177148192306
 30
0.0
 10
130.9929520509773
 20
275.0083736270498
 30
0.0
 10
130.9929520509773
 20
272.7993769446447
 30
0.0
 10
132.7837138655658
 20
271.0086151300562
 30
0.0
 10
134.9930550577466
 20
271.0086151300562
 30
0.0
 10
137.2020517401516
 20
271.0086151300562
 30
0.0
 10
138.9928135547401
 20
272.7993769446447
 30
0.0
 10
138.9928135547401
 20
275.0083736270498
 30
0.0
 10
138.9928135547401
 20
275.0083736270498
 30
0.0
 10
138.9928135547401
 20
275.0083736270498
 30
0.0
 10
138.9928135547401
 20
275.0083736270498
 30
0.0
 10
138.9928135547401
 20
275.0083736270498
 30
0.0
 10
138.9928135547401
 20
275.0083736270498
 30
0.0
 10
138.9928135547401
 20
275.0083736270498
 30
0.0
  0
ENDBLK
  5
BF
330
BC
100
AcDbEntity
  8
0
100
AcDbBlockEnd
  0
BLOCK
  5
C3
330
C1
100
AcDbEntity
  8
0
100
AcDbBlockBegin
  2
block 20
 70
     0
 71
     0
 10
0.0
 20
0.0
 30
0.0
  3
block 20
  1

  0
SPLINE
  5
C5
330
C1
100
AcDbEntity
  8
0
 62
     7
420
 16777215
370
    25
100
AcDbSpline
210
0.0
220
0.0
230
1.0
 70
    11
 71
     3
 72
    23
 73
    19
 74
     0
 42
0.0000000001
 43
0.0000000001
 40
0.0
 40
0.0
 40
0.0
 40
0.0
 40
1.0
 40
1.0
 40
1.0
 40
2.0
 40
2.0
 40
2.0
 40
3.0
 40
3.0
 40
3.0
 40
4.0
 40
4.0
 40
4.0
 40
5.0
 40
5.0
 40
5.0
 40
6.0
 40
6.0
 40
6.0
 40
6.0
 10
163.995782788035
 20
272.0080379896409
 30
0.0
 10
163.995782788035
 20
274.2173791818217
 30
0.0
 10
162.2048487185586
 20
276.0081409964102
 30
0.0
 10
159.9958520361536
 20
276.0081409964102
 30
0.0
 10
157.7865108439727
 20
276.0081409964102
 30
0.0
 10
155.9957490293842
 20
274.2173791818217
 30
0.0
 10
155.9957490293842
 20
272.0080379896409
 30
0.0
 10
155.9957490293842
 20
269.7990413072359
 30
0.0
 10
157.7865108439727
 20
268.0082794926474
 30
0.0
 10
159.9958520361536
 20
268.0082794926474
 30
0.0
 10
162.2048487185586
 20
268.0082794926474
 30
0.0
 10
163.995782788035
 20
269.7990413072359
 30
0.0
 10
163.995782788035
 20
272.0080379896409
 30
0.0
 10
163.995782788035
 20
272.0080379896409
 30
0.0
 10
163.995782788035
 20
272.0080379896409
 30
0.0
 10
163.995782788035
 20
272.0080379896409
 30
0.0
 10
163.995782788035
 20
272.0080379896409
 30
0.0
 10
163.995782788035
 20
272.0080379896409
 30
0.0
 10
163.995782788035
 20
272.0080379896409
 30
0.0
  0
ENDBLK
  5
C4
330
C1
100
AcDbEntity
  8
0
100
AcDbBlockEnd
  0
BLOCK
  5
C8
330
C6
100
AcDbEntity
  8
0
100
AcDbBlockBegin
  2
block 21
 70
     0
 71
     0
 10
0.0
 20
0.0
 30
0.0
  3
block 21
  1

  0
POLYLINE
  5
CA
330
C6
100
AcDbEntity
  8
0
 62
     7
420
 16777215
370
    25
100
AcDb2dPolyline
 66
     1
 10
0.0
 20
0.0
 30
0.0
  0
VERTEX
  5
CB
330
CA
100
AcDbEntity
  8
0
 62
     7
420
 16777215
370
    25
100
AcDbVertex
100
AcDb2dVertex
 10
196.5330085631041
 20
300.8031985800121
 30
0.0
  0
VERTEX
  5
CC
330
CA
100
AcDbEntity
  8
0
 62
     7
420
 16777215
370
    25
100
AcDbVertex
100
AcDb2dVertex
 10
193.1383814872966
 20
300.8031985800121
 30
0.0
  0
SEQEND
  5
CD
330
CA
100
AcDbEntity
  8
0
370
    25
  0
ENDBLK
  5
C9
330
C6
100
AcDbEntity
  8
0
100
AcDbBlockEnd
  0
BLOCK
  5
D0
330
CE
100
AcDbEntity
  8
0
100
AcDbBlockBegin
  2
block 22
 70
     0
 71
     0
 10
0.0
 20
0.0
 30
0.0
  3
block 22
  1

  0
POLYLINE
  5
D2
330
CE
100
AcDbEntity
  8
0
 62
     7
420
 16777215
370
    25
100
AcDb2dPolyline
 66
     1
 10
0.0
 20
0.0
 30
0.0
  0
VERTEX
  5
D3
330
D2
100
AcDbEntity
  8
0
 62
     7
420
 16777215
370
    25
100
AcDbVertex
100
AcDb2dVertex
 10
193.0000608123144
 20
300.9413470001064
 30
0.0
  0
VERTEX
  5
D4
330
D2
100
AcDbEntity
  8
0
 62
     7
420
 16777215
370
    25
100
AcDbVertex
100
AcDb2dVertex
 10
193.1383814872966
 20
300.8031985800121
 30
0.0
  0
SEQEND
  5
D5
330
D2
100
AcDbEntity
  8
0
370
    25
  0
ENDBLK
  5
D1
330
CE
100
AcDbEntity
  8
0
100
AcDbBlockEnd
  0
BLOCK
  5
D8
330
D6
100
AcDbEntity
  8
0
100
AcDbBlockBegin
  2
block 23
 70
     0
 71
     0
 10
0.0
 20
0.0
 30
0.0
  3
block 23
  1

  0
POLYLINE
  5
DA
330
D6
100
AcDbEntity
  8
0
 62
     7
420
 16777215
370
    25
100
AcDb2dPolyline
 66
     1
 10
0.0
 20
0.0
 30
0.0
  0
VERTEX
  5
DB
330
DA
100
AcDbEntity
  8
0
 62
     7
420
 16777215
370
    25
100
AcDbVertex
100
AcDb2dVertex
 10
196.4241434739525
 20
300.9413470001064
 30
0.0
  0
VERTEX
  5
DC
330
DA
100
AcDbEntity
  8
0
 62
     7
420
 16777215
370
    25
100
AcDbVertex
100
AcDb2dVertex
 10
196.5330085631041
 20
300.8031985800121
 30
0.0
  0
SEQEND
  5
DD
330
DA
100
AcDbEntity
  8
0
370
    25
  0
ENDBLK
  5
D9
330
D6
100
AcDbEntity
  8
0
100
AcDbBlockEnd
  0
BLOCK
  5
E0
330
DE
100
AcDbEntity
  8
0
100
AcDbBlockBegin
  2
block 24
 70
     0
 71
     0
 10
0.0
 20
0.0
 30
0.0
  3
block 24
  1

  0
POLYLINE
  5
E2
330
DE
100
AcDbEntity
  8
0
 62
     7
420
 16777215
370
    25
100
AcDb2dPolyline
 66
     1
 10
0.0
 20
0.0
 30
0.0
  0
VERTEX
  5
E3
330
E2
100
AcDbEntity
  8
0
 62
     7
420
 16777215
370
    25
100
AcDbVertex
100
AcDb2dVertex
 10
193.1383814872966
 20
300.8031985800121
 30
0.0
  0
VERTEX
  5
E4
330
E2
100
AcDbEntity
  8
0
 62
     7
420
 16777215
370
    25
100
AcDbVertex
100
AcDb2dVertex
 10
193.1383814872966
 20
299.219659395565
 30
0.0
  0
SEQEND
  5
E5
330
E2
100
AcDbEntity
  8
0
370
    25
  0
ENDBLK
  5
E1
330
DE
100
AcDbEntity
  8
0
100
AcDbBlockEnd
  0
BLOCK
  5
E8
330
E6
100
AcDbEntity
  8
0
100
AcDbBlockBegin
  2
block 25
 70
     0
 71
     0
 10
0.0
 20
0.0
 30
0.0
  3
block 25
  1

  0
POLYLINE
  5
EA
330
E6
100
AcDbEntity
  8
0
 62
     7
420
 16777215
370
    25
100
AcDb2dPolyline
 66
     1
 10
0.0
 20
0.0
 30
0.0
  0
VERTEX
  5
EB
330
EA
100
AcDbEntity
  8
0
 62
     7
420
 16777215
370
    25
100
AcDbVertex
100
AcDb2dVertex
 10
193.0000608123144
 20
299.0815109754707
 30
0.0
  0
VERTEX
  5
EC
330
EA
100
AcDbEntity
  8
0
 62
     7
420
 16777215
370
    25
100
AcDbVertex
100
AcDb2dVertex
 10
193.1383814872966
 20
299.219659395565
 30
0.0
  0
SEQEND
  5
ED
330
EA
100
AcDbEntity
  8
0
370
    25
  0
ENDBLK
  5
E9
330
E6
100
AcDbEntity
  8
0
100
AcDbBlockEnd
  0
BLOCK
  5
F0
330
EE
100
AcDbEntity
  8
0
100
AcDbBlockBegin
  2
block 26
 70
     0
 71
     0
 10
0.0
 20
0.0
 30
0.0
  3
block 26
  1

  0
POLYLINE
  5
F2
330
EE
100
AcDbEntity
  8
0
 62
     7
420
 16777215
370
    25
100
AcDb2dPolyline
 66
     1
 10
0.0
 20
0.0
 30
0.0
  0
VERTEX
  5
F3
330
F2
100
AcDbEntity
  8
0
 62
     7
420
 16777215
370
    25
100
AcDbVertex
100
AcDb2dVertex
 10
193.1383814872966
 20
299.219659395565
 30
0.0
  0
VERTEX
  5
F4
330
F2
100
AcDbEntity
  8
0
 62
     7
420
 16777215
370
    25
100
AcDbVertex
100
AcDb2dVertex
 10
196.5330085631041
 20
299.219659395565
 30
0.0
  0
SEQEND
  5
F5
330
F2
100
AcDbEntity
  8
0
370
    25
  0
ENDBLK
  5
F1
330
EE
100
AcDbEntity
  8
0
100
AcDbBlockEnd
  0
BLOCK
  5
F8
330
F6
100
AcDbEntity
  8
0
100
AcDbBlockBegin
  2
block 27
 70
     0
 71
     0
 10
0.0
 20
0.0
 30
0.0
  3
block 27
  1

  0
SPLINE
  5
FA
330
F6
100
AcDbEntity
  8
0
 62
     7
420
 16777215
370
    25
100
AcDbSpline
210
0.0
220
0.0
230
1.0
 70
     8
 71
     3
 72
    11
 73
     7
 74
     0
 42
0.0000000001
 43
0.0000000001
 40
0.0
 40
0.0
 40
0.0
 40
0.0
 40
1.0
 40
1.0
 40
1.0
 40
2.0
 40
2.0
 40
2.0
 40
2.0
 10
203.4676458401052
 20
300.8031985800121
 30
0.0
 10
203.030290679732
 20
302.7181561687751
 30
0.0
 10
201.1236013255881
 20
303.9161889141063
 30
0.0
 10
199.2086437368251
 20
303.4788337537331
 30
0.0
 10
197.953077858936
 20
303.250596027268
 30
0.0
 10
196.7609017797933
 20
302.0589367127891
 30
0.0
 10
196.5330085631041
 20
300.8031985800121
 30
0.0
  0
ENDBLK
  5
F9
330
F6
100
AcDbEntity
  8
0
100
AcDbBlockEnd
  0
BLOCK
  5
FD
330
FB
100
AcDbEntity
  8
0
100
AcDbBlockBegin
  2
block 28
 70
     0
 71
     0
 10
0.0
 20
0.0
 30
0.0
  3
block 28
  1

  0
POLYLINE
  5
FF
330
FB
100
AcDbEntity
  8
0
 62
     7
420
 16777215
370
    25
100
AcDb2dPolyline
 66
     1
 10
0.0
 20
0.0
 30
0.0
  0
VERTEX
  5
100
330
FF
100
AcDbEntity
  8
0
 62
     7
420
 16777215
370
    25
100
AcDbVertex
100
AcDb2dVertex
 10
206.861928406137
 20
300.8031985800121
 30
0.0
  0
VERTEX
  5
101
330
FF
100
AcDbEntity
  8
0
 62
     7
420
 16777215
370
    25
100
AcDbVertex
100
AcDb2dVertex
 10
203.4676458401052
 20
300.8031985800121
 30
0.0
  0
SEQEND
  5
102
330
FF
100
AcDbEntity
  8
0
370
    25
  0
ENDBLK
  5
FE
330
FB
100
AcDbEntity
  8
0
100
AcDbBlockEnd
  0
BLOCK
  5
105
330
103
100
AcDbEntity
  8
0
100
AcDbBlockBegin
  2
block 29
 70
     0
 71
     0
 10
0.0
 20
0.0
 30
0.0
  3
block 29
  1

  0
POLYLINE
  5
107
330
103
100
AcDbEntity
  8
0
 62
     7
420
 16777215
370
    25
100
AcDb2dPolyline
 66
     1
 10
0.0
 20
0.0
 30
0.0
  0
VERTEX
  5
108
330
107
100
AcDbEntity
  8
0
 62
     7
420
 16777215
370
    25
100
AcDbVertex
100
AcDb2dVertex
 10
203.4676458401052
 20
299.219659395565
 30
0.0
  0
VERTEX
  5
109
330
107
100
AcDbEntity
  8
0
 62
     7
420
 16777215
370
    25
100
AcDbVertex
100
AcDb2dVertex
 10
206.861928406137
 20
299.219659395565
 30
0.0
  0
SEQEND
  5
10A
330
107
100
AcDbEntity
  8
0
370
    25
  0
ENDBLK
  5
106
330
103
100
AcDbEntity
  8
0
100
AcDbBlockEnd
  0
BLOCK
  5
10D
330
10B
100
AcDbEntity
  8
0
100
AcDbBlockBegin
  2
block 30
 70
     0
 71
     0
 10
0.0
 20
0.0
 30
0.0
  3
block 30
  1

  0
SPLINE
  5
10F
330
10B
100
AcDbEntity
  8
0
 62
     7
420
 16777215
370
    25
100
AcDbSpline
210
0.0
220
0.0
230
1.0
 70
     8
 71
     3
 72
    11
 73
     7
 74
     0
 42
0.0000000001
 43
0.0000000001
 40
0.0
 40
0.0
 40
0.0
 40
0.0
 40
1.0
 40
1.0
 40
1.0
 40
2.0
 40
2.0
 40
2.0
 40
2.0
 10
196.5330085631041
 20
299.219659395565
 30
0.0
 10
196.9700192137016
 20
297.304701806802
 30
0.0
 10
198.8770530776213
 20
296.1068413163587
 30
0.0
 10
200.7920106663843
 20
296.544024221844
 30
0.0
 10
202.0475765442734
 20
296.7720896934211
 30
0.0
 10
203.2397526234161
 20
297.9640935176758
 30
0.0
 10
203.4676458401052
 20
299.219659395565
 30
0.0
  0
ENDBLK
  5
10E
330
10B
100
AcDbEntity
  8
0
100
AcDbBlockEnd
  0
BLOCK
  5
112
330
110
100
AcDbEntity
  8
0
100
AcDbBlockBegin
  2
block 31
 70
     0
 71
     0
 10
0.0
 20
0.0
 30
0.0
  3
block 31
  1

  0
POLYLINE
  5
114
330
110
100
AcDbEntity
  8
0
 62
     7
420
 16777215
370
    25
100
AcDb2dPolyline
 66
     1
 10
0.0
 20
0.0
 30
0.0
  0
VERTEX
  5
115
330
114
100
AcDbEntity
  8
0
 62
     7
420
 16777215
370
    25
100
AcDbVertex
100
AcDb2dVertex
 10
196.5330085631041
 20
299.219659395565
 30
0.0
  0
VERTEX
  5
116
330
114
100
AcDbEntity
  8
0
 62
     7
420
 16777215
370
    25
100
AcDbVertex
100
AcDb2dVertex
 10
196.436890335657
 20
299.0977029349332
 30
0.0
  0
VERTEX
  5
117
330
114
100
AcDbEntity
  8
0
 62
     7
420
 16777215
370
    25
100
AcDbVertex
100
AcDb2dVertex
 10
196.4241434739525
 20
299.0815109754707
 30
0.0
  0
SEQEND
  5
118
330
114
100
AcDbEntity
  8
0
370
    25
  0
ENDBLK
  5
113
330
110
100
AcDbEntity
  8
0
100
AcDbBlockEnd
  0
BLOCK
  5
11B
330
119
100
AcDbEntity
  8
0
100
AcDbBlockBegin
  2
block 32
 70
     0
 71
     0
 10
0.0
 20
0.0
 30
0.0
  3
block 32
  1

  0
POLYLINE
  5
11D
330
119
100
AcDbEntity
  8
0
 62
     7
420
 16777215
370
    25
100
AcDb2dPolyline
 66
     1
 10
0.0
 20
0.0
 30
0.0
  0
VERTEX
  5
11E
330
11D
100
AcDbEntity
  8
0
 62
     7
420
 16777215
370
    25
100
AcDbVertex
100
AcDb2dVertex
 10
203.4676458401052
 20
300.8031985800121
 30
0.0
  0
VERTEX
  5
11F
330
11D
100
AcDbEntity
  8
0
 62
     7
420
 16777215
370
    25
100
AcDbVertex
100
AcDb2dVertex
 10
203.5637640675523
 20
300.9251550406439
 30
0.0
  0
VERTEX
  5
120
330
11D
100
AcDbEntity
  8
0
 62
     7
420
 16777215
370
    25
100
AcDbVertex
100
AcDb2dVertex
 10
203.5759941645931
 20
300.9413470001064
 30
0.0
  0
SEQEND
  5
121
330
11D
100
AcDbEntity
  8
0
370
    25
  0
ENDBLK
  5
11C
330
119
100
AcDbEntity
  8
0
100
AcDbBlockEnd
  0
BLOCK
  5
124
330
122
100
AcDbEntity
  8
0
100
AcDbBlockBegin
  2
block 33
 70
     0
 71
     0
 10
0.0
 20
0.0
 30
0.0
  3
block 33
  1

  0
POLYLINE
  5
126
330
122
100
AcDbEntity
  8
0
 62
     7
420
 16777215
370
    25
100
AcDb2dPolyline
 66
     1
 10
0.0
 20
0.0
 30
0.0
  0
VERTEX
  5
127
330
126
100
AcDbEntity
  8
0
 62
     7
420
 16777215
370
    25
100
AcDbVertex
100
AcDb2dVertex
 10
203.5759941645931
 20
299.0815109754707
 30
0.0
  0
VERTEX
  5
128
330
126
100
AcDbEntity
  8
0
 62
     7
420
 16777215
370
    25
100
AcDbVertex
100
AcDb2dVertex
 10
203.4676458401052
 20
299.219659395565
 30
0.0
  0
SEQEND
  5
129
330
126
100
AcDbEntity
  8
0
370
    25
  0
ENDBLK
  5
125
330
122
100
AcDbEntity
  8
0
100
AcDbBlockEnd
  0
BLOCK
  5
12C
330
12A
100
AcDbEntity
  8
0
100
AcDbBlockBegin
  2
block 34
 70
     0
 71
     0
 10
0.0
 20
0.0
 30
0.0
  3
block 34
  1

  0
POLYLINE
  5
12E
330
12A
100
AcDbEntity
  8
0
 62
     7
420
 16777215
370
    25
100
AcDb2dPolyline
 66
     1
 10
0.0
 20
0.0
 30
0.0
  0
VERTEX
  5
12F
330
12E
100
AcDbEntity
  8
0
 62
     7
420
 16777215
370
    25
100
AcDbVertex
100
AcDb2dVertex
 10
207.0000768262312
 20
300.9413470001064
 30
0.0
  0
VERTEX
  5
130
330
12E
100
AcDbEntity
  8
0
 62
     7
420
 16777215
370
    25
100
AcDbVertex
100
AcDb2dVertex
 10
206.861928406137
 20
300.8031985800121
 30
0.0
  0
SEQEND
  5
131
330
12E
100
AcDbEntity
  8
0
370
    25
  0
ENDBLK
  5
12D
330
12A
100
AcDbEntity
  8
0
100
AcDbBlockEnd
  0
BLOCK
  5
134
330
132
100
AcDbEntity
  8
0
100
AcDbBlockBegin
  2
block 35
 70
     0
 71
     0
 10
0.0
 20
0.0
 30
0.0
  3
block 35
  1

  0
POLYLINE
  5
136
330
132
100
AcDbEntity
  8
0
 62
     7
420
 16777215
370
    25
100
AcDb2dPolyline
 66
     1
 10
0.0
 20
0.0
 30
0.0
  0
VERTEX
  5
137
330
136
100
AcDbEntity
  8
0
 62
     7
420
 16777215
370
    25
100
AcDbVertex
100
AcDb2dVertex
 10
207.0000768262312
 20
299.0815109754707
 30
0.0
  0
VERTEX
  5
138
330
136
100
AcDbEntity
  8
0
 62
     7
420
 16777215
370
    25
100
AcDbVertex
100
AcDb2dVertex
 10
206.861928406137
 20
299.219659395565
 30
0.0
  0
SEQEND
  5
139
330
136
100
AcDbEntity
  8
0
370
    25
  0
ENDBLK
  5
135
330
132
100
AcDbEntity
  8
0
100
AcDbBlockEnd
  0
BLOCK
  5
13C
330
13A
100
AcDbEntity
  8
0
100
AcDbBlockBegin
  2
block 36
 70
     0
 71
     0
 10
0.0
 20
0.0
 30
0.0
  3
block 36
  1

  0
POLYLINE
  5
13E
330
13A
100
AcDbEntity
  8
0
 62
     7
420
 16777215
370
    25
100
AcDb2dPolyline
 66
     1
 10
0.0
 20
0.0
 30
0.0
  0
VERTEX
  5
13F
330
13E
100
AcDbEntity
  8
0
 62
     7
420
 16777215
370
    25
100
AcDbVertex
100
AcDb2dVertex
 10
207.0000768262312
 20
300.9413470001064
 30
0.0
  0
VERTEX
  5
140
330
13E
100
AcDbEntity
  8
0
 62
     7
420
 16777215
370
    25
100
AcDbVertex
100
AcDb2dVertex
 10
207.0000768262312
 20
299.0815109754707
 30
0.0
  0
SEQEND
  5
141
330
13E
100
AcDbEntity
  8
0
370
    25
  0
ENDBLK
  5
13D
330
13A
100
AcDbEntity
  8
0
100
AcDbBlockEnd
  0
BLOCK
  5
144
330
142
100
AcDbEntity
  8
0
100
AcDbBlockBegin
  2
block 37
 70
     0
 71
     0
 10
0.0
 20
0.0
 30
0.0
  3
block 37
  1

  0
SPLINE
  5
146
330
142
100
AcDbEntity
  8
0
 62
     7
420
 16777215
370
    25
100
AcDbSpline
210
0.0
220
0.0
230
1.0
 70
    11
 71
     3
 72
    23
 73
    19
 74
     0
 42
0.0000000001
 43
0.0000000001
 40
0.0
 40
0.0
 40
0.0
 40
0.0
 40
1.0
 40
1.0
 40
1.0
 40
2.0
 40
2.0
 40
2.0
 40
3.0
 40
3.0
 40
3.0
 40
4.0
 40
4.0
 40
4.0
 40
5.0
 40
5.0
 40
5.0
 40
6.0
 40
6.0
 40
6.0
 40
6.0
 10
244.0042163542735
 20
272.0080379896409
 30
0.0
 10
244.0042163542735
 20
274.2173791818217
 30
0.0
 10
242.213454539685
 20
276.0081409964102
 30
0.0
 10
240.00445785728
 20
276.0081409964102
 30
0.0
 10
237.7951166650992
 20
276.0081409964102
 30
0.0
 10
236.0046993602865
 20
274.2173791818217
 30
0.0
 10
236.0046993602865
 20
272.0080379896409
 30
0.0
 10
236.0046993602865
 20
269.7990413072359
 30
0.0
 10
237.7951166650992
 20
268.0082794926474
 30
0.0
 10
240.00445785728
 20
268.0082794926474
 30
0.0
 10
242.213454539685
 20
268.0082794926474
 30
0.0
 10
244.0042163542735
 20
269.7990413072359
 30
0.0
 10
244.0042163542735
 20
272.0080379896409
 30
0.0
 10
244.0042163542735
 20
272.0080379896409
 30
0.0
 10
244.0042163542735
 20
272.0080379896409
 30
0.0
 10
244.0042163542735
 20
272.0080379896409
 30
0.0
 10
244.0042163542735
 20
272.0080379896409
 30
0.0
 10
244.0042163542735
 20
272.0080379896409
 30
0.0
 10
244.0042163542735
 20
272.0080379896409
 30
0.0
  0
ENDBLK
  5
145
330
142
100
AcDbEntity
  8
0
100
AcDbBlockEnd
  0
BLOCK
  5
149
330
147
100
AcDbEntity
  8
0
100
AcDbBlockBegin
  2
block 38
 70
     0
 71
     0
 10
0.0
 20
0.0
 30
0.0
  3
block 38
  1

  0
SPLINE
  5
14B
330
147
100
AcDbEntity
  8
0
 62
     7
420
 16777215
370
    25
100
AcDbSpline
210
0.0
220
0.0
230
1.0
 70
    11
 71
     3
 72
    23
 73
    19
 74
     0
 42
0.0000000001
 43
0.0000000001
 40
0.0
 40
0.0
 40
0.0
 40
0.0
 40
1.0
 40
1.0
 40
1.0
 40
2.0
 40
2.0
 40
2.0
 40
3.0
 40
3.0
 40
3.0
 40
4.0
 40
4.0
 40
4.0
 40
5.0
 40
5.0
 40
5.0
 40
6.0
 40
6.0
 40
6.0
 40
6.0
 10
269.0073578424563
 20
275.0083736270498
 30
0.0
 10
269.0073578424563
 20
277.2175425643427
 30
0.0
 10
267.2165960278678
 20
279.0083043789311
 30
0.0
 10
265.0075993454628
 20
279.0083043789311
 30
0.0
 10
262.7986026630577
 20
279.0083043789311
 30
0.0
 10
261.0071518289176
 20
277.2175425643427
 30
0.0
 10
261.0071518289176
 20
275.0083736270498
 30
0.0
 10
261.0071518289176
 20
272.7995491995326
 30
0.0
 10
262.7986026630577
 20
271.0087873849441
 30
0.0
 10
265.0075993454628
 20
271.0087873849441
 30
0.0
 10
267.2165960278678
 20
271.0087873849441
 30
0.0
 10
269.0073578424563
 20
272.7995491995326
 30
0.0
 10
269.0073578424563
 20
275.0083736270498
 30
0.0
 10
269.0073578424563
 20
275.0083736270498
 30
0.0
 10
269.0073578424563
 20
275.0083736270498
 30
0.0
 10
269.0073578424563
 20
275.0083736270498
 30
0.0
 10
269.0073578424563
 20
275.0083736270498
 30
0.0
 10
269.0073578424563
 20
275.0083736270498
 30
0.0
 10
269.0073578424563
 20
275.0083736270498
 30
0.0
  0
ENDBLK
  5
14A
330
147
100
AcDbEntity
  8
0
100
AcDbBlockEnd
  0
BLOCK
  5
14E
330
14C
100
AcDbEntity
  8
0
100
AcDbBlockBegin
  2
block 39
 70
     0
 71
     0
 10
0.0
 20
0.0
 30
0.0
  3
block 39
  1

  0
SPLINE
  5
150
330
14C
100
AcDbEntity
  8
0
 62
     7
420
 16777215
370
    25
100
AcDbSpline
210
0.0
220
0.0
230
1.0
 70
    11
 71
     3
 72
    23
 73
    19
 74
     0
 42
0.0000000001
 43
0.0000000001
 40
0.0
 40
0.0
 40
0.0
 40
0.0
 40
1.0
 40
1.0
 40
1.0
 40
2.0
 40
2.0
 40
2.0
 40
3.0
 40
3.0
 40
3.0
 40
4.0
 40
4.0
 40
4.0
 40
5.0
 40
5.0
 40
5.0
 40
6.0
 40
6.0
 40
6.0
 40
6.0
 10
273.0078053590014
 20
292.5106760217104
 30
0.0
 10
273.0078053590014
 20
294.7198449590034
 30
0.0
 10
271.2170435444129
 20
296.5106067735918
 30
0.0
 10
269.0080468620079
 20
296.5106067735918
 30
0.0
 10
266.7983611600512
 20
296.5106067735918
 30
0.0
 10
265.0075993454628
 20
294.7198449590034
 30
0.0
 10
265.0075993454628
 20
292.5106760217104
 30
0.0
 10
265.0075993454628
 20
290.3015070844175
 30
0.0
 10
266.7983611600512
 20
288.5105730149411
 30
0.0
 10
269.0080468620079
 20
288.5105730149411
 30
0.0
 10
271.2170435444129
 20
288.5105730149411
 30
0.0
 10
273.0078053590014
 20
290.3015070844175
 30
0.0
 10
273.0078053590014
 20
292.5106760217104
 30
0.0
 10
273.0078053590014
 20
292.5106760217104
 30
0.0
 10
273.0078053590014
 20
292.5106760217104
 30
0.0
 10
273.0078053590014
 20
292.5106760217104
 30
0.0
 10
273.0078053590014
 20
292.5106760217104
 30
0.0
 10
273.0078053590014
 20
292.5106760217104
 30
0.0
 10
273.0078053590014
 20
292.5106760217104
 30
0.0
  0
ENDBLK
  5
14F
330
14C
100
AcDbEntity
  8
0
100
AcDbBlockEnd
  0
BLOCK
  5
153
330
151
100
AcDbEntity
  8
0
100
AcDbBlockBegin
  2
block 40
 70
     0
 71
     0
 10
0.0
 20
0.0
 30
0.0
  3
block 40
  1

  0
POLYLINE
  5
155
330
151
100
AcDbEntity
  8
0
 62
     7
420
 16777215
370
    25
100
AcDb2dPolyline
 66
     1
 10
0.0
 20
0.0
 30
0.0
  0
VERTEX
  5
156
330
155
100
AcDbEntity
  8
0
 62
     7
420
 16777215
370
    25
100
AcDbVertex
100
AcDb2dVertex
 10
274.5656785651516
 20
258.8639565136897
 30
0.0
  0
VERTEX
  5
157
330
155
100
AcDbEntity
  8
0
 62
     7
420
 16777215
370
    25
100
AcDbVertex
100
AcDb2dVertex
 10
274.7069275732281
 20
258.9747164066081
 30
0.0
  0
SEQEND
  5
158
330
155
100
AcDbEntity
  8
0
370
    25
  0
ENDBLK
  5
154
330
151
100
AcDbEntity
  8
0
100
AcDbBlockEnd
  0
BLOCK
  5
15B
330
159
100
AcDbEntity
  8
0
100
AcDbBlockBegin
  2
block 41
 70
     0
 71
     0
 10
0.0
 20
0.0
 30
0.0
  3
block 41
  1

  0
SPLINE
  5
15D
330
159
100
AcDbEntity
  8
0
 62
     7
420
 16777215
370
    25
100
AcDbSpline
210
0.0
220
0.0
230
1.0
 70
     8
 71
     3
 72
    11
 73
     7
 74
     0
 42
0.0000000001
 43
0.0000000001
 40
0.0
 40
0.0
 40
0.0
 40
0.0
 40
1.0
 40
1.0
 40
1.0
 40
2.0
 40
2.0
 40
2.0
 40
2.0
 10
274.5656785651516
 20
266.1499937620029
 30
0.0
 10
272.553741474502
 20
265.6270279223443
 30
0.0
 10
271.3472682396638
 20
263.5715103450564
 30
0.0
 10
271.8702340793224
 20
261.5597455092947
 30
0.0
 10
272.127927391618
 20
260.3246779630654
 30
0.0
 10
273.3309555286982
 20
259.1216498259852
 30
0.0
 10
274.5656785651516
 20
258.8639565136897
 30
0.0
  0
ENDBLK
  5
15C
330
159
100
AcDbEntity
  8
0
100
AcDbBlockEnd
  0
BLOCK
  5
160
330
15E
100
AcDbEntity
  8
0
100
AcDbBlockBegin
  2
block 42
 70
     0
 71
     0
 10
0.0
 20
0.0
 30
0.0
  3
block 42
  1

  0
POLYLINE
  5
162
330
15E
100
AcDbEntity
  8
0
 62
     7
420
 16777215
370
    25
100
AcDb2dPolyline
 66
     1
 10
0.0
 20
0.0
 30
0.0
  0
VERTEX
  5
163
330
162
100
AcDbEntity
  8
0
 62
     7
420
 16777215
370
    25
100
AcDbVertex
100
AcDb2dVertex
 10
274.7069275732281
 20
266.0397506337481
 30
0.0
  0
VERTEX
  5
164
330
162
100
AcDbEntity
  8
0
 62
     7
420
 16777215
370
    25
100
AcDbVertex
100
AcDb2dVertex
 10
274.5825595441657
 20
266.1374191551863
 30
0.0
  0
VERTEX
  5
165
330
162
100
AcDbEntity
  8
0
 62
     7
420
 16777215
370
    25
100
AcDbVertex
100
AcDb2dVertex
 10
274.5656785651516
 20
266.1499937620029
 30
0.0
  0
SEQEND
  5
166
330
162
100
AcDbEntity
  8
0
370
    25
  0
ENDBLK
  5
161
330
15E
100
AcDbEntity
  8
0
100
AcDbBlockEnd
  0
BLOCK
  5
169
330
167
100
AcDbEntity
  8
0
100
AcDbBlockBegin
  2
block 43
 70
     0
 71
     0
 10
0.0
 20
0.0
 30
0.0
  3
block 43
  1

  0
SPLINE
  5
16B
330
167
100
AcDbEntity
  8
0
 62
     7
420
 16777215
370
    25
100
AcDbSpline
210
0.0
220
0.0
230
1.0
 70
     8
 71
     3
 72
    11
 73
     7
 74
     0
 42
0.0000000001
 43
0.0000000001
 40
0.0
 40
0.0
 40
0.0
 40
0.0
 40
1.0
 40
1.0
 40
1.0
 40
2.0
 40
2.0
 40
2.0
 40
2.0
 10
276.3199223435058
 20
258.9747164066081
 30
0.0
 10
278.2708812038395
 20
259.4199952918247
 30
0.0
 10
279.4914793394853
 20
261.3626859175393
 30
0.0
 10
279.0463727091566
 20
263.313644777873
 30
0.0
 10
278.8134841007184
 20
264.592981830292
 30
0.0
 10
277.5997761605885
 20
265.8073787899735
 30
0.0
 10
276.3199223435058
 20
266.0397506337481
 30
0.0
  0
ENDBLK
  5
16A
330
167
100
AcDbEntity
  8
0
100
AcDbBlockEnd
  0
BLOCK
  5
16E
330
16C
100
AcDbEntity
  8
0
100
AcDbBlockBegin
  2
block 44
 70
     0
 71
     0
 10
0.0
 20
0.0
 30
0.0
  3
block 44
  1

  0
POLYLINE
  5
170
330
16C
100
AcDbEntity
  8
0
 62
     7
420
 16777215
370
    25
100
AcDb2dPolyline
 66
     1
 10
0.0
 20
0.0
 30
0.0
  0
VERTEX
  5
171
330
170
100
AcDbEntity
  8
0
 62
     7
420
 16777215
370
    25
100
AcDbVertex
100
AcDb2dVertex
 10
276.4611713515822
 20
266.1499937620029
 30
0.0
  0
VERTEX
  5
172
330
170
100
AcDbEntity
  8
0
 62
     7
420
 16777215
370
    25
100
AcDbVertex
100
AcDb2dVertex
 10
276.3199223435058
 20
266.0397506337481
 30
0.0
  0
SEQEND
  5
173
330
170
100
AcDbEntity
  8
0
370
    25
  0
ENDBLK
  5
16F
330
16C
100
AcDbEntity
  8
0
100
AcDbBlockEnd
  0
BLOCK
  5
176
330
174
100
AcDbEntity
  8
0
100
AcDbBlockBegin
  2
block 45
 70
     0
 71
     0
 10
0.0
 20
0.0
 30
0.0
  3
block 45
  1

  0
POLYLINE
  5
178
330
174
100
AcDbEntity
  8
0
 62
     7
420
 16777215
370
    25
100
AcDb2dPolyline
 66
     1
 10
0.0
 20
0.0
 30
0.0
  0
VERTEX
  5
179
330
178
100
AcDbEntity
  8
0
 62
     7
420
 16777215
370
    25
100
AcDbVertex
100
AcDb2dVertex
 10
276.3199223435058
 20
258.9747164066081
 30
0.0
  0
VERTEX
  5
17A
330
178
100
AcDbEntity
  8
0
 62
     7
420
 16777215
370
    25
100
AcDbVertex
100
AcDb2dVertex
 10
276.444634882344
 20
258.876875630282
 30
0.0
  0
VERTEX
  5
17B
330
178
100
AcDbEntity
  8
0
 62
     7
420
 16777215
370
    25
100
AcDbVertex
100
AcDb2dVertex
 10
276.4611713515822
 20
258.8639565136897
 30
0.0
  0
SEQEND
  5
17C
330
178
100
AcDbEntity
  8
0
370
    25
  0
ENDBLK
  5
177
330
174
100
AcDbEntity
  8
0
100
AcDbBlockEnd
  0
BLOCK
  5
17F
330
17D
100
AcDbEntity
  8
0
100
AcDbBlockBegin
  2
block 46
 70
     0
 71
     0
 10
0.0
 20
0.0
 30
0.0
  3
block 46
  1

  0
POLYLINE
  5
181
330
17D
100
AcDbEntity
  8
0
 62
     7
420
 16777215
370
    25
100
AcDb2dPolyline
 66
     1
 10
0.0
 20
0.0
 30
0.0
  0
VERTEX
  5
182
330
181
100
AcDbEntity
  8
0
 62
     7
420
 16777215
370
    25
100
AcDbVertex
100
AcDb2dVertex
 10
276.4611713515822
 20
269.6384997517148
 30
0.0
  0
VERTEX
  5
183
330
181
100
AcDbEntity
  8
0
 62
     7
420
 16777215
370
    25
100
AcDbVertex
100
AcDb2dVertex
 10
276.3199223435058
 20
269.4975952534142
 30
0.0
  0
SEQEND
  5
184
330
181
100
AcDbEntity
  8
0
370
    25
  0
ENDBLK
  5
180
330
17D
100
AcDbEntity
  8
0
100
AcDbBlockEnd
  0
BLOCK
  5
187
330
185
100
AcDbEntity
  8
0
100
AcDbBlockBegin
  2
block 47
 70
     0
 71
     0
 10
0.0
 20
0.0
 30
0.0
  3
block 47
  1

  0
POLYLINE
  5
189
330
185
100
AcDbEntity
  8
0
 62
     7
420
 16777215
370
    25
100
AcDb2dPolyline
 66
     1
 10
0.0
 20
0.0
 30
0.0
  0
VERTEX
  5
18A
330
189
100
AcDbEntity
  8
0
 62
     7
420
 16777215
370
    25
100
AcDbVertex
100
AcDb2dVertex
 10
274.5656785651516
 20
269.6384997517148
 30
0.0
  0
VERTEX
  5
18B
330
189
100
AcDbEntity
  8
0
 62
     7
420
 16777215
370
    25
100
AcDbVertex
100
AcDb2dVertex
 10
274.7069275732281
 20
269.4975952534142
 30
0.0
  0
SEQEND
  5
18C
330
189
100
AcDbEntity
  8
0
370
    25
  0
ENDBLK
  5
188
330
185
100
AcDbEntity
  8
0
100
AcDbBlockEnd
  0
BLOCK
  5
18F
330
18D
100
AcDbEntity
  8
0
100
AcDbBlockBegin
  2
block 48
 70
     0
 71
     0
 10
0.0
 20
0.0
 30
0.0
  3
block 48
  1

  0
POLYLINE
  5
191
330
18D
100
AcDbEntity
  8
0
 62
     7
420
 16777215
370
    25
100
AcDb2dPolyline
 66
     1
 10
0.0
 20
0.0
 30
0.0
  0
VERTEX
  5
192
330
191
100
AcDbEntity
  8
0
 62
     7
420
 16777215
370
    25
100
AcDbVertex
100
AcDb2dVertex
 10
274.5656785651516
 20
269.6384997517148
 30
0.0
  0
VERTEX
  5
193
330
191
100
AcDbEntity
  8
0
 62
     7
420
 16777215
370
    25
100
AcDbVertex
100
AcDb2dVertex
 10
276.4611713515822
 20
269.6384997517148
 30
0.0
  0
SEQEND
  5
194
330
191
100
AcDbEntity
  8
0
370
    25
  0
ENDBLK
  5
190
330
18D
100
AcDbEntity
  8
0
100
AcDbBlockEnd
  0
BLOCK
  5
197
330
195
100
AcDbEntity
  8
0
100
AcDbBlockBegin
  2
block 49
 70
     0
 71
     0
 10
0.0
 20
0.0
 30
0.0
  3
block 49
  1

  0
POLYLINE
  5
199
330
195
100
AcDbEntity
  8
0
 62
     7
420
 16777215
370
    25
100
AcDb2dPolyline
 66
     1
 10
0.0
 20
0.0
 30
0.0
  0
VERTEX
  5
19A
330
199
100
AcDbEntity
  8
0
 62
     7
420
 16777215
370
    25
100
AcDbVertex
100
AcDb2dVertex
 10
274.5656785651516
 20
255.3754505239777
 30
0.0
  0
VERTEX
  5
19B
330
199
100
AcDbEntity
  8
0
 62
     7
420
 16777215
370
    25
100
AcDbVertex
100
AcDb2dVertex
 10
274.7069275732281
 20
255.5161827673904
 30
0.0
  0
SEQEND
  5
19C
330
199
100
AcDbEntity
  8
0
370
    25
  0
ENDBLK
  5
198
330
195
100
AcDbEntity
  8
0
100
AcDbBlockEnd
  0
BLOCK
  5
19F
330
19D
100
AcDbEntity
  8
0
100
AcDbBlockBegin
  2
block 50
 70
     0
 71
     0
 10
0.0
 20
0.0
 30
0.0
  3
block 50
  1

  0
POLYLINE
  5
1A1
330
19D
100
AcDbEntity
  8
0
 62
     7
420
 16777215
370
    25
100
AcDb2dPolyline
 66
     1
 10
0.0
 20
0.0
 30
0.0
  0
VERTEX
  5
1A2
330
1A1
100
AcDbEntity
  8
0
 62
     7
420
 16777215
370
    25
100
AcDbVertex
100
AcDb2dVertex
 10
274.5656785651516
 20
255.3754505239777
 30
0.0
  0
VERTEX
  5
1A3
330
1A1
100
AcDbEntity
  8
0
 62
     7
420
 16777215
370
    25
100
AcDbVertex
100
AcDb2dVertex
 10
274.5656785651516
 20
258.8639565136897
 30
0.0
  0
SEQEND
  5
1A4
330
1A1
100
AcDbEntity
  8
0
370
    25
  0
ENDBLK
  5
1A0
330
19D
100
AcDbEntity
  8
0
100
AcDbBlockEnd
  0
BLOCK
  5
1A7
330
1A5
100
AcDbEntity
  8
0
100
AcDbBlockBegin
  2
block 51
 70
     0
 71
     0
 10
0.0
 20
0.0
 30
0.0
  3
block 51
  1

  0
POLYLINE
  5
1A9
330
1A5
100
AcDbEntity
  8
0
 62
     7
420
 16777215
370
    25
100
AcDb2dPolyline
 66
     1
 10
0.0
 20
0.0
 30
0.0
  0
VERTEX
  5
1AA
330
1A9
100
AcDbEntity
  8
0
 62
     7
420
 16777215
370
    25
100
AcDbVertex
100
AcDb2dVertex
 10
276.4611713515822
 20
258.8639565136897
 30
0.0
  0
VERTEX
  5
1AB
330
1A9
100
AcDbEntity
  8
0
 62
     7
420
 16777215
370
    25
100
AcDbVertex
100
AcDb2dVertex
 10
276.4611713515822
 20
255.3754505239777
 30
0.0
  0
SEQEND
  5
1AC
330
1A9
100
AcDbEntity
  8
0
370
    25
  0
ENDBLK
  5
1A8
330
1A5
100
AcDbEntity
  8
0
100
AcDbBlockEnd
  0
BLOCK
  5
1AF
330
1AD
100
AcDbEntity
  8
0
100
AcDbBlockBegin
  2
block 52
 70
     0
 71
     0
 10
0.0
 20
0.0
 30
0.0
  3
block 52
  1

  0
POLYLINE
  5
1B1
330
1AD
100
AcDbEntity
  8
0
 62
     7
420
 16777215
370
    25
100
AcDb2dPolyline
 66
     1
 10
0.0
 20
0.0
 30
0.0
  0
VERTEX
  5
1B2
330
1B1
100
AcDbEntity
  8
0
 62
     7
420
 16777215
370
    25
100
AcDbVertex
100
AcDb2dVertex
 10
276.4611713515822
 20
255.3754505239777
 30
0.0
  0
VERTEX
  5
1B3
330
1B1
100
AcDbEntity
  8
0
 62
     7
420
 16777215
370
    25
100
AcDbVertex
100
AcDb2dVertex
 10
276.3199223435058
 20
255.5161827673904
 30
0.0
  0
SEQEND
  5
1B4
330
1B1
100
AcDbEntity
  8
0
370
    25
  0
ENDBLK
  5
1B0
330
1AD
100
AcDbEntity
  8
0
100
AcDbBlockEnd
  0
BLOCK
  5
1B7
330
1B5
100
AcDbEntity
  8
0
100
AcDbBlockBegin
  2
block 53
 70
     0
 71
     0
 10
0.0
 20
0.0
 30
0.0
  3
block 53
  1

  0
POLYLINE
  5
1B9
330
1B5
100
AcDbEntity
  8
0
 62
     7
420
 16777215
370
    25
100
AcDb2dPolyline
 66
     1
 10
0.0
 20
0.0
 30
0.0
  0
VERTEX
  5
1BA
330
1B9
100
AcDbEntity
  8
0
 62
     7
420
 16777215
370
    25
100
AcDbVertex
100
AcDb2dVertex
 10
276.4611713515822
 20
269.6384997517148
 30
0.0
  0
VERTEX
  5
1BB
330
1B9
100
AcDbEntity
  8
0
 62
     7
420
 16777215
370
    25
100
AcDbVertex
100
AcDb2dVertex
 10
276.4611713515822
 20
266.1499937620029
 30
0.0
  0
SEQEND
  5
1BC
330
1B9
100
AcDbEntity
  8
0
370
    25
  0
ENDBLK
  5
1B8
330
1B5
100
AcDbEntity
  8
0
100
AcDbBlockEnd
  0
BLOCK
  5
1BF
330
1BD
100
AcDbEntity
  8
0
100
AcDbBlockBegin
  2
block 54
 70
     0
 71
     0
 10
0.0
 20
0.0
 30
0.0
  3
block 54
  1

  0
POLYLINE
  5
1C1
330
1BD
100
AcDbEntity
  8
0
 62
     7
420
 16777215
370
    25
100
AcDb2dPolyline
 66
     1
 10
0.0
 20
0.0
 30
0.0
  0
VERTEX
  5
1C2
330
1C1
100
AcDbEntity
  8
0
 62
     7
420
 16777215
370
    25
100
AcDbVertex
100
AcDb2dVertex
 10
274.5656785651516
 20
266.1499937620029
 30
0.0
  0
VERTEX
  5
1C3
330
1C1
100
AcDbEntity
  8
0
 62
     7
420
 16777215
370
    25
100
AcDbVertex
100
AcDb2dVertex
 10
274.5656785651516
 20
269.6384997517148
 30
0.0
  0
SEQEND
  5
1C4
330
1C1
100
AcDbEntity
  8
0
370
    25
  0
ENDBLK
  5
1C0
330
1BD
100
AcDbEntity
  8
0
100
AcDbBlockEnd
  0
BLOCK
  5
1C7
330
1C5
100
AcDbEntity
  8
0
100
AcDbBlockBegin
  2
block 55
 70
     0
 71
     0
 10
0.0
 20
0.0
 30
0.0
  3
block 55
  1

  0
POLYLINE
  5
1C9
330
1C5
100
AcDbEntity
  8
0
 62
     7
420
 16777215
370
    25
100
AcDb2dPolyline
 66
     1
 10
0.0
 20
0.0
 30
0.0
  0
VERTEX
  5
1CA
330
1C9
100
AcDbEntity
  8
0
 62
     7
420
 16777215
370
    25
100
AcDbVertex
100
AcDb2dVertex
 10
276.4611713515822
 20
255.3754505239777
 30
0.0
  0
VERTEX
  5
1CB
330
1C9
100
AcDbEntity
  8
0
 62
     7
420
 16777215
370
    25
100
AcDbVertex
100
AcDb2dVertex
 10
274.5656785651516
 20
255.3754505239777
 30
0.0
  0
SEQEND
  5
1CC
330
1C9
100
AcDbEntity
  8
0
370
    25
  0
ENDBLK
  5
1C8
330
1C5
100
AcDbEntity
  8
0
100
AcDbBlockEnd
  0
BLOCK
  5
1CF
330
1CD
100
AcDbEntity
  8
0
100
AcDbBlockBegin
  2
block 56
 70
     0
 71
     0
 10
0.0
 20
0.0
 30
0.0
  3
block 56
  1

  0
SPLINE
  5
1D1
330
1CD
100
AcDbEntity
  8
0
 62
     7
420
 16777215
370
    25
100
AcDbSpline
210
0.0
220
0.0
230
1.0
 70
    11
 71
     3
 72
    23
 73
    19
 74
     0
 42
0.0000000001
 43
0.0000000001
 40
0.0
 40
0.0
 40
0.0
 40
0.0
 40
1.0
 40
1.0
 40
1.0
 40
2.0
 40
2.0
 40
2.0
 40
3.0
 40
3.0
 40
3.0
 40
4.0
 40
4.0
 40
4.0
 40
5.0
 40
5.0
 40
5.0
 40
6.0
 40
6.0
 40
6.0
 40
6.0
 10
122.691299983617
 20
286.0097765524367
 30
0.0
 10
122.691299983617
 20
288.2191177446175
 30
0.0
 10
120.9000214043648
 20
290.009879559206
 30
0.0
 10
118.6911969768477
 20
290.009879559206
 30
0.0
 10
116.4818557846668
 20
290.009879559206
 30
0.0
 10
114.6910939700784
 20
288.2191177446175
 30
0.0
 10
114.6910939700784
 20
286.0097765524367
 30
0.0
 10
114.6910939700784
 20
283.8006076151437
 30
0.0
 10
116.4818557846668
 20
282.0098458005553
 30
0.0
 10
118.6911969768477
 20
282.0098458005553
 30
0.0
 10
120.9000214043648
 20
282.0098458005553
 30
0.0
 10
122.691299983617
 20
283.8006076151437
 30
0.0
 10
122.691299983617
 20
286.0097765524367
 30
0.0
 10
122.691299983617
 20
286.0097765524367
 30
0.0
 10
122.691299983617
 20
286.0097765524367
 30
0.0
 10
122.691299983617
 20
286.0097765524367
 30
0.0
 10
122.691299983617
 20
286.0097765524367
 30
0.0
 10
122.691299983617
 20
286.0097765524367
 30
0.0
 10
122.691299983617
 20
286.0097765524367
 30
0.0
  0
ENDBLK
  5
1D0
330
1CD
100
AcDbEntity
  8
0
100
AcDbBlockEnd
  0
BLOCK
  5
1D4
330
1D2
100
AcDbEntity
  8
0
100
AcDbBlockBegin
  2
block 57
 70
     0
 71
     0
 10
0.0
 20
0.0
 30
0.0
  3
block 57
  1

  0
SPLINE
  5
1D6
330
1D2
100
AcDbEntity
  8
0
 62
     7
420
 16777215
370
    25
100
AcDbSpline
210
0.0
220
0.0
230
1.0
 70
    11
 71
     3
 72
    23
 73
    19
 74
     0
 42
0.0000000001
 43
0.0000000001
 40
0.0
 40
0.0
 40
0.0
 40
0.0
 40
1.0
 40
1.0
 40
1.0
 40
2.0
 40
2.0
 40
2.0
 40
3.0
 40
3.0
 40
3.0
 40
4.0
 40
4.0
 40
4.0
 40
5.0
 40
5.0
 40
5.0
 40
6.0
 40
6.0
 40
6.0
 40
6.0
 10
155.4552131911601
 20
305.8120262103126
 30
0.0
 10
155.4552131911601
 20
307.9994910317304
 30
0.0
 10
153.6820213751372
 20
309.7725105928653
 30
0.0
 10
151.4947288086073
 20
309.7725105928653
 30
0.0
 10
149.3074362420774
 20
309.7725105928653
 30
0.0
 10
147.5342444260545
 20
307.9994910317304
 30
0.0
 10
147.5342444260545
 20
305.8120262103126
 30
0.0
 10
147.5342444260545
 20
303.6247336437827
 30
0.0
 10
149.3074362420774
 20
301.8515418277598
 30
0.0
 10
151.4947288086073
 20
301.8515418277598
 30
0.0
 10
153.6820213751372
 20
301.8515418277598
 30
0.0
 10
155.4552131911601
 20
303.6247336437827
 30
0.0
 10
155.4552131911601
 20
305.8120262103126
 30
0.0
 10
155.4552131911601
 20
305.8120262103126
 30
0.0
 10
155.4552131911601
 20
305.8120262103126
 30
0.0
 10
155.4552131911601
 20
305.8120262103126
 30
0.0
 10
155.4552131911601
 20
305.8120262103126
 30
0.0
 10
155.4552131911601
 20
305.8120262103126
 30
0.0
 10
155.4552131911601
 20
305.8120262103126
 30
0.0
  0
ENDBLK
  5
1D5
330
1D2
100
AcDbEntity
  8
0
100
AcDbBlockEnd
  0
BLOCK
  5
1D9
330
1D7
100
AcDbEntity
  8
0
100
AcDbBlockBegin
  2
block 58
 70
     0
 71
     0
 10
0.0
 20
0.0
 30
0.0
  3
block 58
  1

  0
SPLINE
  5
1DB
330
1D7
100
AcDbEntity
  8
0
 62
     7
420
 16777215
370
    25
100
AcDbSpline
210
0.0
220
0.0
230
1.0
 70
    11
 71
     3
 72
    23
 73
    19
 74
     0
 42
0.0000000001
 43
0.0000000001
 40
0.0
 40
0.0
 40
0.0
 40
0.0
 40
1.0
 40
1.0
 40
1.0
 40
2.0
 40
2.0
 40
2.0
 40
3.0
 40
3.0
 40
3.0
 40
4.0
 40
4.0
 40
4.0
 40
5.0
 40
5.0
 40
5.0
 40
6.0
 40
6.0
 40
6.0
 40
6.0
 10
251.857661203323
 20
305.8120262103126
 30
0.0
 10
251.857661203323
 20
307.6634217454412
 30
0.0
 10
250.3569766199549
 20
309.1641063288093
 30
0.0
 10
248.5055810848263
 20
309.1641063288093
 30
0.0
 10
246.6541855496977
 20
309.1641063288093
 30
0.0
 10
245.1535009663295
 20
307.6634217454412
 30
0.0
 10
245.1535009663295
 20
305.8120262103126
 30
0.0
 10
245.1535009663295
 20
303.9608029300718
 30
0.0
 10
246.6541855496977
 20
302.4601183467038
 30
0.0
 10
248.5055810848263
 20
302.4601183467038
 30
0.0
 10
250.3569766199549
 20
302.4601183467038
 30
0.0
 10
251.857661203323
 20
303.9608029300718
 30
0.0
 10
251.857661203323
 20
305.8120262103126
 30
0.0
 10
251.857661203323
 20
305.8120262103126
 30
0.0
 10
251.857661203323
 20
305.8120262103126
 30
0.0
 10
251.857661203323
 20
305.8120262103126
 30
0.0
 10
251.857661203323
 20
305.8120262103126
 30
0.0
 10
251.857661203323
 20
305.8120262103126
 30
0.0
 10
251.857661203323
 20
305.8120262103126
 30
0.0
  0
ENDBLK
  5
1DA
330
1D7
100
AcDbEntity
  8
0
100
AcDbBlockEnd
  0
BLOCK
  5
1DE
330
1DC
100
AcDbEntity
  8
0
100
AcDbBlockBegin
  2
block 59
 70
     0
 71
     0
 10
0.0
 20
0.0
 30
0.0
  3
block 59
  1

  0
SPLINE
  5
1E0
330
1DC
100
AcDbEntity
  8
0
 62
     7
420
 16777215
370
    25
100
AcDbSpline
210
0.0
220
0.0
230
1.0
 70
    11
 71
     3
 72
    23
 73
    19
 74
     0
 42
0.0000000001
 43
0.0000000001
 40
0.0
 40
0.0
 40
0.0
 40
0.0
 40
1.0
 40
1.0
 40
1.0
 40
2.0
 40
2.0
 40
2.0
 40
3.0
 40
3.0
 40
3.0
 40
4.0
 40
4.0
 40
4.0
 40
5.0
 40
5.0
 40
5.0
 40
6.0
 40
6.0
 40
6.0
 40
6.0
 10
285.309560433131
 20
286.0097765524367
 30
0.0
 10
285.309560433131
 20
288.2189454897296
 30
0.0
 10
283.5184541087667
 20
290.0097073043181
 30
0.0
 10
281.3091129165859
 20
290.0097073043181
 30
0.0
 10
279.0997717244051
 20
290.0097073043181
 30
0.0
 10
277.3093544195924
 20
288.2189454897296
 30
0.0
 10
277.3093544195924
 20
286.0097765524367
 30
0.0
 10
277.3093544195924
 20
283.8007798700316
 30
0.0
 10
279.0997717244051
 20
282.0100180554432
 30
0.0
 10
281.3091129165859
 20
282.0100180554432
 30
0.0
 10
283.5184541087667
 20
282.0100180554432
 30
0.0
 10
285.309560433131
 20
283.8007798700316
 30
0.0
 10
285.309560433131
 20
286.0097765524367
 30
0.0
 10
285.309560433131
 20
286.0097765524367
 30
0.0
 10
285.309560433131
 20
286.0097765524367
 30
0.0
 10
285.309560433131
 20
286.0097765524367
 30
0.0
 10
285.309560433131
 20
286.0097765524367
 30
0.0
 10
285.309560433131
 20
286.0097765524367
 30
0.0
 10
285.309560433131
 20
286.0097765524367
 30
0.0
  0
ENDBLK
  5
1DF
330
1DC
100
AcDbEntity
  8
0
100
AcDbBlockEnd
  0
BLOCK
  5
1E3
330
1E1
100
AcDbEntity
  8
0
100
AcDbBlockBegin
  2
block 60
 70
     0
 71
     0
 10
0.0
 20
0.0
 30
0.0
  3
block 60
  1

  0
MTEXT
  5
1E5
330
1E1
100
AcDbEntity
  8
0
 62
     7
420
 16777215
100
AcDbMText
 10
-263.9563277646208
 20
475.5202978457118
 30
0.0
 40
10.00112778091474
 41
0.0
 71
     7
 72
     1
  1
\fMyriad Pro|b0|i0|c0|p34;\W1;FIBOX Tempo 2419 Base
 73
     1
 44
1.0
  0
ENDBLK
  5
1E4
330
1E1
100
AcDbEntity
  8
0
100
AcDbBlockEnd
  0
BLOCK
  5
1E8
330
1E6
100
AcDbEntity
  8
0
100
AcDbBlockBegin
  2
block 61
 70
     0
 71
     0
 10
0.0
 20
0.0
 30
0.0
  3
block 61
  1

  0
SPLINE
  5
1EA
330
1E6
100
AcDbEntity
  8
0
 62
     7
420
 16777215
370
    35
100
AcDbSpline
210
0.0
220
0.0
230
1.0
 70
     8
 71
     3
 72
    17
 73
    13
 74
     0
 42
0.0000000001
 43
0.0000000001
 40
0.0
 40
0.0
 40
0.0
 40
0.0
 40
1.0
 40
1.0
 40
1.0
 40
2.0
 40
2.0
 40
2.0
 40
3.0
 40
3.0
 40
3.0
 40
4.0
 40
4.0
 40
4.0
 40
4.0
 10
127.2422741218844
 20
197.6135634748888
 30
0.0
 10
128.4273877506232
 20
195.9394182194073
 30
0.0
 10
130.7452495221798
 20
195.7836998007475
 30
0.0
 10
132.4195670325492
 20
196.9688134294863
 30
0.0
 10
134.0937122880307
 20
198.1537548033372
 30
0.0
 10
134.4902430399721
 20
200.4714443200059
 30
0.0
 10
133.3054739210091
 20
202.1455895754874
 30
0.0
 10
132.1203602922702
 20
203.8199070858568
 30
0.0
 10
129.8024985207136
 20
204.2166100926861
 30
0.0
 10
128.1281810103442
 20
203.0314964639473
 30
0.0
 10
127.8456829941914
 20
202.849423047439
 30
0.0
 10
127.4245197932806
 20
202.6694166895855
 30
0.0
 10
127.2422741218844
 20
202.3867464185447
 30
0.0
  0
ENDBLK
  5
1E9
330
1E6
100
AcDbEntity
  8
0
100
AcDbBlockEnd
  0
BLOCK
  5
1ED
330
1EB
100
AcDbEntity
  8
0
100
AcDbBlockBegin
  2
block 62
 70
     0
 71
     0
 10
0.0
 20
0.0
 30
0.0
  3
block 62
  1

  0
SPLINE
  5
1EF
330
1EB
100
AcDbEntity
  8
0
 62
     7
420
 16777215
370
    35
100
AcDbSpline
210
0.0
220
0.0
230
1.0
 70
     8
 71
     3
 72
    11
 73
     7
 74
     0
 42
0.0000000001
 43
0.0000000001
 40
0.0
 40
0.0
 40
0.0
 40
0.0
 40
1.0
 40
1.0
 40
1.0
 40
2.0
 40
2.0
 40
2.0
 40
2.0
 10
123.2399318015724
 20
203.7341241516835
 30
0.0
 10
121.2403970628514
 20
203.2776486987536
 30
0.0
 10
120.1338316629941
 20
201.1732107333027
 30
0.0
 10
120.5903071159241
 20
199.1735037396939
 30
0.0
 10
120.8283633709992
 20
197.8622995330136
 30
0.0
 10
121.9287275948922
 20
196.5042419968252
 30
0.0
 10
123.2399318015724
 20
196.26618574175
 30
0.0
  0
ENDBLK
  5
1EE
330
1EB
100
AcDbEntity
  8
0
100
AcDbBlockEnd
  0
BLOCK
  5
1F2
330
1F0
100
AcDbEntity
  8
0
100
AcDbBlockBegin
  2
block 63
 70
     0
 71
     0
 10
0.0
 20
0.0
 30
0.0
  3
block 63
  1

  0
POLYLINE
  5
1F4
330
1F0
100
AcDbEntity
  8
0
 62
     7
420
 16777215
370
    35
100
AcDb2dPolyline
 66
     1
 10
0.0
 20
0.0
 30
0.0
  0
VERTEX
  5
1F5
330
1F4
100
AcDbEntity
  8
0
 62
     7
420
 16777215
370
    35
100
AcDbVertex
100
AcDb2dVertex
 10
125.1819334077354
 20
207.309791114672
 30
0.0
  0
VERTEX
  5
1F6
330
1F4
100
AcDbEntity
  8
0
 62
     7
420
 16777215
370
    35
100
AcDbVertex
100
AcDb2dVertex
 10
123.2399318015724
 20
207.309791114672
 30
0.0
  0
SEQEND
  5
1F7
330
1F4
100
AcDbEntity
  8
0
370
    35
  0
ENDBLK
  5
1F3
330
1F0
100
AcDbEntity
  8
0
100
AcDbBlockEnd
  0
BLOCK
  5
1FA
330
1F8
100
AcDbEntity
  8
0
100
AcDbBlockBegin
  2
block 64
 70
     0
 71
     0
 10
0.0
 20
0.0
 30
0.0
  3
block 64
  1

  0
POLYLINE
  5
1FC
330
1F8
100
AcDbEntity
  8
0
 62
     7
420
 16777215
370
    25
100
AcDb2dPolyline
 66
     1
 10
0.0
 20
0.0
 30
0.0
  0
VERTEX
  5
1FD
330
1FC
100
AcDbEntity
  8
0
 62
     7
420
 16777215
370
    25
100
AcDbVertex
100
AcDb2dVertex
 10
123.2399318015724
 20
196.26618574175
 30
0.0
  0
VERTEX
  5
305
330
1FC
100
AcDbEntity
  8
0
100
AcDbVertex
100
AcDb2dVertex
 10
123.2399318015724
 20
196.26618574175
 30
0.0
  0
SEQEND
  5
1FE
330
1FC
100
AcDbEntity
  8
0
370
    25
  0
ENDBLK
  5
1FB
330
1F8
100
AcDbEntity
  8
0
100
AcDbBlockEnd
  0
BLOCK
  5
201
330
1FF
100
AcDbEntity
  8
0
100
AcDbBlockBegin
  2
block 65
 70
     0
 71
     0
 10
0.0
 20
0.0
 30
0.0
  3
block 65
  1

  0
POLYLINE
  5
203
330
1FF
100
AcDbEntity
  8
0
 62
     7
420
 16777215
370
    25
100
AcDb2dPolyline
 66
     1
 10
0.0
 20
0.0
 30
0.0
  0
VERTEX
  5
204
330
203
100
AcDbEntity
  8
0
 62
     7
420
 16777215
370
    25
100
AcDbVertex
100
AcDb2dVertex
 10
123.2566405256985
 20
203.7210327802033
 30
0.0
  0
VERTEX
  5
205
330
203
100
AcDbEntity
  8
0
 62
     7
420
 16777215
370
    25
100
AcDbVertex
100
AcDb2dVertex
 10
123.2399318015724
 20
203.7341241516835
 30
0.0
  0
SEQEND
  5
206
330
203
100
AcDbEntity
  8
0
370
    25
  0
ENDBLK
  5
202
330
1FF
100
AcDbEntity
  8
0
100
AcDbBlockEnd
  0
BLOCK
  5
209
330
207
100
AcDbEntity
  8
0
100
AcDbBlockBegin
  2
block 66
 70
     0
 71
     0
 10
0.0
 20
0.0
 30
0.0
  3
block 66
  1

  0
POLYLINE
  5
20B
330
207
100
AcDbEntity
  8
0
 62
     7
420
 16777215
370
    25
100
AcDb2dPolyline
 66
     1
 10
0.0
 20
0.0
 30
0.0
  0
VERTEX
  5
20C
330
20B
100
AcDbEntity
  8
0
 62
     7
420
 16777215
370
    25
100
AcDbVertex
100
AcDb2dVertex
 10
123.2399318015724
 20
192.6905187787616
 30
0.0
  0
VERTEX
  5
306
330
20B
100
AcDbEntity
  8
0
100
AcDbVertex
100
AcDb2dVertex
 10
123.2399318015724
 20
192.6905187787616
 30
0.0
  0
SEQEND
  5
20D
330
20B
100
AcDbEntity
  8
0
370
    25
  0
ENDBLK
  5
20A
330
207
100
AcDbEntity
  8
0
100
AcDbBlockEnd
  0
BLOCK
  5
210
330
20E
100
AcDbEntity
  8
0
100
AcDbBlockBegin
  2
block 67
 70
     0
 71
     0
 10
0.0
 20
0.0
 30
0.0
  3
block 67
  1

  0
POLYLINE
  5
212
330
20E
100
AcDbEntity
  8
0
 62
     7
420
 16777215
370
    25
100
AcDb2dPolyline
 66
     1
 10
0.0
 20
0.0
 30
0.0
  0
VERTEX
  5
213
330
212
100
AcDbEntity
  8
0
 62
     7
420
 16777215
370
    25
100
AcDbVertex
100
AcDb2dVertex
 10
125.1819334077354
 20
192.6905187787616
 30
0.0
  0
VERTEX
  5
307
330
212
100
AcDbEntity
  8
0
100
AcDbVertex
100
AcDb2dVertex
 10
125.1819334077354
 20
192.6905187787616
 30
0.0
  0
SEQEND
  5
214
330
212
100
AcDbEntity
  8
0
370
    25
  0
ENDBLK
  5
211
330
20E
100
AcDbEntity
  8
0
100
AcDbBlockEnd
  0
BLOCK
  5
217
330
215
100
AcDbEntity
  8
0
100
AcDbBlockBegin
  2
block 68
 70
     0
 71
     0
 10
0.0
 20
0.0
 30
0.0
  3
block 68
  1

  0
POLYLINE
  5
219
330
215
100
AcDbEntity
  8
0
 62
     7
420
 16777215
370
    35
100
AcDb2dPolyline
 66
     1
 10
0.0
 20
0.0
 30
0.0
  0
VERTEX
  5
21A
330
219
100
AcDbEntity
  8
0
 62
     7
420
 16777215
370
    35
100
AcDbVertex
100
AcDb2dVertex
 10
125.1819334077354
 20
192.6905187787616
 30
0.0
  0
VERTEX
  5
21B
330
219
100
AcDbEntity
  8
0
 62
     7
420
 16777215
370
    35
100
AcDbVertex
100
AcDb2dVertex
 10
123.2399318015724
 20
192.6905187787616
 30
0.0
  0
SEQEND
  5
21C
330
219
100
AcDbEntity
  8
0
370
    35
  0
ENDBLK
  5
218
330
215
100
AcDbEntity
  8
0
100
AcDbBlockEnd
  0
BLOCK
  5
21F
330
21D
100
AcDbEntity
  8
0
100
AcDbBlockBegin
  2
block 69
 70
     0
 71
     0
 10
0.0
 20
0.0
 30
0.0
  3
block 69
  1

  0
POLYLINE
  5
221
330
21D
100
AcDbEntity
  8
0
 62
     7
420
 16777215
370
    35
100
AcDb2dPolyline
 66
     1
 10
0.0
 20
0.0
 30
0.0
  0
VERTEX
  5
222
330
221
100
AcDbEntity
  8
0
 62
     7
420
 16777215
370
    35
100
AcDbVertex
100
AcDb2dVertex
 10
125.1819334077354
 20
196.26618574175
 30
0.0
  0
VERTEX
  5
223
330
221
100
AcDbEntity
  8
0
 62
     7
420
 16777215
370
    35
100
AcDbVertex
100
AcDb2dVertex
 10
125.1819334077354
 20
192.6905187787616
 30
0.0
  0
SEQEND
  5
224
330
221
100
AcDbEntity
  8
0
370
    35
  0
ENDBLK
  5
220
330
21D
100
AcDbEntity
  8
0
100
AcDbBlockEnd
  0
BLOCK
  5
227
330
225
100
AcDbEntity
  8
0
100
AcDbBlockBegin
  2
block 70
 70
     0
 71
     0
 10
0.0
 20
0.0
 30
0.0
  3
block 70
  1

  0
POLYLINE
  5
229
330
225
100
AcDbEntity
  8
0
 62
     7
420
 16777215
370
    25
100
AcDb2dPolyline
 66
     1
 10
0.0
 20
0.0
 30
0.0
  0
VERTEX
  5
22A
330
229
100
AcDbEntity
  8
0
 62
     7
420
 16777215
370
    25
100
AcDbVertex
100
AcDb2dVertex
 10
125.1652246836093
 20
196.2792771132303
 30
0.0
  0
VERTEX
  5
22B
330
229
100
AcDbEntity
  8
0
 62
     7
420
 16777215
370
    25
100
AcDbVertex
100
AcDb2dVertex
 10
125.1819334077354
 20
196.26618574175
 30
0.0
  0
SEQEND
  5
22C
330
229
100
AcDbEntity
  8
0
370
    25
  0
ENDBLK
  5
228
330
225
100
AcDbEntity
  8
0
100
AcDbBlockEnd
  0
BLOCK
  5
22F
330
22D
100
AcDbEntity
  8
0
100
AcDbBlockBegin
  2
block 71
 70
     0
 71
     0
 10
0.0
 20
0.0
 30
0.0
  3
block 71
  1

  0
POLYLINE
  5
231
330
22D
100
AcDbEntity
  8
0
 62
     7
420
 16777215
370
    35
100
AcDb2dPolyline
 66
     1
 10
0.0
 20
0.0
 30
0.0
  0
VERTEX
  5
232
330
231
100
AcDbEntity
  8
0
 62
     7
420
 16777215
370
    35
100
AcDbVertex
100
AcDb2dVertex
 10
123.2399318015724
 20
203.7341241516835
 30
0.0
  0
VERTEX
  5
233
330
231
100
AcDbEntity
  8
0
 62
     7
420
 16777215
370
    35
100
AcDbVertex
100
AcDb2dVertex
 10
123.2399318015724
 20
207.309791114672
 30
0.0
  0
SEQEND
  5
234
330
231
100
AcDbEntity
  8
0
370
    35
  0
ENDBLK
  5
230
330
22D
100
AcDbEntity
  8
0
100
AcDbBlockEnd
  0
BLOCK
  5
237
330
235
100
AcDbEntity
  8
0
100
AcDbBlockBegin
  2
block 72
 70
     0
 71
     0
 10
0.0
 20
0.0
 30
0.0
  3
block 72
  1

  0
POLYLINE
  5
239
330
235
100
AcDbEntity
  8
0
 62
     7
420
 16777215
370
    25
100
AcDb2dPolyline
 66
     1
 10
0.0
 20
0.0
 30
0.0
  0
VERTEX
  5
23A
330
239
100
AcDbEntity
  8
0
 62
     7
420
 16777215
370
    25
100
AcDbVertex
100
AcDb2dVertex
 10
123.2399318015724
 20
207.309791114672
 30
0.0
  0
VERTEX
  5
23B
330
239
100
AcDbEntity
  8
0
 62
     7
420
 16777215
370
    25
100
AcDbVertex
100
AcDb2dVertex
 10
123.2399318015724
 20
207.309791114672
 30
0.0
  0
SEQEND
  5
23C
330
239
100
AcDbEntity
  8
0
370
    25
  0
ENDBLK
  5
238
330
235
100
AcDbEntity
  8
0
100
AcDbBlockEnd
  0
BLOCK
  5
23F
330
23D
100
AcDbEntity
  8
0
100
AcDbBlockBegin
  2
block 73
 70
     0
 71
     0
 10
0.0
 20
0.0
 30
0.0
  3
block 73
  1

  0
POLYLINE
  5
241
330
23D
100
AcDbEntity
  8
0
 62
     7
420
 16777215
370
    35
100
AcDb2dPolyline
 66
     1
 10
0.0
 20
0.0
 30
0.0
  0
VERTEX
  5
242
330
241
100
AcDbEntity
  8
0
 62
     7
420
 16777215
370
    35
100
AcDbVertex
100
AcDb2dVertex
 10
123.2399318015724
 20
192.6905187787616
 30
0.0
  0
VERTEX
  5
243
330
241
100
AcDbEntity
  8
0
 62
     7
420
 16777215
370
    35
100
AcDbVertex
100
AcDb2dVertex
 10
123.2399318015724
 20
196.26618574175
 30
0.0
  0
SEQEND
  5
244
330
241
100
AcDbEntity
  8
0
370
    35
  0
ENDBLK
  5
240
330
23D
100
AcDbEntity
  8
0
100
AcDbBlockEnd
  0
BLOCK
  5
247
330
245
100
AcDbEntity
  8
0
100
AcDbBlockBegin
  2
block 74
 70
     0
 71
     0
 10
0.0
 20
0.0
 30
0.0
  3
block 74
  1

  0
POLYLINE
  5
249
330
245
100
AcDbEntity
  8
0
 62
     7
420
 16777215
370
    25
100
AcDb2dPolyline
 66
     1
 10
0.0
 20
0.0
 30
0.0
  0
VERTEX
  5
24A
330
249
100
AcDbEntity
  8
0
 62
     7
420
 16777215
370
    25
100
AcDbVertex
100
AcDb2dVertex
 10
127.2422741218844
 20
197.6135634748888
 30
0.0
  0
VERTEX
  5
308
330
249
100
AcDbEntity
  8
0
100
AcDbVertex
100
AcDb2dVertex
 10
127.2422741218844
 20
197.6135634748888
 30
0.0
  0
SEQEND
  5
24B
330
249
100
AcDbEntity
  8
0
370
    25
  0
ENDBLK
  5
248
330
245
100
AcDbEntity
  8
0
100
AcDbBlockEnd
  0
BLOCK
  5
24E
330
24C
100
AcDbEntity
  8
0
100
AcDbBlockBegin
  2
block 75
 70
     0
 71
     0
 10
0.0
 20
0.0
 30
0.0
  3
block 75
  1

  0
SPLINE
  5
250
330
24C
100
AcDbEntity
  8
0
 62
     7
420
 16777215
370
    35
100
AcDbSpline
210
0.0
220
0.0
230
1.0
 70
     8
 71
     3
 72
     8
 73
     4
 74
     0
 42
0.0000000001
 43
0.0000000001
 40
0.0
 40
0.0
 40
0.0
 40
0.0
 40
1.0
 40
1.0
 40
1.0
 40
1.0
 10
125.1819334077354
 20
196.26618574175
 30
0.0
 10
125.8866281541265
 20
196.4057122009474
 30
0.0
 10
126.8321352337991
 20
197.0239349936137
 30
0.0
 10
127.2422741218844
 20
197.6135634748888
 30
0.0
  0
ENDBLK
  5
24F
330
24C
100
AcDbEntity
  8
0
100
AcDbBlockEnd
  0
BLOCK
  5
253
330
251
100
AcDbEntity
  8
0
100
AcDbBlockBegin
  2
block 76
 70
     0
 71
     0
 10
0.0
 20
0.0
 30
0.0
  3
block 76
  1

  0
POLYLINE
  5
255
330
251
100
AcDbEntity
  8
0
 62
     7
420
 16777215
370
    25
100
AcDb2dPolyline
 66
     1
 10
0.0
 20
0.0
 30
0.0
  0
VERTEX
  5
256
330
255
100
AcDbEntity
  8
0
 62
     7
420
 16777215
370
    25
100
AcDbVertex
100
AcDb2dVertex
 10
125.1819334077354
 20
203.7341241516835
 30
0.0
  0
VERTEX
  5
309
330
255
100
AcDbEntity
  8
0
100
AcDbVertex
100
AcDb2dVertex
 10
125.1819334077354
 20
203.7341241516835
 30
0.0
  0
SEQEND
  5
257
330
255
100
AcDbEntity
  8
0
370
    25
  0
ENDBLK
  5
254
330
251
100
AcDbEntity
  8
0
100
AcDbBlockEnd
  0
BLOCK
  5
25A
330
258
100
AcDbEntity
  8
0
100
AcDbBlockBegin
  2
block 77
 70
     0
 71
     0
 10
0.0
 20
0.0
 30
0.0
  3
block 77
  1

  0
SPLINE
  5
25C
330
258
100
AcDbEntity
  8
0
 62
     7
420
 16777215
370
    35
100
AcDbSpline
210
0.0
220
0.0
230
1.0
 70
     8
 71
     3
 72
     8
 73
     4
 74
     0
 42
0.0000000001
 43
0.0000000001
 40
0.0
 40
0.0
 40
0.0
 40
0.0
 40
1.0
 40
1.0
 40
1.0
 40
1.0
 10
127.2422741218844
 20
202.3867464185447
 30
0.0
 10
126.8321352337991
 20
202.9765471547078
 30
0.0
 10
125.8866281541265
 20
203.5945976924861
 30
0.0
 10
125.1819334077354
 20
203.7341241516835
 30
0.0
  0
ENDBLK
  5
25B
330
258
100
AcDbEntity
  8
0
100
AcDbBlockEnd
  0
BLOCK
  5
25F
330
25D
100
AcDbEntity
  8
0
100
AcDbBlockBegin
  2
block 78
 70
     0
 71
     0
 10
0.0
 20
0.0
 30
0.0
  3
block 78
  1

  0
POLYLINE
  5
261
330
25D
100
AcDbEntity
  8
0
 62
     7
420
 16777215
370
    25
100
AcDb2dPolyline
 66
     1
 10
0.0
 20
0.0
 30
0.0
  0
VERTEX
  5
262
330
261
100
AcDbEntity
  8
0
 62
     7
420
 16777215
370
    25
100
AcDbVertex
100
AcDb2dVertex
 10
125.1819334077354
 20
207.309791114672
 30
0.0
  0
VERTEX
  5
30A
330
261
100
AcDbEntity
  8
0
100
AcDbVertex
100
AcDb2dVertex
 10
125.1819334077354
 20
207.309791114672
 30
0.0
  0
SEQEND
  5
263
330
261
100
AcDbEntity
  8
0
370
    25
  0
ENDBLK
  5
260
330
25D
100
AcDbEntity
  8
0
100
AcDbBlockEnd
  0
BLOCK
  5
266
330
264
100
AcDbEntity
  8
0
100
AcDbBlockBegin
  2
block 79
 70
     0
 71
     0
 10
0.0
 20
0.0
 30
0.0
  3
block 79
  1

  0
POLYLINE
  5
268
330
264
100
AcDbEntity
  8
0
 62
     7
420
 16777215
370
    25
100
AcDb2dPolyline
 66
     1
 10
0.0
 20
0.0
 30
0.0
  0
VERTEX
  5
269
330
268
100
AcDbEntity
  8
0
 62
     7
420
 16777215
370
    25
100
AcDbVertex
100
AcDb2dVertex
 10
123.2399318015724
 20
207.309791114672
 30
0.0
  0
VERTEX
  5
26A
330
268
100
AcDbEntity
  8
0
 62
     7
420
 16777215
370
    25
100
AcDbVertex
100
AcDb2dVertex
 10
125.1819334077354
 20
207.309791114672
 30
0.0
  0
SEQEND
  5
26B
330
268
100
AcDbEntity
  8
0
370
    25
  0
ENDBLK
  5
267
330
264
100
AcDbEntity
  8
0
100
AcDbBlockEnd
  0
BLOCK
  5
26E
330
26C
100
AcDbEntity
  8
0
100
AcDbBlockBegin
  2
block 80
 70
     0
 71
     0
 10
0.0
 20
0.0
 30
0.0
  3
block 80
  1

  0
POLYLINE
  5
270
330
26C
100
AcDbEntity
  8
0
 62
     7
420
 16777215
370
    35
100
AcDb2dPolyline
 66
     1
 10
0.0
 20
0.0
 30
0.0
  0
VERTEX
  5
271
330
270
100
AcDbEntity
  8
0
 62
     7
420
 16777215
370
    35
100
AcDbVertex
100
AcDb2dVertex
 10
125.1819334077354
 20
207.309791114672
 30
0.0
  0
VERTEX
  5
272
330
270
100
AcDbEntity
  8
0
 62
     7
420
 16777215
370
    35
100
AcDbVertex
100
AcDb2dVertex
 10
125.1819334077354
 20
203.7341241516835
 30
0.0
  0
SEQEND
  5
273
330
270
100
AcDbEntity
  8
0
370
    35
  0
ENDBLK
  5
26F
330
26C
100
AcDbEntity
  8
0
100
AcDbBlockEnd
  0
BLOCK
  5
276
330
274
100
AcDbEntity
  8
0
100
AcDbBlockBegin
  2
block 81
 70
     0
 71
     0
 10
0.0
 20
0.0
 30
0.0
  3
block 81
  1

  0
SPLINE
  5
278
330
274
100
AcDbEntity
  8
0
 62
     7
420
 16777215
370
    35
100
AcDbSpline
210
0.0
220
0.0
230
1.0
 70
     8
 71
     3
 72
    17
 73
    13
 74
     0
 42
0.0000000001
 43
0.0000000001
 40
0.0
 40
0.0
 40
0.0
 40
0.0
 40
1.0
 40
1.0
 40
1.0
 40
2.0
 40
2.0
 40
2.0
 40
3.0
 40
3.0
 40
3.0
 40
4.0
 40
4.0
 40
4.0
 40
4.0
 10
272.8810257615084
 20
202.3867464185447
 30
0.0
 10
271.6959121327696
 20
204.0608916740262
 30
0.0
 10
269.378050361213
 20
204.2166100926861
 30
0.0
 10
267.7037328508436
 20
203.0314964639473
 30
0.0
 10
266.0294153404742
 20
201.8465550900964
 30
0.0
 10
265.6332290983086
 20
199.5290378283155
 30
0.0
 10
266.8179982172716
 20
197.8547203179461
 30
0.0
 10
268.0031118460104
 20
196.1805750624647
 30
0.0
 10
270.3206291077913
 20
195.7836998007475
 30
0.0
 10
271.9949466181607
 20
196.9689856843742
 30
0.0
 10
272.2777891440893
 20
197.1508868459946
 30
0.0
 10
272.6987800901122
 20
197.3308932038481
 30
0.0
 10
272.8810257615084
 20
197.6135634748888
 30
0.0
  0
ENDBLK
  5
277
330
274
100
AcDbEntity
  8
0
100
AcDbBlockEnd
  0
BLOCK
  5
27B
330
279
100
AcDbEntity
  8
0
100
AcDbBlockBegin
  2
block 82
 70
     0
 71
     0
 10
0.0
 20
0.0
 30
0.0
  3
block 82
  1

  0
SPLINE
  5
27D
330
279
100
AcDbEntity
  8
0
 62
     7
420
 16777215
370
    35
100
AcDbSpline
210
0.0
220
0.0
230
1.0
 70
     8
 71
     3
 72
    11
 73
     7
 74
     0
 42
0.0000000001
 43
0.0000000001
 40
0.0
 40
0.0
 40
0.0
 40
0.0
 40
1.0
 40
1.0
 40
1.0
 40
2.0
 40
2.0
 40
2.0
 40
2.0
 10
276.8835403367083
 20
196.26618574175
 30
0.0
 10
278.8830750754292
 20
196.7228334495678
 30
0.0
 10
279.9892959655107
 20
198.8272714150187
 30
0.0
 10
279.5328205125808
 20
200.8268061537397
 30
0.0
 10
279.2951087672815
 20
202.1380103604199
 30
0.0
 10
278.1947445433885
 20
203.4960678966084
 30
0.0
 10
276.8835403367083
 20
203.7342964065714
 30
0.0
  0
ENDBLK
  5
27C
330
279
100
AcDbEntity
  8
0
100
AcDbBlockEnd
  0
BLOCK
  5
280
330
27E
100
AcDbEntity
  8
0
100
AcDbBlockBegin
  2
block 83
 70
     0
 71
     0
 10
0.0
 20
0.0
 30
0.0
  3
block 83
  1

  0
POLYLINE
  5
282
330
27E
100
AcDbEntity
  8
0
 62
     7
420
 16777215
370
    35
100
AcDb2dPolyline
 66
     1
 10
0.0
 20
0.0
 30
0.0
  0
VERTEX
  5
283
330
282
100
AcDbEntity
  8
0
 62
     7
420
 16777215
370
    35
100
AcDbVertex
100
AcDb2dVertex
 10
274.9415387305453
 20
192.6906910336495
 30
0.0
  0
VERTEX
  5
284
330
282
100
AcDbEntity
  8
0
 62
     7
420
 16777215
370
    35
100
AcDbVertex
100
AcDb2dVertex
 10
276.8835403367083
 20
192.6906910336495
 30
0.0
  0
SEQEND
  5
285
330
282
100
AcDbEntity
  8
0
370
    35
  0
ENDBLK
  5
281
330
27E
100
AcDbEntity
  8
0
100
AcDbBlockEnd
  0
BLOCK
  5
288
330
286
100
AcDbEntity
  8
0
100
AcDbBlockBegin
  2
block 84
 70
     0
 71
     0
 10
0.0
 20
0.0
 30
0.0
  3
block 84
  1

  0
POLYLINE
  5
28A
330
286
100
AcDbEntity
  8
0
 62
     7
420
 16777215
370
    25
100
AcDb2dPolyline
 66
     1
 10
0.0
 20
0.0
 30
0.0
  0
VERTEX
  5
28B
330
28A
100
AcDbEntity
  8
0
 62
     7
420
 16777215
370
    25
100
AcDbVertex
100
AcDb2dVertex
 10
276.8835403367083
 20
203.7342964065714
 30
0.0
  0
VERTEX
  5
30B
330
28A
100
AcDbEntity
  8
0
100
AcDbVertex
100
AcDb2dVertex
 10
276.8835403367083
 20
203.7342964065714
 30
0.0
  0
SEQEND
  5
28C
330
28A
100
AcDbEntity
  8
0
370
    25
  0
ENDBLK
  5
289
330
286
100
AcDbEntity
  8
0
100
AcDbBlockEnd
  0
BLOCK
  5
28F
330
28D
100
AcDbEntity
  8
0
100
AcDbBlockBegin
  2
block 85
 70
     0
 71
     0
 10
0.0
 20
0.0
 30
0.0
  3
block 85
  1

  0
POLYLINE
  5
291
330
28D
100
AcDbEntity
  8
0
 62
     7
420
 16777215
370
    25
100
AcDb2dPolyline
 66
     1
 10
0.0
 20
0.0
 30
0.0
  0
VERTEX
  5
292
330
291
100
AcDbEntity
  8
0
 62
     7
420
 16777215
370
    25
100
AcDbVertex
100
AcDb2dVertex
 10
276.8666593576943
 20
196.2792771132303
 30
0.0
  0
VERTEX
  5
293
330
291
100
AcDbEntity
  8
0
 62
     7
420
 16777215
370
    25
100
AcDbVertex
100
AcDb2dVertex
 10
276.8835403367083
 20
196.26618574175
 30
0.0
  0
SEQEND
  5
294
330
291
100
AcDbEntity
  8
0
370
    25
  0
ENDBLK
  5
290
330
28D
100
AcDbEntity
  8
0
100
AcDbBlockEnd
  0
BLOCK
  5
297
330
295
100
AcDbEntity
  8
0
100
AcDbBlockBegin
  2
block 86
 70
     0
 71
     0
 10
0.0
 20
0.0
 30
0.0
  3
block 86
  1

  0
POLYLINE
  5
299
330
295
100
AcDbEntity
  8
0
 62
     7
420
 16777215
370
    25
100
AcDb2dPolyline
 66
     1
 10
0.0
 20
0.0
 30
0.0
  0
VERTEX
  5
29A
330
299
100
AcDbEntity
  8
0
 62
     7
420
 16777215
370
    25
100
AcDbVertex
100
AcDb2dVertex
 10
276.8835403367083
 20
207.3096188597841
 30
0.0
  0
VERTEX
  5
30C
330
299
100
AcDbEntity
  8
0
100
AcDbVertex
100
AcDb2dVertex
 10
276.8835403367083
 20
207.3096188597841
 30
0.0
  0
SEQEND
  5
29B
330
299
100
AcDbEntity
  8
0
370
    25
  0
ENDBLK
  5
298
330
295
100
AcDbEntity
  8
0
100
AcDbBlockEnd
  0
BLOCK
  5
29E
330
29C
100
AcDbEntity
  8
0
100
AcDbBlockBegin
  2
block 87
 70
     0
 71
     0
 10
0.0
 20
0.0
 30
0.0
  3
block 87
  1

  0
POLYLINE
  5
2A0
330
29C
100
AcDbEntity
  8
0
 62
     7
420
 16777215
370
    25
100
AcDb2dPolyline
 66
     1
 10
0.0
 20
0.0
 30
0.0
  0
VERTEX
  5
2A1
330
2A0
100
AcDbEntity
  8
0
 62
     7
420
 16777215
370
    25
100
AcDbVertex
100
AcDb2dVertex
 10
274.9415387305453
 20
207.3096188597841
 30
0.0
  0
VERTEX
  5
30D
330
2A0
100
AcDbEntity
  8
0
100
AcDbVertex
100
AcDb2dVertex
 10
274.9415387305453
 20
207.3096188597841
 30
0.0
  0
SEQEND
  5
2A2
330
2A0
100
AcDbEntity
  8
0
370
    25
  0
ENDBLK
  5
29F
330
29C
100
AcDbEntity
  8
0
100
AcDbBlockEnd
  0
BLOCK
  5
2A5
330
2A3
100
AcDbEntity
  8
0
100
AcDbBlockBegin
  2
block 88
 70
     0
 71
     0
 10
0.0
 20
0.0
 30
0.0
  3
block 88
  1

  0
POLYLINE
  5
2A7
330
2A3
100
AcDbEntity
  8
0
 62
     7
420
 16777215
370
    35
100
AcDb2dPolyline
 66
     1
 10
0.0
 20
0.0
 30
0.0
  0
VERTEX
  5
2A8
330
2A7
100
AcDbEntity
  8
0
 62
     7
420
 16777215
370
    35
100
AcDbVertex
100
AcDb2dVertex
 10
274.9415387305453
 20
207.3096188597841
 30
0.0
  0
VERTEX
  5
2A9
330
2A7
100
AcDbEntity
  8
0
 62
     7
420
 16777215
370
    35
100
AcDbVertex
100
AcDb2dVertex
 10
276.8835403367083
 20
207.3096188597841
 30
0.0
  0
SEQEND
  5
2AA
330
2A7
100
AcDbEntity
  8
0
370
    35
  0
ENDBLK
  5
2A6
330
2A3
100
AcDbEntity
  8
0
100
AcDbBlockEnd
  0
BLOCK
  5
2AD
330
2AB
100
AcDbEntity
  8
0
100
AcDbBlockBegin
  2
block 89
 70
     0
 71
     0
 10
0.0
 20
0.0
 30
0.0
  3
block 89
  1

  0
POLYLINE
  5
2AF
330
2AB
100
AcDbEntity
  8
0
 62
     7
420
 16777215
370
    35
100
AcDb2dPolyline
 66
     1
 10
0.0
 20
0.0
 30
0.0
  0
VERTEX
  5
2B0
330
2AF
100
AcDbEntity
  8
0
 62
     7
420
 16777215
370
    35
100
AcDbVertex
100
AcDb2dVertex
 10
274.9415387305453
 20
203.7342964065714
 30
0.0
  0
VERTEX
  5
2B1
330
2AF
100
AcDbEntity
  8
0
 62
     7
420
 16777215
370
    35
100
AcDbVertex
100
AcDb2dVertex
 10
274.9415387305453
 20
207.3096188597841
 30
0.0
  0
SEQEND
  5
2B2
330
2AF
100
AcDbEntity
  8
0
370
    35
  0
ENDBLK
  5
2AE
330
2AB
100
AcDbEntity
  8
0
100
AcDbBlockEnd
  0
BLOCK
  5
2B5
330
2B3
100
AcDbEntity
  8
0
100
AcDbBlockBegin
  2
block 90
 70
     0
 71
     0
 10
0.0
 20
0.0
 30
0.0
  3
block 90
  1

  0
POLYLINE
  5
2B7
330
2B3
100
AcDbEntity
  8
0
 62
     7
420
 16777215
370
    25
100
AcDb2dPolyline
 66
     1
 10
0.0
 20
0.0
 30
0.0
  0
VERTEX
  5
2B8
330
2B7
100
AcDbEntity
  8
0
 62
     7
420
 16777215
370
    25
100
AcDbVertex
100
AcDb2dVertex
 10
274.9580751997835
 20
203.7210327802033
 30
0.0
  0
VERTEX
  5
2B9
330
2B7
100
AcDbEntity
  8
0
 62
     7
420
 16777215
370
    25
100
AcDbVertex
100
AcDb2dVertex
 10
274.9415387305453
 20
203.7342964065714
 30
0.0
  0
SEQEND
  5
2BA
330
2B7
100
AcDbEntity
  8
0
370
    25
  0
ENDBLK
  5
2B6
330
2B3
100
AcDbEntity
  8
0
100
AcDbBlockEnd
  0
BLOCK
  5
2BD
330
2BB
100
AcDbEntity
  8
0
100
AcDbBlockBegin
  2
block 91
 70
     0
 71
     0
 10
0.0
 20
0.0
 30
0.0
  3
block 91
  1

  0
POLYLINE
  5
2BF
330
2BB
100
AcDbEntity
  8
0
 62
     7
420
 16777215
370
    35
100
AcDb2dPolyline
 66
     1
 10
0.0
 20
0.0
 30
0.0
  0
VERTEX
  5
2C0
330
2BF
100
AcDbEntity
  8
0
 62
     7
420
 16777215
370
    35
100
AcDbVertex
100
AcDb2dVertex
 10
276.8835403367083
 20
196.26618574175
 30
0.0
  0
VERTEX
  5
2C1
330
2BF
100
AcDbEntity
  8
0
 62
     7
420
 16777215
370
    35
100
AcDbVertex
100
AcDb2dVertex
 10
276.8835403367083
 20
192.6906910336495
 30
0.0
  0
SEQEND
  5
2C2
330
2BF
100
AcDbEntity
  8
0
370
    35
  0
ENDBLK
  5
2BE
330
2BB
100
AcDbEntity
  8
0
100
AcDbBlockEnd
  0
BLOCK
  5
2C5
330
2C3
100
AcDbEntity
  8
0
100
AcDbBlockBegin
  2
block 92
 70
     0
 71
     0
 10
0.0
 20
0.0
 30
0.0
  3
block 92
  1

  0
POLYLINE
  5
2C7
330
2C3
100
AcDbEntity
  8
0
 62
     7
420
 16777215
370
    25
100
AcDb2dPolyline
 66
     1
 10
0.0
 20
0.0
 30
0.0
  0
VERTEX
  5
2C8
330
2C7
100
AcDbEntity
  8
0
 62
     7
420
 16777215
370
    25
100
AcDbVertex
100
AcDb2dVertex
 10
276.8835403367083
 20
192.6906910336495
 30
0.0
  0
VERTEX
  5
2C9
330
2C7
100
AcDbEntity
  8
0
 62
     7
420
 16777215
370
    25
100
AcDbVertex
100
AcDb2dVertex
 10
276.8835403367083
 20
192.6906910336495
 30
0.0
  0
SEQEND
  5
2CA
330
2C7
100
AcDbEntity
  8
0
370
    25
  0
ENDBLK
  5
2C6
330
2C3
100
AcDbEntity
  8
0
100
AcDbBlockEnd
  0
BLOCK
  5
2CD
330
2CB
100
AcDbEntity
  8
0
100
AcDbBlockBegin
  2
block 93
 70
     0
 71
     0
 10
0.0
 20
0.0
 30
0.0
  3
block 93
  1

  0
POLYLINE
  5
2CF
330
2CB
100
AcDbEntity
  8
0
 62
     7
420
 16777215
370
    35
100
AcDb2dPolyline
 66
     1
 10
0.0
 20
0.0
 30
0.0
  0
VERTEX
  5
2D0
330
2CF
100
AcDbEntity
  8
0
 62
     7
420
 16777215
370
    35
100
AcDbVertex
100
AcDb2dVertex
 10
276.8835403367083
 20
207.3096188597841
 30
0.0
  0
VERTEX
  5
2D1
330
2CF
100
AcDbEntity
  8
0
 62
     7
420
 16777215
370
    35
100
AcDbVertex
100
AcDb2dVertex
 10
276.8835403367083
 20
203.7342964065714
 30
0.0
  0
SEQEND
  5
2D2
330
2CF
100
AcDbEntity
  8
0
370
    35
  0
ENDBLK
  5
2CE
330
2CB
100
AcDbEntity
  8
0
100
AcDbBlockEnd
  0
BLOCK
  5
2D5
330
2D3
100
AcDbEntity
  8
0
100
AcDbBlockBegin
  2
block 94
 70
     0
 71
     0
 10
0.0
 20
0.0
 30
0.0
  3
block 94
  1

  0
POLYLINE
  5
2D7
330
2D3
100
AcDbEntity
  8
0
 62
     7
420
 16777215
370
    25
100
AcDb2dPolyline
 66
     1
 10
0.0
 20
0.0
 30
0.0
  0
VERTEX
  5
2D8
330
2D7
100
AcDbEntity
  8
0
 62
     7
420
 16777215
370
    25
100
AcDbVertex
100
AcDb2dVertex
 10
272.8810257615084
 20
202.3867464185447
 30
0.0
  0
VERTEX
  5
30E
330
2D7
100
AcDbEntity
  8
0
100
AcDbVertex
100
AcDb2dVertex
 10
272.8810257615084
 20
202.3867464185447
 30
0.0
  0
SEQEND
  5
2D9
330
2D7
100
AcDbEntity
  8
0
370
    25
  0
ENDBLK
  5
2D6
330
2D3
100
AcDbEntity
  8
0
100
AcDbBlockEnd
  0
BLOCK
  5
2DC
330
2DA
100
AcDbEntity
  8
0
100
AcDbBlockBegin
  2
block 95
 70
     0
 71
     0
 10
0.0
 20
0.0
 30
0.0
  3
block 95
  1

  0
SPLINE
  5
2DE
330
2DA
100
AcDbEntity
  8
0
 62
     7
420
 16777215
370
    35
100
AcDbSpline
210
0.0
220
0.0
230
1.0
 70
     8
 71
     3
 72
     8
 73
     4
 74
     0
 42
0.0000000001
 43
0.0000000001
 40
0.0
 40
0.0
 40
0.0
 40
0.0
 40
1.0
 40
1.0
 40
1.0
 40
1.0
 10
274.9415387305453
 20
203.7342964065714
 30
0.0
 10
274.2366717292663
 20
203.594769947374
 30
0.0
 10
273.2913369044816
 20
202.9765471547078
 30
0.0
 10
272.8810257615084
 20
202.3867464185447
 30
0.0
  0
ENDBLK
  5
2DD
330
2DA
100
AcDbEntity
  8
0
100
AcDbBlockEnd
  0
BLOCK
  5
2E1
330
2DF
100
AcDbEntity
  8
0
100
AcDbBlockBegin
  2
block 96
 70
     0
 71
     0
 10
0.0
 20
0.0
 30
0.0
  3
block 96
  1

  0
POLYLINE
  5
2E3
330
2DF
100
AcDbEntity
  8
0
 62
     7
420
 16777215
370
    25
100
AcDb2dPolyline
 66
     1
 10
0.0
 20
0.0
 30
0.0
  0
VERTEX
  5
2E4
330
2E3
100
AcDbEntity
  8
0
 62
     7
420
 16777215
370
    25
100
AcDbVertex
100
AcDb2dVertex
 10
274.9415387305453
 20
196.26618574175
 30
0.0
  0
VERTEX
  5
30F
330
2E3
100
AcDbEntity
  8
0
100
AcDbVertex
100
AcDb2dVertex
 10
274.9415387305453
 20
196.26618574175
 30
0.0
  0
SEQEND
  5
2E5
330
2E3
100
AcDbEntity
  8
0
370
    25
  0
ENDBLK
  5
2E2
330
2DF
100
AcDbEntity
  8
0
100
AcDbBlockEnd
  0
BLOCK
  5
2E8
330
2E6
100
AcDbEntity
  8
0
100
AcDbBlockBegin
  2
block 97
 70
     0
 71
     0
 10
0.0
 20
0.0
 30
0.0
  3
block 97
  1

  0
SPLINE
  5
2EA
330
2E6
100
AcDbEntity
  8
0
 62
     7
420
 16777215
370
    35
100
AcDbSpline
210
0.0
220
0.0
230
1.0
 70
     8
 71
     3
 72
     8
 73
     4
 74
     0
 42
0.0000000001
 43
0.0000000001
 40
0.0
 40
0.0
 40
0.0
 40
0.0
 40
1.0
 40
1.0
 40
1.0
 40
1.0
 10
272.8810257615084
 20
197.6135634748888
 30
0.0
 10
273.2913369044816
 20
197.0237627387258
 30
0.0
 10
274.2366717292663
 20
196.4057122009474
 30
0.0
 10
274.9415387305453
 20
196.26618574175
 30
0.0
  0
ENDBLK
  5
2E9
330
2E6
100
AcDbEntity
  8
0
100
AcDbBlockEnd
  0
BLOCK
  5
2ED
330
2EB
100
AcDbEntity
  8
0
100
AcDbBlockBegin
  2
block 98
 70
     0
 71
     0
 10
0.0
 20
0.0
 30
0.0
  3
block 98
  1

  0
POLYLINE
  5
2EF
330
2EB
100
AcDbEntity
  8
0
 62
     7
420
 16777215
370
    25
100
AcDb2dPolyline
 66
     1
 10
0.0
 20
0.0
 30
0.0
  0
VERTEX
  5
2F0
330
2EF
100
AcDbEntity
  8
0
 62
     7
420
 16777215
370
    25
100
AcDbVertex
100
AcDb2dVertex
 10
274.9415387305453
 20
192.6906910336495
 30
0.0
  0
VERTEX
  5
310
330
2EF
100
AcDbEntity
  8
0
100
AcDbVertex
100
AcDb2dVertex
 10
274.9415387305453
 20
192.6906910336495
 30
0.0
  0
SEQEND
  5
2F1
330
2EF
100
AcDbEntity
  8
0
370
    25
  0
ENDBLK
  5
2EE
330
2EB
100
AcDbEntity
  8
0
100
AcDbBlockEnd
  0
BLOCK
  5
2F4
330
2F2
100
AcDbEntity
  8
0
100
AcDbBlockBegin
  2
block 99
 70
     0
 71
     0
 10
0.0
 20
0.0
 30
0.0
  3
block 99
  1

  0
POLYLINE
  5
2F6
330
2F2
100
AcDbEntity
  8
0
 62
     7
420
 16777215
370
    25
100
AcDb2dPolyline
 66
     1
 10
0.0
 20
0.0
 30
0.0
  0
VERTEX
  5
2F7
330
2F6
100
AcDbEntity
  8
0
 62
     7
420
 16777215
370
    25
100
AcDbVertex
100
AcDb2dVertex
 10
276.8835403367083
 20
192.6906910336495
 30
0.0
  0
VERTEX
  5
2F8
330
2F6
100
AcDbEntity
  8
0
 62
     7
420
 16777215
370
    25
100
AcDbVertex
100
AcDb2dVertex
 10
274.9415387305453
 20
192.6906910336495
 30
0.0
  0
SEQEND
  5
2F9
330
2F6
100
AcDbEntity
  8
0
370
    25
  0
ENDBLK
  5
2F5
330
2F2
100
AcDbEntity
  8
0
100
AcDbBlockEnd
  0
BLOCK
  5
2FC
330
2FA
100
AcDbEntity
  8
0
100
AcDbBlockBegin
  2
block 100
 70
     0
 71
     0
 10
0.0
 20
0.0
 30
0.0
  3
block 100
  1

  0
POLYLINE
  5
2FE
330
2FA
100
AcDbEntity
  8
0
 62
     7
420
 16777215
370
    35
100
AcDb2dPolyline
 66
     1
 10
0.0
 20
0.0
 30
0.0
  0
VERTEX
  5
2FF
330
2FE
100
AcDbEntity
  8
0
 62
     7
420
 16777215
370
    35
100
AcDbVertex
100
AcDb2dVertex
 10
274.9415387305453
 20
192.6906910336495
 30
0.0
  0
VERTEX
  5
300
330
2FE
100
AcDbEntity
  8
0
 62
     7
420
 16777215
370
    35
100
AcDbVertex
100
AcDb2dVertex
 10
274.9415387305453
 20
196.26618574175
 30
0.0
  0
SEQEND
  5
301
330
2FE
100
AcDbEntity
  8
0
370
    35
  0
ENDBLK
  5
2FD
330
2FA
100
AcDbEntity
  8
0
100
AcDbBlockEnd
  0
ENDSEC
  0
SECTION
  2
ENTITIES
  0
INSERT
  5
3C
330
1F
100
AcDbEntity
  8
0
100
AcDbBlockReference
  2
block 2
 10
0.0
 20
0.0
 30
0.0
  0
INSERT
  5
44
330
1F
100
AcDbEntity
  8
0
100
AcDbBlockReference
  2
block 3
 10
0.0
 20
0.0
 30
0.0
  0
INSERT
  5
4C
330
1F
100
AcDbEntity
  8
0
100
AcDbBlockReference
  2
block 4
 10
0.0
 20
0.0
 30
0.0
  0
INSERT
  5
54
330
1F
100
AcDbEntity
  8
0
100
AcDbBlockReference
  2
block 5
 10
0.0
 20
0.0
 30
0.0
  0
INSERT
  5
59
330
1F
100
AcDbEntity
  8
0
100
AcDbBlockReference
  2
block 6
 10
0.0
 20
0.0
 30
0.0
  0
INSERT
  5
61
330
1F
100
AcDbEntity
  8
0
100
AcDbBlockReference
  2
block 7
 10
0.0
 20
0.0
 30
0.0
  0
INSERT
  5
69
330
1F
100
AcDbEntity
  8
0
100
AcDbBlockReference
  2
block 8
 10
0.0
 20
0.0
 30
0.0
  0
INSERT
  5
71
330
1F
100
AcDbEntity
  8
0
100
AcDbBlockReference
  2
block 9
 10
0.0
 20
0.0
 30
0.0
  0
INSERT
  5
79
330
1F
100
AcDbEntity
  8
0
100
AcDbBlockReference
  2
block 10
 10
0.0
 20
0.0
 30
0.0
  0
INSERT
  5
82
330
1F
100
AcDbEntity
  8
0
100
AcDbBlockReference
  2
block 11
 10
0.0
 20
0.0
 30
0.0
  0
INSERT
  5
8A
330
1F
100
AcDbEntity
  8
0
100
AcDbBlockReference
  2
block 12
 10
0.0
 20
0.0
 30
0.0
  0
INSERT
  5
92
330
1F
100
AcDbEntity
  8
0
100
AcDbBlockReference
  2
block 13
 10
0.0
 20
0.0
 30
0.0
  0
INSERT
  5
9A
330
1F
100
AcDbEntity
  8
0
100
AcDbBlockReference
  2
block 14
 10
0.0
 20
0.0
 30
0.0
  0
INSERT
  5
A3
330
1F
100
AcDbEntity
  8
0
100
AcDbBlockReference
  2
block 15
 10
0.0
 20
0.0
 30
0.0
  0
INSERT
  5
AB
330
1F
100
AcDbEntity
  8
0
100
AcDbBlockReference
  2
block 16
 10
0.0
 20
0.0
 30
0.0
  0
INSERT
  5
B3
330
1F
100
AcDbEntity
  8
0
100
AcDbBlockReference
  2
block 17
 10
0.0
 20
0.0
 30
0.0
  0
INSERT
  5
B8
330
1F
100
AcDbEntity
  8
0
100
AcDbBlockReference
  2
block 18
 10
0.0
 20
0.0
 30
0.0
  0
INSERT
  5
BD
330
1F
100
AcDbEntity
  8
0
100
AcDbBlockReference
  2
block 19
 10
0.0
 20
0.0
 30
0.0
  0
INSERT
  5
C2
330
1F
100
AcDbEntity
  8
0
100
AcDbBlockReference
  2
block 20
 10
0.0
 20
0.0
 30
0.0
  0
INSERT
  5
C7
330
1F
100
AcDbEntity
  8
0
100
AcDbBlockReference
  2
block 21
 10
0.0
 20
0.0
 30
0.0
  0
INSERT
  5
CF
330
1F
100
AcDbEntity
  8
0
100
AcDbBlockReference
  2
block 22
 10
0.0
 20
0.0
 30
0.0
  0
INSERT
  5
D7
330
1F
100
AcDbEntity
  8
0
100
AcDbBlockReference
  2
block 23
 10
0.0
 20
0.0
 30
0.0
  0
INSERT
  5
DF
330
1F
100
AcDbEntity
  8
0
100
AcDbBlockReference
  2
block 24
 10
0.0
 20
0.0
 30
0.0
  0
INSERT
  5
E7
330
1F
100
AcDbEntity
  8
0
100
AcDbBlockReference
  2
block 25
 10
0.0
 20
0.0
 30
0.0
  0
INSERT
  5
EF
330
1F
100
AcDbEntity
  8
0
100
AcDbBlockReference
  2
block 26
 10
0.0
 20
0.0
 30
0.0
  0
INSERT
  5
F7
330
1F
100
AcDbEntity
  8
0
100
AcDbBlockReference
  2
block 27
 10
0.0
 20
0.0
 30
0.0
  0
INSERT
  5
FC
330
1F
100
AcDbEntity
  8
0
100
AcDbBlockReference
  2
block 28
 10
0.0
 20
0.0
 30
0.0
  0
INSERT
  5
104
330
1F
100
AcDbEntity
  8
0
100
AcDbBlockReference
  2
block 29
 10
0.0
 20
0.0
 30
0.0
  0
INSERT
  5
10C
330
1F
100
AcDbEntity
  8
0
100
AcDbBlockReference
  2
block 30
 10
0.0
 20
0.0
 30
0.0
  0
INSERT
  5
111
330
1F
100
AcDbEntity
  8
0
100
AcDbBlockReference
  2
block 31
 10
0.0
 20
0.0
 30
0.0
  0
INSERT
  5
11A
330
1F
100
AcDbEntity
  8
0
100
AcDbBlockReference
  2
block 32
 10
0.0
 20
0.0
 30
0.0
  0
INSERT
  5
123
330
1F
100
AcDbEntity
  8
0
100
AcDbBlockReference
  2
block 33
 10
0.0
 20
0.0
 30
0.0
  0
INSERT
  5
12B
330
1F
100
AcDbEntity
  8
0
100
AcDbBlockReference
  2
block 34
 10
0.0
 20
0.0
 30
0.0
  0
INSERT
  5
133
330
1F
100
AcDbEntity
  8
0
100
AcDbBlockReference
  2
block 35
 10
0.0
 20
0.0
 30
0.0
  0
INSERT
  5
13B
330
1F
100
AcDbEntity
  8
0
100
AcDbBlockReference
  2
block 36
 10
0.0
 20
0.0
 30
0.0
  0
INSERT
  5
143
330
1F
100
AcDbEntity
  8
0
100
AcDbBlockReference
  2
block 37
 10
0.0
 20
0.0
 30
0.0
  0
INSERT
  5
148
330
1F
100
AcDbEntity
  8
0
100
AcDbBlockReference
  2
block 38
 10
0.0
 20
0.0
 30
0.0
  0
INSERT
  5
14D
330
1F
100
AcDbEntity
  8
0
100
AcDbBlockReference
  2
block 39
 10
0.0
 20
0.0
 30
0.0
  0
INSERT
  5
152
330
1F
100
AcDbEntity
  8
0
100
AcDbBlockReference
  2
block 40
 10
0.0
 20
0.0
 30
0.0
  0
INSERT
  5
15A
330
1F
100
AcDbEntity
  8
0
100
AcDbBlockReference
  2
block 41
 10
0.0
 20
0.0
 30
0.0
  0
INSERT
  5
15F
330
1F
100
AcDbEntity
  8
0
100
AcDbBlockReference
  2
block 42
 10
0.0
 20
0.0
 30
0.0
  0
INSERT
  5
168
330
1F
100
AcDbEntity
  8
0
100
AcDbBlockReference
  2
block 43
 10
0.0
 20
0.0
 30
0.0
  0
INSERT
  5
16D
330
1F
100
AcDbEntity
  8
0
100
AcDbBlockReference
  2
block 44
 10
0.0
 20
0.0
 30
0.0
  0
INSERT
  5
175
330
1F
100
AcDbEntity
  8
0
100
AcDbBlockReference
  2
block 45
 10
0.0
 20
0.0
 30
0.0
  0
INSERT
  5
17E
330
1F
100
AcDbEntity
  8
0
100
AcDbBlockReference
  2
block 46
 10
0.0
 20
0.0
 30
0.0
  0
INSERT
  5
186
330
1F
100
AcDbEntity
  8
0
100
AcDbBlockReference
  2
block 47
 10
0.0
 20
0.0
 30
0.0
  0
INSERT
  5
18E
330
1F
100
AcDbEntity
  8
0
100
AcDbBlockReference
  2
block 48
 10
0.0
 20
0.0
 30
0.0
  0
INSERT
  5
196
330
1F
100
AcDbEntity
  8
0
100
AcDbBlockReference
  2
block 49
 10
0.0
 20
0.0
 30
0.0
  0
INSERT
  5
19E
330
1F
100
AcDbEntity
  8
0
100
AcDbBlockReference
  2
block 50
 10
0.0
 20
0.0
 30
0.0
  0
INSERT
  5
1A6
330
1F
100
AcDbEntity
  8
0
100
AcDbBlockReference
  2
block 51
 10
0.0
 20
0.0
 30
0.0
  0
INSERT
  5
1AE
330
1F
100
AcDbEntity
  8
0
100
AcDbBlockReference
  2
block 52
 10
0.0
 20
0.0
 30
0.0
  0
INSERT
  5
1B6
330
1F
100
AcDbEntity
  8
0
100
AcDbBlockReference
  2
block 53
 10
0.0
 20
0.0
 30
0.0
  0
INSERT
  5
1BE
330
1F
100
AcDbEntity
  8
0
100
AcDbBlockReference
  2
block 54
 10
0.0
 20
0.0
 30
0.0
  0
INSERT
  5
1C6
330
1F
100
AcDbEntity
  8
0
100
AcDbBlockReference
  2
block 55
 10
0.0
 20
0.0
 30
0.0
  0
INSERT
  5
1CE
330
1F
100
AcDbEntity
  8
0
100
AcDbBlockReference
  2
block 56
 10
0.0
 20
0.0
 30
0.0
  0
INSERT
  5
1D3
330
1F
100
AcDbEntity
  8
0
100
AcDbBlockReference
  2
block 57
 10
0.0
 20
0.0
 30
0.0
  0
INSERT
  5
1D8
330
1F
100
AcDbEntity
  8
0
100
AcDbBlockReference
  2
block 58
 10
0.0
 20
0.0
 30
0.0
  0
INSERT
  5
1DD
330
1F
100
AcDbEntity
  8
0
100
AcDbBlockReference
  2
block 59
 10
0.0
 20
0.0
 30
0.0
  0
INSERT
  5
1E2
330
1F
100
AcDbEntity
  8
0
100
AcDbBlockReference
  2
block 60
 10
0.0
 20
0.0
 30
0.0
  0
INSERT
  5
1E7
330
1F
100
AcDbEntity
  8
0
100
AcDbBlockReference
  2
block 61
 10
0.0
 20
0.0
 30
0.0
  0
INSERT
  5
1EC
330
1F
100
AcDbEntity
  8
0
100
AcDbBlockReference
  2
block 62
 10
0.0
 20
0.0
 30
0.0
  0
INSERT
  5
1F1
330
1F
100
AcDbEntity
  8
0
100
AcDbBlockReference
  2
block 63
 10
0.0
 20
0.0
 30
0.0
  0
INSERT
  5
1F9
330
1F
100
AcDbEntity
  8
0
100
AcDbBlockReference
  2
block 64
 10
0.0
 20
0.0
 30
0.0
  0
INSERT
  5
200
330
1F
100
AcDbEntity
  8
0
100
AcDbBlockReference
  2
block 65
 10
0.0
 20
0.0
 30
0.0
  0
INSERT
  5
208
330
1F
100
AcDbEntity
  8
0
100
AcDbBlockReference
  2
block 66
 10
0.0
 20
0.0
 30
0.0
  0
INSERT
  5
20F
330
1F
100
AcDbEntity
  8
0
100
AcDbBlockReference
  2
block 67
 10
0.0
 20
0.0
 30
0.0
  0
INSERT
  5
216
330
1F
100
AcDbEntity
  8
0
100
AcDbBlockReference
  2
block 68
 10
0.0
 20
0.0
 30
0.0
  0
INSERT
  5
21E
330
1F
100
AcDbEntity
  8
0
100
AcDbBlockReference
  2
block 69
 10
0.0
 20
0.0
 30
0.0
  0
INSERT
  5
226
330
1F
100
AcDbEntity
  8
0
100
AcDbBlockReference
  2
block 70
 10
0.0
 20
0.0
 30
0.0
  0
INSERT
  5
22E
330
1F
100
AcDbEntity
  8
0
100
AcDbBlockReference
  2
block 71
 10
0.0
 20
0.0
 30
0.0
  0
INSERT
  5
236
330
1F
100
AcDbEntity
  8
0
100
AcDbBlockReference
  2
block 72
 10
0.0
 20
0.0
 30
0.0
  0
INSERT
  5
23E
330
1F
100
AcDbEntity
  8
0
100
AcDbBlockReference
  2
block 73
 10
0.0
 20
0.0
 30
0.0
  0
INSERT
  5
246
330
1F
100
AcDbEntity
  8
0
100
AcDbBlockReference
  2
block 74
 10
0.0
 20
0.0
 30
0.0
  0
INSERT
  5
24D
330
1F
100
AcDbEntity
  8
0
100
AcDbBlockReference
  2
block 75
 10
0.0
 20
0.0
 30
0.0
  0
INSERT
  5
252
330
1F
100
AcDbEntity
  8
0
100
AcDbBlockReference
  2
block 76
 10
0.0
 20
0.0
 30
0.0
  0
INSERT
  5
259
330
1F
100
AcDbEntity
  8
0
100
AcDbBlockReference
  2
block 77
 10
0.0
 20
0.0
 30
0.0
  0
INSERT
  5
25E
330
1F
100
AcDbEntity
  8
0
100
AcDbBlockReference
  2
block 78
 10
0.0
 20
0.0
 30
0.0
  0
INSERT
  5
265
330
1F
100
AcDbEntity
  8
0
100
AcDbBlockReference
  2
block 79
 10
0.0
 20
0.0
 30
0.0
  0
INSERT
  5
26D
330
1F
100
AcDbEntity
  8
0
100
AcDbBlockReference
  2
block 80
 10
0.0
 20
0.0
 30
0.0
  0
INSERT
  5
275
330
1F
100
AcDbEntity
  8
0
100
AcDbBlockReference
  2
block 81
 10
0.0
 20
0.0
 30
0.0
  0
INSERT
  5
27A
330
1F
100
AcDbEntity
  8
0
100
AcDbBlockReference
  2
block 82
 10
0.0
 20
0.0
 30
0.0
  0
INSERT
  5
27F
330
1F
100
AcDbEntity
  8
0
100
AcDbBlockReference
  2
block 83
 10
0.0
 20
0.0
 30
0.0
  0
INSERT
  5
287
330
1F
100
AcDbEntity
  8
0
100
AcDbBlockReference
  2
block 84
 10
0.0
 20
0.0
 30
0.0
  0
INSERT
  5
28E
330
1F
100
AcDbEntity
  8
0
100
AcDbBlockReference
  2
block 85
 10
0.0
 20
0.0
 30
0.0
  0
INSERT
  5
296
330
1F
100
AcDbEntity
  8
0
100
AcDbBlockReference
  2
block 86
 10
0.0
 20
0.0
 30
0.0
  0
INSERT
  5
29D
330
1F
100
AcDbEntity
  8
0
100
AcDbBlockReference
  2
block 87
 10
0.0
 20
0.0
 30
0.0
  0
INSERT
  5
2A4
330
1F
100
AcDbEntity
  8
0
100
AcDbBlockReference
  2
block 88
 10
0.0
 20
0.0
 30
0.0
  0
INSERT
  5
2AC
330
1F
100
AcDbEntity
  8
0
100
AcDbBlockReference
  2
block 89
 10
0.0
 20
0.0
 30
0.0
  0
INSERT
  5
2B4
330
1F
100
AcDbEntity
  8
0
100
AcDbBlockReference
  2
block 90
 10
0.0
 20
0.0
 30
0.0
  0
INSERT
  5
2BC
330
1F
100
AcDbEntity
  8
0
100
AcDbBlockReference
  2
block 91
 10
0.0
 20
0.0
 30
0.0
  0
INSERT
  5
2C4
330
1F
100
AcDbEntity
  8
0
100
AcDbBlockReference
  2
block 92
 10
0.0
 20
0.0
 30
0.0
  0
INSERT
  5
2CC
330
1F
100
AcDbEntity
  8
0
100
AcDbBlockReference
  2
block 93
 10
0.0
 20
0.0
 30
0.0
  0
INSERT
  5
2D4
330
1F
100
AcDbEntity
  8
0
100
AcDbBlockReference
  2
block 94
 10
0.0
 20
0.0
 30
0.0
  0
INSERT
  5
2DB
330
1F
100
AcDbEntity
  8
0
100
AcDbBlockReference
  2
block 95
 10
0.0
 20
0.0
 30
0.0
  0
INSERT
  5
2E0
330
1F
100
AcDbEntity
  8
0
100
AcDbBlockReference
  2
block 96
 10
0.0
 20
0.0
 30
0.0
  0
INSERT
  5
2E7
330
1F
100
AcDbEntity
  8
0
100
AcDbBlockReference
  2
block 97
 10
0.0
 20
0.0
 30
0.0
  0
INSERT
  5
2EC
330
1F
100
AcDbEntity
  8
0
100
AcDbBlockReference
  2
block 98
 10
0.0
 20
0.0
 30
0.0
  0
INSERT
  5
2F3
330
1F
100
AcDbEntity
  8
0
100
AcDbBlockReference
  2
block 99
 10
0.0
 20
0.0
 30
0.0
  0
INSERT
  5
2FB
330
1F
100
AcDbEntity
  8
0
100
AcDbBlockReference
  2
block 100
 10
0.0
 20
0.0
 30
0.0
  0
SPLINE
  5
302
330
1F
100
AcDbEntity
  8
0
 62
     7
420
 16777215
370
    25
100
AcDbSpline
210
0.0
220
0.0
230
1.0
 70
    11
 71
     3
 72
    17
 73
    13
 74
     0
 42
0.0000000001
 43
0.0000000001
 40
0.0
 40
0.0
 40
0.0
 40
0.0
 40
1.0
 40
1.0
 40
1.0
 40
2.0
 40
2.0
 40
2.0
 40
3.0
 40
3.0
 40
3.0
 40
4.0
 40
4.0
 40
4.0
 40
4.0
 10
162.0422401043828
 20
260.5541214737457
 30
0.0
 10
162.0422401043828
 20
254.2029115020554
 30
0.0
 10
156.8931969953333
 20
249.0540406478938
 30
0.0
 10
150.5421592785309
 20
249.0540406478938
 30
0.0
 10
144.1907770519527
 20
249.0540406478938
 30
0.0
 10
139.042078452679
 20
254.2029115020554
 30
0.0
 10
139.042078452679
 20
260.5541214737457
 30
0.0
 10
139.042078452679
 20
266.9053314454359
 30
0.0
 10
144.1907770519527
 20
272.0542022995976
 30
0.0
 10
150.5421592785309
 20
272.0542022995976
 30
0.0
 10
156.8931969953333
 20
272.0542022995976
 30
0.0
 10
162.0422401043828
 20
266.9053314454359
 30
0.0
 10
162.0422401043828
 20
260.5541214737457
 30
0.0
  0
SPLINE
  5
303
330
1F
100
AcDbEntity
  8
0
 62
     7
420
 16777215
370
    25
100
AcDbSpline
210
0.0
220
0.0
230
1.0
 70
    11
 71
     3
 72
    17
 73
    13
 74
     0
 42
0.0000000001
 43
0.0000000001
 40
0.0
 40
0.0
 40
0.0
 40
0.0
 40
1.0
 40
1.0
 40
1.0
 40
2.0
 40
2.0
 40
2.0
 40
3.0
 40
3.0
 40
3.0
 40
4.0
 40
4.0
 40
4.0
 40
4.0
 10
260.9582314407546
 20
260.5541214737457
 30
0.0
 10
260.9582314407546
 20
254.2027392471675
 30
0.0
 10
255.8091883317051
 20
249.0540406478938
 30
0.0
 10
249.4581506149027
 20
249.0540406478938
 30
0.0
 10
243.1067683883245
 20
249.0540406478938
 30
0.0
 10
237.9580697890508
 20
254.2027392471675
 30
0.0
 10
237.9580697890508
 20
260.5541214737457
 30
0.0
 10
237.9580697890508
 20
266.9055037003238
 30
0.0
 10
243.1067683883245
 20
272.0542022995976
 30
0.0
 10
249.4581506149027
 20
272.0542022995976
 30
0.0
 10
255.8091883317051
 20
272.0542022995976
 30
0.0
 10
260.9582314407546
 20
266.9055037003238
 30
0.0
 10
260.9582314407546
 20
260.5541214737457
 30
0.0
  0
SPLINE
  5
304
330
1F
100
AcDbEntity
  8
0
 62
     7
420
 16777215
370
    35
100
AcDbSpline
210
0.0
220
0.0
230
1.0
 70
    11
 71
     3
 72
   122
 73
   118
 74
     0
 42
0.0000000001
 43
0.0000000001
 40
0.0
 40
0.0
 40
0.0
 40
0.0
 40
1.0
 40
1.0
 40
1.0
 40
2.0
 40
2.0
 40
2.0
 40
3.0
 40
3.0
 40
3.0
 40
4.0
 40
4.0
 40
4.0
 40
5.0
 40
5.0
 40
5.0
 40
6.0
 40
6.0
 40
6.0
 40
7.0
 40
7.0
 40
7.0
 40
8.0
 40
8.0
 40
8.0
 40
9.0
 40
9.0
 40
9.0
 40
10.0
 40
10.0
 40
10.0
 40
11.0
 40
11.0
 40
11.0
 40
12.0
 40
12.0
 40
12.0
 40
13.0
 40
13.0
 40
13.0
 40
14.0
 40
14.0
 40
14.0
 40
15.0
 40
15.0
 40
15.0
 40
16.0
 40
16.0
 40
16.0
 40
17.0
 40
17.0
 40
17.0
 40
18.0
 40
18.0
 40
18.0
 40
19.0
 40
19.0
 40
19.0
 40
20.0
 40
20.0
 40
20.0
 40
21.0
 40
21.0
 40
21.0
 40
22.0
 40
22.0
 40
22.0
 40
23.0
 40
23.0
 40
23.0
 40
24.0
 40
24.0
 40
24.0
 40
25.0
 40
25.0
 40
25.0
 40
26.0
 40
26.0
 40
26.0
 40
27.0
 40
27.0
 40
27.0
 40
28.0
 40
28.0
 40
28.0
 40
29.0
 40
29.0
 40
29.0
 40
30.0
 40
30.0
 40
30.0
 40
31.0
 40
31.0
 40
31.0
 40
32.0
 40
32.0
 40
32.0
 40
33.0
 40
33.0
 40
33.0
 40
34.0
 40
34.0
 40
34.0
 40
35.0
 40
35.0
 40
35.0
 40
36.0
 40
36.0
 40
36.0
 40
37.0
 40
37.0
 40
37.0
 40
38.0
 40
38.0
 40
38.0
 40
39.0
 40
39.0
 40
39.0
 40
39.0
 10
287.9581515894519
 20
220.4685142560946
 30
0.0
 10
287.9581515894519
 20
220.4685142560946
 30
0.0
 10
287.9581515894519
 20
291.9413736172073
 30
0.0
 10
287.9581515894519
 20
291.9413736172073
 30
0.0
 10
287.9581515894519
 20
291.9417181269831
 30
0.0
 10
287.9588406090035
 20
291.9420626367588
 30
0.0
 10
287.9588406090035
 20
291.9424071465346
 30
0.0
 10
287.9588406090035
 20
291.9427516563104
 30
0.0
 10
287.9581515894519
 20
291.9430961660862
 30
0.0
 10
287.9581515894519
 20
291.943440675862
 30
0.0
 10
287.9802002151029
 20
293.3312983076569
 30
0.0
 10
286.8832810889679
 20
294.5956491848288
 30
0.0
 10
285.5135102204023
 20
294.7618751516505
 30
0.0
 10
285.5128212008507
 20
294.7620474065384
 30
0.0
 10
285.5121321812991
 20
294.7618751516505
 30
0.0
 10
285.5114431617475
 20
294.7620474065384
 30
0.0
 10
285.5114431617475
 20
294.7620474065384
 30
0.0
 10
266.4717658925965
 20
297.3849725845625
 30
0.0
 10
266.4717658925965
 20
297.3849725845625
 30
0.0
 10
266.4710768730449
 20
297.3849725845625
 30
0.0
 10
266.4710768730449
 20
297.3851448394504
 30
0.0
 10
266.4710768730449
 20
297.3851448394504
 30
0.0
 10
261.2910278841737
 20
298.0147364547179
 30
0.0
 10
257.1465752813458
 20
302.7936038096744
 30
0.0
 10
257.2285686079853
 20
308.0399709303864
 30
0.0
 10
257.2285686079853
 20
308.0401431852743
 30
0.0
 10
257.2285686079853
 20
308.0401431852743
 30
0.0
 10
257.2285686079853
 20
308.0401431852743
 30
0.0
 10
257.2285686079853
 20
308.0401431852743
 30
0.0
 10
257.2285686079853
 20
310.1125417415761
 30
0.0
 10
257.2285686079853
 20
310.1125417415761
 30
0.0
 10
257.2285686079853
 20
311.6824727898793
 30
0.0
 10
255.9587055744006
 20
312.9595705287557
 30
0.0
 10
254.3977317802681
 20
312.9595705287557
 30
0.0
 10
254.3977317802681
 20
312.9595705287557
 30
0.0
 10
145.6025781131654
 20
312.9595705287557
 30
0.0
 10
145.6025781131654
 20
312.9595705287557
 30
0.0
 10
144.0414320641451
 20
312.9595705287557
 30
0.0
 10
142.7715690305604
 20
311.6824727898793
 30
0.0
 10
142.7715690305604
 20
310.1125417415761
 30
0.0
 10
142.7715690305604
 20
310.1125417415761
 30
0.0
 10
142.7715690305604
 20
308.0401431852743
 30
0.0
 10
142.7715690305604
 20
308.0401431852743
 30
0.0
 10
142.7715690305604
 20
308.0401431852743
 30
0.0
 10
142.7715690305604
 20
308.0401431852743
 30
0.0
 10
142.7715690305604
 20
308.0399709303864
 30
0.0
 10
142.8544236316394
 20
302.7934315547865
 30
0.0
 10
138.7087652445962
 20
298.0143919449421
 30
0.0
 10
133.5290607655008
 20
297.3851448394504
 30
0.0
 10
133.5290607655008
 20
297.3851448394504
 30
0.0
 10
133.528716255725
 20
297.3849725845625
 30
0.0
 10
133.528716255725
 20
297.3849725845625
 30
0.0
 10
133.528716255725
 20
297.3849725845625
 30
0.0
 10
114.488866731686
 20
294.7620474065384
 30
0.0
 10
114.488866731686
 20
294.7620474065384
 30
0.0
 10
114.4883499670223
 20
294.7618751516505
 30
0.0
 10
114.4876609474707
 20
294.7620474065384
 30
0.0
 10
114.487144182807
 20
294.7618751516505
 30
0.0
 10
114.487144182807
 20
294.7618751516505
 30
0.0
 10
114.4869719279191
 20
294.7618751516505
 30
0.0
 10
114.4869719279191
 20
294.7618751516505
 30
0.0
 10
113.1166842946899
 20
294.5956491848288
 30
0.0
 10
112.0199374234428
 20
293.3312983076569
 30
0.0
 10
112.0423305588695
 20
291.943440675862
 30
0.0
 10
112.0423305588695
 20
291.9430961660862
 30
0.0
 10
112.0421583039816
 20
291.9427516563104
 30
0.0
 10
112.0421583039816
 20
291.9424071465346
 30
0.0
 10
112.0421583039816
 20
291.9420626367588
 30
0.0
 10
112.0423305588695
 20
291.9417181269831
 30
0.0
 10
112.0423305588695
 20
291.9413736172073
 30
0.0
 10
112.0423305588695
 20
291.9413736172073
 30
0.0
 10
112.0423305588695
 20
220.4685142560946
 30
0.0
 10
112.0423305588695
 20
220.4685142560946
 30
0.0
 10
112.0423305588695
 20
220.4685142560946
 30
0.0
 10
112.0419860490937
 20
220.4685142560946
 30
0.0
 10
112.0419860490937
 20
220.4685142560946
 30
0.0
 10
112.0419860490937
 20
220.4685142560946
 30
0.0
 10
112.0419860490937
 20
190.4684307248763
 30
0.0
 10
112.0419860490937
 20
190.4684307248763
 30
0.0
 10
112.0419860490937
 20
190.4684307248763
 30
0.0
 10
135.6896538244065
 20
190.4684307248763
 30
0.0
 10
135.6896538244065
 20
190.4684307248763
 30
0.0
 10
139.8129190760229
 20
191.9641199164953
 30
0.0
 10
142.8425380443744
 20
196.110639577978
 30
0.0
 10
142.7715690305604
 20
200.6025302896964
 30
0.0
 10
142.7715690305604
 20
200.6027025445843
 30
0.0
 10
142.7715690305604
 20
200.6027025445843
 30
0.0
 10
142.7715690305604
 20
200.6027025445843
 30
0.0
 10
142.7715690305604
 20
200.6027025445843
 30
0.0
 10
142.7715690305604
 20
202.6751011008861
 30
0.0
 10
142.7715690305604
 20
202.6751011008861
 30
0.0
 10
142.7715690305604
 20
204.2450321491893
 30
0.0
 10
144.0414320641451
 20
205.5221298880657
 30
0.0
 10
145.6025781131654
 20
205.5221298880657
 30
0.0
 10
145.6025781131654
 20
205.5221298880657
 30
0.0
 10
254.3977317802681
 20
205.5221298880657
 30
0.0
 10
254.3977317802681
 20
205.5221298880657
 30
0.0
 10
255.9587055744006
 20
205.5221298880657
 30
0.0
 10
257.2285686079853
 20
204.2450321491893
 30
0.0
 10
257.2285686079853
 20
202.6751011008861
 30
0.0
 10
257.2285686079853
 20
202.6751011008861
 30
0.0
 10
257.2285686079853
 20
200.6027025445843
 30
0.0
 10
257.2285686079853
 20
200.6027025445843
 30
0.0
 10
257.2285686079853
 20
200.6027025445843
 30
0.0
 10
257.2285686079853
 20
200.6027025445843
 30
0.0
 10
257.2285686079853
 20
200.6025302896964
 30
0.0
 10
257.1582886137228
 20
196.110639577978
 30
0.0
 10
260.1872185625228
 20
191.9641199164953
 30
0.0
 10
264.3110005788029
 20
190.4684307248763
 30
0.0
 10
264.3110005788029
 20
190.4684307248763
 30
0.0
 10
287.9591851187793
 20
190.4684307248763
 30
0.0
 10
287.9591851187793
 20
190.4684307248763
 30
0.0
 10
287.9591851187793
 20
190.4684307248763
 30
0.0
 10
287.9591851187793
 20
220.4685142560946
 30
0.0
 10
287.9591851187793
 20
220.4685142560946
 30
0.0
 10
287.9591851187793
 20
220.4685142560946
 30
0.0
 10
287.9581515894519
 20
220.4685142560946
 30
0.0
 10
287.9581515894519
 20
220.4685142560946
 30
0.0
  0
ENDSEC
  0
SECTION
  2
OBJECTS
  0
DICTIONARY
  5
C
330
0
100
AcDbDictionary
281
     1
  3
ACAD_GROUP
350
D
  3
ACAD_LAYOUT
350
1A
  3
ACAD_MLINESTYLE
350
17
  3
ACAD_PLOTSETTINGS
350
19
  3
ACAD_PLOTSTYLENAME
350
E
  3
ACAD_TABLESTYLE
350
311
  3
ACAD_VISUALSTYLE
350
2A
  0
DICTIONARY
  5
D
102
{ACAD_REACTORS
330
C
102
}
330
C
100
AcDbDictionary
281
     1
  0
DICTIONARY
  5
1A
102
{ACAD_REACTORS
330
C
102
}
330
C
100
AcDbDictionary
281
     1
  3
Layout1
350
1E
  3
Layout2
350
26
  3
Model
350
22
  0
DICTIONARY
  5
17
102
{ACAD_REACTORS
330
C
102
}
330
C
100
AcDbDictionary
281
     1
  3
Standard
350
18
  0
DICTIONARY
  5
19
102
{ACAD_REACTORS
330
C
102
}
330
C
100
AcDbDictionary
281
     1
  0
ACDBDICTIONARYWDFLT
  5
E
102
{ACAD_REACTORS
330
C
102
}
330
C
100
AcDbDictionary
281
     1
  3
Normal
350
F
100
AcDbDictionaryWithDefault
340
F
  0
DICTIONARY
  5
311
102
{ACAD_REACTORS
330
C
102
}
330
C
100
AcDbDictionary
281
     1
  0
DICTIONARY
  5
2A
102
{ACAD_REACTORS
330
C
102
}
330
C
100
AcDbDictionary
281
     1
  3
2dWireframe
350
2F
  3
3D Hidden
350
31
  3
3dWireframe
350
30
  3
Basic
350
32
  3
Brighten
350
36
  3
ColorChange
350
3A
  3
Conceptual
350
34
  3
Dim
350
35
  3
Facepattern
350
39
  3
Flat
350
2B
  3
FlatWithEdges
350
2C
  3
Gouraud
350
2D
  3
GouraudWithEdges
350
2E
  3
Linepattern
350
38
  3
Realistic
350
33
  3
Thicken
350
37
  0
LAYOUT
  5
1E
102
{ACAD_REACTORS
330
1A
102
}
330
1A
100
AcDbPlotSettings
  1

  2
none_device
  4

  6

 40
0.0
 41
0.0
 42
0.0
 43
0.0
 44
0.0
 45
0.0
 46
0.0
 47
0.0
 48
0.0
 49
0.0
140
0.0
141
0.0
142
1.0
143
1.0
 70
   688
 72
     0
 73
     0
 74
     5
  7

 75
    16
 76
     0
 77
     2
 78
   300
147
1.0
148
0.0
149
0.0
100
AcDbLayout
  1
Layout1
 70
     1
 71
     1
 10
0.0
 20
0.0
 11
12.0
 21
9.0
 12
0.0
 22
0.0
 32
0.0
 14
1.000000000000000E+20
 24
1.000000000000000E+20
 34
1.000000000000000E+20
 15
-1.000000000000000E+20
 25
-1.000000000000000E+20
 35
-1.000000000000000E+20
146
0.0
 13
0.0
 23
0.0
 33
0.0
 16
1.0
 26
0.0
 36
0.0
 17
0.0
 27
1.0
 37
0.0
 76
     0
330
1B
  0
LAYOUT
  5
26
102
{ACAD_REACTORS
330
1A
102
}
330
1A
100
AcDbPlotSettings
  1

  2
none_device
  4

  6

 40
0.0
 41
0.0
 42
0.0
 43
0.0
 44
0.0
 45
0.0
 46
0.0
 47
0.0
 48
0.0
 49
0.0
140
0.0
141
0.0
142
1.0
143
1.0
 70
   688
 72
     0
 73
     0
 74
     5
  7

 75
    16
 76
     0
 77
     2
 78
   300
147
1.0
148
0.0
149
0.0
100
AcDbLayout
  1
Layout2
 70
     1
 71
     2
 10
0.0
 20
0.0
 11
0.0
 21
0.0
 12
0.0
 22
0.0
 32
0.0
 14
0.0
 24
0.0
 34
0.0
 15
0.0
 25
0.0
 35
0.0
146
0.0
 13
0.0
 23
0.0
 33
0.0
 16
1.0
 26
0.0
 36
0.0
 17
0.0
 27
1.0
 37
0.0
 76
     0
330
23
  0
LAYOUT
  5
22
102
{ACAD_REACTORS
330
1A
102
}
330
1A
100
AcDbPlotSettings
  1

  2
none_device
  4

  6

 40
0.0
 41
0.0
 42
0.0
 43
0.0
 44
0.0
 45
0.0
 46
0.0
 47
0.0
 48
0.0
 49
0.0
140
0.0
141
0.0
142
1.0
143
1.0
 70
  1712
 72
     0
 73
     0
 74
     0
  7

 75
     0
 76
     0
 77
     2
 78
   300
147
1.0
148
0.0
149
0.0
100
AcDbLayout
  1
Model
 70
     1
 71
     0
 10
0.0
 20
0.0
 11
12.0
 21
9.0
 12
0.0
 22
0.0
 32
0.0
 14
1.000000000000000E+20
 24
1.000000000000000E+20
 34
1.000000000000000E+20
 15
-1.000000000000000E+20
 25
-1.000000000000000E+20
 35
-1.000000000000000E+20
146
0.0
 13
0.0
 23
0.0
 33
0.0
 16
1.0
 26
0.0
 36
0.0
 17
0.0
 27
1.0
 37
0.0
 76
     0
330
1F
331
29
  0
MLINESTYLE
  5
18
102
{ACAD_REACTORS
330
17
102
}
330
17
100
AcDbMlineStyle
  2
Standard
 70
     0
  3

 62
   256
 51
90.0
 52
90.0
 71
     2
 49
0.5
 62
   256
  6
BYLAYER
 49
-0.5
 62
   256
  6
BYLAYER
  0
ACDBPLACEHOLDER
  5
F
102
{ACAD_REACTORS
330
E
102
}
330
E
  0
VISUALSTYLE
  5
2F
102
{ACAD_REACTORS
330
2A
102
}
330
2A
100
AcDbVisualStyle
  2
2dWireframe
 70
     4
 71
     0
 72
     2
 73
     0
 90
        0
 40
-0.6
 41
-30.0
 62
     5
 63
     7
421
 16777215
 74
     1
 91
        4
 64
     7
 65
   257
 75
     1
175
     1
 42
1.0
 92
        0
 66
   257
 43
1.0
 76
     1
 77
     6
 78
     2
 67
     7
 79
     5
170
     0
171
     0
290
     0
174
     0
 93
        1
 44
0.0
173
     0
291
     0
 45
0.0
1001
ACAD
1000
AcDbSavedByObjectVersion
1070
     0
  0
VISUALSTYLE
  5
31
102
{ACAD_REACTORS
330
2A
102
}
330
2A
100
AcDbVisualStyle
  2
3D Hidden
 70
     6
 71
     1
 72
     2
 73
     2
 90
        0
 40
-0.6
 41
-30.0
 62
     5
 63
     7
421
 16777215
 74
     2
 91
        2
 64
     7
 65
   257
 75
     2
175
     1
 42
40.0
 92
        0
 66
   257
 43
1.0
 76
     1
 77
     6
 78
     2
 67
     7
 79
     3
170
     0
171
     0
290
     0
174
     0
 93
        1
 44
0.0
173
     0
291
     0
 45
0.0
1001
ACAD
1000
AcDbSavedByObjectVersion
1070
     0
  0
VISUALSTYLE
  5
30
102
{ACAD_REACTORS
330
2A
102
}
330
2A
100
AcDbVisualStyle
  2
3dWireframe
 70
     5
 71
     0
 72
     2
 73
     0
 90
        0
 40
-0.6
 41
-30.0
 62
     5
 63
     7
421
 16777215
 74
     1
 91
        4
 64
     7
 65
   257
 75
     1
175
     1
 42
1.0
 92
        0
 66
   257
 43
1.0
 76
     1
 77
     6
 78
     2
 67
     7
 79
     5
170
     0
171
     0
290
     0
174
     0
 93
        1
 44
0.0
173
     0
291
     0
 45
0.0
1001
ACAD
1000
AcDbSavedByObjectVersion
1070
     0
  0
VISUALSTYLE
  5
32
102
{ACAD_REACTORS
330
2A
102
}
330
2A
100
AcDbVisualStyle
  2
Basic
 70
     7
 71
     1
 72
     0
 73
     1
 90
        0
 40
-0.6
 41
-30.0
 62
     5
 63
     7
421
 16777215
 74
     0
 91
        4
 64
     7
 65
   257
 75
     1
175
     1
 42
1.0
 92
        8
 66
     7
 43
1.0
 76
     1
 77
     6
 78
     2
 67
     7
 79
     5
170
     0
171
     0
290
     0
174
     0
 93
        1
 44
0.0
173
     0
291
     1
 45
0.0
1001
ACAD
1000
AcDbSavedByObjectVersion
1070
     0
  0
VISUALSTYLE
  5
36
102
{ACAD_REACTORS
330
2A
102
}
330
2A
100
AcDbVisualStyle
  2
Brighten
 70
    12
 71
     2
 72
     2
 73
     0
 90
        0
 40
-0.6
 41
-30.0
 62
     5
 63
     7
421
 16777215
 74
     1
 91
        4
 64
     7
 65
   257
 75
     1
175
     1
 42
1.0
 92
        8
 66
     7
 43
1.0
 76
     1
 77
     6
 78
     2
 67
     7
 79
     5
170
     0
171
     0
290
     0
174
     0
 93
        1
 44
50.0
173
     0
291
     1
 45
0.0
1001
ACAD
1000
AcDbSavedByObjectVersion
1070
     0
  0
VISUALSTYLE
  5
3A
102
{ACAD_REACTORS
330
2A
102
}
330
2A
100
AcDbVisualStyle
  2
ColorChange
 70
    16
 71
     2
 72
     2
 73
     3
 90
        0
 40
-0.6
 41
-30.0
 62
     5
 63
     8
421
  8421504
 74
     1
 91
        4
 64
     7
 65
   257
 75
     1
175
     1
 42
1.0
 92
        8
 66
     8
424
  8421504
 43
1.0
 76
     1
 77
     6
 78
     2
 67
     7
 79
     5
170
     0
171
     0
290
     0
174
     0
 93
        1
 44
0.0
173
     0
291
     1
 45
0.0
1001
ACAD
1000
AcDbSavedByObjectVersion
1070
     0
  0
VISUALSTYLE
  5
34
102
{ACAD_REACTORS
330
2A
102
}
330
2A
100
AcDbVisualStyle
  2
Conceptual
 70
     9
 71
     3
 72
     2
 73
     0
 90
        0
 40
-0.6
 41
-30.0
 62
     5
 63
     7
421
 16777215
 74
     2
 91
        2
 64
     7
 65
   257
 75
     1
175
     1
 42
40.0
 92
        8
 66
     7
 43
1.0
 76
     1
 77
     6
 78
     2
 67
     7
 79
     3
170
     0
171
     0
290
     0
174
     0
 93
        1
 44
0.0
173
     0
291
     0
 45
0.0
1001
ACAD
1000
AcDbSavedByObjectVersion
1070
     0
  0
VISUALSTYLE
  5
35
102
{ACAD_REACTORS
330
2A
102
}
330
2A
100
AcDbVisualStyle
  2
Dim
 70
    11
 71
     2
 72
     2
 73
     0
 90
        0
 40
-0.6
 41
-30.0
 62
     5
 63
     7
421
 16777215
 74
     1
 91
        4
 64
     7
 65
   257
 75
     1
175
     1
 42
1.0
 92
        8
 66
     7
 43
1.0
 76
     1
 77
     6
 78
     2
 67
     7
 79
     5
170
     0
171
     0
290
     0
174
     0
 93
        1
 44
-50.0
173
     0
291
     1
 45
0.0
1001
ACAD
1000
AcDbSavedByObjectVersion
1070
     0
  0
VISUALSTYLE
  5
39
102
{ACAD_REACTORS
330
2A
102
}
330
2A
100
AcDbVisualStyle
  2
Facepattern
 70
    15
 71
     2
 72
     2
 73
     0
 90
        0
 40
-0.6
 41
-30.0
 62
     5
 63
     7
421
 16777215
 74
     1
 91
        4
 64
     7
 65
   257
 75
     1
175
     1
 42
1.0
 92
        8
 66
     7
 43
1.0
 76
     1
 77
     6
 78
     2
 67
     7
 79
     5
170
     0
171
     0
290
     0
174
     0
 93
        1
 44
0.0
173
     0
291
     1
 45
0.0
1001
ACAD
1000
AcDbSavedByObjectVersion
1070
     0
  0
VISUALSTYLE
  5
2B
102
{ACAD_REACTORS
330
2A
102
}
330
2A
100
AcDbVisualStyle
  2
Flat
 70
     0
 71
     2
 72
     1
 73
     1
 90
        2
 40
-0.6
 41
30.0
 62
     5
 63
     7
421
 16777215
 74
     0
 91
        4
 64
     7
 65
   257
 75
     1
175
     1
 42
1.0
 92
        8
 66
     7
 43
1.0
 76
     1
 77
     6
 78
     2
 67
     7
 79
     5
170
     0
171
     0
290
     0
174
     0
 93
       13
 44
0.0
173
     0
291
     1
 45
0.0
1001
ACAD
1000
AcDbSavedByObjectVersion
1070
     0
  0
VISUALSTYLE
  5
2C
102
{ACAD_REACTORS
330
2A
102
}
330
2A
100
AcDbVisualStyle
  2
FlatWithEdges
 70
     1
 71
     2
 72
     1
 73
     1
 90
        2
 40
-0.6
 41
30.0
 62
     5
 63
     7
421
 16777215
 74
     1
 91
        4
 64
     7
 65
   257
 75
     1
175
     1
 42
1.0
 92
        0
 66
   257
 43
1.0
 76
     1
 77
     6
 78
     2
 67
     7
 79
     5
170
     0
171
     0
290
     0
174
     0
 93
       13
 44
0.0
173
     0
291
     1
 45
0.0
1001
ACAD
1000
AcDbSavedByObjectVersion
1070
     0
  0
VISUALSTYLE
  5
2D
102
{ACAD_REACTORS
330
2A
102
}
330
2A
100
AcDbVisualStyle
  2
Gouraud
 70
     2
 71
     2
 72
     2
 73
     1
 90
        2
 40
-0.6
 41
30.0
 62
     5
 63
     7
421
 16777215
 74
     0
 91
        4
 64
     7
 65
   257
 75
     1
175
     1
 42
1.0
 92
        0
 66
     7
 43
1.0
 76
     1
 77
     6
 78
     2
 67
     7
 79
     5
170
     0
171
     0
290
     0
174
     0
 93
       13
 44
0.0
173
     0
291
     1
 45
0.0
1001
ACAD
1000
AcDbSavedByObjectVersion
1070
     0
  0
VISUALSTYLE
  5
2E
102
{ACAD_REACTORS
330
2A
102
}
330
2A
100
AcDbVisualStyle
  2
GouraudWithEdges
 70
     3
 71
     2
 72
     2
 73
     1
 90
        2
 40
-0.6
 41
30.0
 62
     5
 63
     7
421
 16777215
 74
     1
 91
        4
 64
     7
 65
   257
 75
     1
175
     1
 42
1.0
 92
        0
 66
   257
 43
1.0
 76
     1
 77
     6
 78
     2
 67
     7
 79
     5
170
     0
171
     0
290
     0
174
     0
 93
       13
 44
0.0
173
     0
291
     1
 45
0.0
1001
ACAD
1000
AcDbSavedByObjectVersion
1070
     0
  0
VISUALSTYLE
  5
38
102
{ACAD_REACTORS
330
2A
102
}
330
2A
100
AcDbVisualStyle
  2
Linepattern
 70
    14
 71
     2
 72
     2
 73
     0
 90
        0
 40
-0.6
 41
-30.0
 62
     5
 63
     7
421
 16777215
 74
     1
 91
        4
 64
     7
 65
   257
 75
     7
175
     7
 42
1.0
 92
        8
 66
     7
 43
1.0
 76
     1
 77
     6
 78
     2
 67
     7
 79
     5
170
     0
171
     0
290
     0
174
     0
 93
        1
 44
0.0
173
     0
291
     1
 45
0.0
1001
ACAD
1000
AcDbSavedByObjectVersion
1070
     0
  0
VISUALSTYLE
  5
33
102
{ACAD_REACTORS
330
2A
102
}
330
2A
100
AcDbVisualStyle
  2
Realistic
 70
     8
 71
     2
 72
     2
 73
     0
 90
        0
 40
-0.6
 41
-30.0
 62
     5
 63
     7
421
 16777215
 74
     1
 91
        0
 64
     7
 65
   257
 75
     1
175
     1
 42
1.0
 92
        8
 66
     8
424
  7895160
 43
1.0
 76
     1
 77
     6
 78
     2
 67
     7
 79
     5
170
     0
171
     0
290
     0
174
     0
 93
       13
 44
0.0
173
     0
291
     0
 45
0.0
1001
ACAD
1000
AcDbSavedByObjectVersion
1070
     0
  0
VISUALSTYLE
  5
37
102
{ACAD_REACTORS
330
2A
102
}
330
2A
100
AcDbVisualStyle
  2
Thicken
 70
    13
 71
     2
 72
     2
 73
     0
 90
        0
 40
-0.6
 41
-30.0
 62
     5
 63
     7
421
 16777215
 74
     1
 91
        4
 64
     7
 65
   257
 75
     1
175
     1
 42
1.0
 92
       12
 66
     7
 43
1.0
 76
     1
 77
     6
 78
     2
 67
     7
 79
     5
170
     0
171
     0
290
     0
174
     0
 93
        1
 44
0.0
173
     0
291
     1
 45
0.0
1001
ACAD
1000
AcDbSavedByObjectVersion
1070
     0
  0
ENDSEC
  0
EOF
