  0
SECTION
  2
HEADER
  9
$ACADVER
  1
AC1018
  9
$ACADMAINTVER
 70
     0
  9
$DWGCODEPAGE
  3
ASCII
  9
$INSBASE
 10
0.0
 20
0.0
 30
0.0
  9
$EXTMIN
 10
1.000000000000000E+20
 20
1.000000000000000E+20
 30
1.000000000000000E+20
  9
$EXTMAX
 10
-1.000000000000000E+20
 20
-1.000000000000000E+20
 30
-1.000000000000000E+20
  9
$LIMMIN
 10
0.0
 20
0.0
  9
$LIMMAX
 10
12.0
 20
9.0
  9
$ORTHOMODE
 70
     0
  9
$REGENMODE
 70
     1
  9
$FILLMODE
 70
     1
  9
$QTEXTMODE
 70
     0
  9
$MIRRTEXT
 70
     1
  9
$LTSCALE
 40
1.0
  9
$ATTMODE
 70
     1
  9
$TEXTSIZE
 40
0.2
  9
$TRACEWID
 40
0.05
  9
$TEXTSTYLE
  7
Standard
  9
$CLAYER
  8
0
  9
$CELTYPE
  6
ByLayer
  9
$CECOLOR
 62
   256
  9
$CELTSCALE
 40
1.0
  9
$DISPSILH
 70
     0
  9
$DIMSCALE
 40
1.0
  9
$DIMASZ
 40
0.18
  9
$DIMEXO
 40
0.0625
  9
$DIMDLI
 40
0.38
  9
$DIMRND
 40
0.0
  9
$DIMDLE
 40
0.0
  9
$DIMEXE
 40
0.18
  9
$DIMTP
 40
0.0
  9
$DIMTM
 40
0.0
  9
$DIMTXT
 40
0.18
  9
$DIMCEN
 40
0.09
  9
$DIMTSZ
 40
0.0
  9
$DIMTOL
 70
     0
  9
$DIMLIM
 70
     0
  9
$DIMTIH
 70
     1
  9
$DIMTOH
 70
     1
  9
$DIMSE1
 70
     0
  9
$DIMSE2
 70
     0
  9
$DIMTAD
 70
     0
  9
$DIMZIN
 70
     0
  9
$DIMBLK
  1

  9
$DIMASO
 70
     1
  9
$DIMSHO
 70
     1
  9
$DIMPOST
  1

  9
$DIMAPOST
  1

  9
$DIMALT
 70
     0
  9
$DIMALTD
 70
     2
  9
$DIMALTF
 40
25.4
  9
$DIMLFAC
 40
1.0
  9
$DIMTOFL
 70
     0
  9
$DIMTVP
 40
0.0
  9
$DIMTIX
 70
     0
  9
$DIMSOXD
 70
     0
  9
$DIMSAH
 70
     0
  9
$DIMBLK1
  1

  9
$DIMBLK2
  1

  9
$DIMSTYLE
  2
Standard
  9
$DIMCLRD
 70
     0
  9
$DIMCLRE
 70
     0
  9
$DIMCLRT
 70
     0
  9
$DIMTFAC
 40
1.0
  9
$DIMGAP
 40
0.09
  9
$DIMJUST
 70
     0
  9
$DIMSD1
 70
     0
  9
$DIMSD2
 70
     0
  9
$DIMTOLJ
 70
     1
  9
$DIMTZIN
 70
     0
  9
$DIMALTZ
 70
     0
  9
$DIMALTTZ
 70
     0
  9
$DIMUPT
 70
     0
  9
$DIMDEC
 70
     4
  9
$DIMTDEC
 70
     4
  9
$DIMALTU
 70
     2
  9
$DIMALTTD
 70
     2
  9
$DIMTXSTY
  7
Standard
  9
$DIMAUNIT
 70
     0
  9
$DIMADEC
 70
     0
  9
$DIMALTRND
 40
0.0
  9
$DIMAZIN
 70
     0
  9
$DIMDSEP
 70
    46
  9
$DIMATFIT
 70
     3
  9
$DIMFRAC
 70
     0
  9
$DIMLDRBLK
  1

  9
$DIMLUNIT
 70
     2
  9
$DIMLWD
 70
    -2
  9
$DIMLWE
 70
    -2
  9
$DIMTMOVE
 70
     0
  9
$LUNITS
 70
     2
  9
$LUPREC
 70
     4
  9
$SKETCHINC
 40
0.1
  9
$FILLETRAD
 40
0.5
  9
$AUNITS
 70
     0
  9
$AUPREC
 70
     0
  9
$MENU
  1
.
  9
$ELEVATION
 40
0.0
  9
$PELEVATION
 40
0.0
  9
$THICKNESS
 40
0.0
  9
$LIMCHECK
 70
     0
  9
$CHAMFERA
 40
0.5
  9
$CHAMFERB
 40
0.5
  9
$CHAMFERC
 40
1.0
  9
$CHAMFERD
 40
0.0
  9
$SKPOLY
 70
     0
  9
$TDCREATE
 40
2459275.612395833
  9
$TDUCREATE
 40
2459275.570729167
  9
$TDUPDATE
 40
2459275.612395845
  9
$TDUUPDATE
 40
2459275.570729178
  9
$TDINDWG
 40
0.0000000116
  9
$TDUSRTIMER
 40
0.0000000116
  9
$USRTIMER
 70
     1
  9
$ANGBASE
 50
0.0
  9
$ANGDIR
 70
     0
  9
$PDMODE
 70
     0
  9
$PDSIZE
 40
0.0
  9
$PLINEWID
 40
0.0
  9
$SPLFRAME
 70
     0
  9
$SPLINETYPE
 70
     6
  9
$SPLINESEGS
 70
     8
  9
$HANDSEED
  5
D1
  9
$SURFTAB1
 70
     6
  9
$SURFTAB2
 70
     6
  9
$SURFTYPE
 70
     6
  9
$SURFU
 70
     6
  9
$SURFV
 70
     6
  9
$UCSBASE
  2

  9
$UCSNAME
  2

  9
$UCSORG
 10
0.0
 20
0.0
 30
0.0
  9
$UCSXDIR
 10
1.0
 20
0.0
 30
0.0
  9
$UCSYDIR
 10
0.0
 20
1.0
 30
0.0
  9
$UCSORTHOREF
  2

  9
$UCSORTHOVIEW
 70
     0
  9
$UCSORGTOP
 10
0.0
 20
0.0
 30
0.0
  9
$UCSORGBOTTOM
 10
0.0
 20
0.0
 30
0.0
  9
$UCSORGLEFT
 10
0.0
 20
0.0
 30
0.0
  9
$UCSORGRIGHT
 10
0.0
 20
0.0
 30
0.0
  9
$UCSORGFRONT
 10
0.0
 20
0.0
 30
0.0
  9
$UCSORGBACK
 10
0.0
 20
0.0
 30
0.0
  9
$PUCSBASE
  2

  9
$PUCSNAME
  2

  9
$PUCSORG
 10
0.0
 20
0.0
 30
0.0
  9
$PUCSXDIR
 10
1.0
 20
0.0
 30
0.0
  9
$PUCSYDIR
 10
0.0
 20
1.0
 30
0.0
  9
$PUCSORTHOREF
  2

  9
$PUCSORTHOVIEW
 70
     0
  9
$PUCSORGTOP
 10
0.0
 20
0.0
 30
0.0
  9
$PUCSORGBOTTOM
 10
0.0
 20
0.0
 30
0.0
  9
$PUCSORGLEFT
 10
0.0
 20
0.0
 30
0.0
  9
$PUCSORGRIGHT
 10
0.0
 20
0.0
 30
0.0
  9
$PUCSORGFRONT
 10
0.0
 20
0.0
 30
0.0
  9
$PUCSORGBACK
 10
0.0
 20
0.0
 30
0.0
  9
$USERI1
 70
     0
  9
$USERI2
 70
     0
  9
$USERI3
 70
     0
  9
$USERI4
 70
     0
  9
$USERI5
 70
     0
  9
$USERR1
 40
0.0
  9
$USERR2
 40
0.0
  9
$USERR3
 40
0.0
  9
$USERR4
 40
0.0
  9
$USERR5
 40
0.0
  9
$WORLDVIEW
 70
     1
  9
$SHADEDGE
 70
     3
  9
$SHADEDIF
 70
    70
  9
$TILEMODE
 70
     1
  9
$MAXACTVP
 70
    64
  9
$PINSBASE
 10
0.0
 20
0.0
 30
0.0
  9
$PLIMCHECK
 70
     0
  9
$PEXTMIN
 10
1.000000000000000E+20
 20
1.000000000000000E+20
 30
1.000000000000000E+20
  9
$PEXTMAX
 10
-1.000000000000000E+20
 20
-1.000000000000000E+20
 30
-1.000000000000000E+20
  9
$PLIMMIN
 10
0.0
 20
0.0
  9
$PLIMMAX
 10
12.0
 20
9.0
  9
$UNITMODE
 70
     0
  9
$VISRETAIN
 70
     1
  9
$PLINEGEN
 70
     0
  9
$PSLTSCALE
 70
     1
  9
$TREEDEPTH
 70
  3020
  9
$CMLSTYLE
  2
Standard
  9
$CMLJUST
 70
     0
  9
$CMLSCALE
 40
1.0
  9
$PROXYGRAPHICS
 70
     1
  9
$MEASUREMENT
 70
     0
  9
$CELWEIGHT
370
    -1
  9
$ENDCAPS
280
     0
  9
$JOINSTYLE
280
     0
  9
$LWDISPLAY
290
     1
  9
$INSUNITS
 70
     1
  9
$HYPERLINKBASE
  1

  9
$STYLESHEET
  1

  9
$XEDIT
290
     1
  9
$CEPSNTYPE
380
     0
  9
$PSTYLEMODE
290
     1
  9
$FINGERPRINTGUID
  2
{F849C5BC-B051-8297-8267-3D39DB4665C6}
  9
$VERSIONGUID
  2
{FAEB1C32-E019-11D5-929B-00C0DF256EC4}
  9
$EXTNAMES
290
     1
  9
$PSVPSCALE
 40
0.0
  9
$OLESTARTUP
290
     0
  9
$SORTENTS
280
   127
  9
$INDEXCTL
280
     0
  9
$HIDETEXT
280
     1
  9
$XCLIPFRAME
290
     0
  9
$HALOGAP
280
     0
  9
$OBSCOLOR
 70
   257
  9
$OBSLTYPE
280
     0
  9
$INTERSECTIONDISPLAY
280
     0
  9
$INTERSECTIONCOLOR
 70
   257
  9
$DIMASSOC
280
     2
  9
$PROJECTNAME
  1

  0
ENDSEC
  0
SECTION
  2
CLASSES
  0
CLASS
  1
ACDBDICTIONARYWDFLT
  2
AcDbDictionaryWithDefault
  3
ObjectDBX Classes
 90
        0
 91
        3
280
     0
281
     0
  0
CLASS
  1
VISUALSTYLE
  2
AcDbVisualStyle
  3
ObjectDBX Classes
 90
     4095
 91
        3
280
     0
281
     0
  0
ENDSEC
  0
SECTION
  2
TABLES
  0
TABLE
  2
VPORT
  5
8
330
0
100
AcDbSymbolTable
 70
     1
  0
VPORT
  5
29
330
8
100
AcDbSymbolTableRecord
100
AcDbViewportTableRecord
  2
*Active
 70
     0
 10
0.0
 20
0.0
 11
1.0
 21
1.0
 12
0.0
 22
0.0
 13
0.0
 23
0.0
 14
0.5
 24
0.5
 15
0.5
 25
0.5
 16
0.0
 26
0.0
 36
1.0
 17
234.9995920894012
 27
185.0003715634395
 37
0.0
 40
370.0007431268789
 41
1.270265514082042
 42
50.0
 43
0.0
 44
0.0
 50
0.0
 51
0.0
 71
     0
 72
   100
 73
     1
 74
     3
 75
     0
 76
     0
 77
     0
 78
     0
281
     0
 65
     1
110
0.0
120
0.0
130
0.0
111
1.0
121
0.0
131
0.0
112
0.0
122
1.0
132
0.0
 79
     0
146
0.0
  0
ENDTAB
  0
TABLE
  2
LTYPE
  5
5
330
0
100
AcDbSymbolTable
 70
     1
  0
LTYPE
  5
14
330
5
100
AcDbSymbolTableRecord
100
AcDbLinetypeTableRecord
  2
ByBlock
 70
     0
  3

 72
    65
 73
     0
 40
0.0
  0
LTYPE
  5
15
330
5
100
AcDbSymbolTableRecord
100
AcDbLinetypeTableRecord
  2
ByLayer
 70
     0
  3

 72
    65
 73
     0
 40
0.0
  0
LTYPE
  5
16
330
5
100
AcDbSymbolTableRecord
100
AcDbLinetypeTableRecord
  2
Continuous
 70
     0
  3
Solid line
 72
    65
 73
     0
 40
0.0
  0
ENDTAB
  0
TABLE
  2
LAYER
  5
2
330
0
100
AcDbSymbolTable
 70
     2
  0
LAYER
  5
10
330
2
100
AcDbSymbolTableRecord
100
AcDbLayerTableRecord
  2
0
 70
     0
 62
     7
  6
Continuous
370
    -3
390
F
  0
LAYER
  5
3B
330
2
100
AcDbSymbolTableRecord
100
AcDbLayerTableRecord
  2
Calque 1
 70
     0
 62
     7
  6
Continuous
370
    -3
390
F
  0
ENDTAB
  0
TABLE
  2
STYLE
  5
3
330
0
100
AcDbSymbolTable
 70
     1
  0
STYLE
  5
11
330
3
100
AcDbSymbolTableRecord
100
AcDbTextStyleTableRecord
  2
Standard
 70
     0
 40
0.0
 41
1.0
 50
0.0
 71
     0
 42
0.2
  3
txt
  4

  0
ENDTAB
  0
TABLE
  2
VIEW
  5
6
330
0
100
AcDbSymbolTable
 70
     0
  0
ENDTAB
  0
TABLE
  2
UCS
  5
7
330
0
100
AcDbSymbolTable
 70
     0
  0
ENDTAB
  0
TABLE
  2
APPID
  5
9
330
0
100
AcDbSymbolTable
 70
     1
  0
APPID
  5
12
330
9
100
AcDbSymbolTableRecord
100
AcDbRegAppTableRecord
  2
ACAD
 70
     0
  0
ENDTAB
  0
TABLE
  2
DIMSTYLE
  5
A
330
0
100
AcDbSymbolTable
 70
     1
100
AcDbDimStyleTable
  0
DIMSTYLE
105
27
330
A
100
AcDbSymbolTableRecord
100
AcDbDimStyleTableRecord
  2
Standard
 70
     0
340
11
  0
ENDTAB
  0
TABLE
  2
BLOCK_RECORD
  5
1
330
0
100
AcDbSymbolTable
 70
    15
  0
BLOCK_RECORD
  5
1F
330
1
100
AcDbSymbolTableRecord
100
AcDbBlockTableRecord
  2
*Model_Space
340
22
  0
BLOCK_RECORD
  5
1B
330
1
100
AcDbSymbolTableRecord
100
AcDbBlockTableRecord
  2
*Paper_Space
340
1E
  0
BLOCK_RECORD
  5
23
330
1
100
AcDbSymbolTableRecord
100
AcDbBlockTableRecord
  2
*Paper_Space0
340
26
  0
BLOCK_RECORD
  5
3C
330
1
100
AcDbSymbolTableRecord
100
AcDbBlockTableRecord
  2
block 2
340
0
102
{BLKREFS
331
3D
102
}
  0
BLOCK_RECORD
  5
44
330
1
100
AcDbSymbolTableRecord
100
AcDbBlockTableRecord
  2
block 3
340
0
102
{BLKREFS
331
45
102
}
  0
BLOCK_RECORD
  5
4C
330
1
100
AcDbSymbolTableRecord
100
AcDbBlockTableRecord
  2
block 4
340
0
102
{BLKREFS
331
4D
102
}
  0
BLOCK_RECORD
  5
54
330
1
100
AcDbSymbolTableRecord
100
AcDbBlockTableRecord
  2
block 5
340
0
102
{BLKREFS
331
55
102
}
  0
BLOCK_RECORD
  5
59
330
1
100
AcDbSymbolTableRecord
100
AcDbBlockTableRecord
  2
block 6
340
0
102
{BLKREFS
331
5A
102
}
  0
BLOCK_RECORD
  5
5E
330
1
100
AcDbSymbolTableRecord
100
AcDbBlockTableRecord
  2
block 7
340
0
102
{BLKREFS
331
5F
102
}
  0
BLOCK_RECORD
  5
67
330
1
100
AcDbSymbolTableRecord
100
AcDbBlockTableRecord
  2
block 8
340
0
102
{BLKREFS
331
68
102
}
  0
BLOCK_RECORD
  5
86
330
1
100
AcDbSymbolTableRecord
100
AcDbBlockTableRecord
  2
block 9
340
0
102
{BLKREFS
331
87
102
}
  0
BLOCK_RECORD
  5
8B
330
1
100
AcDbSymbolTableRecord
100
AcDbBlockTableRecord
  2
block 10
340
0
102
{BLKREFS
331
8C
102
}
  0
BLOCK_RECORD
  5
90
330
1
100
AcDbSymbolTableRecord
100
AcDbBlockTableRecord
  2
block 11
340
0
102
{BLKREFS
331
91
102
}
  0
BLOCK_RECORD
  5
98
330
1
100
AcDbSymbolTableRecord
100
AcDbBlockTableRecord
  2
block 12
340
0
102
{BLKREFS
331
99
102
}
  0
BLOCK_RECORD
  5
A0
330
1
100
AcDbSymbolTableRecord
100
AcDbBlockTableRecord
  2
block 13
340
0
102
{BLKREFS
331
A1
102
}
  0
BLOCK_RECORD
  5
A8
330
1
100
AcDbSymbolTableRecord
100
AcDbBlockTableRecord
  2
block 14
340
0
102
{BLKREFS
331
A9
102
}
  0
BLOCK_RECORD
  5
B1
330
1
100
AcDbSymbolTableRecord
100
AcDbBlockTableRecord
  2
block 15
340
0
102
{BLKREFS
331
B2
102
}
  0
ENDTAB
  0
ENDSEC
  0
SECTION
  2
BLOCKS
  0
BLOCK
  5
20
330
1F
100
AcDbEntity
  8
0
100
AcDbBlockBegin
  2
*Model_Space
 70
     0
 71
     0
 10
0.0
 20
0.0
 30
0.0
  3
*Model_Space
  1

  0
ENDBLK
  5
21
330
1F
100
AcDbEntity
  8
0
100
AcDbBlockEnd
  0
BLOCK
  5
1C
330
1B
100
AcDbEntity
 67
     1
  8
0
100
AcDbBlockBegin
  2
*Paper_Space
 70
     0
 71
     0
 10
0.0
 20
0.0
 30
0.0
  3
*Paper_Space
  1

  0
ENDBLK
  5
1D
330
1B
100
AcDbEntity
 67
     1
  8
0
100
AcDbBlockEnd
  0
BLOCK
  5
24
330
23
100
AcDbEntity
  8
0
100
AcDbBlockBegin
  2
*Paper_Space0
 70
     0
 71
     0
 10
0.0
 20
0.0
 30
0.0
  3
*Paper_Space0
  1

  0
ENDBLK
  5
25
330
23
100
AcDbEntity
  8
0
100
AcDbBlockEnd
  0
BLOCK
  5
3E
330
3C
100
AcDbEntity
  8
0
100
AcDbBlockBegin
  2
block 2
 70
     0
 71
     0
 10
0.0
 20
0.0
 30
0.0
  3
block 2
  1

  0
POLYLINE
  5
40
330
3C
100
AcDbEntity
  8
Calque 1
 62
     7
420
 16777215
370
    25
100
AcDb2dPolyline
 66
     1
 10
0.0
 20
0.0
 30
0.0
  0
VERTEX
  5
41
330
40
100
AcDbEntity
  8
Calque 1
 62
     7
420
 16777215
370
    25
100
AcDbVertex
100
AcDb2dVertex
 10
153.4269118861601
 20
80.10782463655575
 30
0.0
  0
VERTEX
  5
42
330
40
100
AcDbEntity
  8
Calque 1
 62
     7
420
 16777215
370
    25
100
AcDbVertex
100
AcDb2dVertex
 10
152.2032131625321
 20
10.00008526203539
 30
0.0
  0
SEQEND
  5
43
330
40
100
AcDbEntity
  8
Calque 1
370
    25
  0
ENDBLK
  5
3F
330
3C
100
AcDbEntity
  8
0
100
AcDbBlockEnd
  0
BLOCK
  5
46
330
44
100
AcDbEntity
  8
0
100
AcDbBlockBegin
  2
block 3
 70
     0
 71
     0
 10
0.0
 20
0.0
 30
0.0
  3
block 3
  1

  0
POLYLINE
  5
48
330
44
100
AcDbEntity
  8
Calque 1
 62
     7
420
 16777215
370
    25
100
AcDb2dPolyline
 66
     1
 10
0.0
 20
0.0
 30
0.0
  0
VERTEX
  5
49
330
48
100
AcDbEntity
  8
Calque 1
 62
     7
420
 16777215
370
    25
100
AcDbVertex
100
AcDb2dVertex
 10
10.00042977181119
 20
80.10782463655575
 30
0.0
  0
VERTEX
  5
4A
330
48
100
AcDbEntity
  8
Calque 1
 62
     7
420
 16777215
370
    25
100
AcDbVertex
100
AcDb2dVertex
 10
11.22412849543918
 20
10.00008526203539
 30
0.0
  0
SEQEND
  5
4B
330
48
100
AcDbEntity
  8
Calque 1
370
    25
  0
ENDBLK
  5
47
330
44
100
AcDbEntity
  8
0
100
AcDbBlockEnd
  0
BLOCK
  5
4E
330
4C
100
AcDbEntity
  8
0
100
AcDbBlockBegin
  2
block 4
 70
     0
 71
     0
 10
0.0
 20
0.0
 30
0.0
  3
block 4
  1

  0
POLYLINE
  5
50
330
4C
100
AcDbEntity
  8
Calque 1
 62
     7
420
 16777215
370
    25
100
AcDb2dPolyline
 66
     1
 10
0.0
 20
0.0
 30
0.0
  0
VERTEX
  5
51
330
50
100
AcDbEntity
  8
Calque 1
 62
     7
420
 16777215
370
    25
100
AcDbVertex
100
AcDb2dVertex
 10
152.2714260981398
 20
81.28363650134808
 30
0.0
  0
VERTEX
  5
52
330
50
100
AcDbEntity
  8
Calque 1
 62
     7
420
 16777215
370
    25
100
AcDbVertex
100
AcDb2dVertex
 10
11.15557105005574
 20
81.28363650134808
 30
0.0
  0
SEQEND
  5
53
330
50
100
AcDbEntity
  8
Calque 1
370
    25
  0
ENDBLK
  5
4F
330
4C
100
AcDbEntity
  8
0
100
AcDbBlockEnd
  0
BLOCK
  5
56
330
54
100
AcDbEntity
  8
0
100
AcDbBlockBegin
  2
block 5
 70
     0
 71
     0
 10
0.0
 20
0.0
 30
0.0
  3
block 5
  1

  0
SPLINE
  5
58
330
54
100
AcDbEntity
  8
Calque 1
 62
     7
420
 16777215
370
    25
100
AcDbSpline
210
0.0
220
0.0
230
1.0
 70
     8
 71
     3
 72
    11
 73
     7
 74
     0
 42
0.0000000001
 43
0.0000000001
 40
0.0
 40
0.0
 40
0.0
 40
0.0
 40
1.0
 40
1.0
 40
1.0
 40
2.0
 40
2.0
 40
2.0
 40
2.0
 10
11.15557105005574
 20
81.28363650134808
 30
0.0
 10
10.51753894528124
 20
81.28363650134808
 30
0.0
 10
10.00008526203539
 20
80.76618281810224
 30
0.0
 10
10.00008526203539
 20
80.12780620355193
 30
0.0
 10
10.00008526203539
 20
80.12298306669078
 30
0.0
 10
10.00008526203539
 20
80.1126477734169
 30
0.0
 10
10.00042977181119
 20
80.10782463655575
 30
0.0
  0
ENDBLK
  5
57
330
54
100
AcDbEntity
  8
0
100
AcDbBlockEnd
  0
BLOCK
  5
5B
330
59
100
AcDbEntity
  8
0
100
AcDbBlockBegin
  2
block 6
 70
     0
 71
     0
 10
0.0
 20
0.0
 30
0.0
  3
block 6
  1

  0
SPLINE
  5
5D
330
59
100
AcDbEntity
  8
Calque 1
 62
     7
420
 16777215
370
    25
100
AcDbSpline
210
0.0
220
0.0
230
1.0
 70
     8
 71
     3
 72
    11
 73
     7
 74
     0
 42
0.0000000001
 43
0.0000000001
 40
0.0
 40
0.0
 40
0.0
 40
0.0
 40
1.0
 40
1.0
 40
1.0
 40
2.0
 40
2.0
 40
2.0
 40
2.0
 10
153.4269118861601
 20
80.10782463655575
 30
0.0
 10
153.4379361989856
 20
80.74585674133026
 30
0.0
 10
152.9294397699104
 20
81.2722676787468
 30
0.0
 10
152.2914076651359
 20
81.28329199157228
 30
0.0
 10
152.2865845282748
 20
81.28329199157228
 30
0.0
 10
152.2762492350009
 20
81.28363650134808
 30
0.0
 10
152.2714260981398
 20
81.28363650134808
 30
0.0
  0
ENDBLK
  5
5C
330
59
100
AcDbEntity
  8
0
100
AcDbBlockEnd
  0
BLOCK
  5
60
330
5E
100
AcDbEntity
  8
0
100
AcDbBlockBegin
  2
block 7
 70
     0
 71
     0
 10
0.0
 20
0.0
 30
0.0
  3
block 7
  1

  0
POLYLINE
  5
62
330
5E
100
AcDbEntity
  8
Calque 1
 62
     7
420
 16777215
370
    25
100
AcDb2dPolyline
 66
     1
 10
0.0
 20
0.0
 30
0.0
  0
VERTEX
  5
63
330
62
100
AcDbEntity
  8
Calque 1
 62
     7
420
 16777215
370
    25
100
AcDbVertex
100
AcDb2dVertex
 10
152.2032131625321
 20
10.00008526203539
 30
0.0
  0
VERTEX
  5
64
330
62
100
AcDbEntity
  8
Calque 1
 62
     7
420
 16777215
370
    25
100
AcDbVertex
100
AcDb2dVertex
 10
11.22412849543918
 20
10.00008526203539
 30
0.0
  0
SEQEND
  5
65
330
62
100
AcDbEntity
  8
Calque 1
370
    25
  0
ENDBLK
  5
61
330
5E
100
AcDbEntity
  8
0
100
AcDbBlockEnd
  0
BLOCK
  5
69
330
67
100
AcDbEntity
  8
0
100
AcDbBlockBegin
  2
block 8
 70
     0
 71
     0
 10
0.0
 20
0.0
 30
0.0
  3
block 8
  1

  0
SPLINE
  5
6B
330
67
100
AcDbEntity
  8
Calque 1
370
     0
100
AcDbSpline
210
0.0
220
0.0
230
1.0
 70
    11
 71
     3
 72
    32
 73
    28
 74
     0
 42
0.0000000001
 43
0.0000000001
 40
0.0
 40
0.0
 40
0.0
 40
0.0
 40
1.0
 40
1.0
 40
1.0
 40
2.0
 40
2.0
 40
2.0
 40
3.0
 40
3.0
 40
3.0
 40
4.0
 40
4.0
 40
4.0
 40
5.0
 40
5.0
 40
5.0
 40
6.0
 40
6.0
 40
6.0
 40
7.0
 40
7.0
 40
7.0
 40
8.0
 40
8.0
 40
8.0
 40
9.0
 40
9.0
 40
9.0
 40
9.0
 10
82.18728564326143
 20
40.25114416492119
 30
0.0
 10
81.03179985524108
 20
40.55603531650079
 30
0.0
 10
79.90163553574175
 20
40.89882254341798
 30
0.0
 10
78.91116993032776
 20
41.24160977033517
 30
0.0
 10
78.72065602431248
 20
41.30499956908167
 30
0.0
 10
78.55563584170612
 20
41.36873387760396
 30
0.0
 10
78.39044340421185
 20
41.36873387760396
 30
0.0
 10
76.34612239463739
 20
41.44487053805491
 30
0.0
 10
74.6190948885712
 20
42.94314355299245
 30
0.0
 10
74.6190948885712
 20
45.71127960151466
 30
0.0
 10
74.6190948885712
 20
48.45426643640376
 30
0.0
 10
76.28256034100299
 20
50.21953452758333
 30
0.0
 10
78.59370417193159
 20
50.21953452758333
 30
0.0
 10
80.9301694713812
 20
50.21953452758333
 30
0.0
 10
82.4413616029111
 20
48.41637036106618
 30
0.0
 10
82.4413616029111
 20
45.88904664582549
 30
0.0
 10
82.4413616029111
 20
43.67970545364466
 30
0.0
 10
81.4254022740882
 20
42.28271831279119
 30
0.0
 10
80.00326591960162
 20
41.77491090326764
 30
0.0
 10
80.00326591960162
 20
41.77491090326764
 30
0.0
 10
80.00326591960162
 20
41.7242679662256
 30
0.0
 10
80.00326591960162
 20
41.7242679662256
 30
0.0
 10
80.85403281093025
 20
41.50826033680141
 30
0.0
 10
81.78093636270985
 20
41.30499956908167
 30
0.0
 10
82.5047514016576
 20
41.17821997158867
 30
0.0
 10
82.5047514016576
 20
41.17821997158867
 30
0.0
 10
82.18728564326143
 20
40.25114416492119
 30
0.0
 10
82.18728564326143
 20
40.25114416492119
 30
0.0
  0
SPLINE
  5
6C
330
67
100
AcDbEntity
  8
Calque 1
370
     0
100
AcDbSpline
210
0.0
220
0.0
230
1.0
 70
    11
 71
     3
 72
    17
 73
    13
 74
     0
 42
0.0000000001
 43
0.0000000001
 40
0.0
 40
0.0
 40
0.0
 40
0.0
 40
1.0
 40
1.0
 40
1.0
 40
2.0
 40
2.0
 40
2.0
 40
3.0
 40
3.0
 40
3.0
 40
4.0
 40
4.0
 40
4.0
 40
4.0
 10
81.2729566982984
 20
45.82565684707899
 30
0.0
 10
81.2729566982984
 20
47.55268435314519
 30
0.0
 10
80.38412147674428
 20
49.31795244432475
 30
0.0
 10
78.56821044852268
 20
49.31795244432475
 30
0.0
 10
76.70165648325903
 20
49.31795244432475
 30
0.0
 10
75.787327538296
 20
47.59092493825856
 30
0.0
 10
75.787327538296
 20
45.73677332492358
 30
0.0
 10
75.787327538296
 20
43.90811543499751
 30
0.0
 10
76.77779314370999
 20
42.27031596086253
 30
0.0
 10
78.53014211829719
 20
42.27031596086253
 30
0.0
 10
80.28249109288441
 20
42.27031596086253
 30
0.0
 10
81.2729566982984
 20
43.8829662213644
 30
0.0
 10
81.2729566982984
 20
45.82565684707899
 30
0.0
  0
HATCH
  5
6D
330
67
100
AcDbEntity
  8
Calque 1
 62
   179
420
  1709851
100
AcDbHatch
 10
0.0
 20
0.0
 30
0.0
210
0.0
220
0.0
230
1.0
  2
SOLID
 70
     1
 71
     0
 91
        2
 92
        1
 93
        1
 72
     4
 94
        3
 73
     0
 74
     1
 95
       32
 96
       28
 40
0.0
 40
0.0
 40
0.0
 40
0.0
 40
1.0
 40
1.0
 40
1.0
 40
2.0
 40
2.0
 40
2.0
 40
3.0
 40
3.0
 40
3.0
 40
4.0
 40
4.0
 40
4.0
 40
5.0
 40
5.0
 40
5.0
 40
6.0
 40
6.0
 40
6.0
 40
7.0
 40
7.0
 40
7.0
 40
8.0
 40
8.0
 40
8.0
 40
9.0
 40
9.0
 40
9.0
 40
9.0
 10
82.18728564326143
 20
40.25114416492119
 10
81.03179985524108
 20
40.55603531650079
 10
79.90163553574175
 20
40.89882254341798
 10
78.91116993032776
 20
41.24160977033517
 10
78.72065602431248
 20
41.30499956908167
 10
78.55563584170612
 20
41.36873387760396
 10
78.39044340421185
 20
41.36873387760396
 10
76.34612239463739
 20
41.44487053805491
 10
74.6190948885712
 20
42.94314355299245
 10
74.6190948885712
 20
45.71127960151466
 10
74.6190948885712
 20
48.45426643640376
 10
76.28256034100299
 20
50.21953452758333
 10
78.59370417193159
 20
50.21953452758333
 10
80.9301694713812
 20
50.21953452758333
 10
82.4413616029111
 20
48.41637036106618
 10
82.4413616029111
 20
45.88904664582549
 10
82.4413616029111
 20
43.67970545364466
 10
81.4254022740882
 20
42.28271831279119
 10
80.00326591960162
 20
41.77491090326764
 10
80.00326591960162
 20
41.77491090326764
 10
80.00326591960162
 20
41.7242679662256
 10
80.00326591960162
 20
41.7242679662256
 10
80.85403281093025
 20
41.50826033680141
 10
81.78093636270985
 20
41.30499956908167
 10
82.5047514016576
 20
41.17821997158867
 10
82.5047514016576
 20
41.17821997158867
 10
82.18728564326143
 20
40.25114416492119
 10
82.18728564326143
 20
40.25114416492119
 97
        0
 92
        1
 93
        1
 72
     4
 94
        3
 73
     0
 74
     1
 95
       17
 96
       13
 40
0.0
 40
0.0
 40
0.0
 40
0.0
 40
1.0
 40
1.0
 40
1.0
 40
2.0
 40
2.0
 40
2.0
 40
3.0
 40
3.0
 40
3.0
 40
4.0
 40
4.0
 40
4.0
 40
4.0
 10
81.2729566982984
 20
45.82565684707899
 10
81.2729566982984
 20
47.55268435314519
 10
80.38412147674428
 20
49.31795244432475
 10
78.56821044852268
 20
49.31795244432475
 10
76.70165648325903
 20
49.31795244432475
 10
75.787327538296
 20
47.59092493825856
 10
75.787327538296
 20
45.73677332492358
 10
75.787327538296
 20
43.90811543499751
 10
76.77779314370999
 20
42.27031596086253
 10
78.53014211829719
 20
42.27031596086253
 10
80.28249109288441
 20
42.27031596086253
 10
81.2729566982984
 20
43.8829662213644
 10
81.2729566982984
 20
45.82565684707899
 97
        0
 75
     2
 76
     1
 98
        0
  0
SPLINE
  5
6E
330
67
100
AcDbEntity
  8
Calque 1
370
     0
100
AcDbSpline
210
0.0
220
0.0
230
1.0
 70
    11
 71
     3
 72
    47
 73
    43
 74
     0
 42
0.0000000001
 43
0.0000000001
 40
0.0
 40
0.0
 40
0.0
 40
0.0
 40
1.0
 40
1.0
 40
1.0
 40
2.0
 40
2.0
 40
2.0
 40
3.0
 40
3.0
 40
3.0
 40
4.0
 40
4.0
 40
4.0
 40
5.0
 40
5.0
 40
5.0
 40
6.0
 40
6.0
 40
6.0
 40
7.0
 40
7.0
 40
7.0
 40
8.0
 40
8.0
 40
8.0
 40
9.0
 40
9.0
 40
9.0
 40
10.0
 40
10.0
 40
10.0
 40
11.0
 40
11.0
 40
11.0
 40
12.0
 40
12.0
 40
12.0
 40
13.0
 40
13.0
 40
13.0
 40
14.0
 40
14.0
 40
14.0
 40
14.0
 10
88.15660652848165
 20
42.98138413810582
 30
0.0
 10
88.15660652848165
 20
42.44808300517335
 30
0.0
 10
88.18192799700266
 20
41.92718422416954
 30
0.0
 10
88.24549005063706
 20
41.50826033680141
 30
0.0
 10
88.24549005063706
 20
41.50826033680141
 30
0.0
 10
87.24227758351861
 20
41.50826033680141
 30
0.0
 10
87.24227758351861
 20
41.50826033680141
 30
0.0
 10
87.24227758351861
 20
41.50826033680141
 30
0.0
 10
87.1533940613632
 20
42.28271831279119
 30
0.0
 10
87.1533940613632
 20
42.28271831279119
 30
0.0
 10
87.1533940613632
 20
42.28271831279119
 30
0.0
 10
87.11532573113773
 20
42.28271831279119
 30
0.0
 10
87.11532573113773
 20
42.28271831279119
 30
0.0
 10
86.77236624933263
 20
41.80040462667655
 30
0.0
 10
86.11211326401929
 20
41.36873387760396
 30
0.0
 10
85.23602490416962
 20
41.36873387760396
 30
0.0
 10
83.99148333910597
 20
41.36873387760396
 30
0.0
 10
83.35655182231362
 20
42.24482223745361
 30
0.0
 10
83.35655182231362
 20
43.13365745900773
 30
0.0
 10
83.35655182231362
 20
44.6195281220166
 30
0.0
 10
84.67723004782825
 20
45.43222668311977
 30
0.0
 10
87.05176367750333
 20
45.41947982141531
 30
0.0
 10
87.05176367750333
 20
45.41947982141531
 30
0.0
 10
87.05176367750333
 20
45.5462594189083
 30
0.0
 10
87.05176367750333
 20
45.5462594189083
 30
0.0
 10
87.05176367750333
 20
46.04166447650319
 30
0.0
 10
86.91206496341799
 20
46.96874028317068
 30
0.0
 10
85.65494879153776
 20
46.95599342146622
 30
0.0
 10
85.07083246667536
 20
46.95599342146622
 30
0.0
 10
84.4739692801085
 20
46.79097323885986
 30
0.0
 10
84.0422985310359
 20
46.4988289489847
 30
0.0
 10
84.0422985310359
 20
46.4988289489847
 30
0.0
 10
83.78839482627413
 20
47.24779320156558
 30
0.0
 10
83.78839482627413
 20
47.24779320156558
 30
0.0
 10
84.29620223579768
 20
47.56543121484965
 30
0.0
 10
85.04551099815434
 20
47.78143884427384
 30
0.0
 10
85.82014122903203
 20
47.78143884427384
 30
0.0
 10
87.69944205600012
 20
47.78143884427384
 30
0.0
 10
88.15660652848165
 20
46.4988289489847
 30
0.0
 10
88.15660652848165
 20
45.27960885244207
 30
0.0
 10
88.15660652848165
 20
45.27960885244207
 30
0.0
 10
88.15660652848165
 20
42.98138413810582
 30
0.0
 10
88.15660652848165
 20
42.98138413810582
 30
0.0
  0
SPLINE
  5
6F
330
67
100
AcDbEntity
  8
Calque 1
370
     0
100
AcDbSpline
210
0.0
220
0.0
230
1.0
 70
    11
 71
     3
 72
    20
 73
    16
 74
     0
 42
0.0000000001
 43
0.0000000001
 40
0.0
 40
0.0
 40
0.0
 40
0.0
 40
1.0
 40
1.0
 40
1.0
 40
2.0
 40
2.0
 40
2.0
 40
3.0
 40
3.0
 40
3.0
 40
4.0
 40
4.0
 40
4.0
 40
5.0
 40
5.0
 40
5.0
 40
5.0
 10
87.07725740091225
 20
44.64467733564972
 30
0.0
 10
85.8582095592575
 20
44.67017105905864
 30
0.0
 10
84.4739692801085
 20
44.45416342963444
 30
0.0
 10
84.4739692801085
 20
43.26078156627651
 30
0.0
 10
84.4739692801085
 20
42.52421966562431
 30
0.0
 10
84.95662747599893
 20
42.19383479063578
 30
0.0
 10
85.51525007745242
 20
42.19383479063578
 30
0.0
 10
86.32794863855558
 20
42.19383479063578
 30
0.0
 10
86.84867516467149
 20
42.70198670993513
 30
0.0
 10
87.02644220898232
 20
43.22254098116314
 30
0.0
 10
87.06451053920779
 20
43.34966508843193
 30
0.0
 10
87.07725740091225
 20
43.47644468592492
 30
0.0
 10
87.07725740091225
 20
43.57807506978479
 30
0.0
 10
87.07725740091225
 20
43.57807506978479
 30
0.0
 10
87.07725740091225
 20
44.64467733564972
 30
0.0
 10
87.07725740091225
 20
44.64467733564972
 30
0.0
  0
HATCH
  5
70
330
67
100
AcDbEntity
  8
Calque 1
 62
   179
420
  1709851
100
AcDbHatch
 10
0.0
 20
0.0
 30
0.0
210
0.0
220
0.0
230
1.0
  2
SOLID
 70
     1
 71
     0
 91
        2
 92
        1
 93
        1
 72
     4
 94
        3
 73
     0
 74
     1
 95
       47
 96
       43
 40
0.0
 40
0.0
 40
0.0
 40
0.0
 40
1.0
 40
1.0
 40
1.0
 40
2.0
 40
2.0
 40
2.0
 40
3.0
 40
3.0
 40
3.0
 40
4.0
 40
4.0
 40
4.0
 40
5.0
 40
5.0
 40
5.0
 40
6.0
 40
6.0
 40
6.0
 40
7.0
 40
7.0
 40
7.0
 40
8.0
 40
8.0
 40
8.0
 40
9.0
 40
9.0
 40
9.0
 40
10.0
 40
10.0
 40
10.0
 40
11.0
 40
11.0
 40
11.0
 40
12.0
 40
12.0
 40
12.0
 40
13.0
 40
13.0
 40
13.0
 40
14.0
 40
14.0
 40
14.0
 40
14.0
 10
88.15660652848165
 20
42.98138413810582
 10
88.15660652848165
 20
42.44808300517335
 10
88.18192799700266
 20
41.92718422416954
 10
88.24549005063706
 20
41.50826033680141
 10
88.24549005063706
 20
41.50826033680141
 10
87.24227758351861
 20
41.50826033680141
 10
87.24227758351861
 20
41.50826033680141
 10
87.24227758351861
 20
41.50826033680141
 10
87.1533940613632
 20
42.28271831279119
 10
87.1533940613632
 20
42.28271831279119
 10
87.1533940613632
 20
42.28271831279119
 10
87.11532573113773
 20
42.28271831279119
 10
87.11532573113773
 20
42.28271831279119
 10
86.77236624933263
 20
41.80040462667655
 10
86.11211326401929
 20
41.36873387760396
 10
85.23602490416962
 20
41.36873387760396
 10
83.99148333910597
 20
41.36873387760396
 10
83.35655182231362
 20
42.24482223745361
 10
83.35655182231362
 20
43.13365745900773
 10
83.35655182231362
 20
44.6195281220166
 10
84.67723004782825
 20
45.43222668311977
 10
87.05176367750333
 20
45.41947982141531
 10
87.05176367750333
 20
45.41947982141531
 10
87.05176367750333
 20
45.5462594189083
 10
87.05176367750333
 20
45.5462594189083
 10
87.05176367750333
 20
46.04166447650319
 10
86.91206496341799
 20
46.96874028317068
 10
85.65494879153776
 20
46.95599342146622
 10
85.07083246667536
 20
46.95599342146622
 10
84.4739692801085
 20
46.79097323885986
 10
84.0422985310359
 20
46.4988289489847
 10
84.0422985310359
 20
46.4988289489847
 10
83.78839482627413
 20
47.24779320156558
 10
83.78839482627413
 20
47.24779320156558
 10
84.29620223579768
 20
47.56543121484965
 10
85.04551099815434
 20
47.78143884427384
 10
85.82014122903203
 20
47.78143884427384
 10
87.69944205600012
 20
47.78143884427384
 10
88.15660652848165
 20
46.4988289489847
 10
88.15660652848165
 20
45.27960885244207
 10
88.15660652848165
 20
45.27960885244207
 10
88.15660652848165
 20
42.98138413810582
 10
88.15660652848165
 20
42.98138413810582
 97
        0
 92
        1
 93
        1
 72
     4
 94
        3
 73
     0
 74
     1
 95
       20
 96
       16
 40
0.0
 40
0.0
 40
0.0
 40
0.0
 40
1.0
 40
1.0
 40
1.0
 40
2.0
 40
2.0
 40
2.0
 40
3.0
 40
3.0
 40
3.0
 40
4.0
 40
4.0
 40
4.0
 40
5.0
 40
5.0
 40
5.0
 40
5.0
 10
87.07725740091225
 20
44.64467733564972
 10
85.8582095592575
 20
44.67017105905864
 10
84.4739692801085
 20
44.45416342963444
 10
84.4739692801085
 20
43.26078156627651
 10
84.4739692801085
 20
42.52421966562431
 10
84.95662747599893
 20
42.19383479063578
 10
85.51525007745242
 20
42.19383479063578
 10
86.32794863855558
 20
42.19383479063578
 10
86.84867516467149
 20
42.70198670993513
 10
87.02644220898232
 20
43.22254098116314
 10
87.06451053920779
 20
43.34966508843193
 10
87.07725740091225
 20
43.47644468592492
 10
87.07725740091225
 20
43.57807506978479
 10
87.07725740091225
 20
43.57807506978479
 10
87.07725740091225
 20
44.64467733564972
 10
87.07725740091225
 20
44.64467733564972
 97
        0
 75
     2
 76
     1
 98
        0
  0
SPLINE
  5
71
330
67
100
AcDbEntity
  8
Calque 1
370
     0
100
AcDbSpline
210
0.0
220
0.0
230
1.0
 70
    11
 71
     3
 72
    80
 73
    76
 74
     0
 42
0.0000000001
 43
0.0000000001
 40
0.0
 40
0.0
 40
0.0
 40
0.0
 40
1.0
 40
1.0
 40
1.0
 40
2.0
 40
2.0
 40
2.0
 40
3.0
 40
3.0
 40
3.0
 40
4.0
 40
4.0
 40
4.0
 40
5.0
 40
5.0
 40
5.0
 40
6.0
 40
6.0
 40
6.0
 40
7.0
 40
7.0
 40
7.0
 40
8.0
 40
8.0
 40
8.0
 40
9.0
 40
9.0
 40
9.0
 40
10.0
 40
10.0
 40
10.0
 40
11.0
 40
11.0
 40
11.0
 40
12.0
 40
12.0
 40
12.0
 40
13.0
 40
13.0
 40
13.0
 40
14.0
 40
14.0
 40
14.0
 40
15.0
 40
15.0
 40
15.0
 40
16.0
 40
16.0
 40
16.0
 40
17.0
 40
17.0
 40
17.0
 40
18.0
 40
18.0
 40
18.0
 40
19.0
 40
19.0
 40
19.0
 40
20.0
 40
20.0
 40
20.0
 40
21.0
 40
21.0
 40
21.0
 40
22.0
 40
22.0
 40
22.0
 40
23.0
 40
23.0
 40
23.0
 40
24.0
 40
24.0
 40
24.0
 40
25.0
 40
25.0
 40
25.0
 40
25.0
 10
89.96045971455038
 20
45.99067702968536
 30
0.0
 10
89.96045971455038
 20
46.63835540818216
 30
0.0
 10
89.93513824602937
 20
47.1465073274815
 30
0.0
 10
89.90981677750835
 20
47.65431473700506
 30
0.0
 10
89.90981677750835
 20
47.65431473700506
 30
0.0
 10
90.88753552121787
 20
47.65431473700506
 30
0.0
 10
90.88753552121787
 20
47.65431473700506
 30
0.0
 10
90.88753552121787
 20
47.65431473700506
 30
0.0
 10
90.93835071314781
 20
46.65110226988661
 30
0.0
 10
90.93835071314781
 20
46.65110226988661
 30
0.0
 10
90.93835071314781
 20
46.65110226988661
 30
0.0
 10
90.97641904337328
 20
46.65110226988661
 30
0.0
 10
90.97641904337328
 20
46.65110226988661
 30
0.0
 10
91.31920627029048
 20
47.23539084963691
 30
0.0
 10
91.89074798833632
 20
47.78143884427384
 30
0.0
 10
92.91928192397579
 20
47.78143884427384
 30
0.0
 10
93.7447273467834
 20
47.78143884427384
 30
0.0
 10
94.37965886357574
 20
47.27328692497449
 30
0.0
 10
94.64630943004198
 20
46.54947188602674
 30
0.0
 10
94.64630943004198
 20
46.54947188602674
 30
0.0
 10
94.671630898563
 20
46.54947188602674
 30
0.0
 10
94.671630898563
 20
46.54947188602674
 30
0.0
 10
94.86214480457828
 20
46.90500597464839
 30
0.0
 10
95.11604850934005
 20
47.15890967941016
 30
0.0
 10
95.37012446898973
 20
47.34942358542545
 30
0.0
 10
95.73823316442794
 20
47.62882101359614
 30
0.0
 10
96.13200783816295
 20
47.78143884427384
 30
0.0
 10
96.71612416302536
 20
47.78143884427384
 30
0.0
 10
97.54156958583297
 20
47.78143884427384
 30
0.0
 10
98.74787056578326
 20
47.24779320156558
 30
0.0
 10
98.74787056578326
 20
45.1145886698357
 30
0.0
 10
98.74787056578326
 20
45.1145886698357
 30
0.0
 10
98.74787056578326
 20
41.50826033680141
 30
0.0
 10
98.74787056578326
 20
41.50826033680141
 30
0.0
 10
98.74787056578326
 20
41.50826033680141
 30
0.0
 10
97.65577457650942
 20
41.50826033680141
 30
0.0
 10
97.65577457650942
 20
41.50826033680141
 30
0.0
 10
97.65577457650942
 20
41.50826033680141
 30
0.0
 10
97.65577457650942
 20
44.97506221063825
 30
0.0
 10
97.65577457650942
 20
44.97506221063825
 30
0.0
 10
97.65577457650942
 20
46.16844407399618
 30
0.0
 10
97.21135696573235
 20
46.86710989931081
 30
0.0
 10
96.32252174417823
 20
46.86710989931081
 30
0.0
 10
95.67484336568144
 20
46.86710989931081
 30
0.0
 10
95.1923574246789
 20
46.39719856512484
 30
0.0
 10
94.98909665695916
 20
45.86389743219237
 30
0.0
 10
94.93828146502923
 20
45.698877249586
 30
0.0
 10
94.90021313480375
 20
45.50836334357072
 30
0.0
 10
94.90021313480375
 20
45.30510257585098
 30
0.0
 10
94.90021313480375
 20
45.30510257585098
 30
0.0
 10
94.90021313480375
 20
41.50826033680141
 30
0.0
 10
94.90021313480375
 20
41.50826033680141
 30
0.0
 10
94.90021313480375
 20
41.50826033680141
 30
0.0
 10
93.80811714552989
 20
41.50826033680141
 30
0.0
 10
93.80811714552989
 20
41.50826033680141
 30
0.0
 10
93.80811714552989
 20
41.50826033680141
 30
0.0
 10
93.80811714552989
 20
45.19072533028665
 30
0.0
 10
93.80811714552989
 20
45.19072533028665
 30
0.0
 10
93.80811714552989
 20
46.16844407399618
 30
0.0
 10
93.3764463964573
 20
46.86710989931081
 30
0.0
 10
92.52567950512866
 20
46.86710989931081
 30
0.0
 10
91.83993279640639
 20
46.86710989931081
 30
0.0
 10
91.31920627029048
 20
46.30831504296943
 30
0.0
 10
91.14143922597965
 20
45.74952018662804
 30
0.0
 10
91.07804942723315
 20
45.59724686572613
 30
0.0
 10
91.05255570382424
 20
45.39398609800639
 30
0.0
 10
91.05255570382424
 20
45.20347219199111
 30
0.0
 10
91.05255570382424
 20
45.20347219199111
 30
0.0
 10
91.05255570382424
 20
41.50826033680141
 30
0.0
 10
91.05255570382424
 20
41.50826033680141
 30
0.0
 10
91.05255570382424
 20
41.50826033680141
 30
0.0
 10
89.96045971455038
 20
41.50826033680141
 30
0.0
 10
89.96045971455038
 20
41.50826033680141
 30
0.0
 10
89.96045971455038
 20
41.50826033680141
 30
0.0
 10
89.96045971455038
 20
45.99067702968536
 30
0.0
 10
89.96045971455038
 20
45.99067702968536
 30
0.0
  0
HATCH
  5
72
330
67
100
AcDbEntity
  8
Calque 1
 62
   179
420
  1709851
100
AcDbHatch
 10
0.0
 20
0.0
 30
0.0
210
0.0
220
0.0
230
1.0
  2
SOLID
 70
     1
 71
     0
 91
        1
 92
        1
 93
        1
 72
     4
 94
        3
 73
     0
 74
     1
 95
       80
 96
       76
 40
0.0
 40
0.0
 40
0.0
 40
0.0
 40
1.0
 40
1.0
 40
1.0
 40
2.0
 40
2.0
 40
2.0
 40
3.0
 40
3.0
 40
3.0
 40
4.0
 40
4.0
 40
4.0
 40
5.0
 40
5.0
 40
5.0
 40
6.0
 40
6.0
 40
6.0
 40
7.0
 40
7.0
 40
7.0
 40
8.0
 40
8.0
 40
8.0
 40
9.0
 40
9.0
 40
9.0
 40
10.0
 40
10.0
 40
10.0
 40
11.0
 40
11.0
 40
11.0
 40
12.0
 40
12.0
 40
12.0
 40
13.0
 40
13.0
 40
13.0
 40
14.0
 40
14.0
 40
14.0
 40
15.0
 40
15.0
 40
15.0
 40
16.0
 40
16.0
 40
16.0
 40
17.0
 40
17.0
 40
17.0
 40
18.0
 40
18.0
 40
18.0
 40
19.0
 40
19.0
 40
19.0
 40
20.0
 40
20.0
 40
20.0
 40
21.0
 40
21.0
 40
21.0
 40
22.0
 40
22.0
 40
22.0
 40
23.0
 40
23.0
 40
23.0
 40
24.0
 40
24.0
 40
24.0
 40
25.0
 40
25.0
 40
25.0
 40
25.0
 10
89.96045971455038
 20
45.99067702968536
 10
89.96045971455038
 20
46.63835540818216
 10
89.93513824602937
 20
47.1465073274815
 10
89.90981677750835
 20
47.65431473700506
 10
89.90981677750835
 20
47.65431473700506
 10
90.88753552121787
 20
47.65431473700506
 10
90.88753552121787
 20
47.65431473700506
 10
90.88753552121787
 20
47.65431473700506
 10
90.93835071314781
 20
46.65110226988661
 10
90.93835071314781
 20
46.65110226988661
 10
90.93835071314781
 20
46.65110226988661
 10
90.97641904337328
 20
46.65110226988661
 10
90.97641904337328
 20
46.65110226988661
 10
91.31920627029048
 20
47.23539084963691
 10
91.89074798833632
 20
47.78143884427384
 10
92.91928192397579
 20
47.78143884427384
 10
93.7447273467834
 20
47.78143884427384
 10
94.37965886357574
 20
47.27328692497449
 10
94.64630943004198
 20
46.54947188602674
 10
94.64630943004198
 20
46.54947188602674
 10
94.671630898563
 20
46.54947188602674
 10
94.671630898563
 20
46.54947188602674
 10
94.86214480457828
 20
46.90500597464839
 10
95.11604850934005
 20
47.15890967941016
 10
95.37012446898973
 20
47.34942358542545
 10
95.73823316442794
 20
47.62882101359614
 10
96.13200783816295
 20
47.78143884427384
 10
96.71612416302536
 20
47.78143884427384
 10
97.54156958583297
 20
47.78143884427384
 10
98.74787056578326
 20
47.24779320156558
 10
98.74787056578326
 20
45.1145886698357
 10
98.74787056578326
 20
45.1145886698357
 10
98.74787056578326
 20
41.50826033680141
 10
98.74787056578326
 20
41.50826033680141
 10
98.74787056578326
 20
41.50826033680141
 10
97.65577457650942
 20
41.50826033680141
 10
97.65577457650942
 20
41.50826033680141
 10
97.65577457650942
 20
41.50826033680141
 10
97.65577457650942
 20
44.97506221063825
 10
97.65577457650942
 20
44.97506221063825
 10
97.65577457650942
 20
46.16844407399618
 10
97.21135696573235
 20
46.86710989931081
 10
96.32252174417823
 20
46.86710989931081
 10
95.67484336568144
 20
46.86710989931081
 10
95.1923574246789
 20
46.39719856512484
 10
94.98909665695916
 20
45.86389743219237
 10
94.93828146502923
 20
45.698877249586
 10
94.90021313480375
 20
45.50836334357072
 10
94.90021313480375
 20
45.30510257585098
 10
94.90021313480375
 20
45.30510257585098
 10
94.90021313480375
 20
41.50826033680141
 10
94.90021313480375
 20
41.50826033680141
 10
94.90021313480375
 20
41.50826033680141
 10
93.80811714552989
 20
41.50826033680141
 10
93.80811714552989
 20
41.50826033680141
 10
93.80811714552989
 20
41.50826033680141
 10
93.80811714552989
 20
45.19072533028665
 10
93.80811714552989
 20
45.19072533028665
 10
93.80811714552989
 20
46.16844407399618
 10
93.3764463964573
 20
46.86710989931081
 10
92.52567950512866
 20
46.86710989931081
 10
91.83993279640639
 20
46.86710989931081
 10
91.31920627029048
 20
46.30831504296943
 10
91.14143922597965
 20
45.74952018662804
 10
91.07804942723315
 20
45.59724686572613
 10
91.05255570382424
 20
45.39398609800639
 10
91.05255570382424
 20
45.20347219199111
 10
91.05255570382424
 20
45.20347219199111
 10
91.05255570382424
 20
41.50826033680141
 10
91.05255570382424
 20
41.50826033680141
 10
91.05255570382424
 20
41.50826033680141
 10
89.96045971455038
 20
41.50826033680141
 10
89.96045971455038
 20
41.50826033680141
 10
89.96045971455038
 20
41.50826033680141
 10
89.96045971455038
 20
45.99067702968536
 10
89.96045971455038
 20
45.99067702968536
 97
        0
 75
     2
 76
     1
 98
        0
  0
SPLINE
  5
73
330
67
100
AcDbEntity
  8
Calque 1
370
     0
100
AcDbSpline
210
0.0
220
0.0
230
1.0
 70
    11
 71
     3
 72
    32
 73
    28
 74
     0
 42
0.0000000001
 43
0.0000000001
 40
0.0
 40
0.0
 40
0.0
 40
0.0
 40
1.0
 40
1.0
 40
1.0
 40
2.0
 40
2.0
 40
2.0
 40
3.0
 40
3.0
 40
3.0
 40
4.0
 40
4.0
 40
4.0
 40
5.0
 40
5.0
 40
5.0
 40
6.0
 40
6.0
 40
6.0
 40
7.0
 40
7.0
 40
7.0
 40
8.0
 40
8.0
 40
8.0
 40
9.0
 40
9.0
 40
9.0
 40
9.0
 10
101.1745974264915
 20
44.37802676918349
 30
0.0
 10
101.1999188950125
 20
42.8670068925415
 30
0.0
 10
102.152316170201
 20
42.24482223745361
 30
0.0
 10
103.2824804897003
 20
42.24482223745361
 30
0.0
 10
104.082432189099
 20
42.24482223745361
 30
0.0
 10
104.577664991806
 20
42.38434869665106
 30
0.0
 10
104.9840142723576
 20
42.56211574096189
 30
0.0
 10
104.9840142723576
 20
42.56211574096189
 30
0.0
 10
105.1872750400774
 20
41.76216404156318
 30
0.0
 10
105.1872750400774
 20
41.76216404156318
 30
0.0
 10
104.7936726212302
 20
41.58439699725236
 30
0.0
 10
104.107925912508
 20
41.36873387760396
 30
0.0
 10
103.1300349139105
 20
41.36873387760396
 30
0.0
 10
101.237987225238
 20
41.36873387760396
 30
0.0
 10
100.1078229057386
 20
42.62585004948418
 30
0.0
 10
100.1078229057386
 20
44.47965715304336
 30
0.0
 10
100.1078229057386
 20
46.33380876637834
 30
0.0
 10
101.1999188950125
 20
47.78143884427384
 30
0.0
 10
102.9903361998252
 20
47.78143884427384
 30
0.0
 10
105.0095079957665
 20
47.78143884427384
 30
0.0
 10
105.5300622669945
 20
46.02891761479873
 30
0.0
 10
105.5300622669945
 20
44.8985810404115
 30
0.0
 10
105.5300622669945
 20
44.67017105905864
 30
0.0
 10
105.517487660178
 20
44.50515087645228
 30
0.0
 10
105.4919939367691
 20
44.37802676918349
 30
0.0
 10
105.4919939367691
 20
44.37802676918349
 30
0.0
 10
101.1745974264915
 20
44.37802676918349
 30
0.0
 10
101.1745974264915
 20
44.37802676918349
 30
0.0
  0
SPLINE
  5
74
330
67
100
AcDbEntity
  8
Calque 1
370
     0
100
AcDbSpline
210
0.0
220
0.0
230
1.0
 70
    11
 71
     3
 72
    14
 73
    10
 74
     0
 42
0.0000000001
 43
0.0000000001
 40
0.0
 40
0.0
 40
0.0
 40
0.0
 40
1.0
 40
1.0
 40
1.0
 40
2.0
 40
2.0
 40
2.0
 40
3.0
 40
3.0
 40
3.0
 40
3.0
 10
104.4507131394251
 20
45.1779784685822
 30
0.0
 10
104.4634600011296
 20
45.87664429389682
 30
0.0
 10
104.1587411044379
 20
46.98114263509934
 30
0.0
 10
102.9014526776698
 20
46.98114263509934
 30
0.0
 10
101.7587137513539
 20
46.98114263509934
 30
0.0
 10
101.2760555554634
 20
45.95278095434778
 30
0.0
 10
101.187172033308
 20
45.1779784685822
 30
0.0
 10
101.187172033308
 20
45.1779784685822
 30
0.0
 10
104.4507131394251
 20
45.1779784685822
 30
0.0
 10
104.4507131394251
 20
45.1779784685822
 30
0.0
  0
HATCH
  5
75
330
67
100
AcDbEntity
  8
Calque 1
 62
   179
420
  1709851
100
AcDbHatch
 10
0.0
 20
0.0
 30
0.0
210
0.0
220
0.0
230
1.0
  2
SOLID
 70
     1
 71
     0
 91
        2
 92
        1
 93
        1
 72
     4
 94
        3
 73
     0
 74
     1
 95
       32
 96
       28
 40
0.0
 40
0.0
 40
0.0
 40
0.0
 40
1.0
 40
1.0
 40
1.0
 40
2.0
 40
2.0
 40
2.0
 40
3.0
 40
3.0
 40
3.0
 40
4.0
 40
4.0
 40
4.0
 40
5.0
 40
5.0
 40
5.0
 40
6.0
 40
6.0
 40
6.0
 40
7.0
 40
7.0
 40
7.0
 40
8.0
 40
8.0
 40
8.0
 40
9.0
 40
9.0
 40
9.0
 40
9.0
 10
101.1745974264915
 20
44.37802676918349
 10
101.1999188950125
 20
42.8670068925415
 10
102.152316170201
 20
42.24482223745361
 10
103.2824804897003
 20
42.24482223745361
 10
104.082432189099
 20
42.24482223745361
 10
104.577664991806
 20
42.38434869665106
 10
104.9840142723576
 20
42.56211574096189
 10
104.9840142723576
 20
42.56211574096189
 10
105.1872750400774
 20
41.76216404156318
 10
105.1872750400774
 20
41.76216404156318
 10
104.7936726212302
 20
41.58439699725236
 10
104.107925912508
 20
41.36873387760396
 10
103.1300349139105
 20
41.36873387760396
 10
101.237987225238
 20
41.36873387760396
 10
100.1078229057386
 20
42.62585004948418
 10
100.1078229057386
 20
44.47965715304336
 10
100.1078229057386
 20
46.33380876637834
 10
101.1999188950125
 20
47.78143884427384
 10
102.9903361998252
 20
47.78143884427384
 10
105.0095079957665
 20
47.78143884427384
 10
105.5300622669945
 20
46.02891761479873
 10
105.5300622669945
 20
44.8985810404115
 10
105.5300622669945
 20
44.67017105905864
 10
105.517487660178
 20
44.50515087645228
 10
105.4919939367691
 20
44.37802676918349
 10
105.4919939367691
 20
44.37802676918349
 10
101.1745974264915
 20
44.37802676918349
 10
101.1745974264915
 20
44.37802676918349
 97
        0
 92
        1
 93
        1
 72
     4
 94
        3
 73
     0
 74
     1
 95
       14
 96
       10
 40
0.0
 40
0.0
 40
0.0
 40
0.0
 40
1.0
 40
1.0
 40
1.0
 40
2.0
 40
2.0
 40
2.0
 40
3.0
 40
3.0
 40
3.0
 40
3.0
 10
104.4507131394251
 20
45.1779784685822
 10
104.4634600011296
 20
45.87664429389682
 10
104.1587411044379
 20
46.98114263509934
 10
102.9014526776698
 20
46.98114263509934
 10
101.7587137513539
 20
46.98114263509934
 10
101.2760555554634
 20
45.95278095434778
 10
101.187172033308
 20
45.1779784685822
 10
101.187172033308
 20
45.1779784685822
 10
104.4507131394251
 20
45.1779784685822
 10
104.4507131394251
 20
45.1779784685822
 97
        0
 75
     2
 76
     1
 98
        0
  0
POLYLINE
  5
76
330
67
100
AcDbEntity
  8
Calque 1
370
     0
100
AcDb2dPolyline
 66
     1
 10
0.0
 20
0.0
 30
0.0
  0
VERTEX
  5
77
330
76
100
AcDbEntity
  8
Calque 1
370
     0
100
AcDbVertex
100
AcDb2dVertex
 10
106.9148193108072
 20
50.52408116938714
 30
0.0
  0
VERTEX
  5
78
330
76
100
AcDbEntity
  8
Calque 1
370
     0
100
AcDbVertex
100
AcDb2dVertex
 10
108.03240902349
 20
50.52408116938714
 30
0.0
  0
VERTEX
  5
79
330
76
100
AcDbEntity
  8
Calque 1
370
     0
100
AcDbVertex
100
AcDb2dVertex
 10
108.03240902349
 20
41.50826033680141
 30
0.0
  0
VERTEX
  5
7A
330
76
100
AcDbEntity
  8
Calque 1
370
     0
100
AcDbVertex
100
AcDb2dVertex
 10
106.9148193108072
 20
41.50826033680141
 30
0.0
  0
VERTEX
  5
7B
330
76
100
AcDbEntity
  8
Calque 1
370
     0
100
AcDbVertex
100
AcDb2dVertex
 10
106.9148193108072
 20
50.52408116938714
 30
0.0
  0
SEQEND
  5
7C
330
76
100
AcDbEntity
  8
Calque 1
370
     0
  0
HATCH
  5
7D
330
67
100
AcDbEntity
  8
Calque 1
 62
   179
420
  1709851
100
AcDbHatch
 10
0.0
 20
0.0
 30
0.0
210
0.0
220
0.0
230
1.0
  2
SOLID
 70
     1
 71
     0
 91
        1
 92
        1
 93
        4
 72
     1
 10
106.9148193108072
 20
50.52408116938714
 11
108.03240902349
 21
50.52408116938714
 72
     1
 10
108.03240902349
 20
50.52408116938714
 11
108.03240902349
 21
41.50826033680141
 72
     1
 10
108.03240902349
 20
41.50826033680141
 11
106.9148193108072
 21
41.50826033680141
 72
     1
 10
106.9148193108072
 20
41.50826033680141
 11
106.9148193108072
 21
50.52408116938714
 97
        0
 75
     2
 76
     1
 98
        0
  0
SPLINE
  5
7E
330
67
100
AcDbEntity
  8
Calque 1
370
     0
100
AcDbSpline
210
0.0
220
0.0
230
1.0
 70
    11
 71
     3
 72
    32
 73
    28
 74
     0
 42
0.0000000001
 43
0.0000000001
 40
0.0
 40
0.0
 40
0.0
 40
0.0
 40
1.0
 40
1.0
 40
1.0
 40
2.0
 40
2.0
 40
2.0
 40
3.0
 40
3.0
 40
3.0
 40
4.0
 40
4.0
 40
4.0
 40
5.0
 40
5.0
 40
5.0
 40
6.0
 40
6.0
 40
6.0
 40
7.0
 40
7.0
 40
7.0
 40
8.0
 40
8.0
 40
8.0
 40
9.0
 40
9.0
 40
9.0
 40
9.0
 10
110.5342390153218
 20
44.37802676918349
 30
0.0
 10
110.5595604838428
 20
42.8670068925415
 30
0.0
 10
111.5119577590313
 20
42.24482223745361
 30
0.0
 10
112.6421220785306
 20
42.24482223745361
 30
0.0
 10
113.4420737779294
 20
42.24482223745361
 30
0.0
 10
113.9373065806363
 20
42.38434869665106
 30
0.0
 10
114.3436558611879
 20
42.56211574096189
 30
0.0
 10
114.3436558611879
 20
42.56211574096189
 30
0.0
 10
114.5469166289077
 20
41.76216404156318
 30
0.0
 10
114.5469166289077
 20
41.76216404156318
 30
0.0
 10
114.1533142100605
 20
41.58439699725236
 30
0.0
 10
113.4675675013383
 20
41.36873387760396
 30
0.0
 10
112.4896765027408
 20
41.36873387760396
 30
0.0
 10
110.5976288140683
 20
41.36873387760396
 30
0.0
 10
109.467464494569
 20
42.62585004948418
 30
0.0
 10
109.467464494569
 20
44.47965715304336
 30
0.0
 10
109.467464494569
 20
46.33380876637834
 30
0.0
 10
110.5595604838428
 20
47.78143884427384
 30
0.0
 10
112.3499777886555
 20
47.78143884427384
 30
0.0
 10
114.3691495845968
 20
47.78143884427384
 30
0.0
 10
114.8897038558249
 20
46.02891761479873
 30
0.0
 10
114.8897038558249
 20
44.8985810404115
 30
0.0
 10
114.8897038558249
 20
44.67017105905864
 30
0.0
 10
114.8771292490083
 20
44.50515087645228
 30
0.0
 10
114.8516355255994
 20
44.37802676918349
 30
0.0
 10
114.8516355255994
 20
44.37802676918349
 30
0.0
 10
110.5342390153218
 20
44.37802676918349
 30
0.0
 10
110.5342390153218
 20
44.37802676918349
 30
0.0
  0
SPLINE
  5
7F
330
67
100
AcDbEntity
  8
Calque 1
370
     0
100
AcDbSpline
210
0.0
220
0.0
230
1.0
 70
    11
 71
     3
 72
    14
 73
    10
 74
     0
 42
0.0000000001
 43
0.0000000001
 40
0.0
 40
0.0
 40
0.0
 40
0.0
 40
1.0
 40
1.0
 40
1.0
 40
2.0
 40
2.0
 40
2.0
 40
3.0
 40
3.0
 40
3.0
 40
3.0
 10
113.8103547282555
 20
45.1779784685822
 30
0.0
 10
113.8231015899599
 20
45.87664429389682
 30
0.0
 10
113.5183826932682
 20
46.98114263509934
 30
0.0
 10
112.2610942665001
 20
46.98114263509934
 30
0.0
 10
111.1183553401842
 20
46.98114263509934
 30
0.0
 10
110.6356971442938
 20
45.95278095434778
 30
0.0
 10
110.5468136221384
 20
45.1779784685822
 30
0.0
 10
110.5468136221384
 20
45.1779784685822
 30
0.0
 10
113.8103547282555
 20
45.1779784685822
 30
0.0
 10
113.8103547282555
 20
45.1779784685822
 30
0.0
  0
HATCH
  5
80
330
67
100
AcDbEntity
  8
Calque 1
 62
   179
420
  1709851
100
AcDbHatch
 10
0.0
 20
0.0
 30
0.0
210
0.0
220
0.0
230
1.0
  2
SOLID
 70
     1
 71
     0
 91
        2
 92
        1
 93
        1
 72
     4
 94
        3
 73
     0
 74
     1
 95
       32
 96
       28
 40
0.0
 40
0.0
 40
0.0
 40
0.0
 40
1.0
 40
1.0
 40
1.0
 40
2.0
 40
2.0
 40
2.0
 40
3.0
 40
3.0
 40
3.0
 40
4.0
 40
4.0
 40
4.0
 40
5.0
 40
5.0
 40
5.0
 40
6.0
 40
6.0
 40
6.0
 40
7.0
 40
7.0
 40
7.0
 40
8.0
 40
8.0
 40
8.0
 40
9.0
 40
9.0
 40
9.0
 40
9.0
 10
110.5342390153218
 20
44.37802676918349
 10
110.5595604838428
 20
42.8670068925415
 10
111.5119577590313
 20
42.24482223745361
 10
112.6421220785306
 20
42.24482223745361
 10
113.4420737779294
 20
42.24482223745361
 10
113.9373065806363
 20
42.38434869665106
 10
114.3436558611879
 20
42.56211574096189
 10
114.3436558611879
 20
42.56211574096189
 10
114.5469166289077
 20
41.76216404156318
 10
114.5469166289077
 20
41.76216404156318
 10
114.1533142100605
 20
41.58439699725236
 10
113.4675675013383
 20
41.36873387760396
 10
112.4896765027408
 20
41.36873387760396
 10
110.5976288140683
 20
41.36873387760396
 10
109.467464494569
 20
42.62585004948418
 10
109.467464494569
 20
44.47965715304336
 10
109.467464494569
 20
46.33380876637834
 10
110.5595604838428
 20
47.78143884427384
 10
112.3499777886555
 20
47.78143884427384
 10
114.3691495845968
 20
47.78143884427384
 10
114.8897038558249
 20
46.02891761479873
 10
114.8897038558249
 20
44.8985810404115
 10
114.8897038558249
 20
44.67017105905864
 10
114.8771292490083
 20
44.50515087645228
 10
114.8516355255994
 20
44.37802676918349
 10
114.8516355255994
 20
44.37802676918349
 10
110.5342390153218
 20
44.37802676918349
 10
110.5342390153218
 20
44.37802676918349
 97
        0
 92
        1
 93
        1
 72
     4
 94
        3
 73
     0
 74
     1
 95
       14
 96
       10
 40
0.0
 40
0.0
 40
0.0
 40
0.0
 40
1.0
 40
1.0
 40
1.0
 40
2.0
 40
2.0
 40
2.0
 40
3.0
 40
3.0
 40
3.0
 40
3.0
 10
113.8103547282555
 20
45.1779784685822
 10
113.8231015899599
 20
45.87664429389682
 10
113.5183826932682
 20
46.98114263509934
 10
112.2610942665001
 20
46.98114263509934
 10
111.1183553401842
 20
46.98114263509934
 10
110.6356971442938
 20
45.95278095434778
 10
110.5468136221384
 20
45.1779784685822
 10
110.5468136221384
 20
45.1779784685822
 10
113.8103547282555
 20
45.1779784685822
 10
113.8103547282555
 20
45.1779784685822
 97
        0
 75
     2
 76
     1
 98
        0
  0
SPLINE
  5
81
330
67
100
AcDbEntity
  8
Calque 1
370
     0
100
AcDbSpline
210
0.0
220
0.0
230
1.0
 70
    11
 71
     3
 72
    17
 73
    13
 74
     0
 42
0.0000000001
 43
0.0000000001
 40
0.0
 40
0.0
 40
0.0
 40
0.0
 40
1.0
 40
1.0
 40
1.0
 40
2.0
 40
2.0
 40
2.0
 40
3.0
 40
3.0
 40
3.0
 40
4.0
 40
4.0
 40
4.0
 40
4.0
 10
121.8363989749788
 20
44.63193047394527
 30
0.0
 10
121.8363989749788
 20
42.35919948301794
 30
0.0
 10
120.249070182998
 20
41.36873387760396
 30
0.0
 10
118.7761186365814
 20
41.36873387760396
 30
0.0
 10
117.1254000458541
 20
41.36873387760396
 30
0.0
 10
115.8300432888605
 20
42.5876094643708
 30
0.0
 10
115.8300432888605
 20
44.53064459986119
 30
0.0
 10
115.8300432888605
 20
46.57496560943566
 30
0.0
 10
117.1887898446006
 20
47.78143884427384
 30
0.0
 10
118.8777490204413
 20
47.78143884427384
 30
0.0
 10
120.642844856733
 20
47.78143884427384
 30
0.0
 10
121.8363989749788
 20
46.4988289489847
 30
0.0
 10
121.8363989749788
 20
44.63193047394527
 30
0.0
  0
SPLINE
  5
82
330
67
100
AcDbEntity
  8
Calque 1
370
     0
100
AcDbSpline
210
0.0
220
0.0
230
1.0
 70
    11
 71
     3
 72
    17
 73
    13
 74
     0
 42
0.0000000001
 43
0.0000000001
 40
0.0
 40
0.0
 40
0.0
 40
0.0
 40
1.0
 40
1.0
 40
1.0
 40
2.0
 40
2.0
 40
2.0
 40
3.0
 40
3.0
 40
3.0
 40
4.0
 40
4.0
 40
4.0
 40
4.0
 10
116.9729544700643
 20
44.56854067519877
 30
0.0
 10
116.9729544700643
 20
43.22254098116314
 30
0.0
 10
117.7348378392375
 20
42.20658165234024
 30
0.0
 10
118.8269338285114
 20
42.20658165234024
 30
0.0
 10
119.8935360943763
 20
42.20658165234024
 30
0.0
 10
120.6936600486629
 20
43.20979411945868
 30
0.0
 10
120.6936600486629
 20
44.59403439860769
 30
0.0
 10
120.6936600486629
 20
45.63514294106371
 30
0.0
 10
120.172933522547
 20
46.94324655976176
 30
0.0
 10
118.8522552970324
 20
46.94324655976176
 30
0.0
 10
117.5443239332222
 20
46.94324655976176
 30
0.0
 10
116.9729544700643
 20
45.72402646321912
 30
0.0
 10
116.9729544700643
 20
44.56854067519877
 30
0.0
  0
HATCH
  5
83
330
67
100
AcDbEntity
  8
Calque 1
 62
   179
420
  1709851
100
AcDbHatch
 10
0.0
 20
0.0
 30
0.0
210
0.0
220
0.0
230
1.0
  2
SOLID
 70
     1
 71
     0
 91
        2
 92
        1
 93
        1
 72
     4
 94
        3
 73
     0
 74
     1
 95
       17
 96
       13
 40
0.0
 40
0.0
 40
0.0
 40
0.0
 40
1.0
 40
1.0
 40
1.0
 40
2.0
 40
2.0
 40
2.0
 40
3.0
 40
3.0
 40
3.0
 40
4.0
 40
4.0
 40
4.0
 40
4.0
 10
121.8363989749788
 20
44.63193047394527
 10
121.8363989749788
 20
42.35919948301794
 10
120.249070182998
 20
41.36873387760396
 10
118.7761186365814
 20
41.36873387760396
 10
117.1254000458541
 20
41.36873387760396
 10
115.8300432888605
 20
42.5876094643708
 10
115.8300432888605
 20
44.53064459986119
 10
115.8300432888605
 20
46.57496560943566
 10
117.1887898446006
 20
47.78143884427384
 10
118.8777490204413
 20
47.78143884427384
 10
120.642844856733
 20
47.78143884427384
 10
121.8363989749788
 20
46.4988289489847
 10
121.8363989749788
 20
44.63193047394527
 97
        0
 92
        1
 93
        1
 72
     4
 94
        3
 73
     0
 74
     1
 95
       17
 96
       13
 40
0.0
 40
0.0
 40
0.0
 40
0.0
 40
1.0
 40
1.0
 40
1.0
 40
2.0
 40
2.0
 40
2.0
 40
3.0
 40
3.0
 40
3.0
 40
4.0
 40
4.0
 40
4.0
 40
4.0
 10
116.9729544700643
 20
44.56854067519877
 10
116.9729544700643
 20
43.22254098116314
 10
117.7348378392375
 20
42.20658165234024
 10
118.8269338285114
 20
42.20658165234024
 10
119.8935360943763
 20
42.20658165234024
 10
120.6936600486629
 20
43.20979411945868
 10
120.6936600486629
 20
44.59403439860769
 10
120.6936600486629
 20
45.63514294106371
 10
120.172933522547
 20
46.94324655976176
 10
118.8522552970324
 20
46.94324655976176
 10
117.5443239332222
 20
46.94324655976176
 10
116.9729544700643
 20
45.72402646321912
 10
116.9729544700643
 20
44.56854067519877
 97
        0
 75
     2
 76
     1
 98
        0
  0
SPLINE
  5
84
330
67
100
AcDbEntity
  8
Calque 1
370
     0
100
AcDbSpline
210
0.0
220
0.0
230
1.0
 70
    11
 71
     3
 72
    59
 73
    55
 74
     0
 42
0.0000000001
 43
0.0000000001
 40
0.0
 40
0.0
 40
0.0
 40
0.0
 40
1.0
 40
1.0
 40
1.0
 40
2.0
 40
2.0
 40
2.0
 40
3.0
 40
3.0
 40
3.0
 40
4.0
 40
4.0
 40
4.0
 40
5.0
 40
5.0
 40
5.0
 40
6.0
 40
6.0
 40
6.0
 40
7.0
 40
7.0
 40
7.0
 40
8.0
 40
8.0
 40
8.0
 40
9.0
 40
9.0
 40
9.0
 40
10.0
 40
10.0
 40
10.0
 40
11.0
 40
11.0
 40
11.0
 40
12.0
 40
12.0
 40
12.0
 40
13.0
 40
13.0
 40
13.0
 40
14.0
 40
14.0
 40
14.0
 40
15.0
 40
15.0
 40
15.0
 40
16.0
 40
16.0
 40
16.0
 40
17.0
 40
17.0
 40
17.0
 40
18.0
 40
18.0
 40
18.0
 40
18.0
 10
125.8501101178921
 20
42.77812337038608
 30
0.0
 10
126.1675758762882
 20
42.5876094643708
 30
0.0
 10
126.891390915236
 20
42.27031596086253
 30
0.0
 10
127.6787680078181
 20
42.27031596086253
 30
0.0
 10
129.1009043623047
 20
42.27031596086253
 30
0.0
 10
129.5580688347862
 20
43.1718980441211
 30
0.0
 10
129.5454942279697
 20
43.87021935965993
 30
0.0
 10
129.5327473662652
 20
45.02570514768028
 30
0.0
 10
128.4914665689213
 20
45.52111020527518
 30
0.0
 10
127.4121174413519
 20
45.52111020527518
 30
0.0
 10
127.4121174413519
 20
45.52111020527518
 30
0.0
 10
126.789932786264
 20
45.52111020527518
 30
0.0
 10
126.789932786264
 20
45.52111020527518
 30
0.0
 10
126.789932786264
 20
45.52111020527518
 30
0.0
 10
126.789932786264
 20
46.35895798001146
 30
0.0
 10
126.789932786264
 20
46.35895798001146
 30
0.0
 10
126.789932786264
 20
46.35895798001146
 30
0.0
 10
127.4121174413519
 20
46.35895798001146
 30
0.0
 10
127.4121174413519
 20
46.35895798001146
 30
0.0
 10
128.2248160024551
 20
46.35895798001146
 30
0.0
 10
129.2533499380945
 20
46.7782263771554
 30
0.0
 10
129.2533499380945
 20
47.75594512086492
 30
0.0
 10
129.2533499380945
 20
48.41637036106618
 30
0.0
 10
128.8342537958385
 20
49.00031443104069
 30
0.0
 10
127.805719860199
 20
49.00031443104069
 30
0.0
 10
127.1454668748857
 20
49.00031443104069
 30
0.0
 10
126.5105353580933
 20
48.70817014116554
 30
0.0
 10
126.1550012694717
 20
48.45426643640376
 30
0.0
 10
126.1550012694717
 20
48.45426643640376
 30
0.0
 10
125.8501101178921
 20
49.26696499750692
 30
0.0
 10
125.8501101178921
 20
49.26696499750692
 30
0.0
 10
126.294699983557
 20
49.58460301079099
 30
0.0
 10
127.1327200131812
 20
49.90189651429926
 30
0.0
 10
128.0215552347353
 20
49.90189651429926
 30
0.0
 10
129.6469523569417
 20
49.90189651429926
 30
0.0
 10
130.3835142575938
 20
48.93692463229419
 30
0.0
 10
130.3835142575938
 20
47.93371216517575
 30
0.0
 10
130.3835142575938
 20
47.07002615725475
 30
0.0
 10
129.8629599863658
 20
46.346211118307
 30
0.0
 10
128.8597475192474
 20
45.9779301679809
 30
0.0
 10
128.8597475192474
 20
45.9779301679809
 30
0.0
 10
128.8597475192474
 20
45.95278095434778
 30
0.0
 10
128.8597475192474
 20
45.95278095434778
 30
0.0
 10
129.8755345931824
 20
45.7622670483325
 30
0.0
 10
130.6882331542856
 20
45.00021142427137
 30
0.0
 10
130.70098001599
 20
43.84472563625102
 30
0.0
 10
130.70098001599
 20
42.52421966562431
 30
0.0
 10
129.6596992186461
 20
41.36873387760396
 30
0.0
 10
127.6915148695226
 20
41.36873387760396
 30
0.0
 10
126.7644390628551
 20
41.36873387760396
 30
0.0
 10
125.9517405017519
 20
41.66053365770331
 30
0.0
 10
125.5453912212004
 20
41.92718422416954
 30
0.0
 10
125.5453912212004
 20
41.92718422416954
 30
0.0
 10
125.8501101178921
 20
42.77812337038608
 30
0.0
 10
125.8501101178921
 20
42.77812337038608
 30
0.0
  0
HATCH
  5
85
330
67
100
AcDbEntity
  8
Calque 1
 62
   179
420
  1709851
100
AcDbHatch
 10
0.0
 20
0.0
 30
0.0
210
0.0
220
0.0
230
1.0
  2
SOLID
 70
     1
 71
     0
 91
        1
 92
        1
 93
        1
 72
     4
 94
        3
 73
     0
 74
     1
 95
       59
 96
       55
 40
0.0
 40
0.0
 40
0.0
 40
0.0
 40
1.0
 40
1.0
 40
1.0
 40
2.0
 40
2.0
 40
2.0
 40
3.0
 40
3.0
 40
3.0
 40
4.0
 40
4.0
 40
4.0
 40
5.0
 40
5.0
 40
5.0
 40
6.0
 40
6.0
 40
6.0
 40
7.0
 40
7.0
 40
7.0
 40
8.0
 40
8.0
 40
8.0
 40
9.0
 40
9.0
 40
9.0
 40
10.0
 40
10.0
 40
10.0
 40
11.0
 40
11.0
 40
11.0
 40
12.0
 40
12.0
 40
12.0
 40
13.0
 40
13.0
 40
13.0
 40
14.0
 40
14.0
 40
14.0
 40
15.0
 40
15.0
 40
15.0
 40
16.0
 40
16.0
 40
16.0
 40
17.0
 40
17.0
 40
17.0
 40
18.0
 40
18.0
 40
18.0
 40
18.0
 10
125.8501101178921
 20
42.77812337038608
 10
126.1675758762882
 20
42.5876094643708
 10
126.891390915236
 20
42.27031596086253
 10
127.6787680078181
 20
42.27031596086253
 10
129.1009043623047
 20
42.27031596086253
 10
129.5580688347862
 20
43.1718980441211
 10
129.5454942279697
 20
43.87021935965993
 10
129.5327473662652
 20
45.02570514768028
 10
128.4914665689213
 20
45.52111020527518
 10
127.4121174413519
 20
45.52111020527518
 10
127.4121174413519
 20
45.52111020527518
 10
126.789932786264
 20
45.52111020527518
 10
126.789932786264
 20
45.52111020527518
 10
126.789932786264
 20
45.52111020527518
 10
126.789932786264
 20
46.35895798001146
 10
126.789932786264
 20
46.35895798001146
 10
126.789932786264
 20
46.35895798001146
 10
127.4121174413519
 20
46.35895798001146
 10
127.4121174413519
 20
46.35895798001146
 10
128.2248160024551
 20
46.35895798001146
 10
129.2533499380945
 20
46.7782263771554
 10
129.2533499380945
 20
47.75594512086492
 10
129.2533499380945
 20
48.41637036106618
 10
128.8342537958385
 20
49.00031443104069
 10
127.805719860199
 20
49.00031443104069
 10
127.1454668748857
 20
49.00031443104069
 10
126.5105353580933
 20
48.70817014116554
 10
126.1550012694717
 20
48.45426643640376
 10
126.1550012694717
 20
48.45426643640376
 10
125.8501101178921
 20
49.26696499750692
 10
125.8501101178921
 20
49.26696499750692
 10
126.294699983557
 20
49.58460301079099
 10
127.1327200131812
 20
49.90189651429926
 10
128.0215552347353
 20
49.90189651429926
 10
129.6469523569417
 20
49.90189651429926
 10
130.3835142575938
 20
48.93692463229419
 10
130.3835142575938
 20
47.93371216517575
 10
130.3835142575938
 20
47.07002615725475
 10
129.8629599863658
 20
46.346211118307
 10
128.8597475192474
 20
45.9779301679809
 10
128.8597475192474
 20
45.9779301679809
 10
128.8597475192474
 20
45.95278095434778
 10
128.8597475192474
 20
45.95278095434778
 10
129.8755345931824
 20
45.7622670483325
 10
130.6882331542856
 20
45.00021142427137
 10
130.70098001599
 20
43.84472563625102
 10
130.70098001599
 20
42.52421966562431
 10
129.6596992186461
 20
41.36873387760396
 10
127.6915148695226
 20
41.36873387760396
 10
126.7644390628551
 20
41.36873387760396
 10
125.9517405017519
 20
41.66053365770331
 10
125.5453912212004
 20
41.92718422416954
 10
125.5453912212004
 20
41.92718422416954
 10
125.8501101178921
 20
42.77812337038608
 10
125.8501101178921
 20
42.77812337038608
 97
        0
 75
     2
 76
     1
 98
        0
  0
ENDBLK
  5
6A
330
67
100
AcDbEntity
  8
0
100
AcDbBlockEnd
  0
BLOCK
  5
88
330
86
100
AcDbEntity
  8
0
100
AcDbBlockBegin
  2
block 9
 70
     0
 71
     0
 10
0.0
 20
0.0
 30
0.0
  3
block 9
  1

  0
SPLINE
  5
8A
330
86
100
AcDbEntity
  8
Calque 1
 62
     7
420
 16777215
370
    25
100
AcDbSpline
210
0.0
220
0.0
230
1.0
 70
     8
 71
     3
 72
    11
 73
     7
 74
     0
 42
0.0000000001
 43
0.0000000001
 40
0.0
 40
0.0
 40
0.0
 40
0.0
 40
1.0
 40
1.0
 40
1.0
 40
2.0
 40
2.0
 40
2.0
 40
2.0
 10
206.4326692254949
 20
170.1079029753227
 30
0.0
 10
206.4436935383204
 20
170.7459350800972
 30
0.0
 10
205.9355416190211
 20
171.2723460175137
 30
0.0
 10
205.2975095142466
 20
171.2833703303392
 30
0.0
 10
205.2923418676096
 20
171.2833703303392
 30
0.0
 10
205.2823510841115
 20
171.283714840115
 30
0.0
 10
205.2771834374746
 20
171.283714840115
 30
0.0
  0
ENDBLK
  5
89
330
86
100
AcDbEntity
  8
0
100
AcDbBlockEnd
  0
BLOCK
  5
8D
330
8B
100
AcDbEntity
  8
0
100
AcDbBlockBegin
  2
block 10
 70
     0
 71
     0
 10
0.0
 20
0.0
 30
0.0
  3
block 10
  1

  0
SPLINE
  5
8F
330
8B
100
AcDbEntity
  8
Calque 1
 62
     7
420
 16777215
370
    25
100
AcDbSpline
210
0.0
220
0.0
230
1.0
 70
     8
 71
     3
 72
    11
 73
     7
 74
     0
 42
0.0000000001
 43
0.0000000001
 40
0.0
 40
0.0
 40
0.0
 40
0.0
 40
1.0
 40
1.0
 40
1.0
 40
2.0
 40
2.0
 40
2.0
 40
2.0
 10
11.15557105005574
 20
171.283714840115
 30
0.0
 10
10.51719443550544
 20
171.283714840115
 30
0.0
 10
10.00008526203539
 20
170.7662611568692
 30
0.0
 10
10.00008526203539
 20
170.1278845423189
 30
0.0
 10
10.00008526203539
 20
170.1230614054577
 30
0.0
 10
10.00008526203539
 20
170.1127261121839
 30
0.0
 10
10.00008526203539
 20
170.1079029753227
 30
0.0
  0
ENDBLK
  5
8E
330
8B
100
AcDbEntity
  8
0
100
AcDbBlockEnd
  0
BLOCK
  5
92
330
90
100
AcDbEntity
  8
0
100
AcDbBlockBegin
  2
block 11
 70
     0
 71
     0
 10
0.0
 20
0.0
 30
0.0
  3
block 11
  1

  0
POLYLINE
  5
94
330
90
100
AcDbEntity
  8
Calque 1
 62
     7
420
 16777215
370
    25
100
AcDb2dPolyline
 66
     1
 10
0.0
 20
0.0
 30
0.0
  0
VERTEX
  5
95
330
94
100
AcDbEntity
  8
Calque 1
 62
     7
420
 16777215
370
    25
100
AcDbVertex
100
AcDb2dVertex
 10
205.2771834374746
 20
171.283714840115
 30
0.0
  0
VERTEX
  5
96
330
94
100
AcDbEntity
  8
Calque 1
 62
     7
420
 16777215
370
    25
100
AcDbVertex
100
AcDb2dVertex
 10
11.15557105005574
 20
171.283714840115
 30
0.0
  0
SEQEND
  5
97
330
94
100
AcDbEntity
  8
Calque 1
370
    25
  0
ENDBLK
  5
93
330
90
100
AcDbEntity
  8
0
100
AcDbBlockEnd
  0
BLOCK
  5
9A
330
98
100
AcDbEntity
  8
0
100
AcDbBlockBegin
  2
block 12
 70
     0
 71
     0
 10
0.0
 20
0.0
 30
0.0
  3
block 12
  1

  0
POLYLINE
  5
9C
330
98
100
AcDbEntity
  8
Calque 1
 62
     7
420
 16777215
370
    25
100
AcDb2dPolyline
 66
     1
 10
0.0
 20
0.0
 30
0.0
  0
VERTEX
  5
9D
330
9C
100
AcDbEntity
  8
Calque 1
 62
     7
420
 16777215
370
    25
100
AcDbVertex
100
AcDb2dVertex
 10
10.00008526203539
 20
170.1079029753227
 30
0.0
  0
VERTEX
  5
9E
330
9C
100
AcDbEntity
  8
Calque 1
 62
     7
420
 16777215
370
    25
100
AcDbVertex
100
AcDb2dVertex
 10
11.22378398566338
 20
100.0001636008023
 30
0.0
  0
SEQEND
  5
9F
330
9C
100
AcDbEntity
  8
Calque 1
370
    25
  0
ENDBLK
  5
9B
330
98
100
AcDbEntity
  8
0
100
AcDbBlockEnd
  0
BLOCK
  5
A2
330
A0
100
AcDbEntity
  8
0
100
AcDbBlockBegin
  2
block 13
 70
     0
 71
     0
 10
0.0
 20
0.0
 30
0.0
  3
block 13
  1

  0
POLYLINE
  5
A4
330
A0
100
AcDbEntity
  8
Calque 1
 62
     7
420
 16777215
370
    25
100
AcDb2dPolyline
 66
     1
 10
0.0
 20
0.0
 30
0.0
  0
VERTEX
  5
A5
330
A4
100
AcDbEntity
  8
Calque 1
 62
     7
420
 16777215
370
    25
100
AcDbVertex
100
AcDb2dVertex
 10
206.4326692254949
 20
170.1079029753227
 30
0.0
  0
VERTEX
  5
A6
330
A4
100
AcDbEntity
  8
Calque 1
 62
     7
420
 16777215
370
    25
100
AcDbVertex
100
AcDb2dVertex
 10
205.208970501867
 20
100.0001636008023
 30
0.0
  0
SEQEND
  5
A7
330
A4
100
AcDbEntity
  8
Calque 1
370
    25
  0
ENDBLK
  5
A3
330
A0
100
AcDbEntity
  8
0
100
AcDbBlockEnd
  0
BLOCK
  5
AA
330
A8
100
AcDbEntity
  8
0
100
AcDbBlockBegin
  2
block 14
 70
     0
 71
     0
 10
0.0
 20
0.0
 30
0.0
  3
block 14
  1

  0
POLYLINE
  5
AC
330
A8
100
AcDbEntity
  8
Calque 1
 62
     7
420
 16777215
370
    25
100
AcDb2dPolyline
 66
     1
 10
0.0
 20
0.0
 30
0.0
  0
VERTEX
  5
AD
330
AC
100
AcDbEntity
  8
Calque 1
 62
     7
420
 16777215
370
    25
100
AcDbVertex
100
AcDb2dVertex
 10
205.208970501867
 20
100.0001636008023
 30
0.0
  0
VERTEX
  5
AE
330
AC
100
AcDbEntity
  8
Calque 1
 62
     7
420
 16777215
370
    25
100
AcDbVertex
100
AcDb2dVertex
 10
11.22378398566338
 20
100.0001636008023
 30
0.0
  0
SEQEND
  5
AF
330
AC
100
AcDbEntity
  8
Calque 1
370
    25
  0
ENDBLK
  5
AB
330
A8
100
AcDbEntity
  8
0
100
AcDbBlockEnd
  0
BLOCK
  5
B3
330
B1
100
AcDbEntity
  8
0
100
AcDbBlockBegin
  2
block 15
 70
     0
 71
     0
 10
0.0
 20
0.0
 30
0.0
  3
block 15
  1

  0
SPLINE
  5
B5
330
B1
100
AcDbEntity
  8
Calque 1
370
     0
100
AcDbSpline
210
0.0
220
0.0
230
1.0
 70
    11
 71
     3
 72
    32
 73
    28
 74
     0
 42
0.0000000001
 43
0.0000000001
 40
0.0
 40
0.0
 40
0.0
 40
0.0
 40
1.0
 40
1.0
 40
1.0
 40
2.0
 40
2.0
 40
2.0
 40
3.0
 40
3.0
 40
3.0
 40
4.0
 40
4.0
 40
4.0
 40
5.0
 40
5.0
 40
5.0
 40
6.0
 40
6.0
 40
6.0
 40
7.0
 40
7.0
 40
7.0
 40
8.0
 40
8.0
 40
8.0
 40
9.0
 40
9.0
 40
9.0
 40
9.0
 10
57.75637489267611
 20
140.3167646231248
 30
0.0
 10
56.60088910465576
 20
140.6216557747044
 30
0.0
 10
55.47089704004433
 20
140.9644430016216
 30
0.0
 10
54.48008692485455
 20
141.3072302285388
 30
0.0
 10
54.28991752861506
 20
141.3706200272853
 30
0.0
 10
54.1245528362329
 20
141.4343543358076
 30
0.0
 10
53.95953265362654
 20
141.4343543358076
 30
0.0
 10
51.91521164405207
 20
141.5104909962585
 30
0.0
 10
50.18818413798588
 20
143.0087640111961
 30
0.0
 10
50.18818413798588
 20
145.7769000597183
 30
0.0
 10
50.18818413798588
 20
148.5198868946074
 30
0.0
 10
51.85147733552978
 20
150.2851549857869
 30
0.0
 10
54.16279342134628
 20
150.2851549857869
 30
0.0
 10
56.49925872079589
 20
150.2851549857869
 30
0.0
 10
58.01062310721369
 20
148.4819908192698
 30
0.0
 10
58.01062310721369
 20
145.9546671040291
 30
0.0
 10
58.01062310721369
 20
143.7453259118483
 30
0.0
 10
56.99431926861499
 20
142.3483387709948
 30
0.0
 10
55.5721829141284
 20
141.8405313614712
 30
0.0
 10
55.5721829141284
 20
141.8405313614712
 30
0.0
 10
55.5721829141284
 20
141.7898884244292
 30
0.0
 10
55.5721829141284
 20
141.7898884244292
 30
0.0
 10
56.42312206034494
 20
141.573880795005
 30
0.0
 10
57.34985335723663
 20
141.3706200272853
 30
0.0
 10
58.07401290596018
 20
141.2438404297923
 30
0.0
 10
58.07401290596018
 20
141.2438404297923
 30
0.0
 10
57.75637489267611
 20
140.3167646231248
 30
0.0
 10
57.75637489267611
 20
140.3167646231248
 30
0.0
  0
SPLINE
  5
B6
330
B1
100
AcDbEntity
  8
Calque 1
370
     0
100
AcDbSpline
210
0.0
220
0.0
230
1.0
 70
    11
 71
     3
 72
    17
 73
    13
 74
     0
 42
0.0000000001
 43
0.0000000001
 40
0.0
 40
0.0
 40
0.0
 40
0.0
 40
1.0
 40
1.0
 40
1.0
 40
2.0
 40
2.0
 40
2.0
 40
3.0
 40
3.0
 40
3.0
 40
4.0
 40
4.0
 40
4.0
 40
4.0
 10
56.84204594771308
 20
145.8912773052826
 30
0.0
 10
56.84204594771308
 20
147.6183048113488
 30
0.0
 10
55.95321072615896
 20
149.3835729025284
 30
0.0
 10
54.13729969793736
 20
149.3835729025284
 30
0.0
 10
52.27074573267372
 20
149.3835729025284
 30
0.0
 10
51.35641678771069
 20
147.6565453964622
 30
0.0
 10
51.35641678771069
 20
145.8023937831272
 30
0.0
 10
51.35641678771069
 20
143.9737358932011
 30
0.0
 10
52.34688239312467
 20
142.3359364190661
 30
0.0
 10
54.09905911282399
 20
142.3359364190661
 30
0.0
 10
55.85158034229909
 20
142.3359364190661
 30
0.0
 10
56.84204594771308
 20
143.948586679568
 30
0.0
 10
56.84204594771308
 20
145.8912773052826
 30
0.0
  0
HATCH
  5
B7
330
B1
100
AcDbEntity
  8
Calque 1
 62
   179
420
  1709851
100
AcDbHatch
 10
0.0
 20
0.0
 30
0.0
210
0.0
220
0.0
230
1.0
  2
SOLID
 70
     1
 71
     0
 91
        2
 92
        1
 93
        1
 72
     4
 94
        3
 73
     0
 74
     1
 95
       32
 96
       28
 40
0.0
 40
0.0
 40
0.0
 40
0.0
 40
1.0
 40
1.0
 40
1.0
 40
2.0
 40
2.0
 40
2.0
 40
3.0
 40
3.0
 40
3.0
 40
4.0
 40
4.0
 40
4.0
 40
5.0
 40
5.0
 40
5.0
 40
6.0
 40
6.0
 40
6.0
 40
7.0
 40
7.0
 40
7.0
 40
8.0
 40
8.0
 40
8.0
 40
9.0
 40
9.0
 40
9.0
 40
9.0
 10
57.75637489267611
 20
140.3167646231248
 10
56.60088910465576
 20
140.6216557747044
 10
55.47089704004433
 20
140.9644430016216
 10
54.48008692485455
 20
141.3072302285388
 10
54.28991752861506
 20
141.3706200272853
 10
54.1245528362329
 20
141.4343543358076
 10
53.95953265362654
 20
141.4343543358076
 10
51.91521164405207
 20
141.5104909962585
 10
50.18818413798588
 20
143.0087640111961
 10
50.18818413798588
 20
145.7769000597183
 10
50.18818413798588
 20
148.5198868946074
 10
51.85147733552978
 20
150.2851549857869
 10
54.16279342134628
 20
150.2851549857869
 10
56.49925872079589
 20
150.2851549857869
 10
58.01062310721369
 20
148.4819908192698
 10
58.01062310721369
 20
145.9546671040291
 10
58.01062310721369
 20
143.7453259118483
 10
56.99431926861499
 20
142.3483387709948
 10
55.5721829141284
 20
141.8405313614712
 10
55.5721829141284
 20
141.8405313614712
 10
55.5721829141284
 20
141.7898884244292
 10
55.5721829141284
 20
141.7898884244292
 10
56.42312206034494
 20
141.573880795005
 10
57.34985335723663
 20
141.3706200272853
 10
58.07401290596018
 20
141.2438404297923
 10
58.07401290596018
 20
141.2438404297923
 10
57.75637489267611
 20
140.3167646231248
 10
57.75637489267611
 20
140.3167646231248
 97
        0
 92
        1
 93
        1
 72
     4
 94
        3
 73
     0
 74
     1
 95
       17
 96
       13
 40
0.0
 40
0.0
 40
0.0
 40
0.0
 40
1.0
 40
1.0
 40
1.0
 40
2.0
 40
2.0
 40
2.0
 40
3.0
 40
3.0
 40
3.0
 40
4.0
 40
4.0
 40
4.0
 40
4.0
 10
56.84204594771308
 20
145.8912773052826
 10
56.84204594771308
 20
147.6183048113488
 10
55.95321072615896
 20
149.3835729025284
 10
54.13729969793736
 20
149.3835729025284
 10
52.27074573267372
 20
149.3835729025284
 10
51.35641678771069
 20
147.6565453964622
 10
51.35641678771069
 20
145.8023937831272
 10
51.35641678771069
 20
143.9737358932011
 10
52.34688239312467
 20
142.3359364190661
 10
54.09905911282399
 20
142.3359364190661
 10
55.85158034229909
 20
142.3359364190661
 10
56.84204594771308
 20
143.948586679568
 10
56.84204594771308
 20
145.8912773052826
 97
        0
 75
     2
 76
     1
 98
        0
  0
SPLINE
  5
B8
330
B1
100
AcDbEntity
  8
Calque 1
370
     0
100
AcDbSpline
210
0.0
220
0.0
230
1.0
 70
    11
 71
     3
 72
    47
 73
    43
 74
     0
 42
0.0000000001
 43
0.0000000001
 40
0.0
 40
0.0
 40
0.0
 40
0.0
 40
1.0
 40
1.0
 40
1.0
 40
2.0
 40
2.0
 40
2.0
 40
3.0
 40
3.0
 40
3.0
 40
4.0
 40
4.0
 40
4.0
 40
5.0
 40
5.0
 40
5.0
 40
6.0
 40
6.0
 40
6.0
 40
7.0
 40
7.0
 40
7.0
 40
8.0
 40
8.0
 40
8.0
 40
9.0
 40
9.0
 40
9.0
 40
10.0
 40
10.0
 40
10.0
 40
11.0
 40
11.0
 40
11.0
 40
12.0
 40
12.0
 40
12.0
 40
13.0
 40
13.0
 40
13.0
 40
14.0
 40
14.0
 40
14.0
 40
14.0
 10
63.72569577789633
 20
143.0470045963094
 30
0.0
 10
63.72569577789633
 20
142.513703463377
 30
0.0
 10
63.75118950130525
 20
141.9928046823732
 30
0.0
 10
63.81457930005175
 20
141.573880795005
 30
0.0
 10
63.81457930005175
 20
141.573880795005
 30
0.0
 10
62.8113668329333
 20
141.573880795005
 30
0.0
 10
62.8113668329333
 20
141.573880795005
 30
0.0
 10
62.8113668329333
 20
141.573880795005
 30
0.0
 10
62.72248331077789
 20
142.3483387709948
 30
0.0
 10
62.72248331077789
 20
142.3483387709948
 30
0.0
 10
62.72248331077789
 20
142.3483387709948
 30
0.0
 10
62.68458723544031
 20
142.3483387709948
 30
0.0
 10
62.68458723544031
 20
142.3483387709948
 30
0.0
 10
62.34145549874733
 20
141.8660250848802
 30
0.0
 10
61.68137476832187
 20
141.4343543358076
 30
0.0
 10
60.80528640847221
 20
141.4343543358076
 30
0.0
 10
59.56057258852065
 20
141.4343543358076
 30
0.0
 10
58.92564107172831
 20
142.3104426956572
 30
0.0
 10
58.92564107172831
 20
143.1992779172113
 30
0.0
 10
58.92564107172831
 20
144.6851485802202
 30
0.0
 10
60.24649155213082
 20
145.4978471413234
 30
0.0
 10
62.62085292691802
 20
145.4851002796189
 30
0.0
 10
62.62085292691802
 20
145.4851002796189
 30
0.0
 10
62.62085292691802
 20
145.6118798771119
 30
0.0
 10
62.62085292691802
 20
145.6118798771119
 30
0.0
 10
62.62085292691802
 20
146.1072849347068
 30
0.0
 10
62.48132646772057
 20
147.0343607413743
 30
0.0
 10
61.22421029584035
 20
147.0216138796698
 30
0.0
 10
60.63992171609005
 20
147.0216138796698
 30
0.0
 10
60.04323078441109
 20
146.8565936970635
 30
0.0
 10
59.61156003533848
 20
146.5644494071883
 30
0.0
 10
59.61156003533848
 20
146.5644494071883
 30
0.0
 10
59.35765633057671
 20
147.3134136597692
 30
0.0
 10
59.35765633057671
 20
147.3134136597692
 30
0.0
 10
59.86546374010026
 20
147.6310516730533
 30
0.0
 10
60.61477250245693
 20
147.8470593024774
 30
0.0
 10
61.38923047844671
 20
147.8470593024774
 30
0.0
 10
63.26853130541482
 20
147.8470593024774
 30
0.0
 10
63.72569577789633
 20
146.5644494071883
 30
0.0
 10
63.72569577789633
 20
145.3452293106457
 30
0.0
 10
63.72569577789633
 20
145.3452293106457
 30
0.0
 10
63.72569577789633
 20
143.0470045963094
 30
0.0
 10
63.72569577789633
 20
143.0470045963094
 30
0.0
  0
SPLINE
  5
B9
330
B1
100
AcDbEntity
  8
Calque 1
370
     0
100
AcDbSpline
210
0.0
220
0.0
230
1.0
 70
    11
 71
     3
 72
    20
 73
    16
 74
     0
 42
0.0000000001
 43
0.0000000001
 40
0.0
 40
0.0
 40
0.0
 40
0.0
 40
1.0
 40
1.0
 40
1.0
 40
2.0
 40
2.0
 40
2.0
 40
3.0
 40
3.0
 40
3.0
 40
4.0
 40
4.0
 40
4.0
 40
5.0
 40
5.0
 40
5.0
 40
5.0
 10
62.64634665032693
 20
144.7102977938533
 30
0.0
 10
61.42747106356009
 20
144.7357915172622
 30
0.0
 10
60.04323078441109
 20
144.5197838878381
 30
0.0
 10
60.04323078441109
 20
143.3264020244801
 30
0.0
 10
60.04323078441109
 20
142.5898401238279
 30
0.0
 10
60.52588898030152
 20
142.2594552488394
 30
0.0
 10
61.08433932686711
 20
142.2594552488394
 30
0.0
 10
61.89703788797027
 20
142.2594552488394
 30
0.0
 10
62.41793666897408
 20
142.7676071681387
 30
0.0
 10
62.5957037132849
 20
143.2881614393667
 30
0.0
 10
62.63359978862248
 20
143.4152855466355
 30
0.0
 10
62.64634665032693
 20
143.5420651441285
 30
0.0
 10
62.64634665032693
 20
143.6436955279884
 30
0.0
 10
62.64634665032693
 20
143.6436955279884
 30
0.0
 10
62.64634665032693
 20
144.7102977938533
 30
0.0
 10
62.64634665032693
 20
144.7102977938533
 30
0.0
  0
HATCH
  5
BA
330
B1
100
AcDbEntity
  8
Calque 1
 62
   179
420
  1709851
100
AcDbHatch
 10
0.0
 20
0.0
 30
0.0
210
0.0
220
0.0
230
1.0
  2
SOLID
 70
     1
 71
     0
 91
        2
 92
        1
 93
        1
 72
     4
 94
        3
 73
     0
 74
     1
 95
       47
 96
       43
 40
0.0
 40
0.0
 40
0.0
 40
0.0
 40
1.0
 40
1.0
 40
1.0
 40
2.0
 40
2.0
 40
2.0
 40
3.0
 40
3.0
 40
3.0
 40
4.0
 40
4.0
 40
4.0
 40
5.0
 40
5.0
 40
5.0
 40
6.0
 40
6.0
 40
6.0
 40
7.0
 40
7.0
 40
7.0
 40
8.0
 40
8.0
 40
8.0
 40
9.0
 40
9.0
 40
9.0
 40
10.0
 40
10.0
 40
10.0
 40
11.0
 40
11.0
 40
11.0
 40
12.0
 40
12.0
 40
12.0
 40
13.0
 40
13.0
 40
13.0
 40
14.0
 40
14.0
 40
14.0
 40
14.0
 10
63.72569577789633
 20
143.0470045963094
 10
63.72569577789633
 20
142.513703463377
 10
63.75118950130525
 20
141.9928046823732
 10
63.81457930005175
 20
141.573880795005
 10
63.81457930005175
 20
141.573880795005
 10
62.8113668329333
 20
141.573880795005
 10
62.8113668329333
 20
141.573880795005
 10
62.8113668329333
 20
141.573880795005
 10
62.72248331077789
 20
142.3483387709948
 10
62.72248331077789
 20
142.3483387709948
 10
62.72248331077789
 20
142.3483387709948
 10
62.68458723544031
 20
142.3483387709948
 10
62.68458723544031
 20
142.3483387709948
 10
62.34145549874733
 20
141.8660250848802
 10
61.68137476832187
 20
141.4343543358076
 10
60.80528640847221
 20
141.4343543358076
 10
59.56057258852065
 20
141.4343543358076
 10
58.92564107172831
 20
142.3104426956572
 10
58.92564107172831
 20
143.1992779172113
 10
58.92564107172831
 20
144.6851485802202
 10
60.24649155213082
 20
145.4978471413234
 10
62.62085292691802
 20
145.4851002796189
 10
62.62085292691802
 20
145.4851002796189
 10
62.62085292691802
 20
145.6118798771119
 10
62.62085292691802
 20
145.6118798771119
 10
62.62085292691802
 20
146.1072849347068
 10
62.48132646772057
 20
147.0343607413743
 10
61.22421029584035
 20
147.0216138796698
 10
60.63992171609005
 20
147.0216138796698
 10
60.04323078441109
 20
146.8565936970635
 10
59.61156003533848
 20
146.5644494071883
 10
59.61156003533848
 20
146.5644494071883
 10
59.35765633057671
 20
147.3134136597692
 10
59.35765633057671
 20
147.3134136597692
 10
59.86546374010026
 20
147.6310516730533
 10
60.61477250245693
 20
147.8470593024774
 10
61.38923047844671
 20
147.8470593024774
 10
63.26853130541482
 20
147.8470593024774
 10
63.72569577789633
 20
146.5644494071883
 10
63.72569577789633
 20
145.3452293106457
 10
63.72569577789633
 20
145.3452293106457
 10
63.72569577789633
 20
143.0470045963094
 10
63.72569577789633
 20
143.0470045963094
 97
        0
 92
        1
 93
        1
 72
     4
 94
        3
 73
     0
 74
     1
 95
       20
 96
       16
 40
0.0
 40
0.0
 40
0.0
 40
0.0
 40
1.0
 40
1.0
 40
1.0
 40
2.0
 40
2.0
 40
2.0
 40
3.0
 40
3.0
 40
3.0
 40
4.0
 40
4.0
 40
4.0
 40
5.0
 40
5.0
 40
5.0
 40
5.0
 10
62.64634665032693
 20
144.7102977938533
 10
61.42747106356009
 20
144.7357915172622
 10
60.04323078441109
 20
144.5197838878381
 10
60.04323078441109
 20
143.3264020244801
 10
60.04323078441109
 20
142.5898401238279
 10
60.52588898030152
 20
142.2594552488394
 10
61.08433932686711
 20
142.2594552488394
 10
61.89703788797027
 20
142.2594552488394
 10
62.41793666897408
 20
142.7676071681387
 10
62.5957037132849
 20
143.2881614393667
 10
62.63359978862248
 20
143.4152855466355
 10
62.64634665032693
 20
143.5420651441285
 10
62.64634665032693
 20
143.6436955279884
 10
62.64634665032693
 20
143.6436955279884
 10
62.64634665032693
 20
144.7102977938533
 10
62.64634665032693
 20
144.7102977938533
 97
        0
 75
     2
 76
     1
 98
        0
  0
SPLINE
  5
BB
330
B1
100
AcDbEntity
  8
Calque 1
370
     0
100
AcDbSpline
210
0.0
220
0.0
230
1.0
 70
    11
 71
     3
 72
    80
 73
    76
 74
     0
 42
0.0000000001
 43
0.0000000001
 40
0.0
 40
0.0
 40
0.0
 40
0.0
 40
1.0
 40
1.0
 40
1.0
 40
2.0
 40
2.0
 40
2.0
 40
3.0
 40
3.0
 40
3.0
 40
4.0
 40
4.0
 40
4.0
 40
5.0
 40
5.0
 40
5.0
 40
6.0
 40
6.0
 40
6.0
 40
7.0
 40
7.0
 40
7.0
 40
8.0
 40
8.0
 40
8.0
 40
9.0
 40
9.0
 40
9.0
 40
10.0
 40
10.0
 40
10.0
 40
11.0
 40
11.0
 40
11.0
 40
12.0
 40
12.0
 40
12.0
 40
13.0
 40
13.0
 40
13.0
 40
14.0
 40
14.0
 40
14.0
 40
15.0
 40
15.0
 40
15.0
 40
16.0
 40
16.0
 40
16.0
 40
17.0
 40
17.0
 40
17.0
 40
18.0
 40
18.0
 40
18.0
 40
19.0
 40
19.0
 40
19.0
 40
20.0
 40
20.0
 40
20.0
 40
21.0
 40
21.0
 40
21.0
 40
22.0
 40
22.0
 40
22.0
 40
23.0
 40
23.0
 40
23.0
 40
24.0
 40
24.0
 40
24.0
 40
25.0
 40
25.0
 40
25.0
 40
25.0
 10
65.52954896396507
 20
146.056297487889
 30
0.0
 10
65.52954896396507
 20
146.7039758663858
 30
0.0
 10
65.50439975033196
 20
147.2121277856851
 30
0.0
 10
65.47890602692304
 20
147.7199351952087
 30
0.0
 10
65.47890602692304
 20
147.7199351952087
 30
0.0
 10
66.45662477063256
 20
147.7199351952087
 30
0.0
 10
66.45662477063256
 20
147.7199351952087
 30
0.0
 10
66.45662477063256
 20
147.7199351952087
 30
0.0
 10
66.5076122174504
 20
146.7167227280902
 30
0.0
 10
66.5076122174504
 20
146.7167227280902
 30
0.0
 10
66.5076122174504
 20
146.7167227280902
 30
0.0
 10
66.54550829278797
 20
146.7167227280902
 30
0.0
 10
66.54550829278797
 20
146.7167227280902
 30
0.0
 10
66.88829551970517
 20
147.3010113078405
 30
0.0
 10
67.459837237751
 20
147.8470593024774
 30
0.0
 10
68.48854342827836
 20
147.8470593024774
 30
0.0
 10
69.31398885108598
 20
147.8470593024774
 30
0.0
 10
69.94892036787833
 20
147.3389073831781
 30
0.0
 10
70.21557093434456
 20
146.6150923442304
 30
0.0
 10
70.21557093434456
 20
146.6150923442304
 30
0.0
 10
70.24072014797768
 20
146.6150923442304
 30
0.0
 10
70.24072014797768
 20
146.6150923442304
 30
0.0
 10
70.43123405399297
 20
146.970626432852
 30
0.0
 10
70.68513775875473
 20
147.2245301376138
 30
0.0
 10
70.93938597329232
 20
147.4150440436291
 30
0.0
 10
71.30732241384263
 20
147.6944414717998
 30
0.0
 10
71.70109708757764
 20
147.8470593024774
 30
0.0
 10
72.28538566732794
 20
147.8470593024774
 30
0.0
 10
73.11083109013556
 20
147.8470593024774
 30
0.0
 10
74.31695981519795
 20
147.3134136597692
 30
0.0
 10
74.31695981519795
 20
145.1802091280393
 30
0.0
 10
74.31695981519795
 20
145.1802091280393
 30
0.0
 10
74.31695981519795
 20
141.573880795005
 30
0.0
 10
74.31695981519795
 20
141.573880795005
 30
0.0
 10
74.31695981519795
 20
141.573880795005
 30
0.0
 10
73.22486382592409
 20
141.573880795005
 30
0.0
 10
73.22486382592409
 20
141.573880795005
 30
0.0
 10
73.22486382592409
 20
141.573880795005
 30
0.0
 10
73.22486382592409
 20
145.0406826688419
 30
0.0
 10
73.22486382592409
 20
145.0406826688419
 30
0.0
 10
73.22486382592409
 20
146.2340645321998
 30
0.0
 10
72.78044621514704
 20
146.9327303575144
 30
0.0
 10
71.89161099359292
 20
146.9327303575144
 30
0.0
 10
71.24393261509613
 20
146.9327303575144
 30
0.0
 10
70.76161892898149
 20
146.4628190233284
 30
0.0
 10
70.55835816126175
 20
145.929517890396
 30
0.0
 10
70.50737071444392
 20
145.7644977077896
 30
0.0
 10
70.46947463910634
 20
145.5739838017743
 30
0.0
 10
70.46947463910634
 20
145.3707230340546
 30
0.0
 10
70.46947463910634
 20
145.3707230340546
 30
0.0
 10
70.46947463910634
 20
141.573880795005
 30
0.0
 10
70.46947463910634
 20
141.573880795005
 30
0.0
 10
70.46947463910634
 20
141.573880795005
 30
0.0
 10
69.37737864983248
 20
141.573880795005
 30
0.0
 10
69.37737864983248
 20
141.573880795005
 30
0.0
 10
69.37737864983248
 20
141.573880795005
 30
0.0
 10
69.37737864983248
 20
145.2563457884903
 30
0.0
 10
69.37737864983248
 20
145.2563457884903
 30
0.0
 10
69.37737864983248
 20
146.2340645321998
 30
0.0
 10
68.94570790075988
 20
146.9327303575144
 30
0.0
 10
68.09476875454335
 20
146.9327303575144
 30
0.0
 10
67.40919430070898
 20
146.9327303575144
 30
0.0
 10
66.88829551970517
 20
146.373935501173
 30
0.0
 10
66.71052847539434
 20
145.8151406448316
 30
0.0
 10
66.64713867664784
 20
145.6628673239297
 30
0.0
 10
66.62164495323893
 20
145.45960655621
 30
0.0
 10
66.62164495323893
 20
145.2690926501947
 30
0.0
 10
66.62164495323893
 20
145.2690926501947
 30
0.0
 10
66.62164495323893
 20
141.573880795005
 30
0.0
 10
66.62164495323893
 20
141.573880795005
 30
0.0
 10
66.62164495323893
 20
141.573880795005
 30
0.0
 10
65.52954896396507
 20
141.573880795005
 30
0.0
 10
65.52954896396507
 20
141.573880795005
 30
0.0
 10
65.52954896396507
 20
141.573880795005
 30
0.0
 10
65.52954896396507
 20
146.056297487889
 30
0.0
 10
65.52954896396507
 20
146.056297487889
 30
0.0
  0
HATCH
  5
BC
330
B1
100
AcDbEntity
  8
Calque 1
 62
   179
420
  1709851
100
AcDbHatch
 10
0.0
 20
0.0
 30
0.0
210
0.0
220
0.0
230
1.0
  2
SOLID
 70
     1
 71
     0
 91
        1
 92
        1
 93
        1
 72
     4
 94
        3
 73
     0
 74
     1
 95
       80
 96
       76
 40
0.0
 40
0.0
 40
0.0
 40
0.0
 40
1.0
 40
1.0
 40
1.0
 40
2.0
 40
2.0
 40
2.0
 40
3.0
 40
3.0
 40
3.0
 40
4.0
 40
4.0
 40
4.0
 40
5.0
 40
5.0
 40
5.0
 40
6.0
 40
6.0
 40
6.0
 40
7.0
 40
7.0
 40
7.0
 40
8.0
 40
8.0
 40
8.0
 40
9.0
 40
9.0
 40
9.0
 40
10.0
 40
10.0
 40
10.0
 40
11.0
 40
11.0
 40
11.0
 40
12.0
 40
12.0
 40
12.0
 40
13.0
 40
13.0
 40
13.0
 40
14.0
 40
14.0
 40
14.0
 40
15.0
 40
15.0
 40
15.0
 40
16.0
 40
16.0
 40
16.0
 40
17.0
 40
17.0
 40
17.0
 40
18.0
 40
18.0
 40
18.0
 40
19.0
 40
19.0
 40
19.0
 40
20.0
 40
20.0
 40
20.0
 40
21.0
 40
21.0
 40
21.0
 40
22.0
 40
22.0
 40
22.0
 40
23.0
 40
23.0
 40
23.0
 40
24.0
 40
24.0
 40
24.0
 40
25.0
 40
25.0
 40
25.0
 40
25.0
 10
65.52954896396507
 20
146.056297487889
 10
65.52954896396507
 20
146.7039758663858
 10
65.50439975033196
 20
147.2121277856851
 10
65.47890602692304
 20
147.7199351952087
 10
65.47890602692304
 20
147.7199351952087
 10
66.45662477063256
 20
147.7199351952087
 10
66.45662477063256
 20
147.7199351952087
 10
66.45662477063256
 20
147.7199351952087
 10
66.5076122174504
 20
146.7167227280902
 10
66.5076122174504
 20
146.7167227280902
 10
66.5076122174504
 20
146.7167227280902
 10
66.54550829278797
 20
146.7167227280902
 10
66.54550829278797
 20
146.7167227280902
 10
66.88829551970517
 20
147.3010113078405
 10
67.459837237751
 20
147.8470593024774
 10
68.48854342827836
 20
147.8470593024774
 10
69.31398885108598
 20
147.8470593024774
 10
69.94892036787833
 20
147.3389073831781
 10
70.21557093434456
 20
146.6150923442304
 10
70.21557093434456
 20
146.6150923442304
 10
70.24072014797768
 20
146.6150923442304
 10
70.24072014797768
 20
146.6150923442304
 10
70.43123405399297
 20
146.970626432852
 10
70.68513775875473
 20
147.2245301376138
 10
70.93938597329232
 20
147.4150440436291
 10
71.30732241384263
 20
147.6944414717998
 10
71.70109708757764
 20
147.8470593024774
 10
72.28538566732794
 20
147.8470593024774
 10
73.11083109013556
 20
147.8470593024774
 10
74.31695981519795
 20
147.3134136597692
 10
74.31695981519795
 20
145.1802091280393
 10
74.31695981519795
 20
145.1802091280393
 10
74.31695981519795
 20
141.573880795005
 10
74.31695981519795
 20
141.573880795005
 10
74.31695981519795
 20
141.573880795005
 10
73.22486382592409
 20
141.573880795005
 10
73.22486382592409
 20
141.573880795005
 10
73.22486382592409
 20
141.573880795005
 10
73.22486382592409
 20
145.0406826688419
 10
73.22486382592409
 20
145.0406826688419
 10
73.22486382592409
 20
146.2340645321998
 10
72.78044621514704
 20
146.9327303575144
 10
71.89161099359292
 20
146.9327303575144
 10
71.24393261509613
 20
146.9327303575144
 10
70.76161892898149
 20
146.4628190233284
 10
70.55835816126175
 20
145.929517890396
 10
70.50737071444392
 20
145.7644977077896
 10
70.46947463910634
 20
145.5739838017743
 10
70.46947463910634
 20
145.3707230340546
 10
70.46947463910634
 20
145.3707230340546
 10
70.46947463910634
 20
141.573880795005
 10
70.46947463910634
 20
141.573880795005
 10
70.46947463910634
 20
141.573880795005
 10
69.37737864983248
 20
141.573880795005
 10
69.37737864983248
 20
141.573880795005
 10
69.37737864983248
 20
141.573880795005
 10
69.37737864983248
 20
145.2563457884903
 10
69.37737864983248
 20
145.2563457884903
 10
69.37737864983248
 20
146.2340645321998
 10
68.94570790075988
 20
146.9327303575144
 10
68.09476875454335
 20
146.9327303575144
 10
67.40919430070898
 20
146.9327303575144
 10
66.88829551970517
 20
146.373935501173
 10
66.71052847539434
 20
145.8151406448316
 10
66.64713867664784
 20
145.6628673239297
 10
66.62164495323893
 20
145.45960655621
 10
66.62164495323893
 20
145.2690926501947
 10
66.62164495323893
 20
145.2690926501947
 10
66.62164495323893
 20
141.573880795005
 10
66.62164495323893
 20
141.573880795005
 10
66.62164495323893
 20
141.573880795005
 10
65.52954896396507
 20
141.573880795005
 10
65.52954896396507
 20
141.573880795005
 10
65.52954896396507
 20
141.573880795005
 10
65.52954896396507
 20
146.056297487889
 10
65.52954896396507
 20
146.056297487889
 97
        0
 75
     2
 76
     1
 98
        0
  0
SPLINE
  5
BD
330
B1
100
AcDbEntity
  8
Calque 1
370
     0
100
AcDbSpline
210
0.0
220
0.0
230
1.0
 70
    11
 71
     3
 72
    32
 73
    28
 74
     0
 42
0.0000000001
 43
0.0000000001
 40
0.0
 40
0.0
 40
0.0
 40
0.0
 40
1.0
 40
1.0
 40
1.0
 40
2.0
 40
2.0
 40
2.0
 40
3.0
 40
3.0
 40
3.0
 40
4.0
 40
4.0
 40
4.0
 40
5.0
 40
5.0
 40
5.0
 40
6.0
 40
6.0
 40
6.0
 40
7.0
 40
7.0
 40
7.0
 40
8.0
 40
8.0
 40
8.0
 40
9.0
 40
9.0
 40
9.0
 40
9.0
 10
76.74368667590616
 20
144.4436472273871
 30
0.0
 10
76.76918039931508
 20
142.9326273507451
 30
0.0
 10
77.72140541961569
 20
142.3104426956572
 30
0.0
 10
78.85174199400292
 20
142.3104426956572
 30
0.0
 10
79.65169369340163
 20
142.3104426956572
 30
0.0
 10
80.14675424122072
 20
142.4499691548547
 30
0.0
 10
80.5532757766602
 20
142.6277361991655
 30
0.0
 10
80.5532757766602
 20
142.6277361991655
 30
0.0
 10
80.75653654437994
 20
141.8277844997668
 30
0.0
 10
80.75653654437994
 20
141.8277844997668
 30
0.0
 10
80.36276187064492
 20
141.650017455456
 30
0.0
 10
79.67718741681054
 20
141.4343543358076
 30
0.0
 10
78.69912416332522
 20
141.4343543358076
 30
0.0
 10
76.80707647465266
 20
141.4343543358076
 30
0.0
 10
75.67708441004123
 20
142.6914705076878
 30
0.0
 10
75.67708441004123
 20
144.545277611247
 30
0.0
 10
75.67708441004123
 20
146.399429224582
 30
0.0
 10
76.76918039931508
 20
147.8470593024774
 30
0.0
 10
78.55959770412777
 20
147.8470593024774
 30
0.0
 10
80.57876950006911
 20
147.8470593024774
 30
0.0
 10
81.09932377129712
 20
146.0945380730024
 30
0.0
 10
81.09932377129712
 20
144.9642014986151
 30
0.0
 10
81.09932377129712
 20
144.7357915172622
 30
0.0
 10
81.08657690959267
 20
144.5707713346559
 30
0.0
 10
81.06108318618375
 20
144.4436472273871
 30
0.0
 10
81.06108318618375
 20
144.4436472273871
 30
0.0
 10
76.74368667590616
 20
144.4436472273871
 30
0.0
 10
76.74368667590616
 20
144.4436472273871
 30
0.0
  0
SPLINE
  5
BE
330
B1
100
AcDbEntity
  8
Calque 1
370
     0
100
AcDbSpline
210
0.0
220
0.0
230
1.0
 70
    11
 71
     3
 72
    14
 73
    10
 74
     0
 42
0.0000000001
 43
0.0000000001
 40
0.0
 40
0.0
 40
0.0
 40
0.0
 40
1.0
 40
1.0
 40
1.0
 40
2.0
 40
2.0
 40
2.0
 40
3.0
 40
3.0
 40
3.0
 40
3.0
 10
80.01997464372774
 20
145.2435989267858
 30
0.0
 10
80.03272150543219
 20
145.9422647521004
 30
0.0
 10
79.72783035385258
 20
147.046763093303
 30
0.0
 10
78.47071418197235
 20
147.046763093303
 30
0.0
 10
77.32797525565647
 20
147.046763093303
 30
0.0
 10
76.84531705976603
 20
146.0184014125514
 30
0.0
 10
76.75643353761062
 20
145.2435989267858
 30
0.0
 10
76.75643353761062
 20
145.2435989267858
 30
0.0
 10
80.01997464372774
 20
145.2435989267858
 30
0.0
 10
80.01997464372774
 20
145.2435989267858
 30
0.0
  0
HATCH
  5
BF
330
B1
100
AcDbEntity
  8
Calque 1
 62
   179
420
  1709851
100
AcDbHatch
 10
0.0
 20
0.0
 30
0.0
210
0.0
220
0.0
230
1.0
  2
SOLID
 70
     1
 71
     0
 91
        2
 92
        1
 93
        1
 72
     4
 94
        3
 73
     0
 74
     1
 95
       32
 96
       28
 40
0.0
 40
0.0
 40
0.0
 40
0.0
 40
1.0
 40
1.0
 40
1.0
 40
2.0
 40
2.0
 40
2.0
 40
3.0
 40
3.0
 40
3.0
 40
4.0
 40
4.0
 40
4.0
 40
5.0
 40
5.0
 40
5.0
 40
6.0
 40
6.0
 40
6.0
 40
7.0
 40
7.0
 40
7.0
 40
8.0
 40
8.0
 40
8.0
 40
9.0
 40
9.0
 40
9.0
 40
9.0
 10
76.74368667590616
 20
144.4436472273871
 10
76.76918039931508
 20
142.9326273507451
 10
77.72140541961569
 20
142.3104426956572
 10
78.85174199400292
 20
142.3104426956572
 10
79.65169369340163
 20
142.3104426956572
 10
80.14675424122072
 20
142.4499691548547
 10
80.5532757766602
 20
142.6277361991655
 10
80.5532757766602
 20
142.6277361991655
 10
80.75653654437994
 20
141.8277844997668
 10
80.75653654437994
 20
141.8277844997668
 10
80.36276187064492
 20
141.650017455456
 10
79.67718741681054
 20
141.4343543358076
 10
78.69912416332522
 20
141.4343543358076
 10
76.80707647465266
 20
141.4343543358076
 10
75.67708441004123
 20
142.6914705076878
 10
75.67708441004123
 20
144.545277611247
 10
75.67708441004123
 20
146.399429224582
 10
76.76918039931508
 20
147.8470593024774
 10
78.55959770412777
 20
147.8470593024774
 10
80.57876950006911
 20
147.8470593024774
 10
81.09932377129712
 20
146.0945380730024
 10
81.09932377129712
 20
144.9642014986151
 10
81.09932377129712
 20
144.7357915172622
 10
81.08657690959267
 20
144.5707713346559
 10
81.06108318618375
 20
144.4436472273871
 10
81.06108318618375
 20
144.4436472273871
 10
76.74368667590616
 20
144.4436472273871
 10
76.74368667590616
 20
144.4436472273871
 97
        0
 92
        1
 93
        1
 72
     4
 94
        3
 73
     0
 74
     1
 95
       14
 96
       10
 40
0.0
 40
0.0
 40
0.0
 40
0.0
 40
1.0
 40
1.0
 40
1.0
 40
2.0
 40
2.0
 40
2.0
 40
3.0
 40
3.0
 40
3.0
 40
3.0
 10
80.01997464372774
 20
145.2435989267858
 10
80.03272150543219
 20
145.9422647521004
 10
79.72783035385258
 20
147.046763093303
 10
78.47071418197235
 20
147.046763093303
 10
77.32797525565647
 20
147.046763093303
 10
76.84531705976603
 20
146.0184014125514
 10
76.75643353761062
 20
145.2435989267858
 10
76.75643353761062
 20
145.2435989267858
 10
80.01997464372774
 20
145.2435989267858
 10
80.01997464372774
 20
145.2435989267858
 97
        0
 75
     2
 76
     1
 98
        0
  0
POLYLINE
  5
C0
330
B1
100
AcDbEntity
  8
Calque 1
370
     0
100
AcDb2dPolyline
 66
     1
 10
0.0
 20
0.0
 30
0.0
  0
VERTEX
  5
C1
330
C0
100
AcDbEntity
  8
Calque 1
370
     0
100
AcDbVertex
100
AcDb2dVertex
 10
82.48390856022193
 20
150.5897016275908
 30
0.0
  0
VERTEX
  5
C2
330
C0
100
AcDbEntity
  8
Calque 1
370
     0
100
AcDbVertex
100
AcDb2dVertex
 10
83.60184278268049
 20
150.5897016275908
 30
0.0
  0
VERTEX
  5
C3
330
C0
100
AcDbEntity
  8
Calque 1
370
     0
100
AcDbVertex
100
AcDb2dVertex
 10
83.60184278268049
 20
141.573880795005
 30
0.0
  0
VERTEX
  5
C4
330
C0
100
AcDbEntity
  8
Calque 1
370
     0
100
AcDbVertex
100
AcDb2dVertex
 10
82.48390856022193
 20
141.573880795005
 30
0.0
  0
VERTEX
  5
C5
330
C0
100
AcDbEntity
  8
Calque 1
370
     0
100
AcDbVertex
100
AcDb2dVertex
 10
82.48390856022193
 20
150.5897016275908
 30
0.0
  0
SEQEND
  5
C6
330
C0
100
AcDbEntity
  8
Calque 1
370
     0
  0
HATCH
  5
C7
330
B1
100
AcDbEntity
  8
Calque 1
 62
   179
420
  1709851
100
AcDbHatch
 10
0.0
 20
0.0
 30
0.0
210
0.0
220
0.0
230
1.0
  2
SOLID
 70
     1
 71
     0
 91
        1
 92
        1
 93
        4
 72
     1
 10
82.48390856022193
 20
150.5897016275908
 11
83.60184278268049
 21
150.5897016275908
 72
     1
 10
83.60184278268049
 20
150.5897016275908
 11
83.60184278268049
 21
141.573880795005
 72
     1
 10
83.60184278268049
 20
141.573880795005
 11
82.48390856022193
 21
141.573880795005
 72
     1
 10
82.48390856022193
 20
141.573880795005
 11
82.48390856022193
 21
150.5897016275908
 97
        0
 75
     2
 76
     1
 98
        0
  0
SPLINE
  5
C8
330
B1
100
AcDbEntity
  8
Calque 1
370
     0
100
AcDbSpline
210
0.0
220
0.0
230
1.0
 70
    11
 71
     3
 72
    32
 73
    28
 74
     0
 42
0.0000000001
 43
0.0000000001
 40
0.0
 40
0.0
 40
0.0
 40
0.0
 40
1.0
 40
1.0
 40
1.0
 40
2.0
 40
2.0
 40
2.0
 40
3.0
 40
3.0
 40
3.0
 40
4.0
 40
4.0
 40
4.0
 40
5.0
 40
5.0
 40
5.0
 40
6.0
 40
6.0
 40
6.0
 40
7.0
 40
7.0
 40
7.0
 40
8.0
 40
8.0
 40
8.0
 40
9.0
 40
9.0
 40
9.0
 40
9.0
 10
86.10367277451228
 20
144.4436472273871
 30
0.0
 10
86.12916649792119
 20
142.9326273507451
 30
0.0
 10
87.0813915182218
 20
142.3104426956572
 30
0.0
 10
88.21172809260904
 20
142.3104426956572
 30
0.0
 10
89.01167979200774
 20
142.3104426956572
 30
0.0
 10
89.50674033982683
 20
142.4499691548547
 30
0.0
 10
89.91326187526631
 20
142.6277361991655
 30
0.0
 10
89.91326187526631
 20
142.6277361991655
 30
0.0
 10
90.11652264298606
 20
141.8277844997668
 30
0.0
 10
90.11652264298606
 20
141.8277844997668
 30
0.0
 10
89.72274796925103
 20
141.650017455456
 30
0.0
 10
89.03717351541665
 20
141.4343543358076
 30
0.0
 10
88.05911026193134
 20
141.4343543358076
 30
0.0
 10
86.16706257325878
 20
141.4343543358076
 30
0.0
 10
85.03707050864733
 20
142.6914705076878
 30
0.0
 10
85.03707050864733
 20
144.545277611247
 30
0.0
 10
85.03707050864733
 20
146.399429224582
 30
0.0
 10
86.12916649792119
 20
147.8470593024774
 30
0.0
 10
87.91958380273388
 20
147.8470593024774
 30
0.0
 10
89.93875559867523
 20
147.8470593024774
 30
0.0
 10
90.45930986990324
 20
146.0945380730024
 30
0.0
 10
90.45930986990324
 20
144.9642014986151
 30
0.0
 10
90.45930986990324
 20
144.7357915172622
 30
0.0
 10
90.44656300819878
 20
144.5707713346559
 30
0.0
 10
90.42106928478987
 20
144.4436472273871
 30
0.0
 10
90.42106928478987
 20
144.4436472273871
 30
0.0
 10
86.10367277451228
 20
144.4436472273871
 30
0.0
 10
86.10367277451228
 20
144.4436472273871
 30
0.0
  0
SPLINE
  5
C9
330
B1
100
AcDbEntity
  8
Calque 1
370
     0
100
AcDbSpline
210
0.0
220
0.0
230
1.0
 70
    11
 71
     3
 72
    14
 73
    10
 74
     0
 42
0.0000000001
 43
0.0000000001
 40
0.0
 40
0.0
 40
0.0
 40
0.0
 40
1.0
 40
1.0
 40
1.0
 40
2.0
 40
2.0
 40
2.0
 40
3.0
 40
3.0
 40
3.0
 40
3.0
 10
89.37996074233384
 20
145.2435989267858
 30
0.0
 10
89.3927076040383
 20
145.9422647521004
 30
0.0
 10
89.0878164524587
 20
147.046763093303
 30
0.0
 10
87.83070028057847
 20
147.046763093303
 30
0.0
 10
86.68796135426258
 20
147.046763093303
 30
0.0
 10
86.20530315837215
 20
146.0184014125514
 30
0.0
 10
86.11641963621673
 20
145.2435989267858
 30
0.0
 10
86.11641963621673
 20
145.2435989267858
 30
0.0
 10
89.37996074233384
 20
145.2435989267858
 30
0.0
 10
89.37996074233384
 20
145.2435989267858
 30
0.0
  0
HATCH
  5
CA
330
B1
100
AcDbEntity
  8
Calque 1
 62
   179
420
  1709851
100
AcDbHatch
 10
0.0
 20
0.0
 30
0.0
210
0.0
220
0.0
230
1.0
  2
SOLID
 70
     1
 71
     0
 91
        2
 92
        1
 93
        1
 72
     4
 94
        3
 73
     0
 74
     1
 95
       32
 96
       28
 40
0.0
 40
0.0
 40
0.0
 40
0.0
 40
1.0
 40
1.0
 40
1.0
 40
2.0
 40
2.0
 40
2.0
 40
3.0
 40
3.0
 40
3.0
 40
4.0
 40
4.0
 40
4.0
 40
5.0
 40
5.0
 40
5.0
 40
6.0
 40
6.0
 40
6.0
 40
7.0
 40
7.0
 40
7.0
 40
8.0
 40
8.0
 40
8.0
 40
9.0
 40
9.0
 40
9.0
 40
9.0
 10
86.10367277451228
 20
144.4436472273871
 10
86.12916649792119
 20
142.9326273507451
 10
87.0813915182218
 20
142.3104426956572
 10
88.21172809260904
 20
142.3104426956572
 10
89.01167979200774
 20
142.3104426956572
 10
89.50674033982683
 20
142.4499691548547
 10
89.91326187526631
 20
142.6277361991655
 10
89.91326187526631
 20
142.6277361991655
 10
90.11652264298606
 20
141.8277844997668
 10
90.11652264298606
 20
141.8277844997668
 10
89.72274796925103
 20
141.650017455456
 10
89.03717351541665
 20
141.4343543358076
 10
88.05911026193134
 20
141.4343543358076
 10
86.16706257325878
 20
141.4343543358076
 10
85.03707050864733
 20
142.6914705076878
 10
85.03707050864733
 20
144.545277611247
 10
85.03707050864733
 20
146.399429224582
 10
86.12916649792119
 20
147.8470593024774
 10
87.91958380273388
 20
147.8470593024774
 10
89.93875559867523
 20
147.8470593024774
 10
90.45930986990324
 20
146.0945380730024
 10
90.45930986990324
 20
144.9642014986151
 10
90.45930986990324
 20
144.7357915172622
 10
90.44656300819878
 20
144.5707713346559
 10
90.42106928478987
 20
144.4436472273871
 10
90.42106928478987
 20
144.4436472273871
 10
86.10367277451228
 20
144.4436472273871
 10
86.10367277451228
 20
144.4436472273871
 97
        0
 92
        1
 93
        1
 72
     4
 94
        3
 73
     0
 74
     1
 95
       14
 96
       10
 40
0.0
 40
0.0
 40
0.0
 40
0.0
 40
1.0
 40
1.0
 40
1.0
 40
2.0
 40
2.0
 40
2.0
 40
3.0
 40
3.0
 40
3.0
 40
3.0
 10
89.37996074233384
 20
145.2435989267858
 10
89.3927076040383
 20
145.9422647521004
 10
89.0878164524587
 20
147.046763093303
 10
87.83070028057847
 20
147.046763093303
 10
86.68796135426258
 20
147.046763093303
 10
86.20530315837215
 20
146.0184014125514
 10
86.11641963621673
 20
145.2435989267858
 10
86.11641963621673
 20
145.2435989267858
 10
89.37996074233384
 20
145.2435989267858
 10
89.37996074233384
 20
145.2435989267858
 97
        0
 75
     2
 76
     1
 98
        0
  0
SPLINE
  5
CB
330
B1
100
AcDbEntity
  8
Calque 1
370
     0
100
AcDbSpline
210
0.0
220
0.0
230
1.0
 70
    11
 71
     3
 72
    17
 73
    13
 74
     0
 42
0.0000000001
 43
0.0000000001
 40
0.0
 40
0.0
 40
0.0
 40
0.0
 40
1.0
 40
1.0
 40
1.0
 40
2.0
 40
2.0
 40
2.0
 40
3.0
 40
3.0
 40
3.0
 40
4.0
 40
4.0
 40
4.0
 40
4.0
 10
97.40600498905718
 20
144.6975509321489
 30
0.0
 10
97.40600498905718
 20
142.4248199412216
 30
0.0
 10
95.81850394218844
 20
141.4343543358076
 30
0.0
 10
94.34572465065982
 20
141.4343543358076
 30
0.0
 10
92.69483380504458
 20
141.4343543358076
 30
0.0
 10
91.39947704805098
 20
142.6532299225744
 30
0.0
 10
91.39947704805098
 20
144.5962650580648
 30
0.0
 10
91.39947704805098
 20
146.6405860676393
 30
0.0
 10
92.75822360379108
 20
147.8470593024774
 30
0.0
 10
94.44735503451969
 20
147.8470593024774
 30
0.0
 10
96.21227861592347
 20
147.8470593024774
 30
0.0
 10
97.40600498905718
 20
146.5644494071883
 30
0.0
 10
97.40600498905718
 20
144.6975509321489
 30
0.0
  0
SPLINE
  5
CC
330
B1
100
AcDbEntity
  8
Calque 1
370
     0
100
AcDbSpline
210
0.0
220
0.0
230
1.0
 70
    11
 71
     3
 72
    17
 73
    13
 74
     0
 42
0.0000000001
 43
0.0000000001
 40
0.0
 40
0.0
 40
0.0
 40
0.0
 40
1.0
 40
1.0
 40
1.0
 40
2.0
 40
2.0
 40
2.0
 40
3.0
 40
3.0
 40
3.0
 40
4.0
 40
4.0
 40
4.0
 40
4.0
 10
92.54256048414267
 20
144.6341611334024
 30
0.0
 10
92.54256048414267
 20
143.2881614393667
 30
0.0
 10
93.304271598428
 20
142.2722021105438
 30
0.0
 10
94.39636758770186
 20
142.2722021105438
 30
0.0
 10
95.46296985356679
 20
142.2722021105438
 30
0.0
 10
96.2632660627413
 20
143.2754145776623
 30
0.0
 10
96.2632660627413
 20
144.6596548568113
 30
0.0
 10
96.2632660627413
 20
145.7007633992673
 30
0.0
 10
95.74236728173749
 20
147.0088670179654
 30
0.0
 10
94.42186131111077
 20
147.0088670179654
 30
0.0
 10
93.11375769241272
 20
147.0088670179654
 30
0.0
 10
92.54256048414267
 20
145.7896469214227
 30
0.0
 10
92.54256048414267
 20
144.6341611334024
 30
0.0
  0
HATCH
  5
CD
330
B1
100
AcDbEntity
  8
Calque 1
 62
   179
420
  1709851
100
AcDbHatch
 10
0.0
 20
0.0
 30
0.0
210
0.0
220
0.0
230
1.0
  2
SOLID
 70
     1
 71
     0
 91
        2
 92
        1
 93
        1
 72
     4
 94
        3
 73
     0
 74
     1
 95
       17
 96
       13
 40
0.0
 40
0.0
 40
0.0
 40
0.0
 40
1.0
 40
1.0
 40
1.0
 40
2.0
 40
2.0
 40
2.0
 40
3.0
 40
3.0
 40
3.0
 40
4.0
 40
4.0
 40
4.0
 40
4.0
 10
97.40600498905718
 20
144.6975509321489
 10
97.40600498905718
 20
142.4248199412216
 10
95.81850394218844
 20
141.4343543358076
 10
94.34572465065982
 20
141.4343543358076
 10
92.69483380504458
 20
141.4343543358076
 10
91.39947704805098
 20
142.6532299225744
 10
91.39947704805098
 20
144.5962650580648
 10
91.39947704805098
 20
146.6405860676393
 10
92.75822360379108
 20
147.8470593024774
 10
94.44735503451969
 20
147.8470593024774
 10
96.21227861592347
 20
147.8470593024774
 10
97.40600498905718
 20
146.5644494071883
 10
97.40600498905718
 20
144.6975509321489
 97
        0
 92
        1
 93
        1
 72
     4
 94
        3
 73
     0
 74
     1
 95
       17
 96
       13
 40
0.0
 40
0.0
 40
0.0
 40
0.0
 40
1.0
 40
1.0
 40
1.0
 40
2.0
 40
2.0
 40
2.0
 40
3.0
 40
3.0
 40
3.0
 40
4.0
 40
4.0
 40
4.0
 40
4.0
 10
92.54256048414267
 20
144.6341611334024
 10
92.54256048414267
 20
143.2881614393667
 10
93.304271598428
 20
142.2722021105438
 10
94.39636758770186
 20
142.2722021105438
 10
95.46296985356679
 20
142.2722021105438
 10
96.2632660627413
 20
143.2754145776623
 10
96.2632660627413
 20
144.6596548568113
 10
96.2632660627413
 20
145.7007633992673
 10
95.74236728173749
 20
147.0088670179654
 10
94.42186131111077
 20
147.0088670179654
 10
93.11375769241272
 20
147.0088670179654
 10
92.54256048414267
 20
145.7896469214227
 10
92.54256048414267
 20
144.6341611334024
 97
        0
 75
     2
 76
     1
 98
        0
  0
SPLINE
  5
CE
330
B1
100
AcDbEntity
  8
Calque 1
370
     0
100
AcDbSpline
210
0.0
220
0.0
230
1.0
 70
    11
 71
     3
 72
    59
 73
    55
 74
     0
 42
0.0000000001
 43
0.0000000001
 40
0.0
 40
0.0
 40
0.0
 40
0.0
 40
1.0
 40
1.0
 40
1.0
 40
2.0
 40
2.0
 40
2.0
 40
3.0
 40
3.0
 40
3.0
 40
4.0
 40
4.0
 40
4.0
 40
5.0
 40
5.0
 40
5.0
 40
6.0
 40
6.0
 40
6.0
 40
7.0
 40
7.0
 40
7.0
 40
8.0
 40
8.0
 40
8.0
 40
9.0
 40
9.0
 40
9.0
 40
10.0
 40
10.0
 40
10.0
 40
11.0
 40
11.0
 40
11.0
 40
12.0
 40
12.0
 40
12.0
 40
13.0
 40
13.0
 40
13.0
 40
14.0
 40
14.0
 40
14.0
 40
15.0
 40
15.0
 40
15.0
 40
16.0
 40
16.0
 40
16.0
 40
17.0
 40
17.0
 40
17.0
 40
18.0
 40
18.0
 40
18.0
 40
18.0
 10
101.4195438770826
 20
142.8437438285897
 30
0.0
 10
101.7371818903666
 20
142.6532299225744
 30
0.0
 10
102.4609969293144
 20
142.3359364190661
 30
0.0
 10
103.2482017670086
 20
142.3359364190661
 30
0.0
 10
104.6703381214952
 20
142.3359364190661
 30
0.0
 10
105.1275025939767
 20
143.2375185023247
 30
0.0
 10
105.1151002420481
 20
143.9358398178636
 30
0.0
 10
105.1023533803436
 20
145.0913256058839
 30
0.0
 10
104.0609003281118
 20
145.5867306634788
 30
0.0
 10
102.9815512005424
 20
145.5867306634788
 30
0.0
 10
102.9815512005424
 20
145.5867306634788
 30
0.0
 10
102.3593665454545
 20
145.5867306634788
 30
0.0
 10
102.3593665454545
 20
145.5867306634788
 30
0.0
 10
102.3593665454545
 20
145.5867306634788
 30
0.0
 10
102.3593665454545
 20
146.4245784382151
 30
0.0
 10
102.3593665454545
 20
146.4245784382151
 30
0.0
 10
102.3593665454545
 20
146.4245784382151
 30
0.0
 10
102.9815512005424
 20
146.4245784382151
 30
0.0
 10
102.9815512005424
 20
146.4245784382151
 30
0.0
 10
103.7942497616455
 20
146.4245784382151
 30
0.0
 10
104.8229559521729
 20
146.843846835359
 30
0.0
 10
104.8229559521729
 20
147.8215655790685
 30
0.0
 10
104.8229559521729
 20
148.4819908192698
 30
0.0
 10
104.403687555029
 20
149.0659348892443
 30
0.0
 10
103.3753258742774
 20
149.0659348892443
 30
0.0
 10
102.7149006340761
 20
149.0659348892443
 30
0.0
 10
102.0799691172838
 20
148.7737905993691
 30
0.0
 10
101.7244350286622
 20
148.5198868946074
 30
0.0
 10
101.7244350286622
 20
148.5198868946074
 30
0.0
 10
101.4195438770826
 20
149.3325854557105
 30
0.0
 10
101.4195438770826
 20
149.3325854557105
 30
0.0
 10
101.8643059976354
 20
149.6502234689946
 30
0.0
 10
102.7021537723717
 20
149.9675169725029
 30
0.0
 10
103.5909889939258
 20
149.9675169725029
 30
0.0
 10
105.2163861161321
 20
149.9675169725029
 30
0.0
 10
105.9529480167843
 20
149.0025450904978
 30
0.0
 10
105.9529480167843
 20
147.9993326233794
 30
0.0
 10
105.9529480167843
 20
147.1356466154584
 30
0.0
 10
105.4323937455563
 20
146.4118315765106
 30
0.0
 10
104.4291812784379
 20
146.0435506261845
 30
0.0
 10
104.4291812784379
 20
146.0435506261845
 30
0.0
 10
104.4291812784379
 20
146.0184014125514
 30
0.0
 10
104.4291812784379
 20
146.0184014125514
 30
0.0
 10
105.4451406072608
 20
145.8278875065361
 30
0.0
 10
106.2578391683639
 20
145.065831882475
 30
0.0
 10
106.2705860300684
 20
143.9103460944546
 30
0.0
 10
106.2705860300684
 20
142.5898401238279
 30
0.0
 10
105.2291329778366
 20
141.4343543358076
 30
0.0
 10
103.2609486287131
 20
141.4343543358076
 30
0.0
 10
102.3338728220456
 20
141.4343543358076
 30
0.0
 10
101.5211742609424
 20
141.7261541159069
 30
0.0
 10
101.1149972352787
 20
141.9928046823732
 30
0.0
 10
101.1149972352787
 20
141.9928046823732
 30
0.0
 10
101.4195438770826
 20
142.8437438285897
 30
0.0
 10
101.4195438770826
 20
142.8437438285897
 30
0.0
  0
HATCH
  5
CF
330
B1
100
AcDbEntity
  8
Calque 1
 62
   179
420
  1709851
100
AcDbHatch
 10
0.0
 20
0.0
 30
0.0
210
0.0
220
0.0
230
1.0
  2
SOLID
 70
     1
 71
     0
 91
        1
 92
        1
 93
        1
 72
     4
 94
        3
 73
     0
 74
     1
 95
       59
 96
       55
 40
0.0
 40
0.0
 40
0.0
 40
0.0
 40
1.0
 40
1.0
 40
1.0
 40
2.0
 40
2.0
 40
2.0
 40
3.0
 40
3.0
 40
3.0
 40
4.0
 40
4.0
 40
4.0
 40
5.0
 40
5.0
 40
5.0
 40
6.0
 40
6.0
 40
6.0
 40
7.0
 40
7.0
 40
7.0
 40
8.0
 40
8.0
 40
8.0
 40
9.0
 40
9.0
 40
9.0
 40
10.0
 40
10.0
 40
10.0
 40
11.0
 40
11.0
 40
11.0
 40
12.0
 40
12.0
 40
12.0
 40
13.0
 40
13.0
 40
13.0
 40
14.0
 40
14.0
 40
14.0
 40
15.0
 40
15.0
 40
15.0
 40
16.0
 40
16.0
 40
16.0
 40
17.0
 40
17.0
 40
17.0
 40
18.0
 40
18.0
 40
18.0
 40
18.0
 10
101.4195438770826
 20
142.8437438285897
 10
101.7371818903666
 20
142.6532299225744
 10
102.4609969293144
 20
142.3359364190661
 10
103.2482017670086
 20
142.3359364190661
 10
104.6703381214952
 20
142.3359364190661
 10
105.1275025939767
 20
143.2375185023247
 10
105.1151002420481
 20
143.9358398178636
 10
105.1023533803436
 20
145.0913256058839
 10
104.0609003281118
 20
145.5867306634788
 10
102.9815512005424
 20
145.5867306634788
 10
102.9815512005424
 20
145.5867306634788
 10
102.3593665454545
 20
145.5867306634788
 10
102.3593665454545
 20
145.5867306634788
 10
102.3593665454545
 20
145.5867306634788
 10
102.3593665454545
 20
146.4245784382151
 10
102.3593665454545
 20
146.4245784382151
 10
102.3593665454545
 20
146.4245784382151
 10
102.9815512005424
 20
146.4245784382151
 10
102.9815512005424
 20
146.4245784382151
 10
103.7942497616455
 20
146.4245784382151
 10
104.8229559521729
 20
146.843846835359
 10
104.8229559521729
 20
147.8215655790685
 10
104.8229559521729
 20
148.4819908192698
 10
104.403687555029
 20
149.0659348892443
 10
103.3753258742774
 20
149.0659348892443
 10
102.7149006340761
 20
149.0659348892443
 10
102.0799691172838
 20
148.7737905993691
 10
101.7244350286622
 20
148.5198868946074
 10
101.7244350286622
 20
148.5198868946074
 10
101.4195438770826
 20
149.3325854557105
 10
101.4195438770826
 20
149.3325854557105
 10
101.8643059976354
 20
149.6502234689946
 10
102.7021537723717
 20
149.9675169725029
 10
103.5909889939258
 20
149.9675169725029
 10
105.2163861161321
 20
149.9675169725029
 10
105.9529480167843
 20
149.0025450904978
 10
105.9529480167843
 20
147.9993326233794
 10
105.9529480167843
 20
147.1356466154584
 10
105.4323937455563
 20
146.4118315765106
 10
104.4291812784379
 20
146.0435506261845
 10
104.4291812784379
 20
146.0435506261845
 10
104.4291812784379
 20
146.0184014125514
 10
104.4291812784379
 20
146.0184014125514
 10
105.4451406072608
 20
145.8278875065361
 10
106.2578391683639
 20
145.065831882475
 10
106.2705860300684
 20
143.9103460944546
 10
106.2705860300684
 20
142.5898401238279
 10
105.2291329778366
 20
141.4343543358076
 10
103.2609486287131
 20
141.4343543358076
 10
102.3338728220456
 20
141.4343543358076
 10
101.5211742609424
 20
141.7261541159069
 10
101.1149972352787
 20
141.9928046823732
 10
101.1149972352787
 20
141.9928046823732
 10
101.4195438770826
 20
142.8437438285897
 10
101.4195438770826
 20
142.8437438285897
 97
        0
 75
     2
 76
     1
 98
        0
  0
ENDBLK
  5
B4
330
B1
100
AcDbEntity
  8
0
100
AcDbBlockEnd
  0
ENDSEC
  0
SECTION
  2
ENTITIES
  0
INSERT
  5
3D
330
1F
100
AcDbEntity
  8
Calque 1
100
AcDbBlockReference
  2
block 2
 10
0.0
 20
0.0
 30
0.0
  0
INSERT
  5
45
330
1F
100
AcDbEntity
  8
Calque 1
100
AcDbBlockReference
  2
block 3
 10
0.0
 20
0.0
 30
0.0
  0
INSERT
  5
4D
330
1F
100
AcDbEntity
  8
Calque 1
100
AcDbBlockReference
  2
block 4
 10
0.0
 20
0.0
 30
0.0
  0
INSERT
  5
55
330
1F
100
AcDbEntity
  8
Calque 1
100
AcDbBlockReference
  2
block 5
 10
0.0
 20
0.0
 30
0.0
  0
INSERT
  5
5A
330
1F
100
AcDbEntity
  8
Calque 1
100
AcDbBlockReference
  2
block 6
 10
0.0
 20
0.0
 30
0.0
  0
INSERT
  5
5F
330
1F
100
AcDbEntity
  8
Calque 1
100
AcDbBlockReference
  2
block 7
 10
0.0
 20
0.0
 30
0.0
  0
SPLINE
  5
66
330
1F
100
AcDbEntity
  8
Calque 1
 62
     7
420
 16777215
370
    25
100
AcDbSpline
210
0.0
220
0.0
230
1.0
 70
    11
 71
     3
 72
    17
 73
    13
 74
     0
 42
0.0000000001
 43
0.0000000001
 40
0.0
 40
0.0
 40
0.0
 40
0.0
 40
1.0
 40
1.0
 40
1.0
 40
2.0
 40
2.0
 40
2.0
 40
3.0
 40
3.0
 40
3.0
 40
4.0
 40
4.0
 40
4.0
 40
4.0
 10
58.2338654419296
 20
54.54933338978958
 30
0.0
 10
58.2338654419296
 20
53.72113188877559
 30
0.0
 10
57.56224363401498
 20
53.04933782597306
 30
0.0
 10
56.73386987811308
 20
53.04933782597306
 30
0.0
 10
55.9054961222112
 20
53.04933782597306
 30
0.0
 10
55.23387431429656
 20
53.72113188877559
 30
0.0
 10
55.23387431429656
 20
54.54933338978958
 30
0.0
 10
55.23387431429656
 20
55.37787940057937
 30
0.0
 10
55.9054961222112
 20
56.0493289536061
 30
0.0
 10
56.73386987811308
 20
56.0493289536061
 30
0.0
 10
57.56224363401498
 20
56.0493289536061
 30
0.0
 10
58.2338654419296
 20
55.37787940057937
 30
0.0
 10
58.2338654419296
 20
54.54933338978958
 30
0.0
  0
INSERT
  5
68
330
1F
100
AcDbEntity
  8
Calque 1
100
AcDbBlockReference
  2
block 8
 10
0.0
 20
0.0
 30
0.0
  0
INSERT
  5
87
330
1F
100
AcDbEntity
  8
Calque 1
100
AcDbBlockReference
  2
block 9
 10
0.0
 20
0.0
 30
0.0
  0
INSERT
  5
8C
330
1F
100
AcDbEntity
  8
Calque 1
100
AcDbBlockReference
  2
block 10
 10
0.0
 20
0.0
 30
0.0
  0
INSERT
  5
91
330
1F
100
AcDbEntity
  8
Calque 1
100
AcDbBlockReference
  2
block 11
 10
0.0
 20
0.0
 30
0.0
  0
INSERT
  5
99
330
1F
100
AcDbEntity
  8
Calque 1
100
AcDbBlockReference
  2
block 12
 10
0.0
 20
0.0
 30
0.0
  0
INSERT
  5
A1
330
1F
100
AcDbEntity
  8
Calque 1
100
AcDbBlockReference
  2
block 13
 10
0.0
 20
0.0
 30
0.0
  0
INSERT
  5
A9
330
1F
100
AcDbEntity
  8
Calque 1
100
AcDbBlockReference
  2
block 14
 10
0.0
 20
0.0
 30
0.0
  0
SPLINE
  5
B0
330
1F
100
AcDbEntity
  8
Calque 1
 62
     7
420
 16777215
370
    25
100
AcDbSpline
210
0.0
220
0.0
230
1.0
 70
    11
 71
     3
 72
    17
 73
    13
 74
     0
 42
0.0000000001
 43
0.0000000001
 40
0.0
 40
0.0
 40
0.0
 40
0.0
 40
1.0
 40
1.0
 40
1.0
 40
2.0
 40
2.0
 40
2.0
 40
3.0
 40
3.0
 40
3.0
 40
4.0
 40
4.0
 40
4.0
 40
4.0
 10
149.0214931281666
 20
139.7999999594306
 30
0.0
 10
148.1929471173768
 20
139.7999999594306
 30
0.0
 10
147.5214975643501
 20
140.4717940222331
 30
0.0
 10
147.5214975643501
 20
141.299995523247
 30
0.0
 10
147.5214975643501
 20
142.1285415340369
 30
0.0
 10
148.1929471173768
 20
142.7999910870636
 30
0.0
 10
149.0214931281666
 20
142.7999910870636
 30
0.0
 10
149.8500391389564
 20
142.7999910870636
 30
0.0
 10
150.5214886919831
 20
142.1285415340369
 30
0.0
 10
150.5214886919831
 20
141.299995523247
 30
0.0
 10
150.5214886919831
 20
140.4717940222331
 30
0.0
 10
149.8500391389564
 20
139.7999999594306
 30
0.0
 10
149.0214931281666
 20
139.7999999594306
 30
0.0
  0
INSERT
  5
B2
330
1F
100
AcDbEntity
  8
Calque 1
100
AcDbBlockReference
  2
block 15
 10
0.0
 20
0.0
 30
0.0
  0
ENDSEC
  0
SECTION
  2
OBJECTS
  0
DICTIONARY
  5
C
330
0
100
AcDbDictionary
281
     1
  3
ACAD_GROUP
350
D
  3
ACAD_LAYOUT
350
1A
  3
ACAD_MLINESTYLE
350
17
  3
ACAD_PLOTSETTINGS
350
19
  3
ACAD_PLOTSTYLENAME
350
E
  3
ACAD_TABLESTYLE
350
D0
  3
ACAD_VISUALSTYLE
350
2A
  0
DICTIONARY
  5
D
102
{ACAD_REACTORS
330
C
102
}
330
C
100
AcDbDictionary
281
     1
  0
DICTIONARY
  5
1A
102
{ACAD_REACTORS
330
C
102
}
330
C
100
AcDbDictionary
281
     1
  3
Layout1
350
1E
  3
Layout2
350
26
  3
Model
350
22
  0
DICTIONARY
  5
17
102
{ACAD_REACTORS
330
C
102
}
330
C
100
AcDbDictionary
281
     1
  3
Standard
350
18
  0
DICTIONARY
  5
19
102
{ACAD_REACTORS
330
C
102
}
330
C
100
AcDbDictionary
281
     1
  0
ACDBDICTIONARYWDFLT
  5
E
102
{ACAD_REACTORS
330
C
102
}
330
C
100
AcDbDictionary
281
     1
  3
Normal
350
F
100
AcDbDictionaryWithDefault
340
F
  0
DICTIONARY
  5
D0
102
{ACAD_REACTORS
330
C
102
}
330
C
100
AcDbDictionary
281
     1
  0
DICTIONARY
  5
2A
102
{ACAD_REACTORS
330
C
102
}
330
C
100
AcDbDictionary
281
     1
  3
2dWireframe
350
2F
  3
3D Hidden
350
31
  3
3dWireframe
350
30
  3
Basic
350
32
  3
Brighten
350
36
  3
ColorChange
350
3A
  3
Conceptual
350
34
  3
Dim
350
35
  3
Facepattern
350
39
  3
Flat
350
2B
  3
FlatWithEdges
350
2C
  3
Gouraud
350
2D
  3
GouraudWithEdges
350
2E
  3
Linepattern
350
38
  3
Realistic
350
33
  3
Thicken
350
37
  0
LAYOUT
  5
1E
102
{ACAD_REACTORS
330
1A
102
}
330
1A
100
AcDbPlotSettings
  1

  2
none_device
  4

  6

 40
0.0
 41
0.0
 42
0.0
 43
0.0
 44
0.0
 45
0.0
 46
0.0
 47
0.0
 48
0.0
 49
0.0
140
0.0
141
0.0
142
1.0
143
1.0
 70
   688
 72
     0
 73
     0
 74
     5
  7

 75
    16
 76
     0
 77
     2
 78
   300
147
1.0
148
0.0
149
0.0
100
AcDbLayout
  1
Layout1
 70
     1
 71
     1
 10
0.0
 20
0.0
 11
12.0
 21
9.0
 12
0.0
 22
0.0
 32
0.0
 14
1.000000000000000E+20
 24
1.000000000000000E+20
 34
1.000000000000000E+20
 15
-1.000000000000000E+20
 25
-1.000000000000000E+20
 35
-1.000000000000000E+20
146
0.0
 13
0.0
 23
0.0
 33
0.0
 16
1.0
 26
0.0
 36
0.0
 17
0.0
 27
1.0
 37
0.0
 76
     0
330
1B
  0
LAYOUT
  5
26
102
{ACAD_REACTORS
330
1A
102
}
330
1A
100
AcDbPlotSettings
  1

  2
none_device
  4

  6

 40
0.0
 41
0.0
 42
0.0
 43
0.0
 44
0.0
 45
0.0
 46
0.0
 47
0.0
 48
0.0
 49
0.0
140
0.0
141
0.0
142
1.0
143
1.0
 70
   688
 72
     0
 73
     0
 74
     5
  7

 75
    16
 76
     0
 77
     2
 78
   300
147
1.0
148
0.0
149
0.0
100
AcDbLayout
  1
Layout2
 70
     1
 71
     2
 10
0.0
 20
0.0
 11
0.0
 21
0.0
 12
0.0
 22
0.0
 32
0.0
 14
0.0
 24
0.0
 34
0.0
 15
0.0
 25
0.0
 35
0.0
146
0.0
 13
0.0
 23
0.0
 33
0.0
 16
1.0
 26
0.0
 36
0.0
 17
0.0
 27
1.0
 37
0.0
 76
     0
330
23
  0
LAYOUT
  5
22
102
{ACAD_REACTORS
330
1A
102
}
330
1A
100
AcDbPlotSettings
  1

  2
none_device
  4

  6

 40
0.0
 41
0.0
 42
0.0
 43
0.0
 44
0.0
 45
0.0
 46
0.0
 47
0.0
 48
0.0
 49
0.0
140
0.0
141
0.0
142
1.0
143
1.0
 70
  1712
 72
     0
 73
     0
 74
     0
  7

 75
     0
 76
     0
 77
     2
 78
   300
147
1.0
148
0.0
149
0.0
100
AcDbLayout
  1
Model
 70
     1
 71
     0
 10
0.0
 20
0.0
 11
12.0
 21
9.0
 12
0.0
 22
0.0
 32
0.0
 14
1.000000000000000E+20
 24
1.000000000000000E+20
 34
1.000000000000000E+20
 15
-1.000000000000000E+20
 25
-1.000000000000000E+20
 35
-1.000000000000000E+20
146
0.0
 13
0.0
 23
0.0
 33
0.0
 16
1.0
 26
0.0
 36
0.0
 17
0.0
 27
1.0
 37
0.0
 76
     0
330
1F
331
29
  0
MLINESTYLE
  5
18
102
{ACAD_REACTORS
330
17
102
}
330
17
100
AcDbMlineStyle
  2
Standard
 70
     0
  3

 62
   256
 51
90.0
 52
90.0
 71
     2
 49
0.5
 62
   256
  6
BYLAYER
 49
-0.5
 62
   256
  6
BYLAYER
  0
ACDBPLACEHOLDER
  5
F
102
{ACAD_REACTORS
330
E
102
}
330
E
  0
VISUALSTYLE
  5
2F
102
{ACAD_REACTORS
330
2A
102
}
330
2A
100
AcDbVisualStyle
  2
2dWireframe
 70
     4
 71
     0
 72
     2
 73
     0
 90
        0
 40
-0.6
 41
-30.0
 62
     5
 63
     7
421
 16777215
 74
     1
 91
        4
 64
     7
 65
   257
 75
     1
175
     1
 42
1.0
 92
        0
 66
   257
 43
1.0
 76
     1
 77
     6
 78
     2
 67
     7
 79
     5
170
     0
171
     0
290
     0
174
     0
 93
        1
 44
0.0
173
     0
291
     0
 45
0.0
1001
ACAD
1000
AcDbSavedByObjectVersion
1070
     0
  0
VISUALSTYLE
  5
31
102
{ACAD_REACTORS
330
2A
102
}
330
2A
100
AcDbVisualStyle
  2
3D Hidden
 70
     6
 71
     1
 72
     2
 73
     2
 90
        0
 40
-0.6
 41
-30.0
 62
     5
 63
     7
421
 16777215
 74
     2
 91
        2
 64
     7
 65
   257
 75
     2
175
     1
 42
40.0
 92
        0
 66
   257
 43
1.0
 76
     1
 77
     6
 78
     2
 67
     7
 79
     3
170
     0
171
     0
290
     0
174
     0
 93
        1
 44
0.0
173
     0
291
     0
 45
0.0
1001
ACAD
1000
AcDbSavedByObjectVersion
1070
     0
  0
VISUALSTYLE
  5
30
102
{ACAD_REACTORS
330
2A
102
}
330
2A
100
AcDbVisualStyle
  2
3dWireframe
 70
     5
 71
     0
 72
     2
 73
     0
 90
        0
 40
-0.6
 41
-30.0
 62
     5
 63
     7
421
 16777215
 74
     1
 91
        4
 64
     7
 65
   257
 75
     1
175
     1
 42
1.0
 92
        0
 66
   257
 43
1.0
 76
     1
 77
     6
 78
     2
 67
     7
 79
     5
170
     0
171
     0
290
     0
174
     0
 93
        1
 44
0.0
173
     0
291
     0
 45
0.0
1001
ACAD
1000
AcDbSavedByObjectVersion
1070
     0
  0
VISUALSTYLE
  5
32
102
{ACAD_REACTORS
330
2A
102
}
330
2A
100
AcDbVisualStyle
  2
Basic
 70
     7
 71
     1
 72
     0
 73
     1
 90
        0
 40
-0.6
 41
-30.0
 62
     5
 63
     7
421
 16777215
 74
     0
 91
        4
 64
     7
 65
   257
 75
     1
175
     1
 42
1.0
 92
        8
 66
     7
 43
1.0
 76
     1
 77
     6
 78
     2
 67
     7
 79
     5
170
     0
171
     0
290
     0
174
     0
 93
        1
 44
0.0
173
     0
291
     1
 45
0.0
1001
ACAD
1000
AcDbSavedByObjectVersion
1070
     0
  0
VISUALSTYLE
  5
36
102
{ACAD_REACTORS
330
2A
102
}
330
2A
100
AcDbVisualStyle
  2
Brighten
 70
    12
 71
     2
 72
     2
 73
     0
 90
        0
 40
-0.6
 41
-30.0
 62
     5
 63
     7
421
 16777215
 74
     1
 91
        4
 64
     7
 65
   257
 75
     1
175
     1
 42
1.0
 92
        8
 66
     7
 43
1.0
 76
     1
 77
     6
 78
     2
 67
     7
 79
     5
170
     0
171
     0
290
     0
174
     0
 93
        1
 44
50.0
173
     0
291
     1
 45
0.0
1001
ACAD
1000
AcDbSavedByObjectVersion
1070
     0
  0
VISUALSTYLE
  5
3A
102
{ACAD_REACTORS
330
2A
102
}
330
2A
100
AcDbVisualStyle
  2
ColorChange
 70
    16
 71
     2
 72
     2
 73
     3
 90
        0
 40
-0.6
 41
-30.0
 62
     5
 63
     8
421
  8421504
 74
     1
 91
        4
 64
     7
 65
   257
 75
     1
175
     1
 42
1.0
 92
        8
 66
     8
424
  8421504
 43
1.0
 76
     1
 77
     6
 78
     2
 67
     7
 79
     5
170
     0
171
     0
290
     0
174
     0
 93
        1
 44
0.0
173
     0
291
     1
 45
0.0
1001
ACAD
1000
AcDbSavedByObjectVersion
1070
     0
  0
VISUALSTYLE
  5
34
102
{ACAD_REACTORS
330
2A
102
}
330
2A
100
AcDbVisualStyle
  2
Conceptual
 70
     9
 71
     3
 72
     2
 73
     0
 90
        0
 40
-0.6
 41
-30.0
 62
     5
 63
     7
421
 16777215
 74
     2
 91
        2
 64
     7
 65
   257
 75
     1
175
     1
 42
40.0
 92
        8
 66
     7
 43
1.0
 76
     1
 77
     6
 78
     2
 67
     7
 79
     3
170
     0
171
     0
290
     0
174
     0
 93
        1
 44
0.0
173
     0
291
     0
 45
0.0
1001
ACAD
1000
AcDbSavedByObjectVersion
1070
     0
  0
VISUALSTYLE
  5
35
102
{ACAD_REACTORS
330
2A
102
}
330
2A
100
AcDbVisualStyle
  2
Dim
 70
    11
 71
     2
 72
     2
 73
     0
 90
        0
 40
-0.6
 41
-30.0
 62
     5
 63
     7
421
 16777215
 74
     1
 91
        4
 64
     7
 65
   257
 75
     1
175
     1
 42
1.0
 92
        8
 66
     7
 43
1.0
 76
     1
 77
     6
 78
     2
 67
     7
 79
     5
170
     0
171
     0
290
     0
174
     0
 93
        1
 44
-50.0
173
     0
291
     1
 45
0.0
1001
ACAD
1000
AcDbSavedByObjectVersion
1070
     0
  0
VISUALSTYLE
  5
39
102
{ACAD_REACTORS
330
2A
102
}
330
2A
100
AcDbVisualStyle
  2
Facepattern
 70
    15
 71
     2
 72
     2
 73
     0
 90
        0
 40
-0.6
 41
-30.0
 62
     5
 63
     7
421
 16777215
 74
     1
 91
        4
 64
     7
 65
   257
 75
     1
175
     1
 42
1.0
 92
        8
 66
     7
 43
1.0
 76
     1
 77
     6
 78
     2
 67
     7
 79
     5
170
     0
171
     0
290
     0
174
     0
 93
        1
 44
0.0
173
     0
291
     1
 45
0.0
1001
ACAD
1000
AcDbSavedByObjectVersion
1070
     0
  0
VISUALSTYLE
  5
2B
102
{ACAD_REACTORS
330
2A
102
}
330
2A
100
AcDbVisualStyle
  2
Flat
 70
     0
 71
     2
 72
     1
 73
     1
 90
        2
 40
-0.6
 41
30.0
 62
     5
 63
     7
421
 16777215
 74
     0
 91
        4
 64
     7
 65
   257
 75
     1
175
     1
 42
1.0
 92
        8
 66
     7
 43
1.0
 76
     1
 77
     6
 78
     2
 67
     7
 79
     5
170
     0
171
     0
290
     0
174
     0
 93
       13
 44
0.0
173
     0
291
     1
 45
0.0
1001
ACAD
1000
AcDbSavedByObjectVersion
1070
     0
  0
VISUALSTYLE
  5
2C
102
{ACAD_REACTORS
330
2A
102
}
330
2A
100
AcDbVisualStyle
  2
FlatWithEdges
 70
     1
 71
     2
 72
     1
 73
     1
 90
        2
 40
-0.6
 41
30.0
 62
     5
 63
     7
421
 16777215
 74
     1
 91
        4
 64
     7
 65
   257
 75
     1
175
     1
 42
1.0
 92
        0
 66
   257
 43
1.0
 76
     1
 77
     6
 78
     2
 67
     7
 79
     5
170
     0
171
     0
290
     0
174
     0
 93
       13
 44
0.0
173
     0
291
     1
 45
0.0
1001
ACAD
1000
AcDbSavedByObjectVersion
1070
     0
  0
VISUALSTYLE
  5
2D
102
{ACAD_REACTORS
330
2A
102
}
330
2A
100
AcDbVisualStyle
  2
Gouraud
 70
     2
 71
     2
 72
     2
 73
     1
 90
        2
 40
-0.6
 41
30.0
 62
     5
 63
     7
421
 16777215
 74
     0
 91
        4
 64
     7
 65
   257
 75
     1
175
     1
 42
1.0
 92
        0
 66
     7
 43
1.0
 76
     1
 77
     6
 78
     2
 67
     7
 79
     5
170
     0
171
     0
290
     0
174
     0
 93
       13
 44
0.0
173
     0
291
     1
 45
0.0
1001
ACAD
1000
AcDbSavedByObjectVersion
1070
     0
  0
VISUALSTYLE
  5
2E
102
{ACAD_REACTORS
330
2A
102
}
330
2A
100
AcDbVisualStyle
  2
GouraudWithEdges
 70
     3
 71
     2
 72
     2
 73
     1
 90
        2
 40
-0.6
 41
30.0
 62
     5
 63
     7
421
 16777215
 74
     1
 91
        4
 64
     7
 65
   257
 75
     1
175
     1
 42
1.0
 92
        0
 66
   257
 43
1.0
 76
     1
 77
     6
 78
     2
 67
     7
 79
     5
170
     0
171
     0
290
     0
174
     0
 93
       13
 44
0.0
173
     0
291
     1
 45
0.0
1001
ACAD
1000
AcDbSavedByObjectVersion
1070
     0
  0
VISUALSTYLE
  5
38
102
{ACAD_REACTORS
330
2A
102
}
330
2A
100
AcDbVisualStyle
  2
Linepattern
 70
    14
 71
     2
 72
     2
 73
     0
 90
        0
 40
-0.6
 41
-30.0
 62
     5
 63
     7
421
 16777215
 74
     1
 91
        4
 64
     7
 65
   257
 75
     7
175
     7
 42
1.0
 92
        8
 66
     7
 43
1.0
 76
     1
 77
     6
 78
     2
 67
     7
 79
     5
170
     0
171
     0
290
     0
174
     0
 93
        1
 44
0.0
173
     0
291
     1
 45
0.0
1001
ACAD
1000
AcDbSavedByObjectVersion
1070
     0
  0
VISUALSTYLE
  5
33
102
{ACAD_REACTORS
330
2A
102
}
330
2A
100
AcDbVisualStyle
  2
Realistic
 70
     8
 71
     2
 72
     2
 73
     0
 90
        0
 40
-0.6
 41
-30.0
 62
     5
 63
     7
421
 16777215
 74
     1
 91
        0
 64
     7
 65
   257
 75
     1
175
     1
 42
1.0
 92
        8
 66
     8
424
  7895160
 43
1.0
 76
     1
 77
     6
 78
     2
 67
     7
 79
     5
170
     0
171
     0
290
     0
174
     0
 93
       13
 44
0.0
173
     0
291
     0
 45
0.0
1001
ACAD
1000
AcDbSavedByObjectVersion
1070
     0
  0
VISUALSTYLE
  5
37
102
{ACAD_REACTORS
330
2A
102
}
330
2A
100
AcDbVisualStyle
  2
Thicken
 70
    13
 71
     2
 72
     2
 73
     0
 90
        0
 40
-0.6
 41
-30.0
 62
     5
 63
     7
421
 16777215
 74
     1
 91
        4
 64
     7
 65
   257
 75
     1
175
     1
 42
1.0
 92
       12
 66
     7
 43
1.0
 76
     1
 77
     6
 78
     2
 67
     7
 79
     5
170
     0
171
     0
290
     0
174
     0
 93
        1
 44
0.0
173
     0
291
     1
 45
0.0
1001
ACAD
1000
AcDbSavedByObjectVersion
1070
     0
  0
ENDSEC
  0
EOF
